<?xml version="1.0" encoding="UTF-8" standalone="no"?>
<!DOCTYPE svg PUBLIC "-//W3C//DTD SVG 1.1//EN" "http://www.w3.org/Graphics/SVG/1.1/DTD/svg11.dtd">
<svg width="100%" height="100%" viewBox="0 0 300 300" version="1.1" xmlns="http://www.w3.org/2000/svg" xmlns:xlink="http://www.w3.org/1999/xlink" xml:space="preserve" xmlns:serif="http://www.serif.com/" style="fill-rule:evenodd;clip-rule:evenodd;stroke-linejoin:round;stroke-miterlimit:1.41421;">
    <path d="M124.807,171.875C110.99,192.218 96.91,205.6 93.99,215.816C91.325,225.136 111.455,244.046 124.807,228.371C133.11,218.624 133.681,201.946 124.807,171.875Z" style="fill:#fff;"/>
    <path d="M188.87,150C175.053,170.343 160.973,183.725 158.052,193.941C155.388,203.261 175.517,222.171 188.87,206.496C197.172,196.749 197.744,180.071 188.87,150Z" style="fill:#fff;"/>
    <path d="M152.932,95.313C139.115,115.656 125.035,129.037 122.115,139.254C119.45,148.574 139.58,167.483 152.932,151.808C161.235,142.061 161.806,125.384 152.932,95.313Z" style="fill:#fff;"/>
</svg>
