<?xml version="1.0" encoding="UTF-8" standalone="no"?>
<!DOCTYPE svg PUBLIC "-//W3C//DTD SVG 1.1//EN" "http://www.w3.org/Graphics/SVG/1.1/DTD/svg11.dtd">
<svg width="100%" height="100%" viewBox="0 0 300 300" version="1.1" xmlns="http://www.w3.org/2000/svg" xmlns:xlink="http://www.w3.org/1999/xlink" xml:space="preserve" xmlns:serif="http://www.serif.com/" style="fill-rule:evenodd;clip-rule:evenodd;stroke-linejoin:round;stroke-miterlimit:1.41421;">
    <path d="M144.504,154.607C144.257,155.379 142.96,155.966 143.328,158.972C143.328,158.972 148.625,163.643 154.918,165.35C160.485,166.861 168.518,168.34 168.518,168.34C186.47,171.624 208.098,172.038 216.355,189.805C219.92,197.475 219.526,206.78 215.032,214.207C210.643,221.462 200.55,227.492 195.844,230.103C193.205,231.567 189.35,231.008 186.795,229.872C184.24,228.736 181.524,225.893 180.514,223.287C179.503,220.682 179.612,216.791 180.732,214.24C181.852,211.688 184.776,209.714 187.234,207.978C190.477,205.686 197.849,205.848 200.188,200.491C203.895,192.002 188.391,185.303 179.055,182.167C167.295,178.217 154.81,176.195 143.936,169.819C140.542,167.828 137.386,164.998 136.36,160.944C136.36,160.944 135.556,155.462 138.173,151.816C140.853,148.082 147.182,146.155 149.718,145.387C151.026,144.991 153.082,146.289 153.392,147.204C153.701,148.119 152.625,150.005 151.574,150.878C150.143,152.067 145.985,153.718 144.807,154.34C144.688,154.403 144.545,154.479 144.504,154.607Z" style="fill:#fff;fill-rule:nonzero;"/>
    <path d="M118.722,157.614C118.543,158.217 117.284,159.976 117.884,160.955C119.44,163.496 122.797,167.795 128.064,172.864C128.572,173.361 128.571,173.36 129.076,173.862C137.804,182.741 140.793,197.706 125.561,212.214C117.205,220.172 102.391,227.365 95.962,230.271C93.23,231.506 89.481,230.892 86.989,229.646C84.496,228.401 81.912,225.444 81.01,222.799C80.108,220.154 80.366,216.275 81.577,213.776C82.788,211.278 85.67,209.278 88.274,207.809C95.372,203.802 117.271,204.093 124.164,189.739C124.164,189.739 124.561,185.424 122.111,181.868C116.195,173.279 103.637,164.819 112.237,153.814C116.247,148.682 125.436,146.623 128.906,145.522C130.329,145.071 132.669,146.316 133.057,147.209C133.444,148.102 131.914,150.119 131.233,150.879C130.693,151.483 129.691,151.396 128.974,151.773C126.929,152.85 121.491,154.608 118.962,157.339C118.934,157.37 118.757,157.498 118.722,157.614Z" style="fill:#fff;fill-rule:nonzero;"/>
</svg>
