<?xml version="1.0" encoding="UTF-8" standalone="no"?>
<!DOCTYPE svg PUBLIC "-//W3C//DTD SVG 1.1//EN" "http://www.w3.org/Graphics/SVG/1.1/DTD/svg11.dtd">
<svg width="100%" height="100%" viewBox="0 0 300 300" version="1.1" xmlns="http://www.w3.org/2000/svg" xmlns:xlink="http://www.w3.org/1999/xlink" xml:space="preserve" xmlns:serif="http://www.serif.com/" style="fill-rule:evenodd;clip-rule:evenodd;stroke-linejoin:round;stroke-miterlimit:1.41421;">
    <path d="M142.811,181.763L132.324,163.12L111.833,157.485L113.981,149.256L126.454,152.686L119.843,140.934L127.032,136.674L133.643,148.426L136.985,135.625L145.003,137.83L139.513,158.86L150,177.503L160.487,158.86L154.997,137.83L163.015,135.625L166.357,148.426L172.968,136.674L180.157,140.934L173.546,152.686L186.019,149.256L188.167,157.485L167.676,163.12L157.189,181.763L178.164,181.763L193.164,166.367C195.121,168.375 197.077,170.383 199.034,172.391L189.903,181.763L203.125,181.763L203.125,190.282L189.903,190.282L199.034,199.653L193.164,205.677C188.156,200.537 183.037,195.509 178.115,190.282L157.189,190.282L167.676,208.925L188.167,214.56C187.451,217.303 186.735,220.046 186.019,222.789L173.546,219.359L180.157,231.111L172.968,235.37L166.357,223.618L163.015,236.419L154.997,234.214C156.83,227.193 158.514,220.129 160.463,213.141L150,194.541L139.513,213.184L145.003,234.214C142.33,234.949 139.658,235.684 136.985,236.419L133.643,223.618L127.032,235.37L119.843,231.111L126.454,219.359L113.981,222.789L111.833,214.56C118.674,212.678 125.477,210.642 132.348,208.882L142.811,190.282L121.836,190.282L106.836,205.677L100.966,199.653L110.097,190.282L96.875,190.282L96.875,181.763L110.097,181.763L100.966,172.391L106.836,166.367L121.836,181.763L142.811,181.763Z" style="fill:#fff;fill-rule:nonzero;"/>
</svg>
