<?xml version="1.0" encoding="UTF-8" standalone="no"?>
<!DOCTYPE svg PUBLIC "-//W3C//DTD SVG 1.1//EN" "http://www.w3.org/Graphics/SVG/1.1/DTD/svg11.dtd">
<svg width="100%" height="100%" viewBox="0 0 300 300" version="1.1" xmlns="http://www.w3.org/2000/svg" xmlns:xlink="http://www.w3.org/1999/xlink" xml:space="preserve" xmlns:serif="http://www.serif.com/" style="fill-rule:evenodd;clip-rule:evenodd;stroke-linejoin:round;stroke-miterlimit:1.41421;">
    <path d="M116.392,200.237C118.506,200.479 118.606,201.047 120.076,201.811C124.535,204.024 130.038,203.929 135.45,204.212C157.461,205.361 180.173,201.529 201.218,206.804C207.396,208.353 214.259,214.169 209.155,219.019C205.781,222.226 200.878,218.558 196.808,217.765C173.313,213.186 148.193,219.169 122.738,214.615C118.026,213.772 112.402,212.367 110.636,208.441C109.042,204.896 111.284,200.405 115.946,200.221C116.095,200.226 116.243,200.232 116.392,200.237Z" style="fill:#fff;fill-rule:nonzero;"/>
    <path d="M90.161,174.006C92.275,174.247 92.375,174.816 93.844,175.579C98.304,177.792 103.807,177.698 109.219,177.98C131.23,179.13 153.942,175.297 174.987,180.573C181.165,182.121 188.028,187.937 182.923,192.788C179.549,195.994 174.647,192.327 170.576,191.533C147.081,186.954 121.962,192.938 96.507,188.384C90.637,187.334 82.772,185.073 83.998,178.715C84.513,176.041 86.357,174.122 89.715,173.989C89.864,173.995 90.012,174 90.161,174.006Z" style="fill:#fff;fill-rule:nonzero;"/>
    <path d="M111.146,149.523C113.26,149.765 113.361,150.334 114.83,151.097C119.289,153.31 124.792,153.215 130.204,153.498C152.215,154.647 174.927,150.814 195.972,156.09C202.142,157.637 209.013,163.455 203.908,168.305C200.534,171.512 195.632,167.844 191.561,167.051C168.066,162.472 142.947,168.455 117.492,163.901C112.78,163.058 107.156,161.653 105.39,157.726C103.796,154.181 106.038,149.691 110.7,149.507C110.849,149.512 110.997,149.518 111.146,149.523Z" style="fill:#fff;fill-rule:nonzero;"/>
</svg>
