<?xml version="1.0" encoding="UTF-8" standalone="no"?>
<!DOCTYPE svg PUBLIC "-//W3C//DTD SVG 1.1//EN" "http://www.w3.org/Graphics/SVG/1.1/DTD/svg11.dtd">
<svg width="100%" height="100%" viewBox="0 0 300 300" version="1.1" xmlns="http://www.w3.org/2000/svg" xmlns:xlink="http://www.w3.org/1999/xlink" xml:space="preserve" xmlns:serif="http://www.serif.com/" style="fill-rule:evenodd;clip-rule:evenodd;stroke-linejoin:round;stroke-miterlimit:1.41421;">
    <path d="M155.104,94.985L159.488,98.136L162.253,102.571L163.15,107.69L161.963,112.88C161.862,113.1 161.728,113.303 161.609,113.515L147.354,139.275L138.009,156.655L153.993,154.274L168.29,152.162C168.29,152.162 174.592,152.552 177.407,156.443C177.407,156.443 178.963,161.992 177.494,165.053L172.623,173.491C167.525,181.8 165.908,184.564 160.436,192.923C146.921,213.564 145.729,215.076 131.306,236.193L127.293,239.481L127.822,234.346L138.293,208.858C145.49,192.028 145.398,191.989 152.864,175.275L154.381,172.042L123.031,176.519C119.213,176.792 115.045,173.743 115.045,173.743C113.062,171.311 112.555,166.997 112.555,166.997C112.738,165.504 112.739,165.502 113.169,164.061L114.936,159.771C122.584,140.503 129.874,121.106 136.952,101.609L140.123,97.286L144.598,94.593L149.781,93.75C151.556,94.158 153.445,94.235 155.104,94.985Z" style="fill:#fff;fill-rule:nonzero;"/>
</svg>
