<?xml version="1.0" encoding="UTF-8" standalone="no"?>
<!DOCTYPE svg PUBLIC "-//W3C//DTD SVG 1.1//EN" "http://www.w3.org/Graphics/SVG/1.1/DTD/svg11.dtd">
<svg width="100%" height="100%" viewBox="0 0 300 300" version="1.1" xmlns="http://www.w3.org/2000/svg" xmlns:xlink="http://www.w3.org/1999/xlink" xml:space="preserve" xmlns:serif="http://www.serif.com/" style="fill-rule:evenodd;clip-rule:evenodd;stroke-linejoin:round;stroke-miterlimit:1.41421;">
    <path d="M137.5,187.303L137.5,112.5L162.5,112.5L162.5,187.303C171.758,191.908 178.125,201.466 178.125,212.5C178.125,228.023 165.523,240.625 150,240.625C134.477,240.625 121.875,228.023 121.875,212.5C121.875,201.466 128.242,191.908 137.5,187.303ZM142.188,192.064L142.188,117.188L157.813,117.188L157.813,192.064C166.032,195.211 171.875,203.179 171.875,212.5C171.875,224.573 162.073,234.375 150,234.375C137.927,234.375 128.125,224.573 128.125,212.5C128.125,203.179 133.968,195.211 142.188,192.064Z" style="fill:#fff;"/>
    <path d="M146.875,197.188L146.875,137.5L153.125,137.5L153.125,197.188C160.253,198.637 165.625,204.946 165.625,212.5C165.625,221.124 158.624,228.125 150,228.125C141.376,228.125 134.375,221.124 134.375,212.5C134.375,204.946 139.747,198.637 146.875,197.188Z" style="fill:#fff;"/>
</svg>
