<?xml version="1.0" encoding="UTF-8" standalone="no"?>
<!DOCTYPE svg PUBLIC "-//W3C//DTD SVG 1.1//EN" "http://www.w3.org/Graphics/SVG/1.1/DTD/svg11.dtd">
<svg width="100%" height="100%" viewBox="0 0 300 300" version="1.1" xmlns="http://www.w3.org/2000/svg" xmlns:xlink="http://www.w3.org/1999/xlink" xml:space="preserve" xmlns:serif="http://www.serif.com/" style="fill-rule:evenodd;clip-rule:evenodd;stroke-linecap:round;stroke-linejoin:round;stroke-miterlimit:1.5;">
    <circle cx="212.5" cy="87.5" r="65.625" style="fill:none;stroke:#ffb900;stroke-width:12.5px;"/>
    <circle cx="212.5" cy="87.5" r="65.625" style="fill:url(#_Radial1);"/>
    <path d="M169.156,100.271L169.457,100.277L169.759,100.284L170.06,100.295L170.36,100.308L170.659,100.323L170.956,100.341L171.254,100.361L171.552,100.385L171.849,100.41L172.144,100.438L172.439,100.469L172.734,100.503L173.027,100.539L173.32,100.577L173.612,100.619L173.904,100.663L174.195,100.71L174.484,100.759L174.773,100.812L175.061,100.867L175.349,100.925L175.635,100.985L175.921,101.049L176.206,101.115L176.489,101.184L176.772,101.256L177.055,101.331L177.334,101.408L177.615,101.488L177.895,101.572L178.173,101.658L178.45,101.748L178.725,101.84L178.999,101.934L179.274,102.033L179.547,102.134L179.818,102.238L180.087,102.344L180.357,102.454L180.625,102.567L180.89,102.682L181.155,102.801L181.419,102.922L181.681,103.047L181.942,103.174L182.202,103.305L182.461,103.438L182.717,103.574L182.971,103.713L183.225,103.856L183.477,104L183.728,104.149L183.976,104.299L184.223,104.453L184.469,104.61L184.714,104.77L184.955,104.932L185.195,105.097L185.434,105.265L185.67,105.436L185.905,105.61L186.138,105.786L186.37,105.966L186.599,106.148L186.826,106.332L187.052,106.52L187.276,106.71L187.498,106.903L187.717,107.098L187.935,107.296L188.151,107.497L188.364,107.7L188.576,107.906L188.786,108.115L188.993,108.326L189.199,108.539L189.403,108.755L189.604,108.973L189.803,109.195L190.001,109.418L190.196,109.644L190.389,109.872L190.58,110.103L190.769,110.335L190.956,110.57L191.14,110.808L191.323,111.048L191.504,111.29L191.682,111.534L191.858,111.781L192.033,112.03L192.205,112.281L192.375,112.535L192.543,112.79L192.709,113.047L192.873,113.307L193.035,113.569L193.194,113.833L193.352,114.099L193.508,114.368L193.661,114.638L193.813,114.91L193.962,115.185L194.11,115.462L194.256,115.741L194.399,116.021L194.541,116.304L194.681,116.59L194.818,116.876L194.954,117.165L195.088,117.456L195.219,117.749L195.349,118.045L195.477,118.341L195.603,118.64L195.728,118.942L195.85,119.245L195.97,119.549L196.089,119.857L196.205,120.166L196.32,120.477L196.433,120.79L196.544,121.105L196.653,121.422L196.761,121.741L196.866,122.063L196.97,122.387L197.072,122.711L197.172,123.038L197.271,123.368L197.368,123.699L197.463,124.032L197.556,124.367L197.647,124.705L197.737,125.044L197.825,125.386L197.911,125.729L197.996,126.074L198.079,126.422L198.16,126.772L198.239,127.123L198.317,127.476L198.393,127.833L198.468,128.19L198.54,128.549L198.612,128.912L198.681,129.276L198.749,129.642L198.815,130.01L198.879,130.38L198.942,130.753L199.003,131.128L199.063,131.504L199.121,131.882L199.177,132.263L199.232,132.647L199.285,133.032L199.336,133.419L199.386,133.808L199.434,134.2L199.481,134.594L199.526,134.99L199.57,135.388L199.612,135.788L199.652,136.19L199.691,136.595L199.728,137.002L199.763,137.411L199.797,137.822L199.83,138.235L199.861,138.651L199.89,139.07L199.918,139.489L199.944,139.912L199.969,140.336L200.006,141.028L199.988,141.552L199.977,141.815L199.965,142.077L199.951,142.339L199.936,142.6L199.919,142.86L199.901,143.12L199.882,143.378L199.861,143.636L199.838,143.894L199.814,144.15L199.788,144.406L199.762,144.661L199.733,144.915L199.703,145.169L199.672,145.421L199.639,145.673L199.605,145.924L199.57,146.174L199.532,146.424L199.494,146.673L199.454,146.921L199.413,147.168L199.37,147.414L199.326,147.66L199.28,147.905L199.233,148.149L199.185,148.392L199.135,148.635L199.083,148.877L199.031,149.117L198.977,149.356L198.921,149.596L198.864,149.835L198.806,150.072L198.747,150.308L198.686,150.544L198.623,150.779L198.56,151.014L198.495,151.246L198.428,151.479L198.36,151.71L198.291,151.941L198.221,152.172L198.149,152.4L198.076,152.627L198.002,152.855L197.926,153.082L197.849,153.307L197.77,153.532L197.691,153.754L197.61,153.978L197.527,154.2L197.444,154.421L197.359,154.64L197.273,154.86L197.185,155.079L197.097,155.295L197.007,155.511L196.916,155.727L196.823,155.942L196.729,156.155L196.634,156.368L196.538,156.58L196.44,156.791L196.342,157L196.242,157.21L196.141,157.418L196.039,157.624L195.935,157.83L195.831,158.035L195.725,158.239L195.618,158.442L195.509,158.645L195.4,158.845L195.29,159.045L195.178,159.244L195.065,159.443L194.951,159.64L194.837,159.836L194.72,160.031L194.603,160.226L194.484,160.419L194.364,160.612L194.244,160.802L194.123,160.992L194,161.182L193.876,161.37L193.751,161.557L193.625,161.743L193.498,161.928L193.37,162.113L193.241,162.295L193.11,162.478L192.979,162.658L192.847,162.838L192.714,163.017L192.58,163.195L192.444,163.372L192.308,163.548L192.171,163.723L192.033,163.896L191.894,164.068L191.754,164.24L191.613,164.411L191.471,164.581L191.328,164.749L191.185,164.916L191.04,165.082L190.894,165.248L190.747,165.413L190.6,165.576L190.452,165.737L190.303,165.898L190.153,166.058L190.001,166.218L189.849,166.375L189.698,166.531L189.544,166.688L189.389,166.843L189.234,166.996L189.078,167.149L188.921,167.3L188.763,167.45L188.606,167.599L188.446,167.748L188.286,167.895L188.125,168.041L187.963,168.187L187.801,168.33L187.638,168.473L187.474,168.615L187.311,168.755L187.145,168.895L186.978,169.034L186.812,169.171L186.645,169.307L186.476,169.443L186.307,169.578L186.137,169.711L185.968,169.843L185.797,169.974L185.625,170.104L185.453,170.233L185.28,170.361L185.107,170.487L184.932,170.614L184.757,170.738L184.582,170.862L184.405,170.985L184.228,171.106L184.052,171.226L183.874,171.345L183.696,171.463L183.516,171.581L183.336,171.698L183.155,171.813L182.976,171.926L182.794,172.04L182.611,172.152L182.43,172.262L182.246,172.372L182.063,172.481L181.879,172.588L181.693,172.696L181.508,172.801L181.322,172.906L181.136,173.009L180.95,173.111L180.762,173.213L180.574,173.314L180.386,173.413L180.198,173.51L180.009,173.608L179.818,173.704L179.629,173.799L179.438,173.893L179.246,173.987L179.055,174.079L178.863,174.169L178.671,174.259L178.479,174.348L178.285,174.436L178.09,174.523L177.898,174.608L177.704,174.693L177.508,174.777L177.312,174.86L177.117,174.941L176.921,175.022L176.724,175.101L176.528,175.18L176.33,175.258L176.133,175.334L175.936,175.409L175.736,175.484L175.538,175.557L175.34,175.63L175.14,175.701L174.94,175.772L174.741,175.841L174.54,175.909L174.339,175.977L174.139,176.043L173.938,176.108L173.735,176.173L173.535,176.235L173.332,176.298L173.129,176.359L172.928,176.419L172.724,176.479L172.521,176.537L172.318,176.594L172.113,176.65L171.91,176.705L171.705,176.76L171.5,176.813L171.297,176.865L171.091,176.916L170.885,176.966L170.68,177.015L170.475,177.064L170.269,177.111L170.062,177.157L169.856,177.202L169.65,177.246L169.442,177.29L169.236,177.332L169.029,177.373L168.822,177.413L168.615,177.452L168.406,177.49L168.198,177.528L167.991,177.564L167.782,177.599L167.574,177.633L167.364,177.667L167.156,177.699L166.947,177.73L166.739,177.76L166.53,177.79L166.32,177.818L166.111,177.845L165.902,177.872L165.691,177.897L165.482,177.922L165.272,177.945L165.061,177.967L164.852,177.989L164.642,178.009L164.432,178.029L164.222,178.047L164.011,178.065L163.799,178.081L163.59,178.097L163.179,178.125L46.401,178.125L46.141,178.124L45.88,178.122L45.62,178.119L45.36,178.115L45.101,178.109L44.842,178.103L44.585,178.095L44.329,178.086L44.073,178.077L43.818,178.066L43.563,178.054L43.309,178.04L43.056,178.026L42.804,178.011L42.552,177.994L42.301,177.977L42.051,177.958L41.801,177.938L41.553,177.917L41.305,177.895L41.057,177.872L40.812,177.848L40.567,177.822L40.321,177.796L40.076,177.768L39.833,177.739L39.591,177.71L39.349,177.679L39.108,177.647L38.868,177.614L38.628,177.579L38.388,177.544L38.15,177.508L37.913,177.47L37.677,177.432L37.441,177.392L37.206,177.351L36.971,177.309L36.737,177.266L36.505,177.222L36.273,177.177L36.042,177.13L35.811,177.083L35.581,177.034L35.352,176.985L35.125,176.934L34.897,176.882L34.67,176.829L34.444,176.775L34.219,176.72L33.995,176.664L33.771,176.606L33.548,176.548L33.327,176.488L33.104,176.427L32.885,176.366L32.666,176.303L32.446,176.239L32.229,176.174L32.011,176.107L31.795,176.04L31.58,175.972L31.365,175.902L31.15,175.832L30.937,175.76L30.726,175.687L30.513,175.613L30.302,175.538L30.094,175.463L29.885,175.385L29.675,175.307L29.468,175.227L29.263,175.147L29.057,175.066L28.852,174.983L28.648,174.899L28.444,174.814L28.241,174.728L28.04,174.641L27.841,174.554L27.64,174.464L27.442,174.374L27.244,174.283L27.046,174.19L26.851,174.097L26.656,174.002L26.461,173.907L26.267,173.809L26.075,173.711L25.884,173.613L25.692,173.513L25.502,173.411L25.314,173.31L25.125,173.206L24.939,173.102L24.753,172.997L24.567,172.89L24.382,172.783L24.198,172.674L24.016,172.564L23.836,172.454L23.655,172.342L23.474,172.229L23.295,172.115L23.119,172.001L22.943,171.885L22.767,171.768L22.592,171.65L22.417,171.53L22.245,171.41L22.073,171.29L21.902,171.167L21.733,171.044L21.563,170.92L21.396,170.795L21.229,170.669L21.063,170.541L20.899,170.413L20.735,170.284L20.572,170.153L20.411,170.023L20.25,169.89L20.091,169.756L19.933,169.623L19.775,169.487L19.619,169.351L19.463,169.214L19.31,169.076L19.156,168.937L19.004,168.796L18.853,168.655L18.704,168.514L18.555,168.371L18.407,168.227L18.261,168.082L18.116,167.937L17.971,167.79L17.828,167.643L17.685,167.493L17.545,167.344L17.405,167.194L17.266,167.042L17.129,166.891L16.994,166.739L16.858,166.584L16.723,166.429L16.591,166.274L16.458,166.116L16.328,165.959L16.199,165.802L16.07,165.643L15.943,165.482L15.818,165.323L15.693,165.161L15.569,164.998L15.447,164.835L15.326,164.671L15.206,164.507L15.087,164.341L14.969,164.174L14.853,164.008L14.738,163.84L14.624,163.671L14.511,163.502L14.4,163.332L14.289,163.16L14.18,162.989L14.073,162.817L13.965,162.643L13.86,162.469L13.756,162.295L13.653,162.12L13.551,161.943L13.45,161.766L13.351,161.59L13.253,161.412L13.156,161.233L13.06,161.054L12.966,160.874L12.873,160.693L12.781,160.511L12.69,160.33L12.6,160.147L12.512,159.964L12.425,159.78L12.339,159.596L12.255,159.411L12.171,159.224L12.09,159.039L12.009,158.852L11.929,158.665L11.851,158.476L11.774,158.287L11.698,158.099L11.623,157.909L11.549,157.717L11.477,157.527L11.407,157.337L11.338,157.146L11.269,156.952L11.202,156.759L11.136,156.566L11.071,156.372L11.007,156.177L10.945,155.983L10.884,155.787L10.824,155.591L10.766,155.395L10.709,155.199L10.653,155.002L10.597,154.803L10.544,154.604L10.491,154.406L10.44,154.207L10.39,154.007L10.341,153.807L10.294,153.608L10.248,153.407L10.203,153.205L10.159,153.003L10.116,152.801L10.074,152.598L10.034,152.396L9.995,152.193L9.958,151.989L9.921,151.786L9.885,151.58L9.851,151.375L9.818,151.171L9.787,150.966L9.756,150.759L9.726,150.552L9.698,150.347L9.671,150.139L9.645,149.931L9.621,149.725L9.597,149.517L9.575,149.307L9.554,149.099L9.534,148.891L9.515,148.68L9.498,148.472L9.481,148.261L9.466,148.051L9.452,147.841L9.439,147.63L9.428,147.418L9.417,147.208L9.408,146.996L9.4,146.784L9.393,146.571L9.387,146.358L9.382,146.146L9.379,145.933L9.376,145.719L9.375,145.498L9.375,145.331L9.377,145.155L9.381,144.981L9.386,144.808L9.393,144.632L9.401,144.455L9.411,144.278L9.422,144.1L9.435,143.924L9.449,143.745L9.464,143.565L9.481,143.385L9.499,143.203L9.519,143.021L9.54,142.837L9.562,142.652L9.585,142.47L9.61,142.283L9.636,142.094L9.664,141.906L9.693,141.718L9.723,141.528L9.754,141.335L9.787,141.142L9.821,140.949L9.857,140.755L9.894,140.559L9.932,140.361L9.971,140.163L10.012,139.965L10.054,139.764L10.098,139.563L10.142,139.361L10.189,139.157L10.236,138.953L10.285,138.747L10.335,138.542L10.386,138.334L10.44,138.125L10.494,137.916L10.55,137.706L10.607,137.495L10.665,137.282L10.725,137.069L10.786,136.856L10.849,136.641L10.913,136.425L10.979,136.209L11.046,135.992L11.115,135.773L11.185,135.554L11.256,135.336L11.328,135.115L11.403,134.893L11.478,134.673L11.556,134.451L11.635,134.227L11.715,134.003L11.797,133.779L11.88,133.555L11.965,133.33L12.051,133.104L12.139,132.878L12.228,132.652L12.319,132.424L12.412,132.196L12.506,131.967L12.601,131.74L12.699,131.511L12.798,131.282L12.898,131.053L13,130.823L13.104,130.593L13.21,130.362L13.317,130.132L13.425,129.902L13.536,129.671L13.648,129.44L13.761,129.209L13.877,128.978L13.994,128.747L14.113,128.516L14.234,128.284L14.356,128.054L14.48,127.823L14.606,127.591L14.734,127.361L14.863,127.13L14.994,126.9L15.128,126.669L15.263,126.438L15.399,126.21L15.538,125.979L15.679,125.75L15.821,125.521L15.965,125.292L16.111,125.065L16.26,124.836L16.41,124.608L16.562,124.382L16.716,124.156L16.872,123.93L17.03,123.705L17.19,123.48L17.352,123.255L17.515,123.033L17.682,122.81L17.85,122.588L18.02,122.367L18.193,122.147L18.367,121.927L18.544,121.708L18.723,121.49L18.904,121.273L19.087,121.058L19.272,120.844L19.459,120.63L19.649,120.417L19.841,120.206L20.035,119.995L20.231,119.786L20.431,119.577L20.632,119.371L20.834,119.166L21.041,118.962L21.248,118.76L21.459,118.559L21.672,118.359L21.886,118.161L22.104,117.964L22.324,117.77L22.546,117.576L22.771,117.385L22.998,117.195L23.228,117.008L23.46,116.822L23.695,116.637L23.932,116.455L24.171,116.275L24.413,116.098L24.658,115.922L24.904,115.748L25.155,115.576L25.406,115.407L25.66,115.24L25.918,115.075L26.178,114.913L26.439,114.754L26.704,114.597L26.972,114.442L27.241,114.291L27.513,114.142L27.788,113.995L28.065,113.851L28.344,113.711L28.626,113.573L28.911,113.438L29.198,113.307L29.486,113.179L29.779,113.053L30.073,112.931L30.36,112.815L30.518,112.754L30.669,112.696L30.82,112.639L30.97,112.584L31.121,112.529L31.273,112.475L31.426,112.422L31.578,112.37L31.732,112.319L31.887,112.268L32.041,112.219L32.197,112.17L32.353,112.122L32.508,112.075L32.668,112.029L32.825,111.984L32.981,111.94L33.141,111.897L33.302,111.854L33.46,111.813L33.62,111.773L33.781,111.734L33.943,111.695L34.105,111.658L34.267,111.621L34.43,111.586L34.593,111.551L34.756,111.518L34.921,111.485L35.087,111.454L35.251,111.423L35.417,111.394L35.584,111.365L35.749,111.338L35.918,111.311L36.085,111.286L36.252,111.261L36.422,111.238L36.59,111.216L36.76,111.194L36.931,111.174L37.101,111.155L37.272,111.137L37.442,111.12L37.613,111.104L37.786,111.089L37.958,111.075L38.132,111.062L38.306,111.05L38.479,111.039L38.653,111.03L38.828,111.021L39.001,111.014L39.176,111.007L39.354,111.002L39.53,110.998L39.704,110.995L39.882,110.993L40.061,110.992L40.237,110.992L40.414,110.993L40.593,110.996L40.772,110.999L40.951,111.004L41.129,111.01L41.31,111.016L41.491,111.025L41.67,111.034L41.85,111.044L42.031,111.055L42.214,111.068L42.394,111.081L42.576,111.096L42.759,111.112L42.943,111.129L43.125,111.147L43.307,111.166L43.491,111.186L43.675,111.208L43.859,111.23L44.043,111.254L44.229,111.279L44.415,111.305L44.598,111.332L44.783,111.36L44.971,111.39L45.158,111.42L45.342,111.452L45.529,111.485L45.717,111.519L45.905,111.554L46.092,111.59L46.28,111.628L46.469,111.666L46.658,111.706L46.846,111.747L47.034,111.789L47.224,111.832L47.414,111.877L47.604,111.922L47.793,111.969L47.984,112.017L48.176,112.066L48.365,112.115L48.557,112.167L48.748,112.219L48.94,112.273L49.133,112.328L49.325,112.384L49.517,112.441L49.71,112.499L49.904,112.559L50.097,112.619L50.29,112.681L50.484,112.744L50.679,112.808L50.873,112.873L51.068,112.94L51.262,113.007L51.458,113.076L51.654,113.146L51.85,113.217L52.045,113.289L52.241,113.362L52.438,113.437L52.636,113.513L52.832,113.59L53.029,113.668L53.228,113.748L53.425,113.828L53.624,113.91L53.823,113.993L54.022,114.078L54.22,114.163L54.419,114.249L54.62,114.337L54.819,114.426L55.019,114.516L55.221,114.608L55.421,114.7L55.621,114.793L55.823,114.888L56.026,114.985L56.227,115.082L56.277,115.107L56.295,114.971L56.342,114.62L56.391,114.271L56.442,113.922L56.494,113.574L56.547,113.228L56.602,112.883L56.658,112.539L56.716,112.196L56.775,111.855L56.836,111.514L56.898,111.174L56.961,110.836L57.026,110.499L57.092,110.163L57.16,109.829L57.229,109.495L57.3,109.163L57.372,108.832L57.445,108.501L57.52,108.172L57.596,107.844L57.674,107.518L57.753,107.192L57.834,106.868L57.916,106.546L57.999,106.223L58.084,105.902L58.17,105.584L58.257,105.265L58.346,104.947L58.437,104.632L58.528,104.318L58.621,104.004L58.716,103.692L58.812,103.381L58.909,103.071L59.008,102.762L59.108,102.455L59.209,102.149L59.312,101.844L59.416,101.54L59.522,101.238L59.629,100.936L59.737,100.637L59.847,100.338L59.958,100.04L60.07,99.744L60.184,99.449L60.3,99.155L60.416,98.864L60.534,98.572L60.653,98.281L60.774,97.993L60.896,97.705L61.019,97.419L61.144,97.135L61.27,96.851L61.398,96.568L61.526,96.287L61.656,96.008L61.787,95.73L61.92,95.452L62.055,95.176L62.19,94.902L62.327,94.629L62.465,94.357L62.605,94.086L62.745,93.817L62.887,93.549L63.031,93.282L63.176,93.017L63.322,92.753L63.469,92.49L63.618,92.23L63.768,91.97L63.919,91.711L64.072,91.454L64.226,91.198L64.381,90.944L64.538,90.69L64.696,90.438L64.854,90.189L65.015,89.94L65.177,89.692L65.34,89.446L65.504,89.202L65.67,88.958L65.837,88.716L66.005,88.476L66.175,88.236L66.345,87.999L66.517,87.763L66.69,87.528L66.865,87.295L67.041,87.063L67.218,86.832L67.396,86.603L67.576,86.376L67.756,86.15L67.938,85.926L68.121,85.703L68.306,85.48L68.492,85.26L68.679,85.042L68.867,84.825L69.056,84.609L69.247,84.395L69.439,84.182L69.632,83.972L69.826,83.762L70.022,83.554L70.218,83.347L70.416,83.143L70.615,82.939L70.815,82.737L71.016,82.537L71.219,82.339L71.423,82.141L71.628,81.946L71.833,81.753L72.04,81.56L72.249,81.369L72.458,81.18L72.669,80.992L72.88,80.806L73.093,80.622L73.307,80.439L73.522,80.258L73.738,80.079L73.956,79.901L74.174,79.724L74.393,79.55L74.613,79.378L74.836,79.206L75.059,79.036L75.282,78.869L75.507,78.702L75.733,78.538L75.96,78.375L76.187,78.214L76.417,78.054L76.647,77.896L76.878,77.74L77.11,77.586L77.343,77.434L77.577,77.283L77.811,77.134L78.048,76.986L78.286,76.84L78.523,76.696L78.762,76.554L79.002,76.413L79.243,76.274L79.484,76.138L79.727,76.002L79.971,75.869L80.216,75.737L80.461,75.607L80.707,75.479L80.954,75.353L81.203,75.228L81.453,75.105L81.702,74.984L81.952,74.865L82.204,74.747L82.457,74.631L82.711,74.518L82.965,74.406L83.219,74.296L83.475,74.187L83.732,74.08L83.99,73.975L84.248,73.872L84.507,73.771L84.766,73.672L85.028,73.574L85.289,73.479L85.551,73.385L85.813,73.293L86.076,73.203L86.342,73.115L86.607,73.028L86.872,72.944L87.139,72.861L87.406,72.78L87.674,72.701L87.942,72.624L88.212,72.548L88.482,72.475L88.751,72.403L89.022,72.333L89.296,72.265L89.567,72.199L89.84,72.135L90.114,72.073L90.389,72.012L90.664,71.954L90.939,71.897L91.215,71.842L91.492,71.789L91.769,71.738L92.047,71.689L92.326,71.641L92.605,71.596L92.883,71.552L93.164,71.51L93.445,71.47L93.725,71.432L94.006,71.396L94.289,71.362L94.572,71.329L94.855,71.299L95.138,71.27L95.423,71.243L95.707,71.218L95.992,71.195L96.278,71.174L96.563,71.155L96.85,71.137L97.137,71.122L97.424,71.108L97.712,71.096L97.999,71.086L98.287,71.078L98.577,71.072L98.866,71.067L99.15,71.065L99.483,71.064L99.809,71.063L100.135,71.063L100.459,71.065L100.782,71.067L101.103,71.07L101.424,71.074L101.743,71.078L102.061,71.084L102.378,71.091L102.694,71.098L103.01,71.107L103.324,71.116L103.636,71.126L103.947,71.137L104.258,71.15L104.568,71.163L104.876,71.177L105.183,71.192L105.49,71.207L105.795,71.224L106.099,71.242L106.402,71.261L106.703,71.281L107.005,71.302L107.305,71.323L107.604,71.346L107.902,71.37L108.198,71.395L108.495,71.421L108.79,71.448L109.083,71.475L109.376,71.504L109.667,71.534L109.959,71.565L110.249,71.597L110.538,71.63L110.826,71.665L111.113,71.7L111.399,71.736L111.684,71.774L111.968,71.812L112.251,71.852L112.533,71.892L112.815,71.934L113.095,71.977L113.375,72.022L113.653,72.067L113.931,72.113L114.207,72.161L114.483,72.209L114.758,72.259L115.032,72.31L115.305,72.362L115.577,72.416L115.848,72.47L116.119,72.526L116.389,72.583L116.657,72.641L116.924,72.701L117.191,72.761L117.457,72.823L117.722,72.886L117.986,72.95L118.249,73.016L118.512,73.083L118.773,73.151L119.033,73.221L119.294,73.292L119.553,73.364L119.81,73.437L120.067,73.511L120.323,73.587L120.579,73.665L120.833,73.743L121.087,73.823L121.34,73.904L121.591,73.987L121.842,74.071L122.092,74.156L122.342,74.243L122.59,74.331L122.838,74.42L123.084,74.511L123.329,74.603L123.574,74.697L123.818,74.792L124.062,74.888L124.303,74.986L124.544,75.085L124.785,75.186L125.024,75.288L125.263,75.391L125.5,75.496L125.737,75.603L125.973,75.71L126.207,75.819L126.442,75.93L126.674,76.042L126.906,76.156L127.138,76.271L127.367,76.387L127.596,76.505L127.825,76.625L128.053,76.746L128.279,76.868L128.504,76.992L128.728,77.117L128.951,77.244L129.174,77.372L129.396,77.502L129.616,77.633L129.836,77.766L130.054,77.9L130.271,78.035L130.488,78.172L130.704,78.311L130.918,78.451L131.131,78.592L131.344,78.735L131.555,78.879L131.766,79.026L131.976,79.173L132.184,79.322L132.391,79.472L132.597,79.624L132.802,79.777L133.006,79.931L133.209,80.087L133.412,80.245L133.612,80.404L133.812,80.564L134.011,80.726L134.209,80.89L134.406,81.055L134.601,81.22L134.795,81.387L134.989,81.557L135.181,81.727L135.373,81.899L135.563,82.072L135.752,82.246L135.94,82.422L136.127,82.6L136.312,82.778L136.497,82.958L136.682,83.14L136.864,83.323L137.046,83.507L137.227,83.693L137.406,83.879L137.584,84.067L137.761,84.257L137.938,84.448L138.112,84.64L138.287,84.833L138.46,85.029L138.632,85.225L138.803,85.422L138.972,85.621L139.141,85.821L139.31,86.023L139.476,86.226L139.642,86.43L139.806,86.635L139.97,86.841L140.132,87.049L140.294,87.259L140.455,87.47L140.614,87.681L140.773,87.894L140.931,88.108L141.088,88.324L141.243,88.54L141.398,88.759L141.551,88.978L141.704,89.198L141.856,89.421L142.007,89.644L142.157,89.868L142.306,90.094L142.454,90.321L142.601,90.549L142.747,90.778L142.892,91.009L143.037,91.241L143.18,91.474L143.323,91.709L143.464,91.944L143.605,92.181L143.745,92.42L143.884,92.659L144.022,92.899L144.16,93.141L144.296,93.384L144.432,93.629L144.567,93.875L144.701,94.122L144.835,94.37L144.967,94.619L145.099,94.87L145.23,95.122L145.36,95.375L145.489,95.63L145.618,95.886L145.746,96.142L145.873,96.401L145.999,96.66L146.125,96.92L146.25,97.183L146.375,97.447L146.498,97.711L146.621,97.977L146.743,98.244L146.865,98.513L146.985,98.782L147.105,99.053L147.225,99.326L147.344,99.6L147.462,99.875L147.579,100.151L147.696,100.428L147.813,100.707L147.928,100.988L148.043,101.269L148.158,101.551L148.272,101.836L148.385,102.122L148.498,102.409L148.61,102.696L148.721,102.986L148.833,103.277L148.943,103.569L149.053,103.863L149.162,104.158L149.185,104.219L149.512,104.1L149.856,103.977L150.198,103.856L150.54,103.736L150.881,103.619L151.221,103.504L151.56,103.39L151.899,103.279L152.236,103.169L152.574,103.061L152.91,102.955L153.245,102.851L153.581,102.749L153.915,102.649L154.248,102.551L154.581,102.455L154.913,102.36L155.244,102.268L155.574,102.178L155.905,102.089L156.233,102.003L156.562,101.918L156.89,101.836L157.217,101.755L157.543,101.677L157.869,101.6L158.193,101.526L158.517,101.454L158.841,101.383L159.164,101.315L159.487,101.248L159.808,101.184L160.129,101.122L160.449,101.062L160.769,101.004L161.088,100.948L161.406,100.895L161.724,100.843L162.041,100.793L162.357,100.746L162.672,100.701L162.987,100.658L163.302,100.617L163.616,100.578L163.929,100.542L164.241,100.508L164.553,100.476L164.864,100.446L165.176,100.418L165.485,100.393L165.794,100.37L166.103,100.349L166.412,100.331L166.719,100.315L167.026,100.301L167.332,100.29L167.637,100.281L167.942,100.274L168.247,100.27L168.551,100.268L168.854,100.268L169.156,100.271ZM99.812,83.563L99.519,83.563L99.23,83.565L99.015,83.567L98.806,83.57L98.599,83.574L98.392,83.58L98.185,83.587L97.979,83.596L97.774,83.606L97.57,83.617L97.366,83.629L97.162,83.643L96.959,83.658L96.758,83.674L96.556,83.692L96.355,83.711L96.155,83.731L95.955,83.753L95.756,83.775L95.559,83.8L95.361,83.825L95.163,83.852L94.967,83.88L94.772,83.909L94.576,83.939L94.381,83.971L94.187,84.004L93.994,84.038L93.801,84.074L93.61,84.111L93.418,84.149L93.227,84.188L93.037,84.229L92.848,84.27L92.659,84.313L92.471,84.358L92.282,84.403L92.097,84.45L91.91,84.498L91.723,84.547L91.539,84.597L91.355,84.649L91.171,84.702L90.987,84.756L90.804,84.811L90.622,84.868L90.441,84.926L90.26,84.985L90.081,85.045L89.901,85.106L89.721,85.169L89.543,85.233L89.365,85.298L89.189,85.364L89.012,85.432L88.835,85.5L88.66,85.57L88.486,85.641L88.313,85.713L88.139,85.787L87.965,85.862L87.793,85.938L87.621,86.015L87.451,86.093L87.281,86.172L87.11,86.253L86.94,86.336L86.772,86.419L86.604,86.503L86.437,86.588L86.27,86.676L86.103,86.764L85.937,86.853L85.773,86.943L85.608,87.035L85.444,87.128L85.281,87.222L85.119,87.317L84.956,87.414L84.794,87.512L84.634,87.61L84.474,87.71L84.314,87.812L84.155,87.914L83.996,88.019L83.838,88.123L83.68,88.23L83.524,88.337L83.368,88.446L83.212,88.556L83.057,88.667L82.903,88.78L82.749,88.893L82.596,89.009L82.443,89.125L82.292,89.242L82.14,89.361L81.989,89.481L81.839,89.602L81.689,89.724L81.54,89.848L81.392,89.973L81.244,90.099L81.097,90.226L80.951,90.355L80.804,90.485L80.659,90.617L80.515,90.748L80.371,90.882L80.227,91.018L80.084,91.154L79.942,91.291L79.801,91.43L79.659,91.571L79.519,91.712L79.38,91.854L79.24,91.999L79.102,92.144L78.965,92.29L78.828,92.438L78.691,92.588L78.555,92.738L78.42,92.89L78.286,93.043L78.152,93.198L78.018,93.354L77.886,93.51L77.755,93.668L77.624,93.828L77.493,93.989L77.363,94.152L77.234,94.315L77.105,94.48L76.978,94.646L76.851,94.814L76.724,94.983L76.599,95.153L76.474,95.325L76.349,95.498L76.226,95.672L76.103,95.847L75.981,96.024L75.86,96.202L75.739,96.382L75.619,96.563L75.5,96.745L75.382,96.928L75.264,97.114L75.147,97.3L75.031,97.488L74.916,97.677L74.801,97.867L74.687,98.059L74.575,98.252L74.462,98.446L74.35,98.643L74.24,98.839L74.13,99.038L74.021,99.238L73.913,99.439L73.805,99.642L73.698,99.846L73.593,100.051L73.488,100.257L73.384,100.465L73.28,100.676L73.178,100.886L73.076,101.097L72.975,101.312L72.875,101.527L72.776,101.743L72.678,101.96L72.581,102.179L72.484,102.4L72.389,102.622L72.294,102.844L72.2,103.069L72.107,103.295L72.016,103.521L71.924,103.751L71.834,103.981L71.745,104.212L71.656,104.445L71.569,104.679L71.483,104.914L71.397,105.151L71.312,105.39L71.229,105.629L71.146,105.87L71.065,106.112L70.984,106.356L70.904,106.601L70.825,106.847L70.747,107.095L70.671,107.344L70.595,107.595L70.52,107.846L70.446,108.1L70.373,108.355L70.301,108.61L70.231,108.867L70.161,109.127L70.092,109.387L70.025,109.648L69.958,109.911L69.892,110.175L69.828,110.441L69.764,110.707L69.702,110.975L69.64,111.245L69.58,111.516L69.521,111.788L69.463,112.062L69.406,112.337L69.35,112.613L69.295,112.891L69.241,113.17L69.189,113.451L69.137,113.732L69.087,114.015L69.038,114.299L68.99,114.585L68.943,114.872L68.897,115.161L68.852,115.451L68.809,115.742L68.766,116.034L68.725,116.328L68.685,116.624L68.646,116.92L68.609,117.217L68.572,117.516L68.537,117.818L68.503,118.119L68.47,118.422L68.438,118.727L68.408,119.032L68.378,119.339L68.35,119.648L68.323,119.958L68.298,120.269L68.273,120.581L68.25,120.894L68.228,121.21L68.208,121.526L68.188,121.843L68.17,122.163L68.153,122.483L68.138,122.805L68.123,123.127L68.11,123.451L68.099,123.777L68.088,124.104L68.079,124.431L68.071,124.761L68.064,125.091L68.059,125.423L67.969,133.075L64.164,135.016L58.007,130.663L57.824,130.535L57.643,130.408L57.462,130.283L57.282,130.159L57.103,130.037L56.924,129.916L56.746,129.796L56.569,129.678L56.392,129.561L56.215,129.445L56.04,129.331L55.866,129.218L55.691,129.106L55.517,128.995L55.345,128.886L55.173,128.778L55.001,128.671L54.83,128.566L54.659,128.461L54.49,128.358L54.322,128.257L54.153,128.157L53.986,128.057L53.819,127.96L53.653,127.863L53.488,127.768L53.322,127.673L53.158,127.58L52.995,127.489L52.832,127.399L52.669,127.309L52.507,127.221L52.347,127.134L52.186,127.048L52.027,126.964L51.868,126.881L51.709,126.798L51.553,126.718L51.395,126.638L51.239,126.559L51.083,126.482L50.928,126.405L50.774,126.33L50.62,126.256L50.468,126.183L50.317,126.112L50.164,126.041L50.013,125.971L49.863,125.903L49.714,125.836L49.565,125.769L49.418,125.705L49.27,125.641L49.122,125.577L48.976,125.516L48.831,125.455L48.686,125.395L48.542,125.336L48.4,125.279L48.257,125.223L48.114,125.167L47.973,125.113L47.833,125.06L47.692,125.007L47.552,124.955L47.414,124.905L47.277,124.856L47.14,124.808L47.002,124.76L46.866,124.713L46.731,124.668L46.597,124.624L46.463,124.581L46.329,124.538L46.196,124.496L46.065,124.456L45.934,124.416L45.803,124.377L45.673,124.34L45.544,124.303L45.416,124.267L45.288,124.232L45.161,124.198L45.033,124.164L44.907,124.132L44.783,124.101L44.657,124.07L44.533,124.04L44.411,124.012L44.289,123.984L44.166,123.956L44.043,123.93L43.923,123.905L43.804,123.88L43.684,123.856L43.565,123.833L43.447,123.811L43.331,123.79L43.214,123.769L43.095,123.749L42.98,123.73L42.867,123.712L42.752,123.695L42.636,123.678L42.524,123.662L42.413,123.647L42.3,123.633L42.188,123.619L42.078,123.606L41.968,123.594L41.858,123.582L41.748,123.571L41.641,123.562L41.534,123.552L41.427,123.544L41.319,123.536L41.214,123.528L41.109,123.522L41.003,123.516L40.898,123.511L40.795,123.506L40.692,123.502L40.589,123.499L40.487,123.496L40.385,123.494L40.286,123.493L40.184,123.492L40.083,123.492L39.986,123.492L39.887,123.493L39.787,123.495L39.688,123.498L39.594,123.5L39.497,123.504L39.399,123.508L39.303,123.513L39.208,123.518L39.112,123.524L39.018,123.53L38.925,123.537L38.831,123.545L38.739,123.553L38.646,123.562L38.553,123.571L38.461,123.581L38.37,123.591L38.28,123.602L38.19,123.613L38.099,123.625L38.011,123.637L37.921,123.65L37.832,123.664L37.745,123.677L37.656,123.692L37.569,123.707L37.482,123.723L37.394,123.739L37.309,123.755L37.224,123.772L37.138,123.79L37.052,123.808L36.967,123.826L36.883,123.845L36.799,123.865L36.715,123.884L36.632,123.905L36.548,123.926L36.465,123.947L36.383,123.969L36.303,123.991L36.219,124.014L36.137,124.038L36.058,124.061L35.976,124.085L35.896,124.11L35.816,124.135L35.735,124.161L35.657,124.187L35.577,124.213L35.497,124.24L35.418,124.268L35.34,124.296L35.262,124.324L35.182,124.353L35.105,124.382L35.029,124.412L34.961,124.438L34.798,124.504L34.645,124.567L34.494,124.632L34.342,124.699L34.192,124.768L34.044,124.839L33.896,124.911L33.748,124.985L33.601,125.061L33.456,125.138L33.311,125.218L33.166,125.3L33.023,125.382L32.881,125.466L32.738,125.553L32.597,125.642L32.458,125.731L32.318,125.823L32.178,125.916L32.041,126.011L31.904,126.107L31.767,126.206L31.631,126.306L31.495,126.408L31.36,126.511L31.226,126.616L31.094,126.723L30.961,126.831L30.829,126.942L30.698,127.053L30.568,127.166L30.438,127.281L30.31,127.397L30.181,127.515L30.054,127.635L29.927,127.756L29.801,127.879L29.676,128.002L29.551,128.128L29.427,128.256L29.305,128.383L29.183,128.513L29.062,128.645L28.942,128.778L28.822,128.912L28.703,129.047L28.585,129.184L28.468,129.322L28.352,129.461L28.237,129.602L28.122,129.744L28.008,129.886L27.896,130.03L27.783,130.176L27.672,130.323L27.563,130.469L27.453,130.619L27.345,130.768L27.238,130.918L27.131,131.071L27.026,131.223L26.922,131.377L26.818,131.532L26.715,131.687L26.614,131.842L26.513,132L26.414,132.157L26.315,132.317L26.218,132.475L26.121,132.635L26.025,132.797L25.931,132.958L25.838,133.119L25.744,133.282L25.653,133.445L25.563,133.608L25.473,133.772L25.385,133.936L25.297,134.102L25.212,134.267L25.126,134.432L25.042,134.598L24.959,134.764L24.877,134.931L24.796,135.097L24.717,135.264L24.638,135.432L24.56,135.598L24.484,135.765L24.408,135.933L24.334,136.099L24.261,136.267L24.189,136.433L24.118,136.6L24.048,136.768L23.979,136.934L23.911,137.1L23.845,137.266L23.779,137.433L23.715,137.599L23.652,137.764L23.59,137.929L23.529,138.093L23.469,138.258L23.41,138.421L23.353,138.583L23.297,138.745L23.241,138.909L23.187,139.069L23.134,139.229L23.082,139.39L23.031,139.549L22.981,139.706L22.933,139.863L22.885,140.021L22.839,140.176L22.794,140.33L22.75,140.484L22.707,140.637L22.665,140.788L22.624,140.938L22.585,141.088L22.547,141.235L22.509,141.382L22.473,141.527L22.438,141.672L22.404,141.814L22.371,141.956L22.34,142.095L22.309,142.233L22.279,142.37L22.251,142.504L22.224,142.638L22.198,142.77L22.173,142.899L22.149,143.027L22.126,143.153L22.104,143.278L22.083,143.399L22.063,143.518L22.045,143.636L22.027,143.753L22.01,143.866L21.995,143.975L21.981,144.083L21.967,144.192L21.954,144.294L21.943,144.394L21.932,144.493L21.923,144.587L21.915,144.679L21.907,144.768L21.9,144.854L21.894,144.938L21.889,145.017L21.885,145.093L21.882,145.164L21.879,145.232L21.877,145.299L21.876,145.36L21.875,145.414L21.875,145.474L21.876,145.613L21.877,145.758L21.88,145.903L21.883,146.049L21.887,146.193L21.892,146.336L21.897,146.479L21.904,146.621L21.911,146.764L21.918,146.905L21.927,147.045L21.936,147.186L21.946,147.326L21.957,147.464L21.969,147.604L21.981,147.74L21.994,147.879L22.008,148.016L22.023,148.151L22.038,148.288L22.054,148.424L22.071,148.558L22.088,148.691L22.107,148.826L22.126,148.958L22.145,149.09L22.166,149.222L22.187,149.355L22.209,149.485L22.231,149.614L22.254,149.744L22.278,149.873L22.303,150.002L22.329,150.13L22.354,150.257L22.381,150.384L22.409,150.51L22.437,150.635L22.466,150.761L22.495,150.886L22.526,151.01L22.556,151.133L22.588,151.256L22.62,151.379L22.653,151.5L22.686,151.62L22.721,151.741L22.756,151.861L22.792,151.981L22.828,152.1L22.865,152.218L22.903,152.336L22.941,152.454L22.98,152.57L23.019,152.686L23.06,152.802L23.1,152.916L23.142,153.03L23.185,153.146L23.228,153.26L23.271,153.372L23.315,153.483L23.36,153.596L23.405,153.707L23.451,153.817L23.498,153.928L23.545,154.037L23.594,154.148L23.642,154.255L23.692,154.363L23.742,154.471L23.792,154.578L23.844,154.685L23.896,154.79L23.948,154.896L24.001,155.001L24.055,155.105L24.11,155.209L24.165,155.313L24.221,155.416L24.277,155.518L24.335,155.621L24.392,155.722L24.45,155.822L24.51,155.923L24.57,156.023L24.63,156.122L24.69,156.22L24.752,156.32L24.815,156.418L24.877,156.514L24.941,156.612L25.005,156.709L25.07,156.804L25.135,156.9L25.202,156.995L25.268,157.089L25.336,157.183L25.404,157.277L25.473,157.37L25.543,157.463L25.613,157.555L25.684,157.647L25.756,157.739L25.828,157.829L25.9,157.919L25.975,158.01L26.049,158.1L26.123,158.188L26.199,158.277L26.275,158.365L26.352,158.452L26.431,158.54L26.51,158.627L26.588,158.713L26.668,158.799L26.749,158.885L26.83,158.969L26.912,159.054L26.995,159.138L27.078,159.222L27.163,159.305L27.248,159.388L27.333,159.47L27.42,159.552L27.507,159.634L27.595,159.715L27.683,159.795L27.773,159.876L27.863,159.955L27.954,160.034L28.045,160.113L28.139,160.192L28.232,160.27L28.325,160.347L28.421,160.425L28.516,160.501L28.612,160.577L28.71,160.653L28.808,160.728L28.907,160.803L29.007,160.877L29.107,160.951L29.208,161.025L29.31,161.098L29.413,161.17L29.518,161.243L29.621,161.314L29.727,161.385L29.833,161.455L29.94,161.526L30.049,161.596L30.158,161.666L30.267,161.734L30.376,161.802L30.489,161.871L30.602,161.938L30.714,162.005L30.828,162.071L30.942,162.137L31.058,162.203L31.175,162.268L31.292,162.332L31.412,162.397L31.531,162.46L31.65,162.523L31.772,162.585L31.894,162.647L32.016,162.709L32.14,162.769L32.265,162.83L32.392,162.89L32.517,162.949L32.645,163.008L32.774,163.067L32.902,163.124L33.033,163.182L33.165,163.239L33.297,163.295L33.429,163.35L33.563,163.405L33.698,163.459L33.834,163.513L33.972,163.567L34.11,163.62L34.247,163.671L34.387,163.723L34.529,163.774L34.671,163.825L34.812,163.874L34.957,163.924L35.101,163.972L35.247,164.02L35.393,164.068L35.541,164.114L35.689,164.161L35.838,164.206L35.989,164.251L36.14,164.295L36.292,164.339L36.447,164.382L36.6,164.424L36.756,164.466L36.912,164.507L37.069,164.547L37.228,164.587L37.387,164.626L37.547,164.665L37.708,164.702L37.87,164.739L38.034,164.776L38.199,164.811L38.364,164.846L38.53,164.88L38.697,164.914L38.866,164.947L39.035,164.979L39.205,165.01L39.376,165.041L39.548,165.071L39.722,165.1L39.896,165.128L40.072,165.156L40.248,165.183L40.425,165.209L40.603,165.235L40.782,165.259L40.963,165.283L41.144,165.307L41.327,165.329L41.511,165.351L41.694,165.371L41.879,165.391L42.066,165.411L42.254,165.429L42.442,165.447L42.631,165.464L42.822,165.48L43.013,165.495L43.205,165.509L43.399,165.523L43.593,165.536L43.789,165.548L43.986,165.559L44.182,165.569L44.381,165.578L44.58,165.587L44.781,165.595L44.983,165.601L45.186,165.607L45.389,165.613L45.593,165.617L45.798,165.62L46.005,165.623L46.213,165.624L46.423,165.625L162.744,165.625L162.853,165.617L163.005,165.605L163.156,165.593L163.309,165.579L163.461,165.565L163.613,165.55L163.766,165.535L163.916,165.519L164.068,165.502L164.22,165.484L164.37,165.466L164.522,165.447L164.673,165.427L164.823,165.407L164.974,165.386L165.125,165.364L165.276,165.341L165.426,165.318L165.575,165.294L165.726,165.269L165.874,165.244L166.024,165.218L166.174,165.191L166.322,165.164L166.471,165.136L166.62,165.107L166.769,165.077L166.917,165.047L167.064,165.017L167.212,164.985L167.36,164.952L167.507,164.92L167.654,164.886L167.801,164.852L167.948,164.816L168.093,164.781L168.238,164.745L168.385,164.707L168.531,164.669L168.675,164.631L168.82,164.592L168.964,164.552L169.108,164.511L169.253,164.47L169.395,164.429L169.54,164.385L169.682,164.343L169.824,164.299L169.968,164.254L170.109,164.209L170.251,164.163L170.393,164.116L170.533,164.069L170.674,164.021L170.815,163.972L170.955,163.923L171.094,163.873L171.233,163.822L171.373,163.771L171.51,163.719L171.649,163.666L171.787,163.613L171.923,163.559L172.061,163.504L172.197,163.449L172.334,163.392L172.47,163.336L172.605,163.279L172.739,163.221L172.873,163.162L173.009,163.102L173.142,163.043L173.274,162.983L173.408,162.921L173.541,162.859L173.673,162.796L173.805,162.733L173.935,162.67L174.066,162.605L174.197,162.54L174.325,162.474L174.455,162.408L174.584,162.341L174.713,162.273L174.84,162.205L174.967,162.136L175.095,162.066L175.221,161.995L175.347,161.925L175.473,161.853L175.597,161.781L175.722,161.708L175.846,161.635L175.969,161.561L176.094,161.485L176.215,161.411L176.336,161.335L176.459,161.258L176.58,161.18L176.7,161.103L176.819,161.025L176.939,160.945L177.058,160.865L177.177,160.785L177.295,160.704L177.412,160.623L177.529,160.54L177.645,160.457L177.76,160.374L177.875,160.29L177.99,160.205L178.104,160.12L178.218,160.034L178.331,159.947L178.444,159.859L178.555,159.772L178.666,159.684L178.776,159.595L178.886,159.505L178.997,159.414L179.105,159.323L179.213,159.232L179.321,159.139L179.428,159.047L179.535,158.953L179.642,158.859L179.746,158.765L179.852,158.669L179.955,158.574L180.059,158.478L180.162,158.38L180.265,158.282L180.367,158.184L180.468,158.085L180.569,157.985L180.669,157.885L180.767,157.785L180.867,157.682L180.965,157.58L181.062,157.478L181.159,157.375L181.256,157.271L181.352,157.165L181.447,157.06L181.541,156.955L181.635,156.848L181.728,156.742L181.821,156.633L181.913,156.525L182.004,156.416L182.094,156.306L182.185,156.196L182.274,156.085L182.363,155.973L182.451,155.861L182.539,155.748L182.626,155.634L182.711,155.521L182.797,155.406L182.882,155.29L182.966,155.174L183.049,155.057L183.133,154.939L183.215,154.821L183.296,154.703L183.377,154.584L183.458,154.463L183.537,154.342L183.615,154.221L183.694,154.099L183.772,153.975L183.848,153.852L183.924,153.728L183.999,153.604L184.074,153.478L184.149,153.351L184.222,153.224L184.294,153.097L184.366,152.969L184.438,152.839L184.509,152.709L184.578,152.579L184.647,152.448L184.716,152.316L184.783,152.184L184.85,152.05L184.917,151.915L184.982,151.78L185.047,151.646L185.111,151.509L185.175,151.371L185.237,151.234L185.299,151.095L185.36,150.956L185.42,150.816L185.48,150.676L185.539,150.534L185.597,150.391L185.654,150.248L185.711,150.105L185.767,149.96L185.822,149.814L185.876,149.668L185.929,149.522L185.982,149.373L186.034,149.224L186.085,149.075L186.135,148.925L186.185,148.775L186.234,148.622L186.282,148.468L186.329,148.316L186.375,148.162L186.42,148.006L186.465,147.851L186.509,147.693L186.551,147.536L186.593,147.377L186.635,147.218L186.675,147.058L186.715,146.896L186.753,146.735L186.791,146.573L186.828,146.408L186.864,146.243L186.899,146.078L186.933,145.912L186.966,145.745L186.999,145.577L187.03,145.408L187.061,145.239L187.09,145.068L187.119,144.896L187.147,144.723L187.174,144.55L187.199,144.376L187.224,144.201L187.248,144.024L187.271,143.847L187.293,143.67L187.315,143.491L187.335,143.311L187.354,143.13L187.372,142.949L187.389,142.766L187.405,142.582L187.42,142.398L187.434,142.212L187.447,142.026L187.459,141.839L187.47,141.65L187.48,141.462L187.489,141.271L187.494,141.144L187.488,141.035L187.466,140.66L187.443,140.287L187.419,139.917L187.393,139.551L187.366,139.187L187.338,138.826L187.308,138.467L187.277,138.112L187.245,137.759L187.211,137.409L187.177,137.062L187.141,136.717L187.103,136.375L187.065,136.036L187.025,135.7L186.984,135.367L186.941,135.037L186.898,134.708L186.853,134.384L186.807,134.061L186.76,133.742L186.711,133.425L186.662,133.111L186.611,132.8L186.559,132.492L186.506,132.187L186.451,131.884L186.396,131.584L186.339,131.287L186.281,130.993L186.222,130.701L186.162,130.412L186.101,130.126L186.039,129.843L185.975,129.562L185.911,129.285L185.846,129.01L185.779,128.737L185.711,128.468L185.643,128.202L185.573,127.938L185.502,127.678L185.43,127.42L185.357,127.164L185.284,126.911L185.209,126.661L185.133,126.414L185.056,126.169L184.979,125.928L184.9,125.689L184.821,125.453L184.74,125.219L184.659,124.989L184.577,124.76L184.494,124.535L184.41,124.313L184.325,124.094L184.239,123.876L184.153,123.661L184.066,123.451L183.977,123.241L183.888,123.034L183.799,122.831L183.708,122.63L183.617,122.432L183.525,122.236L183.432,122.042L183.34,121.853L183.246,121.665L183.151,121.479L183.055,121.297L182.959,121.116L182.862,120.939L182.765,120.764L182.667,120.591L182.569,120.422L182.469,120.254L182.369,120.088L182.269,119.926L182.168,119.766L182.066,119.608L181.964,119.453L181.861,119.3L181.758,119.15L181.655,119.002L181.551,118.856L181.445,118.712L181.34,118.571L181.234,118.432L181.128,118.295L181.021,118.16L180.913,118.028L180.806,117.898L180.697,117.77L180.588,117.644L180.479,117.52L180.369,117.398L180.259,117.278L180.148,117.161L180.036,117.045L179.924,116.931L179.812,116.82L179.699,116.71L179.585,116.601L179.471,116.495L179.356,116.391L179.241,116.288L179.125,116.187L179.009,116.088L178.892,115.992L178.774,115.896L178.655,115.801L178.537,115.71L178.417,115.619L178.297,115.53L178.175,115.442L178.054,115.357L177.931,115.272L177.807,115.189L177.683,115.108L177.559,115.029L177.433,114.95L177.306,114.873L177.179,114.798L177.05,114.724L176.921,114.652L176.791,114.58L176.658,114.51L176.527,114.442L176.394,114.375L176.259,114.31L176.124,114.245L175.987,114.182L175.849,114.121L175.709,114.06L175.57,114.001L175.429,113.944L175.286,113.887L175.142,113.832L174.997,113.779L174.852,113.727L174.703,113.675L174.554,113.625L174.404,113.577L174.252,113.53L174.1,113.484L173.946,113.44L173.788,113.397L173.631,113.355L173.473,113.315L173.311,113.275L173.15,113.238L172.987,113.202L172.821,113.167L172.655,113.133L172.487,113.101L172.317,113.07L172.145,113.041L171.973,113.013L171.799,112.987L171.622,112.962L171.445,112.938L171.265,112.916L171.084,112.896L170.902,112.877L170.717,112.859L170.531,112.843L170.344,112.828L170.155,112.815L169.963,112.804L169.77,112.794L169.576,112.786L169.38,112.779L169.182,112.774L168.983,112.77L168.781,112.768L168.578,112.768L168.373,112.769L168.168,112.772L167.96,112.776L167.75,112.783L167.538,112.791L167.326,112.8L167.11,112.811L166.894,112.824L166.677,112.839L166.457,112.855L166.235,112.873L166.012,112.893L165.787,112.915L165.561,112.938L165.333,112.963L165.103,112.99L164.872,113.018L164.639,113.048L164.405,113.08L164.168,113.114L163.93,113.15L163.691,113.187L163.449,113.227L163.206,113.267L162.963,113.31L162.716,113.355L162.469,113.401L162.22,113.449L161.969,113.499L161.717,113.551L161.464,113.605L161.209,113.66L160.951,113.718L160.693,113.777L160.433,113.838L160.172,113.901L159.908,113.966L159.644,114.032L159.378,114.101L159.11,114.171L158.842,114.243L158.571,114.317L158.299,114.393L158.026,114.471L157.751,114.55L157.474,114.632L157.196,114.715L156.918,114.8L156.637,114.887L156.354,114.976L156.071,115.066L155.786,115.159L155.499,115.253L155.212,115.35L154.922,115.448L154.631,115.548L154.34,115.65L154.046,115.753L153.752,115.859L153.456,115.966L153.158,116.076L152.859,116.187L152.558,116.3L152.257,116.415L151.954,116.531L151.649,116.65L151.344,116.77L151.038,116.892L150.729,117.017L150.419,117.143L150.109,117.27L149.796,117.4L149.483,117.532L149.168,117.665L148.852,117.8L148.535,117.937L148.216,118.076L141.49,121.035L141.447,121.014L139.303,114.032L139.212,113.738L139.12,113.445L139.029,113.154L138.937,112.865L138.845,112.579L138.753,112.294L138.66,112.01L138.567,111.728L138.474,111.448L138.381,111.17L138.288,110.894L138.194,110.619L138.1,110.347L138.006,110.075L137.912,109.806L137.817,109.539L137.722,109.273L137.627,109.009L137.532,108.747L137.436,108.486L137.34,108.228L137.244,107.971L137.147,107.715L137.051,107.463L136.954,107.211L136.856,106.96L136.758,106.712L136.661,106.466L136.563,106.222L136.464,105.978L136.366,105.737L136.267,105.498L136.168,105.26L136.068,105.024L135.969,104.789L135.869,104.557L135.768,104.325L135.668,104.097L135.567,103.87L135.466,103.643L135.365,103.419L135.263,103.197L135.161,102.976L135.059,102.757L134.956,102.54L134.854,102.325L134.75,102.111L134.647,101.898L134.543,101.688L134.439,101.478L134.335,101.271L134.23,101.066L134.125,100.862L134.02,100.659L133.915,100.459L133.809,100.26L133.703,100.062L133.596,99.866L133.49,99.672L133.383,99.48L133.276,99.289L133.169,99.1L133.061,98.912L132.952,98.726L132.845,98.542L132.736,98.359L132.626,98.177L132.517,97.997L132.407,97.819L132.298,97.643L132.187,97.468L132.076,97.294L131.966,97.122L131.854,96.951L131.743,96.783L131.631,96.615L131.519,96.449L131.407,96.285L131.294,96.122L131.181,95.96L131.067,95.801L130.953,95.642L130.839,95.484L130.725,95.329L130.61,95.175L130.495,95.022L130.38,94.871L130.264,94.721L130.148,94.573L130.031,94.426L129.914,94.28L129.797,94.135L129.679,93.992L129.562,93.851L129.443,93.711L129.324,93.572L129.206,93.434L129.086,93.298L128.966,93.163L128.846,93.03L128.725,92.897L128.604,92.766L128.483,92.636L128.361,92.507L128.238,92.379L128.116,92.253L127.992,92.129L127.869,92.005L127.745,91.883L127.621,91.762L127.495,91.641L127.37,91.522L127.244,91.404L127.117,91.287L126.99,91.172L126.863,91.057L126.735,90.944L126.607,90.833L126.477,90.721L126.347,90.61L126.217,90.501L126.086,90.393L125.955,90.287L125.823,90.181L125.69,90.076L125.558,89.973L125.424,89.87L125.289,89.768L125.154,89.667L125.018,89.566L124.882,89.468L124.744,89.37L124.607,89.273L124.469,89.177L124.33,89.082L124.19,88.988L124.048,88.894L123.907,88.802L123.765,88.71L123.622,88.62L123.478,88.53L123.333,88.441L123.188,88.353L123.041,88.266L122.894,88.18L122.747,88.095L122.598,88.011L122.448,87.927L122.297,87.844L122.145,87.762L121.993,87.681L121.84,87.601L121.685,87.521L121.529,87.442L121.374,87.365L121.216,87.288L121.057,87.211L120.898,87.136L120.738,87.061L120.576,86.988L120.414,86.915L120.25,86.842L120.085,86.771L119.92,86.7L119.753,86.631L119.585,86.561L119.415,86.493L119.246,86.426L119.075,86.359L118.902,86.293L118.728,86.228L118.553,86.163L118.377,86.1L118.2,86.037L118.022,85.975L117.842,85.914L117.661,85.853L117.478,85.793L117.295,85.734L117.111,85.676L116.925,85.619L116.738,85.562L116.549,85.506L116.359,85.451L116.167,85.397L115.975,85.343L115.783,85.291L115.587,85.239L115.39,85.187L115.193,85.137L114.995,85.087L114.794,85.039L114.592,84.99L114.389,84.943L114.184,84.897L113.979,84.851L113.771,84.806L113.562,84.762L113.353,84.719L113.142,84.676L112.928,84.634L112.714,84.593L112.499,84.553L112.282,84.514L112.063,84.475L111.843,84.437L111.621,84.4L111.398,84.364L111.174,84.329L110.948,84.294L110.722,84.26L110.492,84.227L110.262,84.195L110.031,84.164L109.798,84.133L109.563,84.103L109.327,84.074L109.089,84.046L108.85,84.019L108.609,83.992L108.368,83.967L108.124,83.942L107.879,83.917L107.632,83.894L107.384,83.871L107.135,83.85L106.884,83.829L106.631,83.808L106.377,83.789L106.121,83.77L105.864,83.753L105.605,83.736L105.345,83.719L105.083,83.704L104.819,83.689L104.555,83.676L104.288,83.663L104.02,83.651L103.751,83.639L103.48,83.629L103.207,83.619L102.932,83.61L102.657,83.602L102.379,83.594L102.101,83.588L101.82,83.582L101.538,83.577L101.254,83.573L100.969,83.569L100.682,83.566L100.393,83.564L100.104,83.563L99.812,83.563Z" style="fill:#b0b0b0;"/>
    <path d="M46.412,171.875C26.305,171.847 15.673,160.861 15.625,145.486C15.595,135.922 27.731,101.517 61.806,125.694C62.108,95.084 77.892,77.431 99.19,77.315C125.799,77.169 137.254,85.96 145.37,112.5C174.345,99.699 191.958,106.644 193.75,141.088C193.126,160.579 178.465,170.841 162.963,171.875L46.412,171.875Z" style="fill:url(#_Radial2);"/>
    <defs>
        <radialGradient id="_Radial1" cx="0" cy="0" r="1" gradientUnits="userSpaceOnUse" gradientTransform="matrix(139.453,0,0,139.453,168.75,46.4844)"><stop offset="0" style="stop-color:#ffdc46;stop-opacity:1"/><stop offset="0.33" style="stop-color:#ffdb46;stop-opacity:1"/><stop offset="0.42" style="stop-color:#ffd945;stop-opacity:1"/><stop offset="0.5" style="stop-color:#ffd643;stop-opacity:1"/><stop offset="0.5" style="stop-color:#ffc600;stop-opacity:1"/><stop offset="0.58" style="stop-color:#ffc500;stop-opacity:1"/><stop offset="0.67" style="stop-color:#ffc500;stop-opacity:1"/><stop offset="1" style="stop-color:#ffc500;stop-opacity:1"/></radialGradient>
        <radialGradient id="_Radial2" cx="0" cy="0" r="1" gradientUnits="userSpaceOnUse" gradientTransform="matrix(178.125,0,0,178.125,50.8357,97.311)"><stop offset="0" style="stop-color:#e9e9e9;stop-opacity:1"/><stop offset="0.33" style="stop-color:#e9e9e9;stop-opacity:1"/><stop offset="0.42" style="stop-color:#e9e9e9;stop-opacity:1"/><stop offset="0.5" style="stop-color:#e9e9e9;stop-opacity:1"/><stop offset="0.5" style="stop-color:#dadada;stop-opacity:1"/><stop offset="0.58" style="stop-color:#dadada;stop-opacity:1"/><stop offset="0.67" style="stop-color:#dadada;stop-opacity:1"/><stop offset="1" style="stop-color:#dadada;stop-opacity:1"/></radialGradient>
    </defs>
</svg>
