<?xml version="1.0" encoding="UTF-8" standalone="no"?>
<!DOCTYPE svg PUBLIC "-//W3C//DTD SVG 1.1//EN" "http://www.w3.org/Graphics/SVG/1.1/DTD/svg11.dtd">
<svg width="100%" height="100%" viewBox="0 0 300 300" version="1.1" xmlns="http://www.w3.org/2000/svg" xmlns:xlink="http://www.w3.org/1999/xlink" xml:space="preserve" xmlns:serif="http://www.serif.com/" style="fill-rule:evenodd;clip-rule:evenodd;stroke-linejoin:round;stroke-miterlimit:1.41421;">
    <path d="M142.935,26.078L143.414,26.08L143.893,26.083L144.37,26.088L144.844,26.093L145.317,26.1L145.788,26.109L146.257,26.119L146.725,26.13L147.19,26.142L147.654,26.156L148.116,26.171L148.576,26.188L149.035,26.205L149.492,26.225L149.947,26.245L150.4,26.267L150.851,26.291L151.301,26.316L151.749,26.342L152.196,26.37L152.641,26.399L153.083,26.43L153.525,26.462L153.964,26.495L154.402,26.53L154.838,26.567L155.273,26.605L155.706,26.644L156.138,26.685L156.567,26.727L156.995,26.771L157.422,26.817L157.847,26.864L158.27,26.912L158.691,26.962L159.112,27.014L159.53,27.067L159.947,27.122L160.362,27.178L160.776,27.236L161.188,27.295L161.599,27.357L162.008,27.419L162.416,27.484L162.822,27.55L163.227,27.617L163.629,27.686L164.031,27.757L164.431,27.83L164.829,27.904L165.226,27.98L165.622,28.057L166.016,28.137L166.409,28.218L166.8,28.3L167.189,28.385L167.577,28.471L167.964,28.559L168.349,28.648L168.733,28.74L169.115,28.833L169.496,28.928L169.875,29.025L170.253,29.123L170.629,29.223L171.005,29.326L171.378,29.43L171.75,29.535L172.121,29.643L172.491,29.753L172.858,29.864L173.225,29.977L173.59,30.092L173.954,30.209L174.316,30.328L174.677,30.448L175.036,30.571L175.394,30.695L175.751,30.822L176.106,30.95L176.46,31.08L176.812,31.213L177.163,31.347L177.512,31.483L177.86,31.621L178.207,31.761L178.552,31.903L178.897,32.047L179.239,32.193L179.58,32.341L179.919,32.491L180.258,32.643L180.595,32.797L180.93,32.953L181.264,33.111L181.596,33.271L181.928,33.433L182.257,33.597L182.585,33.763L182.912,33.931L183.237,34.102L183.561,34.274L183.884,34.448L184.205,34.625L184.524,34.803L184.842,34.984L185.159,35.166L185.474,35.351L185.789,35.538L186.101,35.726L186.411,35.917L186.721,36.11L187.029,36.305L187.336,36.502L187.641,36.701L187.944,36.903L188.246,37.105L188.546,37.311L188.846,37.518L189.144,37.728L189.44,37.94L189.734,38.153L190.027,38.369L190.319,38.587L190.609,38.806L190.898,39.029L191.186,39.252L191.471,39.478L191.756,39.707L192.038,39.937L192.319,40.169L192.599,40.403L192.878,40.64L193.155,40.878L193.43,41.118L193.704,41.361L193.976,41.605L194.247,41.852L194.517,42.101L194.784,42.351L195.051,42.603L195.316,42.859L195.58,43.115L195.841,43.374L196.102,43.635L196.361,43.898L196.619,44.162L196.875,44.429L197.13,44.698L197.383,44.969L197.635,45.241L197.885,45.516L198.134,45.793L198.382,46.072L198.628,46.353L198.873,46.635L199.116,46.92L199.358,47.207L199.598,47.496L199.838,47.787L200.075,48.079L200.311,48.374L200.546,48.67L200.78,48.969L201.012,49.27L201.243,49.572L201.472,49.876L201.701,50.183L201.927,50.491L202.153,50.802L202.377,51.114L202.6,51.429L202.822,51.745L203.042,52.063L203.261,52.383L203.479,52.705L203.695,53.029L203.91,53.355L204.124,53.683L204.337,54.013L204.548,54.345L204.759,54.679L204.968,55.015L205.176,55.353L205.382,55.693L205.588,56.034L205.792,56.378L205.995,56.724L206.197,57.072L206.398,57.421L206.598,57.773L206.797,58.126L206.994,58.482L207.19,58.84L207.386,59.199L207.58,59.561L207.773,59.924L207.965,60.29L208.156,60.657L208.346,61.027L208.535,61.398L208.723,61.772L208.91,62.147L209.096,62.525L209.28,62.904L209.464,63.286L209.647,63.67L209.829,64.055L210.01,64.443L210.19,64.833L210.369,65.224L210.548,65.618L210.725,66.014L210.901,66.412L211.077,66.812L211.251,67.214L211.425,67.618L211.598,68.024L211.77,68.432L211.941,68.843L212.111,69.255L212.281,69.67L212.449,70.086L212.617,70.505L212.784,70.926L212.95,71.349L213.115,71.774L213.28,72.201L213.444,72.63L213.607,73.062L213.769,73.496L213.931,73.931L214.092,74.37L214.252,74.81L214.411,75.251L214.57,75.696L214.728,76.143L214.886,76.591L215.042,77.042L215.461,76.879L215.974,76.681L216.486,76.486L216.997,76.294L217.507,76.104L218.015,75.917L218.521,75.734L219.026,75.553L219.531,75.374L220.034,75.199L220.535,75.027L221.035,74.857L221.534,74.69L222.032,74.526L222.528,74.365L223.023,74.207L223.516,74.051L224.009,73.899L224.5,73.749L224.99,73.602L225.478,73.458L225.966,73.317L226.452,73.179L226.936,73.044L227.42,72.912L227.902,72.783L228.383,72.656L228.863,72.533L229.341,72.413L229.818,72.295L230.294,72.181L230.768,72.069L231.242,71.961L231.714,71.855L232.184,71.753L232.654,71.654L233.123,71.557L233.59,71.464L234.056,71.374L234.52,71.287L234.984,71.203L235.446,71.122L235.907,71.044L236.367,70.969L236.825,70.898L237.282,70.829L237.739,70.764L238.194,70.702L238.647,70.643L239.099,70.587L239.551,70.534L240.001,70.485L240.449,70.439L240.897,70.396L241.344,70.356L241.789,70.32L242.233,70.287L242.675,70.258L243.117,70.231L243.557,70.208L243.996,70.188L244.434,70.172L244.865,70.159L245.089,70.154L245.306,70.15L245.524,70.146L245.741,70.143L245.957,70.142L246.174,70.141L246.39,70.141L246.605,70.142L246.821,70.143L247.036,70.146L247.251,70.149L247.465,70.153L247.679,70.159L247.894,70.165L248.107,70.172L248.32,70.179L248.533,70.188L248.745,70.198L248.958,70.208L249.17,70.22L249.381,70.232L249.594,70.245L249.804,70.259L250.015,70.274L250.225,70.29L250.434,70.306L250.645,70.324L250.855,70.343L251.064,70.362L251.272,70.382L251.481,70.404L251.69,70.426L251.897,70.449L252.104,70.473L252.311,70.498L252.518,70.524L252.725,70.551L252.93,70.579L253.137,70.607L253.342,70.637L253.547,70.668L253.751,70.699L253.957,70.732L254.16,70.765L254.363,70.799L254.568,70.835L254.77,70.871L254.973,70.908L255.176,70.946L255.377,70.985L255.579,71.025L255.78,71.066L255.982,71.108L256.181,71.151L256.381,71.195L256.582,71.24L256.781,71.286L256.98,71.333L257.179,71.381L257.377,71.429L257.575,71.479L257.771,71.53L257.969,71.581L258.166,71.634L258.362,71.688L258.558,71.743L258.754,71.798L258.949,71.855L259.143,71.912L259.338,71.971L259.531,72.03L259.725,72.091L259.918,72.153L260.111,72.215L260.303,72.279L260.494,72.343L260.686,72.409L260.876,72.475L261.067,72.543L261.258,72.612L261.446,72.681L261.635,72.752L261.825,72.824L262.014,72.896L262.201,72.97L262.388,73.044L262.575,73.12L262.761,73.197L262.947,73.274L263.133,73.353L263.318,73.433L263.502,73.514L263.686,73.595L263.87,73.678L264.052,73.761L264.235,73.846L264.418,73.932L264.599,74.019L264.78,74.107L264.96,74.195L265.14,74.285L265.319,74.376L265.499,74.468L265.677,74.561L265.854,74.654L266.033,74.75L266.21,74.846L266.386,74.942L266.561,75.04L266.736,75.139L266.911,75.239L267.085,75.34L267.258,75.442L267.432,75.545L267.605,75.649L267.776,75.754L267.948,75.859L268.118,75.966L268.288,76.074L268.457,76.183L268.626,76.293L268.795,76.404L268.963,76.516L269.131,76.629L269.297,76.743L269.462,76.857L269.628,76.973L269.793,77.09L269.957,77.208L270.121,77.327L270.284,77.446L270.446,77.567L270.608,77.689L270.768,77.811L270.93,77.936L271.089,78.06L271.248,78.185L271.407,78.312L271.565,78.44L271.722,78.568L271.879,78.698L272.035,78.828L272.191,78.96L272.345,79.091L272.499,79.225L272.653,79.36L272.805,79.494L272.957,79.63L273.109,79.768L273.26,79.906L273.411,80.045L273.56,80.185L273.708,80.325L273.856,80.467L274.004,80.61L274.151,80.754L274.297,80.898L274.442,81.043L274.587,81.19L274.732,81.337L274.875,81.485L275.017,81.634L275.16,81.784L275.301,81.935L275.442,82.087L275.582,82.24L275.721,82.393L275.86,82.547L275.998,82.703L276.135,82.859L276.272,83.017L276.408,83.174L276.543,83.333L276.678,83.494L276.811,83.653L276.945,83.815L277.078,83.979L277.209,84.141L277.34,84.305L277.47,84.47L277.6,84.636L277.73,84.804L277.859,84.972L277.986,85.14L278.112,85.308L278.239,85.479L278.365,85.651L278.489,85.822L278.613,85.995L278.737,86.169L278.86,86.344L278.982,86.518L279.103,86.694L279.224,86.872L279.344,87.05L279.464,87.229L279.582,87.407L279.7,87.588L279.818,87.77L279.935,87.952L280.05,88.134L280.166,88.318L280.28,88.503L280.394,88.688L280.507,88.874L280.62,89.062L280.732,89.249L280.843,89.437L280.954,89.627L281.064,89.818L281.173,90.009L281.281,90.201L281.389,90.394L281.496,90.587L281.602,90.781L281.709,90.977L281.814,91.173L281.918,91.37L282.022,91.568L282.125,91.766L282.227,91.964L282.329,92.165L282.43,92.366L282.53,92.568L282.63,92.77L282.729,92.973L282.828,93.178L282.925,93.382L283.023,93.589L283.119,93.795L283.215,94.002L283.31,94.211L283.405,94.42L283.498,94.629L283.591,94.839L283.684,95.051L283.776,95.263L283.867,95.477L283.958,95.691L284.048,95.905L284.137,96.12L284.226,96.336L284.314,96.553L284.401,96.771L284.488,96.989L284.574,97.209L284.66,97.43L284.744,97.65L284.828,97.871L284.912,98.094L284.995,98.318L285.077,98.543L285.158,98.767L285.239,98.992L285.32,99.219L285.4,99.447L285.479,99.676L285.557,99.904L285.635,100.134L285.712,100.364L285.789,100.596L285.865,100.828L285.94,101.062L286.015,101.295L286.088,101.529L286.162,101.765L286.235,102.002L286.307,102.239L286.379,102.476L286.45,102.715L286.52,102.955L286.591,103.2L286.727,103.678L286.863,104.164L286.995,104.654L287.126,105.146L287.253,105.642L287.379,106.141L287.502,106.644L287.623,107.15L287.741,107.659L287.857,108.171L287.97,108.687L288.081,109.206L288.19,109.728L288.296,110.253L288.4,110.783L288.501,111.315L288.6,111.85L288.697,112.389L288.791,112.931L288.883,113.477L288.973,114.026L289.061,114.578L289.146,115.134L289.228,115.693L289.309,116.255L289.387,116.821L289.462,117.39L289.535,117.962L289.607,118.539L289.675,119.118L289.742,119.701L289.806,120.287L289.867,120.877L289.927,121.47L289.984,122.066L290.039,122.667L290.091,123.271L290.141,123.877L290.189,124.488L290.235,125.102L290.278,125.72L290.319,126.34L290.358,126.965L290.394,127.593L290.443,128.49L290.42,129.129L290.405,129.508L290.387,129.886L290.368,130.262L290.346,130.638L290.322,131.012L290.296,131.384L290.268,131.756L290.238,132.127L290.205,132.496L290.171,132.864L290.134,133.231L290.096,133.596L290.055,133.961L290.012,134.325L289.967,134.687L289.92,135.048L289.871,135.407L289.82,135.766L289.767,136.124L289.712,136.48L289.655,136.834L289.596,137.189L289.534,137.542L289.471,137.893L289.406,138.242L289.339,138.591L289.27,138.939L289.198,139.285L289.125,139.631L289.05,139.974L288.973,140.317L288.894,140.658L288.813,140.998L288.729,141.338L288.645,141.674L288.558,142.011L288.469,142.346L288.378,142.68L288.285,143.012L288.19,143.344L288.094,143.673L287.996,144.002L287.895,144.329L287.793,144.656L287.689,144.981L287.583,145.304L287.475,145.625L287.365,145.946L287.254,146.266L287.14,146.584L287.025,146.9L286.908,147.216L286.789,147.531L286.669,147.843L286.546,148.154L286.422,148.465L286.296,148.774L286.168,149.081L286.038,149.387L285.907,149.692L285.774,149.995L285.639,150.297L285.503,150.598L285.364,150.897L285.224,151.196L285.082,151.492L284.939,151.787L284.794,152.08L284.647,152.373L284.498,152.664L284.349,152.953L284.196,153.242L284.043,153.528L283.888,153.814L283.731,154.098L283.573,154.38L283.413,154.661L283.251,154.94L283.088,155.219L282.923,155.496L282.757,155.771L282.589,156.045L282.419,156.318L282.249,156.588L282.076,156.858L281.902,157.126L281.726,157.393L281.549,157.659L281.371,157.922L281.191,158.184L281.009,158.446L280.826,158.705L280.641,158.963L280.455,159.22L280.268,159.475L280.079,159.729L279.888,159.981L279.697,160.232L279.504,160.48L279.31,160.728L279.114,160.975L278.917,161.219L278.718,161.463L278.518,161.705L278.317,161.945L278.115,162.183L277.91,162.421L277.704,162.658L277.498,162.891L277.291,163.124L277.081,163.356L276.871,163.586L276.659,163.814L276.447,164.041L276.232,164.267L276.017,164.491L275.801,164.713L275.583,164.934L275.363,165.154L275.143,165.372L274.921,165.588L274.7,165.802L274.475,166.017L274.25,166.229L274.025,166.439L273.797,166.648L273.569,166.855L273.339,167.062L273.108,167.266L272.877,167.469L272.644,167.671L272.41,167.871L272.176,168.069L271.94,168.266L271.703,168.461L271.464,168.656L271.225,168.848L270.986,169.039L270.744,169.229L270.502,169.417L270.259,169.603L270.015,169.788L269.77,169.971L269.524,170.153L269.277,170.334L269.029,170.513L268.78,170.691L268.53,170.867L268.279,171.041L268.027,171.214L267.775,171.385L267.522,171.555L267.268,171.724L267.012,171.891L266.756,172.057L266.499,172.221L266.241,172.383L265.982,172.545L265.723,172.704L265.463,172.862L265.202,173.019L264.94,173.174L264.677,173.327L264.414,173.48L264.149,173.63L263.884,173.779L263.619,173.927L263.352,174.073L263.084,174.218L262.817,174.361L262.548,174.503L262.278,174.643L262.008,174.782L261.737,174.92L261.466,175.055L261.193,175.19L260.92,175.323L260.647,175.454L260.372,175.584L260.097,175.713L259.821,175.84L259.545,175.966L259.268,176.09L258.99,176.212L258.713,176.333L258.434,176.453L258.155,176.571L257.875,176.688L257.593,176.804L257.313,176.918L257.032,177.03L256.748,177.141L256.466,177.251L256.183,177.358L255.899,177.465L255.613,177.571L255.328,177.675L255.044,177.776L254.759,177.877L254.471,177.977L254.184,178.075L253.898,178.171L253.608,178.266L253.32,178.36L253.032,178.452L252.742,178.542L252.452,178.632L252.162,178.72L251.871,178.806L251.581,178.891L251.29,178.974L250.996,179.057L250.704,179.137L250.412,179.216L250.119,179.294L249.825,179.37L249.531,179.445L249.237,179.519L248.943,179.591L248.648,179.661L248.351,179.731L248.057,179.798L247.76,179.865L247.464,179.929L247.167,179.993L246.87,180.055L246.574,180.115L246.275,180.175L245.977,180.233L245.68,180.289L245.381,180.344L245.082,180.397L244.783,180.449L244.484,180.5L244.184,180.549L243.884,180.597L243.584,180.643L243.284,180.688L242.984,180.732L242.684,180.774L242.383,180.815L242.081,180.854L241.78,180.892L241.478,180.928L241.177,180.963L240.876,180.997L240.574,181.029L240.271,181.06L239.969,181.089L239.665,181.118L239.364,181.144L239.062,181.169L238.758,181.193L238.455,181.215L237.952,181.25L61.877,181.25L61.497,181.249L61.116,181.246L60.738,181.241L60.359,181.235L59.983,181.227L59.607,181.218L59.232,181.206L58.86,181.194L58.487,181.18L58.116,181.164L57.747,181.146L57.377,181.127L57.01,181.106L56.644,181.084L56.28,181.06L55.916,181.034L55.552,181.007L55.191,180.978L54.832,180.948L54.471,180.916L54.113,180.883L53.758,180.848L53.401,180.811L53.046,180.772L52.694,180.733L52.342,180.691L51.992,180.648L51.641,180.603L51.293,180.557L50.946,180.509L50.6,180.46L50.255,180.409L49.911,180.356L49.569,180.302L49.229,180.247L48.888,180.19L48.549,180.131L48.212,180.07L47.874,180.008L47.54,179.944L47.206,179.88L46.874,179.813L46.543,179.745L46.211,179.675L45.882,179.603L45.556,179.531L45.229,179.456L44.903,179.38L44.579,179.302L44.257,179.223L43.935,179.143L43.614,179.06L43.295,178.977L42.977,178.891L42.661,178.804L42.345,178.716L42.03,178.626L41.717,178.534L41.406,178.441L41.096,178.347L40.786,178.25L40.479,178.153L40.172,178.054L39.866,177.953L39.561,177.85L39.26,177.747L38.958,177.642L38.658,177.535L38.358,177.426L38.06,177.316L37.764,177.205L37.469,177.092L37.176,176.978L36.882,176.861L36.591,176.744L36.302,176.625L36.012,176.504L35.725,176.382L35.44,176.259L35.155,176.134L34.872,176.007L34.59,175.879L34.309,175.75L34.028,175.618L33.75,175.485L33.475,175.352L33.199,175.216L32.926,175.08L32.653,174.941L32.381,174.801L32.112,174.66L31.843,174.516L31.575,174.372L31.309,174.226L31.045,174.079L30.783,173.93L30.521,173.78L30.26,173.628L30.001,173.474L29.744,173.32L29.488,173.163L29.234,173.007L28.981,172.848L28.729,172.687L28.478,172.525L28.229,172.362L27.982,172.197L27.736,172.031L27.49,171.863L27.248,171.694L27.007,171.524L26.767,171.352L26.528,171.179L26.29,171.004L26.055,170.828L25.82,170.651L25.586,170.472L25.356,170.292L25.126,170.111L24.898,169.928L24.671,169.743L24.445,169.557L24.222,169.371L24,169.183L23.779,168.993L23.56,168.802L23.342,168.61L23.125,168.416L22.911,168.221L22.699,168.025L22.486,167.827L22.277,167.628L22.068,167.428L21.862,167.226L21.656,167.023L21.453,166.819L21.251,166.615L21.051,166.408L20.851,166.199L20.654,165.99L20.459,165.781L20.265,165.569L20.072,165.355L19.881,165.141L19.692,164.926L19.504,164.71L19.319,164.492L19.134,164.273L18.952,164.053L18.77,163.831L18.591,163.609L18.414,163.386L18.237,163.161L18.062,162.935L17.89,162.708L17.719,162.48L17.549,162.25L17.381,162.019L17.215,161.788L17.05,161.555L16.888,161.321L16.727,161.087L16.567,160.851L16.41,160.614L16.254,160.376L16.099,160.136L15.946,159.896L15.795,159.655L15.646,159.413L15.498,159.169L15.352,158.925L15.208,158.679L15.065,158.433L14.924,158.186L14.785,157.937L14.648,157.688L14.512,157.438L14.378,157.186L14.246,156.934L14.115,156.681L13.986,156.427L13.859,156.171L13.734,155.916L13.61,155.659L13.488,155.401L13.368,155.142L13.249,154.882L13.132,154.622L13.017,154.36L12.903,154.098L12.792,153.835L12.682,153.571L12.573,153.306L12.467,153.04L12.362,152.774L12.259,152.507L12.157,152.238L12.058,151.97L11.96,151.7L11.864,151.429L11.769,151.158L11.676,150.886L11.585,150.613L11.496,150.339L11.408,150.064L11.322,149.789L11.238,149.513L11.156,149.237L11.075,148.96L10.996,148.681L10.918,148.402L10.843,148.122L10.769,147.842L10.696,147.561L10.626,147.28L10.557,146.997L10.49,146.714L10.424,146.43L10.361,146.146L10.299,145.861L10.238,145.575L10.18,145.289L10.123,145.002L10.068,144.714L10.014,144.426L9.962,144.137L9.912,143.847L9.864,143.557L9.817,143.266L9.772,142.975L9.728,142.683L9.687,142.39L9.647,142.097L9.608,141.804L9.572,141.509L9.537,141.214L9.503,140.919L9.472,140.623L9.442,140.326L9.413,140.029L9.387,139.732L9.362,139.433L9.339,139.134L9.317,138.836L9.297,138.536L9.279,138.235L9.262,137.935L9.247,137.633L9.234,137.331L9.222,137.029L9.212,136.726L9.204,136.423L9.197,136.119L9.192,135.815L9.189,135.51L9.187,135.197L9.187,134.972L9.19,134.739L9.195,134.505L9.202,134.268L9.211,134.031L9.222,133.792L9.235,133.551L9.251,133.308L9.268,133.064L9.287,132.818L9.309,132.57L9.332,132.32L9.357,132.069L9.384,131.815L9.413,131.56L9.444,131.303L9.477,131.044L9.512,130.782L9.549,130.519L9.588,130.254L9.628,129.988L9.671,129.718L9.716,129.448L9.762,129.175L9.81,128.901L9.861,128.624L9.913,128.346L9.967,128.066L10.023,127.784L10.081,127.5L10.141,127.215L10.203,126.928L10.267,126.639L10.333,126.348L10.401,126.056L10.471,125.762L10.543,125.467L10.617,125.169L10.693,124.871L10.771,124.57L10.851,124.269L10.933,123.966L11.017,123.661L11.103,123.355L11.191,123.048L11.281,122.739L11.373,122.429L11.468,122.118L11.564,121.805L11.663,121.491L11.763,121.176L11.866,120.86L11.971,120.543L12.078,120.225L12.187,119.906L12.298,119.586L12.412,119.265L12.527,118.943L12.645,118.62L12.765,118.297L12.887,117.972L13.012,117.647L13.138,117.321L13.267,116.994L13.398,116.667L13.531,116.339L13.667,116.01L13.805,115.681L13.945,115.352L14.087,115.022L14.232,114.692L14.379,114.361L14.528,114.03L14.68,113.699L14.834,113.368L14.99,113.036L15.149,112.704L15.31,112.372L15.474,112.04L15.64,111.708L15.808,111.376L15.979,111.044L16.152,110.712L16.328,110.38L16.506,110.048L16.687,109.717L16.87,109.386L17.056,109.055L17.244,108.724L17.435,108.394L17.628,108.065L17.824,107.735L18.022,107.406L18.223,107.078L18.427,106.75L18.634,106.424L18.842,106.098L19.054,105.772L19.269,105.447L19.486,105.123L19.706,104.8L19.928,104.478L20.153,104.157L20.381,103.837L20.612,103.518L20.845,103.2L21.082,102.883L21.321,102.567L21.563,102.253L21.808,101.94L22.056,101.628L22.306,101.318L22.56,101.009L22.817,100.701L23.076,100.396L23.338,100.092L23.604,99.789L23.872,99.488L24.139,99.194L24.28,99.04L24.418,98.892L24.557,98.744L24.695,98.596L24.835,98.45L24.976,98.303L25.117,98.157L25.259,98.012L25.403,97.866L25.547,97.722L25.691,97.578L25.836,97.435L25.982,97.292L26.129,97.15L26.277,97.008L26.426,96.866L26.574,96.726L26.724,96.586L26.876,96.446L27.026,96.308L27.179,96.169L27.332,96.031L27.486,95.895L27.641,95.758L27.797,95.621L27.953,95.487L28.11,95.352L28.268,95.218L28.427,95.085L28.586,94.953L28.748,94.82L28.909,94.689L29.071,94.558L29.234,94.428L29.397,94.3L29.562,94.171L29.727,94.044L29.894,93.916L30.061,93.79L30.228,93.665L30.397,93.54L30.567,93.416L30.737,93.293L30.908,93.17L31.08,93.049L31.253,92.928L31.427,92.808L31.601,92.688L31.777,92.57L31.953,92.452L32.129,92.336L32.308,92.22L32.486,92.105L32.666,91.99L32.846,91.877L33.027,91.765L33.209,91.653L33.392,91.543L33.575,91.433L33.76,91.324L33.946,91.216L34.131,91.109L34.319,91.003L34.507,90.898L34.695,90.794L34.884,90.691L35.074,90.589L35.266,90.488L35.459,90.387L35.651,90.288L35.845,90.19L36.04,90.093L36.234,89.997L36.43,89.902L36.628,89.808L36.826,89.715L37.024,89.623L37.223,89.532L37.424,89.442L37.625,89.354L37.827,89.266L38.03,89.18L38.233,89.095L38.437,89.011L38.642,88.928L38.849,88.846L39.055,88.765L39.262,88.685L39.471,88.607L39.68,88.53L39.89,88.454L40.101,88.379L40.313,88.305L40.524,88.233L40.737,88.162L40.951,88.092L41.166,88.023L41.381,87.956L41.597,87.89L41.815,87.824L42.032,87.761L42.25,87.699L42.469,87.638L42.689,87.578L42.911,87.519L43.132,87.462L43.354,87.406L43.577,87.351L43.801,87.298L44.025,87.246L44.25,87.196L44.476,87.146L44.702,87.099L44.929,87.052L45.159,87.007L45.387,86.963L45.615,86.921L45.846,86.88L46.077,86.84L46.308,86.802L46.54,86.765L46.773,86.73L47.007,86.696L47.242,86.664L47.476,86.633L47.711,86.603L47.948,86.575L48.185,86.548L48.422,86.523L48.66,86.499L48.9,86.477L49.139,86.456L49.378,86.437L49.62,86.419L49.861,86.402L50.103,86.387L50.345,86.374L50.589,86.362L50.833,86.352L51.078,86.343L51.323,86.335L51.568,86.329L51.815,86.325L52.061,86.322L52.309,86.321L52.557,86.321L52.806,86.323L53.055,86.327L53.305,86.331L53.555,86.338L53.807,86.346L54.059,86.356L54.31,86.367L54.563,86.379L54.817,86.394L55.071,86.41L55.325,86.427L55.579,86.446L55.835,86.467L56.091,86.489L56.348,86.513L56.605,86.538L56.863,86.565L57.121,86.594L57.379,86.624L57.639,86.656L57.9,86.689L58.159,86.724L58.42,86.761L58.681,86.799L58.944,86.839L59.207,86.881L59.469,86.924L59.732,86.969L59.997,87.015L60.262,87.063L60.526,87.113L60.792,87.165L61.058,87.217L61.325,87.272L61.592,87.328L61.86,87.386L62.128,87.446L62.397,87.508L62.666,87.57L62.936,87.635L63.206,87.701L63.476,87.769L63.748,87.839L64.02,87.91L64.292,87.983L64.565,88.058L64.838,88.134L65.112,88.213L65.386,88.292L65.661,88.374L65.936,88.457L66.212,88.542L66.488,88.628L66.765,88.716L67.042,88.806L67.32,88.898L67.598,88.991L67.877,89.087L68.157,89.184L68.437,89.282L68.717,89.382L68.998,89.484L69.28,89.588L69.561,89.694L69.843,89.801L70.126,89.91L70.411,90.021L70.694,90.133L70.978,90.247L71.263,90.363L71.549,90.481L71.835,90.601L72.122,90.722L72.409,90.845L72.696,90.97L72.985,91.096L73.273,91.225L73.563,91.355L73.852,91.487L74.143,91.621L74.433,91.756L74.724,91.894L75.016,92.033L75.309,92.174L75.602,92.317L75.895,92.461L76.189,92.608L76.484,92.756L76.779,92.906L77.074,93.058L77.37,93.211L77.667,93.367L77.965,93.524L78.262,93.683L78.561,93.845L78.86,94.008L79.159,94.172L79.414,94.314L79.417,94.281L79.468,93.75L79.521,93.221L79.576,92.693L79.633,92.168L79.692,91.644L79.753,91.122L79.817,90.601L79.882,90.082L79.95,89.565L80.02,89.05L80.092,88.537L80.166,88.025L80.242,87.515L80.321,87.007L80.401,86.501L80.484,85.996L80.568,85.493L80.655,84.993L80.744,84.493L80.835,83.996L80.928,83.5L81.023,83.006L81.12,82.514L81.219,82.024L81.32,81.536L81.424,81.049L81.529,80.564L81.636,80.081L81.746,79.6L81.857,79.121L81.971,78.643L82.087,78.167L82.204,77.693L82.324,77.222L82.446,76.752L82.569,76.283L82.695,75.816L82.823,75.352L82.953,74.889L83.085,74.428L83.219,73.969L83.354,73.512L83.492,73.056L83.632,72.603L83.774,72.151L83.918,71.701L84.064,71.253L84.211,70.807L84.361,70.363L84.513,69.921L84.666,69.481L84.822,69.042L84.98,68.606L85.14,68.171L85.301,67.738L85.465,67.308L85.63,66.879L85.798,66.452L85.967,66.027L86.138,65.603L86.312,65.182L86.487,64.763L86.664,64.346L86.843,63.93L87.024,63.517L87.207,63.105L87.391,62.696L87.578,62.289L87.767,61.883L87.957,61.479L88.15,61.078L88.344,60.678L88.54,60.28L88.739,59.885L88.938,59.491L89.14,59.1L89.344,58.71L89.55,58.322L89.757,57.937L89.967,57.553L90.178,57.171L90.391,56.792L90.606,56.414L90.822,56.039L91.041,55.666L91.262,55.294L91.484,54.925L91.708,54.558L91.934,54.192L92.162,53.829L92.391,53.468L92.623,53.109L92.856,52.752L93.091,52.398L93.327,52.045L93.566,51.694L93.807,51.346L94.049,51L94.293,50.656L94.539,50.313L94.786,49.974L95.035,49.636L95.286,49.3L95.539,48.967L95.794,48.635L96.05,48.306L96.308,47.98L96.568,47.654L96.829,47.332L97.092,47.012L97.357,46.693L97.624,46.377L97.893,46.063L98.162,45.752L98.435,45.442L98.708,45.135L98.983,44.83L99.26,44.528L99.538,44.227L99.819,43.929L100.1,43.633L100.384,43.339L100.669,43.048L100.956,42.759L101.244,42.472L101.534,42.188L101.826,41.906L102.119,41.625L102.414,41.348L102.711,41.072L103.009,40.799L103.308,40.529L103.61,40.26L103.912,39.994L104.217,39.731L104.523,39.469L104.83,39.21L105.139,38.954L105.45,38.7L105.762,38.448L106.075,38.199L106.391,37.951L106.707,37.707L107.026,37.464L107.345,37.225L107.666,36.987L107.989,36.752L108.313,36.52L108.638,36.29L108.966,36.062L109.294,35.837L109.624,35.614L109.955,35.393L110.288,35.176L110.622,34.96L110.958,34.747L111.294,34.537L111.632,34.329L111.972,34.123L112.313,33.92L112.655,33.72L112.999,33.521L113.344,33.326L113.69,33.133L114.038,32.943L114.387,32.755L114.737,32.569L115.089,32.386L115.441,32.206L115.796,32.028L116.151,31.853L116.507,31.68L116.866,31.51L117.224,31.343L117.585,31.178L117.946,31.015L118.309,30.855L118.673,30.698L119.038,30.543L119.404,30.391L119.771,30.242L120.14,30.095L120.51,29.95L120.88,29.809L121.253,29.669L121.625,29.533L122,29.399L122.375,29.268L122.752,29.139L123.129,29.013L123.507,28.889L123.886,28.769L124.267,28.65L124.649,28.535L125.032,28.422L125.415,28.311L125.799,28.204L126.185,28.099L126.572,27.996L126.96,27.897L127.348,27.8L127.737,27.705L128.128,27.613L128.519,27.524L128.912,27.438L129.305,27.354L129.699,27.273L130.094,27.194L130.49,27.118L130.887,27.045L131.285,26.975L131.683,26.907L132.082,26.842L132.482,26.779L132.884,26.719L133.286,26.662L133.688,26.608L134.091,26.556L134.496,26.506L134.901,26.46L135.307,26.416L135.714,26.375L136.121,26.336L136.529,26.301L136.938,26.268L137.348,26.237L137.758,26.209L138.169,26.184L138.581,26.162L138.994,26.142L139.407,26.125L139.82,26.111L140.235,26.099L140.65,26.09L141.066,26.084L141.477,26.08L141.969,26.078L142.453,26.078L142.935,26.078ZM142.004,38.578L141.557,38.58L141.215,38.583L140.88,38.588L140.546,38.595L140.213,38.605L139.881,38.616L139.549,38.63L139.219,38.646L138.889,38.664L138.561,38.684L138.233,38.706L137.906,38.73L137.58,38.757L137.254,38.785L136.931,38.816L136.607,38.848L136.285,38.883L135.963,38.92L135.643,38.959L135.324,39L135.004,39.043L134.687,39.089L134.37,39.136L134.054,39.185L133.739,39.237L133.425,39.29L133.112,39.346L132.8,39.403L132.488,39.463L132.178,39.524L131.869,39.588L131.56,39.654L131.253,39.722L130.946,39.791L130.641,39.863L130.336,39.937L130.032,40.013L129.73,40.091L129.428,40.171L129.127,40.253L128.827,40.337L128.528,40.423L128.23,40.511L127.933,40.601L127.637,40.693L127.342,40.787L127.047,40.883L126.754,40.981L126.462,41.081L126.171,41.183L125.88,41.287L125.59,41.393L125.302,41.5L125.015,41.61L124.728,41.722L124.443,41.836L124.158,41.952L123.874,42.07L123.592,42.19L123.31,42.311L123.029,42.435L122.749,42.561L122.47,42.689L122.192,42.818L121.916,42.95L121.64,43.084L121.365,43.219L121.091,43.357L120.818,43.496L120.546,43.638L120.275,43.781L120.005,43.927L119.736,44.074L119.467,44.224L119.2,44.375L118.934,44.528L118.669,44.684L118.405,44.841L118.142,45L117.88,45.161L117.618,45.325L117.358,45.49L117.099,45.657L116.841,45.826L116.584,45.997L116.328,46.17L116.073,46.345L115.819,46.522L115.565,46.701L115.313,46.882L115.062,47.065L114.812,47.25L114.563,47.437L114.315,47.625L114.068,47.816L113.822,48.009L113.577,48.204L113.333,48.401L113.09,48.6L112.848,48.8L112.607,49.003L112.368,49.208L112.129,49.415L111.891,49.623L111.655,49.834L111.419,50.047L111.185,50.262L110.951,50.478L110.719,50.697L110.488,50.917L110.258,51.14L110.028,51.365L109.801,51.592L109.574,51.821L109.348,52.052L109.123,52.284L108.899,52.519L108.677,52.756L108.455,52.995L108.235,53.236L108.016,53.478L107.798,53.723L107.581,53.97L107.366,54.219L107.151,54.47L106.938,54.723L106.725,54.978L106.514,55.235L106.304,55.494L106.096,55.755L105.888,56.018L105.681,56.283L105.476,56.55L105.272,56.82L105.069,57.091L104.867,57.364L104.667,57.639L104.468,57.916L104.27,58.196L104.073,58.478L103.877,58.761L103.683,59.046L103.49,59.334L103.298,59.624L103.108,59.915L102.918,60.209L102.73,60.504L102.543,60.802L102.358,61.102L102.174,61.404L101.991,61.708L101.809,62.013L101.629,62.322L101.45,62.632L101.272,62.944L101.096,63.258L100.921,63.574L100.747,63.892L100.575,64.212L100.404,64.535L100.235,64.859L100.066,65.185L99.899,65.514L99.734,65.844L99.57,66.177L99.407,66.512L99.246,66.848L99.086,67.187L98.928,67.527L98.77,67.87L98.615,68.215L98.461,68.562L98.308,68.911L98.157,69.262L98.007,69.615L97.858,69.97L97.712,70.327L97.566,70.686L97.422,71.047L97.28,71.41L97.139,71.775L97,72.143L96.862,72.512L96.725,72.883L96.59,73.257L96.457,73.632L96.325,74.01L96.195,74.389L96.066,74.771L95.939,75.154L95.814,75.539L95.69,75.927L95.568,76.317L95.447,76.708L95.328,77.102L95.21,77.498L95.094,77.896L94.98,78.295L94.867,78.697L94.756,79.101L94.647,79.506L94.539,79.914L94.433,80.324L94.328,80.736L94.226,81.15L94.125,81.566L94.025,81.983L93.928,82.403L93.832,82.825L93.737,83.249L93.645,83.675L93.554,84.103L93.465,84.533L93.377,84.964L93.292,85.398L93.208,85.834L93.126,86.272L93.045,86.711L92.967,87.153L92.89,87.597L92.815,88.043L92.742,88.49L92.67,88.94L92.601,89.391L92.533,89.845L92.467,90.301L92.403,90.758L92.34,91.218L92.28,91.679L92.221,92.142L92.165,92.608L92.11,93.075L92.057,93.544L92.005,94.016L91.956,94.489L91.909,94.964L91.863,95.441L91.82,95.92L91.778,96.401L91.738,96.884L91.7,97.368L91.665,97.855L91.631,98.344L91.599,98.834L91.569,99.327L91.54,99.821L91.514,100.318L91.49,100.816L91.468,101.316L91.448,101.818L91.429,102.322L91.413,102.828L91.399,103.336L91.387,103.846L91.377,104.357L91.369,104.871L91.275,112.705L87.469,114.646L81.212,110.22L80.929,110.022L80.646,109.825L80.365,109.63L80.085,109.437L79.805,109.247L79.527,109.058L79.248,108.871L78.972,108.686L78.696,108.504L78.421,108.323L78.147,108.144L77.874,107.967L77.602,107.792L77.33,107.619L77.059,107.448L76.79,107.279L76.521,107.112L76.253,106.947L75.986,106.784L75.721,106.622L75.456,106.463L75.191,106.305L74.928,106.149L74.666,105.995L74.404,105.844L74.144,105.694L73.884,105.545L73.626,105.399L73.368,105.255L73.111,105.112L72.855,104.971L72.6,104.832L72.347,104.695L72.093,104.56L71.841,104.426L71.59,104.294L71.339,104.164L71.09,104.036L70.841,103.91L70.593,103.785L70.347,103.662L70.101,103.541L69.856,103.422L69.612,103.304L69.37,103.189L69.127,103.074L68.885,102.962L68.645,102.851L68.406,102.742L68.168,102.635L67.93,102.529L67.694,102.425L67.458,102.323L67.223,102.222L66.99,102.123L66.756,102.026L66.525,101.93L66.294,101.836L66.063,101.744L65.834,101.653L65.606,101.564L65.379,101.476L65.152,101.39L64.926,101.306L64.702,101.223L64.478,101.142L64.255,101.062L64.033,100.984L63.812,100.907L63.593,100.832L63.373,100.759L63.155,100.687L62.938,100.616L62.721,100.547L62.506,100.48L62.291,100.414L62.077,100.349L61.865,100.286L61.652,100.224L61.442,100.164L61.231,100.105L61.022,100.048L60.814,99.992L60.606,99.938L60.401,99.885L60.195,99.833L59.99,99.783L59.786,99.734L59.583,99.687L59.381,99.641L59.18,99.596L58.98,99.553L58.78,99.51L58.582,99.47L58.384,99.43L58.187,99.392L57.991,99.356L57.796,99.32L57.603,99.286L57.409,99.253L57.216,99.221L57.025,99.191L56.835,99.162L56.645,99.134L56.455,99.108L56.267,99.082L56.08,99.058L55.894,99.035L55.708,99.014L55.522,98.993L55.339,98.974L55.156,98.956L54.973,98.939L54.792,98.923L54.612,98.909L54.431,98.895L54.251,98.883L54.074,98.872L53.897,98.862L53.72,98.853L53.543,98.845L53.368,98.838L53.194,98.833L53.02,98.828L52.848,98.825L52.676,98.823L52.504,98.821L52.334,98.821L52.164,98.822L51.995,98.824L51.827,98.827L51.659,98.831L51.492,98.836L51.326,98.842L51.161,98.849L50.997,98.857L50.833,98.866L50.669,98.876L50.507,98.887L50.345,98.899L50.183,98.912L50.023,98.926L49.864,98.941L49.704,98.957L49.545,98.974L49.388,98.992L49.231,99.01L49.075,99.03L48.918,99.051L48.764,99.072L48.61,99.094L48.456,99.118L48.303,99.142L48.149,99.167L47.998,99.193L47.847,99.22L47.695,99.248L47.545,99.277L47.396,99.306L47.247,99.337L47.099,99.368L46.95,99.401L46.803,99.434L46.656,99.468L46.511,99.502L46.365,99.538L46.22,99.574L46.075,99.612L45.932,99.65L45.789,99.689L45.646,99.729L45.503,99.769L45.361,99.811L45.221,99.853L45.08,99.896L44.939,99.94L44.8,99.985L44.661,100.03L44.523,100.076L44.383,100.124L44.246,100.172L44.109,100.22L43.973,100.27L43.836,100.32L43.7,100.371L43.565,100.423L43.43,100.476L43.296,100.529L43.163,100.583L43.029,100.638L42.895,100.694L42.763,100.751L42.631,100.808L42.499,100.866L42.369,100.924L42.238,100.984L42.107,101.045L41.977,101.105L41.848,101.167L41.72,101.229L41.59,101.293L41.462,101.357L41.334,101.422L41.207,101.487L41.08,101.553L40.954,101.62L40.828,101.688L40.702,101.756L40.576,101.826L40.451,101.895L40.327,101.966L40.203,102.037L40.079,102.109L39.957,102.181L39.833,102.255L39.71,102.329L39.589,102.404L39.467,102.48L39.345,102.556L39.225,102.633L39.104,102.71L38.985,102.788L38.864,102.868L38.744,102.948L38.626,103.028L38.507,103.109L38.389,103.191L38.272,103.273L38.154,103.356L38.037,103.44L37.92,103.525L37.804,103.609L37.688,103.695L37.572,103.782L37.457,103.869L37.343,103.956L37.228,104.044L37.114,104.133L37,104.224L36.887,104.313L36.774,104.404L36.662,104.496L36.55,104.588L36.438,104.681L36.326,104.774L36.216,104.868L36.105,104.963L35.994,105.059L35.885,105.154L35.776,105.25L35.666,105.348L35.558,105.446L35.45,105.544L35.341,105.643L35.234,105.742L35.127,105.842L35.019,105.943L34.914,106.044L34.808,106.146L34.702,106.248L34.597,106.351L34.492,106.455L34.387,106.559L34.283,106.664L34.18,106.768L34.077,106.874L33.973,106.98L33.871,107.087L33.769,107.195L33.667,107.303L33.566,107.41L33.465,107.519L33.369,107.624L33.165,107.849L32.966,108.071L32.77,108.295L32.574,108.522L32.381,108.75L32.189,108.98L31.999,109.211L31.81,109.445L31.623,109.68L31.438,109.917L31.254,110.155L31.073,110.395L30.892,110.637L30.713,110.88L30.536,111.125L30.361,111.371L30.187,111.619L30.015,111.868L29.845,112.118L29.677,112.369L29.51,112.622L29.345,112.876L29.181,113.131L29.02,113.387L28.86,113.644L28.702,113.903L28.545,114.162L28.391,114.421L28.237,114.683L28.086,114.944L27.937,115.207L27.789,115.47L27.643,115.733L27.499,115.998L27.357,116.263L27.216,116.529L27.077,116.795L26.94,117.061L26.805,117.328L26.671,117.595L26.54,117.863L26.41,118.13L26.282,118.398L26.155,118.666L26.03,118.935L25.908,119.203L25.787,119.471L25.668,119.739L25.55,120.007L25.435,120.275L25.321,120.543L25.209,120.81L25.098,121.077L24.99,121.344L24.883,121.61L24.779,121.876L24.676,122.141L24.574,122.406L24.475,122.67L24.377,122.934L24.281,123.197L24.187,123.458L24.095,123.719L24.005,123.98L23.916,124.239L23.829,124.498L23.744,124.755L23.661,125.011L23.579,125.266L23.499,125.52L23.421,125.773L23.345,126.024L23.271,126.274L23.198,126.523L23.128,126.77L23.058,127.015L22.991,127.259L22.926,127.501L22.862,127.742L22.8,127.981L22.74,128.218L22.681,128.453L22.625,128.686L22.569,128.917L22.516,129.147L22.465,129.373L22.415,129.598L22.367,129.821L22.321,130.041L22.276,130.259L22.233,130.474L22.192,130.687L22.152,130.897L22.115,131.104L22.079,131.309L22.044,131.511L22.011,131.711L21.98,131.906L21.951,132.1L21.923,132.29L21.897,132.476L21.873,132.66L21.85,132.84L21.828,133.016L21.809,133.189L21.791,133.358L21.774,133.524L21.759,133.685L21.745,133.842L21.733,133.996L21.723,134.145L21.714,134.289L21.706,134.429L21.7,134.565L21.695,134.695L21.691,134.82L21.688,134.941L21.687,135.057L21.687,135.173L21.688,135.404L21.691,135.641L21.695,135.877L21.7,136.113L21.706,136.347L21.714,136.582L21.723,136.815L21.733,137.047L21.745,137.279L21.758,137.51L21.772,137.74L21.787,137.97L21.804,138.199L21.821,138.427L21.84,138.654L21.86,138.88L21.882,139.105L21.905,139.331L21.929,139.554L21.954,139.777L21.98,140.001L22.008,140.222L22.037,140.443L22.067,140.663L22.098,140.882L22.13,141.101L22.164,141.318L22.199,141.535L22.235,141.752L22.272,141.967L22.311,142.181L22.35,142.394L22.391,142.607L22.433,142.82L22.477,143.031L22.521,143.241L22.567,143.451L22.613,143.659L22.662,143.868L22.711,144.075L22.761,144.281L22.812,144.487L22.865,144.691L22.919,144.895L22.974,145.099L23.03,145.301L23.087,145.502L23.146,145.703L23.205,145.903L23.266,146.102L23.328,146.3L23.391,146.497L23.455,146.693L23.52,146.889L23.587,147.085L23.655,147.279L23.723,147.472L23.793,147.664L23.864,147.856L23.936,148.047L24.01,148.237L24.084,148.426L24.16,148.615L24.236,148.802L24.314,148.988L24.393,149.175L24.473,149.36L24.554,149.544L24.637,149.728L24.72,149.91L24.804,150.092L24.89,150.273L24.977,150.453L25.065,150.633L25.154,150.811L25.244,150.989L25.335,151.166L25.428,151.342L25.521,151.517L25.616,151.691L25.712,151.866L25.809,152.039L25.906,152.211L26.006,152.382L26.106,152.553L26.207,152.722L26.31,152.891L26.414,153.06L26.518,153.227L26.624,153.394L26.731,153.559L26.839,153.724L26.949,153.888L27.059,154.051L27.171,154.214L27.283,154.376L27.397,154.537L27.512,154.697L27.628,154.856L27.745,155.015L27.863,155.172L27.983,155.33L28.104,155.486L28.225,155.641L28.348,155.796L28.473,155.95L28.597,156.103L28.724,156.255L28.852,156.407L28.98,156.557L29.11,156.708L29.242,156.857L29.374,157.005L29.507,157.152L29.641,157.299L29.777,157.445L29.915,157.591L30.052,157.734L30.191,157.878L30.333,158.021L30.474,158.163L30.617,158.305L30.761,158.445L30.907,158.585L31.053,158.724L31.201,158.861L31.35,158.999L31.5,159.136L31.651,159.271L31.804,159.406L31.958,159.54L32.112,159.673L32.269,159.806L32.427,159.938L32.586,160.069L32.746,160.198L32.907,160.328L33.07,160.456L33.235,160.584L33.399,160.71L33.565,160.836L33.733,160.962L33.901,161.085L34.072,161.209L34.244,161.332L34.417,161.454L34.592,161.576L34.766,161.695L34.942,161.814L35.121,161.933L35.3,162.051L35.48,162.167L35.662,162.283L35.845,162.398L36.031,162.513L36.216,162.626L36.404,162.738L36.593,162.85L36.781,162.96L36.973,163.07L37.166,163.179L37.36,163.288L37.555,163.395L37.751,163.501L37.949,163.606L38.149,163.711L38.349,163.814L38.551,163.917L38.755,164.019L38.959,164.119L39.167,164.22L39.374,164.319L39.582,164.416L39.792,164.513L40.004,164.609L40.217,164.704L40.431,164.799L40.648,164.892L40.865,164.984L41.083,165.076L41.304,165.166L41.526,165.256L41.747,165.343L41.972,165.431L42.198,165.518L42.425,165.603L42.653,165.687L42.883,165.77L43.114,165.853L43.346,165.934L43.582,166.014L43.817,166.094L44.053,166.172L44.292,166.249L44.532,166.325L44.773,166.4L45.016,166.474L45.26,166.547L45.506,166.619L45.753,166.689L46.001,166.759L46.251,166.828L46.502,166.895L46.755,166.961L47.009,167.026L47.264,167.091L47.522,167.154L47.781,167.216L48.04,167.276L48.301,167.336L48.566,167.395L48.83,167.452L49.094,167.508L49.362,167.563L49.631,167.617L49.901,167.67L50.174,167.721L50.445,167.771L50.72,167.82L50.996,167.868L51.273,167.915L51.552,167.961L51.832,168.005L52.114,168.048L52.397,168.09L52.682,168.13L52.968,168.17L53.256,168.208L53.544,168.245L53.835,168.281L54.127,168.315L54.421,168.348L54.715,168.38L55.011,168.41L55.31,168.44L55.609,168.468L55.908,168.495L56.211,168.52L56.515,168.544L56.819,168.567L57.125,168.589L57.434,168.609L57.743,168.628L58.054,168.645L58.366,168.661L58.68,168.676L58.995,168.69L59.311,168.702L59.63,168.713L59.949,168.722L60.269,168.73L60.592,168.737L60.916,168.742L61.242,168.746L61.568,168.749L61.898,168.75L237.521,168.75L237.566,168.747L237.81,168.729L238.054,168.71L238.299,168.689L238.545,168.668L238.788,168.645L239.032,168.622L239.275,168.597L239.519,168.571L239.764,168.543L240.007,168.515L240.25,168.486L240.493,168.455L240.735,168.424L240.977,168.391L241.22,168.357L241.463,168.322L241.704,168.286L241.946,168.248L242.187,168.21L242.427,168.17L242.668,168.13L242.908,168.088L243.148,168.045L243.388,168.001L243.628,167.955L243.867,167.909L244.105,167.862L244.344,167.813L244.582,167.763L244.82,167.712L245.057,167.66L245.294,167.607L245.532,167.553L245.767,167.498L246.003,167.441L246.239,167.383L246.474,167.325L246.709,167.265L246.943,167.204L247.177,167.142L247.412,167.079L247.645,167.014L247.876,166.949L248.108,166.883L248.341,166.815L248.572,166.746L248.803,166.676L249.033,166.605L249.263,166.533L249.493,166.46L249.722,166.386L249.949,166.311L250.178,166.234L250.405,166.157L250.631,166.078L250.858,165.998L251.085,165.917L251.31,165.835L251.533,165.752L251.757,165.668L251.982,165.582L252.205,165.496L252.426,165.409L252.649,165.32L252.871,165.23L253.091,165.14L253.311,165.048L253.53,164.955L253.749,164.861L253.968,164.766L254.186,164.67L254.402,164.573L254.619,164.474L254.834,164.375L255.049,164.274L255.263,164.173L255.478,164.07L255.691,163.966L255.902,163.862L256.115,163.755L256.326,163.649L256.536,163.541L256.746,163.431L256.954,163.321L257.163,163.21L257.37,163.098L257.576,162.984L257.783,162.869L257.989,162.754L258.193,162.637L258.396,162.52L258.599,162.401L258.802,162.281L259.003,162.16L259.205,162.038L259.405,161.915L259.604,161.791L259.802,161.666L260,161.54L260.196,161.413L260.392,161.285L260.587,161.155L260.782,161.025L260.976,160.893L261.169,160.76L261.361,160.627L261.551,160.493L261.741,160.357L261.931,160.22L262.119,160.083L262.307,159.944L262.494,159.804L262.68,159.662L262.866,159.52L263.05,159.377L263.233,159.234L263.415,159.088L263.597,158.942L263.777,158.795L263.957,158.647L264.136,158.498L264.315,158.346L264.491,158.196L264.667,158.043L264.843,157.889L265.017,157.735L265.19,157.58L265.362,157.423L265.534,157.265L265.705,157.106L265.874,156.946L266.042,156.786L266.211,156.623L266.377,156.46L266.543,156.297L266.707,156.132L266.871,155.966L267.034,155.798L267.196,155.63L267.356,155.461L267.516,155.29L267.676,155.119L267.833,154.946L267.99,154.773L268.146,154.598L268.301,154.422L268.454,154.246L268.607,154.069L268.759,153.889L268.909,153.71L269.059,153.529L269.207,153.346L269.355,153.163L269.501,152.979L269.646,152.794L269.791,152.607L269.935,152.42L270.077,152.231L270.218,152.042L270.358,151.852L270.497,151.66L270.635,151.467L270.772,151.273L270.907,151.078L271.042,150.882L271.175,150.685L271.308,150.486L271.439,150.287L271.569,150.087L271.698,149.885L271.826,149.681L271.953,149.479L272.078,149.274L272.203,149.067L272.326,148.86L272.448,148.652L272.569,148.443L272.689,148.232L272.808,148.02L272.925,147.807L273.042,147.594L273.157,147.378L273.271,147.162L273.383,146.945L273.495,146.726L273.605,146.506L273.714,146.286L273.823,146.063L273.93,145.84L274.035,145.616L274.139,145.39L274.242,145.163L274.344,144.936L274.444,144.707L274.544,144.476L274.641,144.245L274.738,144.012L274.834,143.778L274.928,143.544L275.021,143.307L275.113,143.069L275.203,142.831L275.291,142.592L275.379,142.35L275.466,142.107L275.551,141.865L275.634,141.62L275.717,141.373L275.798,141.125L275.878,140.877L275.956,140.628L276.033,140.377L276.108,140.125L276.183,139.871L276.255,139.616L276.327,139.36L276.397,139.103L276.465,138.845L276.532,138.585L276.598,138.323L276.663,138.061L276.725,137.797L276.787,137.532L276.847,137.266L276.905,136.998L276.962,136.729L277.018,136.459L277.072,136.188L277.125,135.915L277.176,135.64L277.225,135.364L277.274,135.087L277.32,134.811L277.365,134.531L277.408,134.249L277.45,133.968L277.491,133.685L277.529,133.399L277.567,133.113L277.602,132.825L277.636,132.537L277.669,132.247L277.699,131.955L277.729,131.662L277.756,131.368L277.782,131.072L277.806,130.775L277.829,130.477L277.85,130.177L277.869,129.876L277.887,129.573L277.903,129.269L277.917,128.964L277.929,128.657L277.931,128.609L277.914,128.292L277.88,127.713L277.845,127.139L277.807,126.568L277.767,126.002L277.726,125.44L277.682,124.881L277.636,124.327L277.588,123.777L277.538,123.231L277.486,122.689L277.432,122.151L277.376,121.617L277.319,121.087L277.259,120.561L277.197,120.039L277.133,119.522L277.067,119.007L276.999,118.498L276.93,117.992L276.858,117.491L276.785,116.993L276.709,116.499L276.632,116.01L276.552,115.524L276.471,115.043L276.388,114.566L276.303,114.092L276.216,113.623L276.127,113.157L276.037,112.696L275.944,112.239L275.85,111.785L275.754,111.336L275.656,110.892L275.556,110.45L275.455,110.013L275.352,109.58L275.246,109.15L275.14,108.726L275.031,108.304L274.921,107.887L274.809,107.474L274.695,107.065L274.578,106.654L274.521,106.458L274.462,106.258L274.403,106.059L274.343,105.861L274.283,105.663L274.223,105.468L274.162,105.273L274.101,105.078L274.039,104.885L273.977,104.693L273.915,104.502L273.852,104.312L273.788,104.122L273.725,103.934L273.66,103.746L273.596,103.56L273.531,103.376L273.466,103.192L273.4,103.008L273.333,102.825L273.267,102.644L273.2,102.464L273.133,102.285L273.065,102.106L272.997,101.928L272.929,101.752L272.86,101.578L272.791,101.402L272.721,101.229L272.651,101.057L272.581,100.885L272.51,100.714L272.439,100.544L272.367,100.376L272.296,100.208L272.224,100.042L272.151,99.876L272.078,99.711L272.005,99.547L271.931,99.384L271.857,99.222L271.782,99.061L271.708,98.901L271.633,98.743L271.557,98.584L271.482,98.428L271.406,98.271L271.329,98.116L271.252,97.961L271.175,97.808L271.098,97.656L271.02,97.504L270.941,97.353L270.863,97.204L270.784,97.055L270.705,96.907L270.626,96.762L270.546,96.616L270.465,96.47L270.385,96.327L270.304,96.183L270.223,96.041L270.142,95.9L270.06,95.76L269.977,95.621L269.895,95.482L269.812,95.344L269.729,95.208L269.646,95.072L269.562,94.937L269.478,94.804L269.394,94.67L269.309,94.538L269.224,94.407L269.139,94.277L269.053,94.147L268.967,94.019L268.881,93.891L268.795,93.765L268.708,93.638L268.62,93.513L268.533,93.389L268.446,93.266L268.358,93.143L268.269,93.022L268.181,92.901L268.092,92.782L268.002,92.662L267.913,92.543L267.823,92.427L267.733,92.311L267.644,92.196L267.553,92.081L267.461,91.966L267.37,91.853L267.279,91.741L267.187,91.63L267.094,91.518L267.002,91.409L266.91,91.301L266.816,91.192L266.724,91.085L266.63,90.979L266.536,90.873L266.442,90.768L266.347,90.663L266.252,90.56L266.157,90.458L266.062,90.356L265.967,90.256L265.871,90.155L265.774,90.056L265.678,89.957L265.581,89.86L265.484,89.762L265.386,89.666L265.289,89.571L265.191,89.476L265.093,89.382L264.994,89.288L264.895,89.196L264.796,89.104L264.697,89.013L264.597,88.923L264.497,88.834L264.396,88.744L264.296,88.656L264.195,88.57L264.093,88.482L263.991,88.396L263.889,88.311L263.788,88.227L263.685,88.143L263.582,88.06L263.479,87.978L263.375,87.896L263.271,87.815L263.168,87.735L263.062,87.655L262.958,87.576L262.853,87.498L262.747,87.42L262.641,87.343L262.535,87.267L262.428,87.192L262.322,87.117L262.213,87.042L262.105,86.968L261.998,86.896L261.89,86.824L261.782,86.752L261.673,86.681L261.563,86.611L261.453,86.541L261.343,86.472L261.232,86.404L261.121,86.336L261.01,86.269L260.899,86.203L260.787,86.137L260.674,86.072L260.562,86.008L260.449,85.944L260.334,85.88L260.22,85.817L260.105,85.755L259.992,85.694L259.876,85.633L259.761,85.573L259.645,85.514L259.528,85.455L259.411,85.396L259.294,85.339L259.176,85.282L259.057,85.225L258.94,85.169L258.821,85.114L258.701,85.059L258.581,85.005L258.461,84.952L258.339,84.899L258.219,84.847L258.097,84.795L257.975,84.744L257.852,84.694L257.73,84.644L257.606,84.595L257.481,84.546L257.357,84.498L257.234,84.451L257.108,84.404L256.981,84.358L256.855,84.312L256.729,84.267L256.601,84.223L256.473,84.179L256.345,84.136L256.216,84.093L256.087,84.051L255.957,84.01L255.827,83.969L255.696,83.929L255.565,83.889L255.433,83.85L255.3,83.812L255.167,83.774L255.034,83.737L254.9,83.7L254.766,83.664L254.632,83.629L254.496,83.594L254.36,83.56L254.223,83.526L254.087,83.493L253.949,83.461L253.81,83.429L253.673,83.398L253.534,83.368L253.393,83.338L253.253,83.308L253.113,83.28L252.972,83.252L252.829,83.224L252.687,83.197L252.545,83.171L252.4,83.145L252.258,83.121L252.112,83.096L251.966,83.072L251.822,83.049L251.675,83.027L251.528,83.005L251.381,82.984L251.233,82.963L251.084,82.943L250.936,82.924L250.787,82.905L250.636,82.887L250.485,82.869L250.333,82.852L250.182,82.836L250.03,82.821L249.877,82.806L249.723,82.791L249.569,82.778L249.415,82.765L249.26,82.752L249.104,82.741L248.947,82.73L248.79,82.719L248.633,82.709L248.475,82.7L248.316,82.692L248.157,82.684L247.997,82.677L247.837,82.67L247.675,82.664L247.514,82.659L247.353,82.654L247.19,82.65L247.025,82.647L246.863,82.645L246.698,82.643L246.533,82.641L246.368,82.641L246.201,82.641L246.035,82.641L245.868,82.643L245.7,82.645L245.531,82.648L245.363,82.651L245.198,82.655L244.852,82.665L244.509,82.678L244.164,82.693L243.816,82.712L243.467,82.732L243.114,82.756L242.76,82.783L242.403,82.812L242.045,82.843L241.684,82.878L241.32,82.915L240.954,82.955L240.587,82.998L240.217,83.044L239.845,83.092L239.47,83.143L239.094,83.197L238.715,83.254L238.333,83.313L237.95,83.376L237.565,83.441L237.177,83.509L236.788,83.579L236.396,83.653L236.002,83.729L235.605,83.808L235.207,83.89L234.807,83.975L234.404,84.062L233.999,84.153L233.593,84.246L233.184,84.342L232.773,84.441L232.36,84.543L231.944,84.647L231.527,84.754L231.108,84.864L230.687,84.977L230.264,85.093L229.838,85.212L229.41,85.333L228.981,85.457L228.549,85.585L228.116,85.714L227.681,85.847L227.243,85.983L226.803,86.121L226.362,86.262L225.918,86.406L225.473,86.553L225.026,86.703L224.577,86.855L224.125,87.01L223.672,87.169L223.217,87.329L222.76,87.493L222.301,87.66L221.84,87.829L221.377,88.001L220.912,88.176L220.446,88.354L219.978,88.534L219.507,88.717L219.035,88.903L218.561,89.092L218.085,89.284L217.607,89.478L217.128,89.676L216.646,89.876L216.163,90.078L215.677,90.284L215.191,90.492L214.702,90.703L214.211,90.917L207.313,93.951L207.27,93.931L205.077,86.791L204.937,86.34L204.797,85.891L204.656,85.445L204.515,85.002L204.374,84.561L204.232,84.123L204.09,83.687L203.948,83.254L203.805,82.824L203.662,82.396L203.518,81.971L203.374,81.548L203.229,81.128L203.084,80.711L202.939,80.296L202.793,79.884L202.646,79.474L202.499,79.067L202.352,78.662L202.204,78.26L202.056,77.861L201.908,77.464L201.759,77.069L201.609,76.677L201.459,76.288L201.308,75.901L201.157,75.517L201.006,75.135L200.854,74.756L200.701,74.379L200.549,74.005L200.395,73.633L200.241,73.264L200.087,72.897L199.932,72.533L199.776,72.171L199.62,71.812L199.464,71.455L199.307,71.101L199.149,70.749L198.991,70.4L198.832,70.053L198.673,69.708L198.514,69.366L198.353,69.026L198.193,68.689L198.031,68.355L197.869,68.022L197.707,67.693L197.544,67.365L197.38,67.04L197.216,66.717L197.052,66.397L196.887,66.079L196.721,65.764L196.554,65.451L196.388,65.14L196.22,64.831L196.052,64.526L195.883,64.222L195.714,63.92L195.544,63.622L195.374,63.325L195.203,63.03L195.031,62.738L194.859,62.449L194.686,62.161L194.513,61.876L194.339,61.593L194.164,61.313L193.989,61.034L193.813,60.758L193.636,60.485L193.459,60.213L193.282,59.944L193.103,59.676L192.924,59.411L192.744,59.149L192.564,58.888L192.383,58.63L192.201,58.374L192.019,58.12L191.836,57.868L191.653,57.619L191.468,57.371L191.283,57.125L191.097,56.882L190.911,56.641L190.724,56.402L190.536,56.165L190.348,55.929L190.159,55.697L189.969,55.466L189.778,55.237L189.587,55.01L189.395,54.785L189.202,54.562L189.008,54.341L188.814,54.123L188.619,53.906L188.423,53.691L188.226,53.478L188.029,53.266L187.83,53.057L187.631,52.85L187.431,52.645L187.231,52.441L187.029,52.239L186.827,52.039L186.623,51.841L186.42,51.646L186.214,51.451L186.008,51.258L185.802,51.067L185.594,50.879L185.385,50.691L185.176,50.506L184.966,50.322L184.754,50.14L184.542,49.96L184.329,49.781L184.114,49.604L183.898,49.429L183.682,49.255L183.465,49.083L183.246,48.913L183.027,48.744L182.806,48.577L182.585,48.412L182.362,48.248L182.138,48.085L181.913,47.924L181.687,47.766L181.46,47.608L181.231,47.452L181.001,47.297L180.771,47.144L180.539,46.993L180.306,46.843L180.071,46.695L179.836,46.548L179.598,46.402L179.36,46.258L179.121,46.115L178.879,45.974L178.637,45.835L178.394,45.697L178.148,45.56L177.902,45.424L177.654,45.29L177.405,45.158L177.155,45.027L176.903,44.897L176.649,44.769L176.394,44.642L176.138,44.516L175.88,44.392L175.621,44.27L175.359,44.148L175.097,44.028L174.833,43.91L174.568,43.792L174.3,43.676L174.031,43.562L173.761,43.448L173.489,43.337L173.216,43.226L172.94,43.117L172.663,43.009L172.384,42.902L172.104,42.797L171.822,42.693L171.538,42.591L171.253,42.489L170.965,42.39L170.677,42.291L170.385,42.194L170.093,42.098L169.799,42.003L169.503,41.91L169.205,41.818L168.905,41.727L168.603,41.638L168.3,41.55L167.994,41.463L167.687,41.377L167.379,41.293L167.067,41.21L166.754,41.129L166.44,41.049L166.123,40.97L165.805,40.892L165.484,40.816L165.162,40.741L164.838,40.667L164.511,40.595L164.183,40.523L163.852,40.454L163.52,40.385L163.186,40.318L162.85,40.252L162.512,40.187L162.171,40.124L161.829,40.062L161.485,40.001L161.138,39.941L160.79,39.883L160.44,39.826L160.087,39.771L159.733,39.716L159.376,39.663L159.018,39.612L158.657,39.561L158.294,39.512L157.929,39.464L157.562,39.417L157.193,39.372L156.822,39.328L156.448,39.285L156.073,39.244L155.695,39.203L155.315,39.165L154.933,39.127L154.549,39.09L154.163,39.055L153.775,39.021L153.384,38.989L152.992,38.957L152.597,38.927L152.199,38.898L151.8,38.871L151.399,38.844L150.996,38.819L150.589,38.796L150.181,38.773L149.771,38.752L149.359,38.732L148.944,38.713L148.527,38.695L148.108,38.679L147.687,38.664L147.263,38.65L146.838,38.637L146.409,38.626L145.979,38.615L145.547,38.607L145.112,38.599L144.675,38.592L144.235,38.587L143.794,38.583L143.35,38.58L142.903,38.578L142.455,38.578L142.004,38.578Z" style="fill:#989898;"/>
    <path d="M61.887,175C31.551,174.958 15.509,158.382 15.437,135.185C15.392,120.755 33.702,68.846 85.113,105.324C85.57,59.14 109.383,32.506 141.517,32.33C181.665,32.111 198.947,45.374 211.193,85.417C254.909,66.103 281.483,76.582 284.187,128.549C283.245,157.957 261.126,173.44 237.736,175L61.887,175Z" style="fill:url(#_Radial1);"/>
    <defs>
        <radialGradient id="_Radial1" cx="0" cy="0" r="1" gradientUnits="userSpaceOnUse" gradientTransform="matrix(268.75,0,0,268.75,68.5617,62.5)"><stop offset="0" style="stop-color:#d0d0d0;stop-opacity:1"/><stop offset="0.33" style="stop-color:#d0d0d0;stop-opacity:1"/><stop offset="0.42" style="stop-color:#d0d0d0;stop-opacity:1"/><stop offset="0.5" style="stop-color:#d1d1d1;stop-opacity:1"/><stop offset="0.5" style="stop-color:#bcbcbc;stop-opacity:1"/><stop offset="0.58" style="stop-color:#bdbdbd;stop-opacity:1"/><stop offset="0.67" style="stop-color:#bdbdbd;stop-opacity:1"/><stop offset="1" style="stop-color:#bdbdbd;stop-opacity:1"/></radialGradient>
    </defs>
</svg>
