<?xml version="1.0" encoding="UTF-8" standalone="no"?>
<!DOCTYPE svg PUBLIC "-//W3C//DTD SVG 1.1//EN" "http://www.w3.org/Graphics/SVG/1.1/DTD/svg11.dtd">
<svg width="100%" height="100%" viewBox="0 0 300 300" version="1.1" xmlns="http://www.w3.org/2000/svg" xmlns:xlink="http://www.w3.org/1999/xlink" xml:space="preserve" xmlns:serif="http://www.serif.com/" style="fill-rule:evenodd;clip-rule:evenodd;stroke-linecap:round;stroke-linejoin:round;stroke-miterlimit:1.5;">
    <circle cx="212.5" cy="87.5" r="65.625" style="fill:none;stroke:#ffb900;stroke-width:12.5px;"/>
    <circle cx="212.5" cy="87.5" r="65.625" style="fill:url(#_Radial1);"/>
    <path d="M209.536,89.323L209.904,89.329L210.271,89.339L210.637,89.351L211.001,89.367L211.365,89.386L211.728,89.408L212.09,89.432L212.452,89.461L212.811,89.492L213.169,89.526L213.527,89.563L213.885,89.604L214.241,89.648L214.596,89.695L214.949,89.745L215.302,89.798L215.654,89.855L216.004,89.915L216.353,89.978L216.701,90.044L217.048,90.114L217.394,90.187L217.739,90.264L218.083,90.344L218.425,90.427L218.766,90.514L219.106,90.604L219.444,90.697L219.781,90.794L220.111,90.893L220.286,90.947L220.451,90.998L220.617,91.051L220.785,91.106L220.951,91.161L221.117,91.216L221.283,91.273L221.447,91.331L221.612,91.389L221.777,91.449L221.94,91.509L222.104,91.57L222.266,91.631L222.43,91.695L222.592,91.758L222.753,91.822L222.917,91.889L223.077,91.955L223.237,92.021L223.399,92.09L223.56,92.159L223.716,92.228L223.877,92.299L224.037,92.372L224.194,92.443L224.352,92.516L224.51,92.591L224.667,92.666L224.824,92.742L224.98,92.819L225.135,92.896L225.291,92.975L225.446,93.055L225.6,93.135L225.753,93.216L225.908,93.298L226.062,93.382L226.216,93.466L226.366,93.55L226.517,93.635L226.669,93.722L226.821,93.81L226.97,93.898L227.119,93.986L227.27,94.078L227.418,94.168L227.566,94.259L227.715,94.353L227.862,94.446L228.009,94.54L228.157,94.636L228.301,94.731L228.445,94.827L228.591,94.926L228.736,95.025L228.879,95.124L229.021,95.223L229.165,95.326L229.309,95.429L229.449,95.531L229.589,95.634L229.73,95.738L229.872,95.845L230.01,95.95L230.149,96.057L230.288,96.165L230.425,96.274L230.563,96.384L230.698,96.493L230.836,96.605L230.971,96.717L231.106,96.83L231.241,96.944L231.374,97.058L231.509,97.174L231.641,97.29L231.773,97.407L231.904,97.524L232.035,97.642L232.166,97.763L232.296,97.883L232.426,98.004L232.553,98.125L232.681,98.247L232.81,98.372L232.937,98.496L233.062,98.62L233.189,98.746L233.314,98.873L233.438,98.999L233.562,99.128L233.685,99.256L233.808,99.386L233.93,99.516L234.052,99.647L234.172,99.779L234.293,99.912L234.413,100.046L234.532,100.179L234.65,100.314L234.768,100.45L234.886,100.587L235.002,100.723L235.119,100.862L235.234,101L235.348,101.139L235.464,101.28L235.577,101.42L235.689,101.561L235.803,101.705L235.914,101.847L236.025,101.99L236.136,102.135L236.246,102.281L236.356,102.427L236.464,102.574L236.572,102.72L236.68,102.869L236.786,103.017L236.892,103.165L236.999,103.318L237.105,103.469L237.208,103.62L237.316,103.778L237.518,104.078L237.722,104.388L237.923,104.701L238.122,105.015L238.318,105.333L238.512,105.654L238.703,105.977L238.892,106.303L239.079,106.632L239.264,106.963L239.446,107.297L239.625,107.634L239.803,107.973L239.978,108.316L240.15,108.66L240.32,109.008L240.488,109.358L240.654,109.71L240.817,110.066L240.978,110.424L241.137,110.785L241.294,111.148L241.448,111.514L241.6,111.883L241.749,112.253L241.897,112.628L242.042,113.004L242.185,113.383L242.326,113.765L242.465,114.149L242.601,114.536L242.735,114.926L242.867,115.318L242.997,115.712L243.125,116.11L243.251,116.511L243.374,116.913L243.495,117.319L243.614,117.727L243.732,118.138L243.846,118.551L243.959,118.967L244.07,119.386L244.178,119.807L244.285,120.231L244.39,120.658L244.492,121.087L244.592,121.519L244.691,121.954L244.787,122.391L244.881,122.831L244.973,123.275L245.063,123.72L245.151,124.168L245.237,124.619L245.321,125.073L245.403,125.53L245.483,125.989L245.561,126.451L245.637,126.915L245.711,127.382L245.783,127.853L245.853,128.327L245.921,128.802L245.986,129.28L246.05,129.762L246.113,130.246L246.173,130.733L246.231,131.223L246.287,131.715L246.341,132.211L246.393,132.709L246.443,133.21L246.491,133.714L246.538,134.221L246.582,134.73L246.624,135.243L246.665,135.759L246.703,136.276L246.74,136.798L246.774,137.322L246.807,137.849L246.838,138.379L246.881,139.176L246.861,139.76L246.847,140.083L246.832,140.405L246.816,140.726L246.797,141.047L246.777,141.365L246.754,141.683L246.73,142.001L246.705,142.316L246.677,142.631L246.648,142.946L246.616,143.26L246.583,143.572L246.549,143.883L246.512,144.193L246.474,144.503L246.434,144.811L246.392,145.118L246.348,145.424L246.303,145.73L246.256,146.034L246.207,146.338L246.156,146.64L246.104,146.941L246.05,147.242L245.994,147.54L245.937,147.839L245.877,148.137L245.817,148.432L245.754,148.727L245.69,149.021L245.624,149.315L245.556,149.607L245.487,149.897L245.416,150.187L245.343,150.477L245.268,150.765L245.193,151.05L245.115,151.336L245.035,151.622L244.954,151.905L244.872,152.187L244.787,152.468L244.702,152.748L244.614,153.028L244.525,153.306L244.434,153.583L244.342,153.858L244.248,154.133L244.152,154.407L244.055,154.68L243.956,154.951L243.856,155.221L243.754,155.491L243.651,155.759L243.546,156.025L243.44,156.291L243.332,156.555L243.222,156.819L243.111,157.082L242.998,157.343L242.884,157.602L242.768,157.863L242.651,158.119L242.533,158.375L242.413,158.632L242.291,158.886L242.169,159.138L242.044,159.39L241.918,159.642L241.791,159.89L241.662,160.138L241.532,160.386L241.4,160.631L241.267,160.876L241.133,161.12L240.997,161.361L240.86,161.603L240.72,161.844L240.581,162.083L240.44,162.318L240.297,162.555L240.153,162.791L240.008,163.023L239.861,163.257L239.713,163.488L239.564,163.717L239.413,163.946L239.261,164.175L239.108,164.401L238.953,164.626L238.797,164.85L238.641,165.071L238.483,165.293L238.322,165.514L238.162,165.732L238,165.949L237.837,166.166L237.673,166.381L237.507,166.595L237.34,166.808L237.172,167.019L237.003,167.229L236.833,167.437L236.662,167.644L236.488,167.851L236.314,168.056L236.14,168.259L235.965,168.461L235.787,168.663L235.608,168.863L235.429,169.061L235.249,169.258L235.067,169.454L234.884,169.649L234.701,169.842L234.517,170.034L234.33,170.226L234.143,170.415L233.956,170.602L233.768,170.789L233.578,170.975L233.386,171.16L233.194,171.342L233.002,171.524L232.808,171.705L232.613,171.883L232.418,172.061L232.22,172.239L232.023,172.413L231.825,172.587L231.626,172.76L231.425,172.931L231.224,173.102L231.021,173.271L230.818,173.438L230.615,173.604L230.409,173.769L230.203,173.933L229.998,174.094L229.789,174.256L229.582,174.416L229.373,174.574L229.162,174.731L228.952,174.887L228.74,175.042L228.527,175.195L228.315,175.347L228.101,175.498L227.886,175.648L227.67,175.796L227.454,175.942L227.238,176.088L227.019,176.232L226.801,176.375L226.582,176.517L226.361,176.658L226.141,176.797L225.92,176.934L225.698,177.071L225.476,177.206L225.252,177.34L225.026,177.474L224.803,177.604L224.578,177.734L224.351,177.863L224.123,177.992L223.896,178.118L223.669,178.242L223.44,178.366L223.211,178.489L222.981,178.61L222.75,178.73L222.52,178.849L222.287,178.967L222.055,179.083L221.822,179.198L221.589,179.311L221.355,179.424L221.12,179.535L220.886,179.644L220.65,179.753L220.413,179.861L220.177,179.967L219.939,180.072L219.701,180.175L219.463,180.278L219.225,180.378L218.986,180.478L218.746,180.577L218.506,180.674L218.265,180.77L218.023,180.865L217.782,180.959L217.539,181.052L217.297,181.142L217.055,181.232L216.811,181.321L216.566,181.409L216.322,181.495L216.078,181.579L215.833,181.663L215.587,181.745L215.341,181.826L215.095,181.906L214.848,181.985L214.601,182.062L214.354,182.139L214.106,182.214L213.859,182.287L213.609,182.36L213.359,182.432L213.112,182.501L212.862,182.57L212.612,182.638L212.361,182.704L212.11,182.769L211.86,182.833L211.609,182.896L211.358,182.957L211.105,183.018L210.853,183.077L210.601,183.134L210.348,183.191L210.095,183.246L209.843,183.301L209.588,183.354L209.335,183.405L209.081,183.456L208.828,183.505L208.573,183.553L208.318,183.6L208.062,183.646L207.809,183.69L207.554,183.733L207.296,183.775L207.041,183.816L206.786,183.855L206.529,183.894L206.273,183.931L206.017,183.967L205.76,184.002L205.503,184.035L205.247,184.067L204.989,184.099L204.732,184.129L204.475,184.157L204.216,184.185L203.959,184.211L203.701,184.236L203.444,184.26L203.185,184.283L202.927,184.304L202.669,184.324L202.41,184.343L201.951,184.375L54.504,184.375L54.182,184.374L53.858,184.371L53.537,184.367L53.215,184.362L52.896,184.355L52.577,184.348L52.258,184.338L51.942,184.327L51.626,184.315L51.311,184.302L50.996,184.287L50.683,184.27L50.372,184.253L50.06,184.234L49.749,184.214L49.439,184.192L49.133,184.169L48.825,184.144L48.517,184.118L48.212,184.091L47.908,184.063L47.605,184.033L47.302,184.002L47.001,183.969L46.701,183.935L46.4,183.9L46.103,183.863L45.805,183.825L45.508,183.786L45.212,183.745L44.918,183.703L44.624,183.66L44.33,183.615L44.039,183.569L43.749,183.521L43.459,183.472L43.171,183.422L42.883,183.371L42.596,183.318L42.31,183.264L42.025,183.208L41.742,183.151L41.459,183.093L41.177,183.034L40.896,182.973L40.617,182.911L40.338,182.847L40.06,182.782L39.784,182.716L39.508,182.648L39.233,182.579L38.959,182.509L38.688,182.438L38.416,182.365L38.144,182.29L37.876,182.215L37.607,182.138L37.339,182.06L37.072,181.98L36.808,181.899L36.544,181.817L36.28,181.734L36.016,181.648L35.756,181.562L35.496,181.475L35.236,181.386L34.979,181.296L34.722,181.205L34.466,181.112L34.211,181.018L33.956,180.922L33.704,180.825L33.453,180.728L33.201,180.628L32.952,180.527L32.704,180.425L32.457,180.322L32.21,180.218L31.965,180.111L31.721,180.005L31.478,179.896L31.236,179.786L30.996,179.675L30.755,179.562L30.517,179.449L30.281,179.334L30.044,179.218L29.808,179.1L29.574,178.981L29.342,178.861L29.11,178.739L28.879,178.616L28.65,178.493L28.421,178.367L28.195,178.241L27.969,178.113L27.744,177.984L27.52,177.854L27.297,177.721L27.076,177.589L26.857,177.455L26.638,177.32L26.419,177.182L26.203,177.044L25.988,176.905L25.774,176.765L25.562,176.624L25.35,176.48L25.139,176.336L24.931,176.192L24.722,176.045L24.515,175.896L24.31,175.747L24.106,175.597L23.903,175.446L23.701,175.293L23.501,175.139L23.302,174.984L23.104,174.828L22.907,174.67L22.712,174.512L22.518,174.352L22.325,174.191L22.134,174.029L21.944,173.865L21.755,173.701L21.566,173.534L21.381,173.368L21.196,173.2L21.012,173.03L20.83,172.86L20.649,172.689L20.47,172.517L20.292,172.343L20.115,172.168L19.939,171.992L19.764,171.815L19.593,171.638L19.421,171.458L19.25,171.277L19.082,171.096L18.914,170.914L18.749,170.73L18.584,170.546L18.421,170.36L18.26,170.174L18.099,169.986L17.94,169.797L17.783,169.607L17.627,169.417L17.472,169.225L17.318,169.031L17.166,168.838L17.016,168.643L16.867,168.447L16.719,168.251L16.573,168.052L16.428,167.854L16.285,167.654L16.143,167.453L16.003,167.252L15.864,167.05L15.727,166.846L15.59,166.641L15.455,166.436L15.323,166.23L15.191,166.023L15.061,165.815L14.932,165.606L14.805,165.396L14.679,165.186L14.554,164.974L14.432,164.762L14.31,164.548L14.19,164.334L14.072,164.119L13.955,163.903L13.839,163.687L13.725,163.47L13.613,163.252L13.501,163.032L13.392,162.813L13.284,162.592L13.177,162.371L13.072,162.148L12.969,161.926L12.866,161.702L12.765,161.477L12.667,161.253L12.569,161.027L12.473,160.8L12.378,160.573L12.285,160.344L12.193,160.116L12.103,159.886L12.014,159.656L11.927,159.426L11.841,159.194L11.756,158.962L11.674,158.729L11.593,158.496L11.513,158.262L11.434,158.026L11.357,157.791L11.282,157.555L11.208,157.318L11.136,157.081L11.065,156.843L10.995,156.605L10.927,156.366L10.861,156.126L10.796,155.886L10.732,155.644L10.67,155.403L10.61,155.162L10.55,154.919L10.493,154.675L10.436,154.432L10.382,154.188L10.328,153.942L10.277,153.697L10.226,153.452L10.177,153.205L10.13,152.958L10.084,152.711L10.04,152.463L9.997,152.214L9.955,151.965L9.915,151.716L9.876,151.466L9.839,151.216L9.803,150.964L9.769,150.713L9.736,150.462L9.705,150.209L9.675,149.956L9.646,149.703L9.619,149.45L9.593,149.195L9.569,148.94L9.546,148.686L9.525,148.43L9.505,148.174L9.486,147.918L9.469,147.662L9.454,147.404L9.439,147.146L9.427,146.889L9.415,146.631L9.405,146.372L9.397,146.112L9.39,145.853L9.384,145.593L9.379,145.333L9.377,145.072L9.375,144.804L9.375,144.607L9.378,144.402L9.382,144.196L9.388,143.989L9.396,143.781L9.406,143.573L9.417,143.363L9.431,143.152L9.446,142.94L9.463,142.727L9.481,142.512L9.501,142.295L9.523,142.077L9.547,141.859L9.572,141.638L9.599,141.416L9.627,141.193L9.657,140.968L9.689,140.741L9.722,140.513L9.757,140.284L9.793,140.053L9.832,139.82L9.872,139.586L9.913,139.35L9.956,139.115L10.001,138.875L10.047,138.635L10.095,138.394L10.145,138.151L10.197,137.907L10.25,137.661L10.304,137.414L10.361,137.166L10.419,136.916L10.479,136.664L10.54,136.412L10.603,136.158L10.668,135.903L10.735,135.647L10.803,135.389L10.873,135.131L10.944,134.871L11.018,134.609L11.093,134.347L11.17,134.084L11.249,133.819L11.329,133.554L11.411,133.287L11.495,133.02L11.581,132.751L11.669,132.482L11.758,132.212L11.849,131.94L11.942,131.669L12.037,131.396L12.134,131.122L12.232,130.847L12.333,130.572L12.435,130.296L12.539,130.02L12.645,129.742L12.753,129.464L12.863,129.186L12.974,128.907L13.088,128.628L13.204,128.348L13.321,128.067L13.441,127.786L13.562,127.505L13.685,127.224L13.811,126.942L13.938,126.66L14.067,126.377L14.199,126.094L14.332,125.812L14.467,125.529L14.605,125.245L14.744,124.962L14.886,124.679L15.03,124.395L15.175,124.112L15.323,123.829L15.473,123.546L15.625,123.263L15.78,122.979L15.936,122.697L16.095,122.414L16.255,122.132L16.418,121.85L16.584,121.568L16.751,121.287L16.92,121.006L17.092,120.726L17.266,120.446L17.443,120.166L17.621,119.887L17.802,119.609L17.986,119.331L18.172,119.054L18.36,118.778L18.55,118.502L18.742,118.228L18.938,117.953L19.135,117.68L19.335,117.408L19.538,117.137L19.742,116.866L19.95,116.597L20.16,116.328L20.372,116.061L20.588,115.795L20.805,115.53L21.025,115.266L21.248,115.004L21.472,114.743L21.7,114.484L21.931,114.225L22.164,113.968L22.399,113.714L22.638,113.459L22.879,113.207L23.123,112.957L23.369,112.708L23.619,112.461L23.87,112.216L24.125,111.972L24.382,111.731L24.643,111.491L24.906,111.253L25.172,111.018L25.441,110.784L25.712,110.553L25.986,110.324L26.258,110.102L26.403,109.985L26.543,109.873L26.685,109.762L26.827,109.651L26.97,109.54L27.114,109.43L27.256,109.323L27.401,109.214L27.548,109.106L27.693,108.999L27.84,108.893L27.988,108.787L28.137,108.682L28.286,108.578L28.436,108.474L28.586,108.372L28.737,108.269L28.889,108.168L29.043,108.066L29.197,107.966L29.35,107.868L29.505,107.769L29.661,107.671L29.817,107.574L29.976,107.477L30.134,107.381L30.291,107.287L30.45,107.193L30.611,107.1L30.772,107.007L30.934,106.915L31.096,106.825L31.261,106.734L31.424,106.645L31.587,106.558L31.753,106.47L31.92,106.383L32.086,106.298L32.252,106.213L32.422,106.128L32.591,106.045L32.76,105.963L32.931,105.882L33.102,105.802L33.273,105.722L33.447,105.643L33.62,105.565L33.793,105.489L33.968,105.413L34.144,105.339L34.32,105.265L34.497,105.192L34.674,105.12L34.853,105.049L35.031,104.979L35.212,104.91L35.391,104.843L35.572,104.776L35.754,104.71L35.937,104.645L36.12,104.582L36.303,104.519L36.488,104.457L36.673,104.397L36.858,104.338L37.045,104.279L37.233,104.221L37.419,104.166L37.608,104.11L37.798,104.056L37.987,104.003L38.177,103.952L38.368,103.901L38.56,103.851L38.753,103.803L38.945,103.756L39.139,103.71L39.332,103.665L39.528,103.621L39.723,103.578L39.919,103.537L40.117,103.497L40.313,103.458L40.51,103.42L40.709,103.383L40.909,103.348L41.109,103.313L41.309,103.28L41.51,103.249L41.711,103.218L41.912,103.189L42.116,103.161L42.318,103.134L42.522,103.108L42.727,103.084L42.93,103.061L43.136,103.039L43.343,103.018L43.549,102.999L43.756,102.981L43.963,102.964L44.171,102.949L44.381,102.935L44.589,102.922L44.797,102.91L45.007,102.9L45.219,102.891L45.43,102.883L45.641,102.877L45.854,102.872L46.066,102.868L46.279,102.866L46.493,102.865L46.707,102.865L46.922,102.867L47.137,102.869L47.352,102.874L47.568,102.879L47.784,102.886L48.001,102.894L48.22,102.904L48.435,102.915L48.653,102.927L48.874,102.941L49.093,102.956L49.311,102.972L49.531,102.99L49.752,103.009L49.973,103.03L50.195,103.052L50.417,103.075L50.638,103.1L50.861,103.126L51.084,103.153L51.306,103.182L51.532,103.212L51.756,103.243L51.98,103.276L52.206,103.311L52.43,103.346L52.657,103.383L52.884,103.422L53.111,103.462L53.338,103.503L53.565,103.546L53.793,103.59L54.021,103.635L54.251,103.682L54.48,103.731L54.709,103.78L54.938,103.831L55.169,103.884L55.401,103.938L55.632,103.994L55.862,104.05L56.094,104.108L56.327,104.168L56.56,104.229L56.794,104.292L57.027,104.356L57.261,104.421L57.495,104.488L57.729,104.556L57.965,104.626L58.201,104.697L58.436,104.769L58.671,104.843L58.91,104.919L59.147,104.996L59.384,105.074L59.621,105.154L59.86,105.236L60.098,105.318L60.337,105.402L60.577,105.488L60.816,105.575L61.057,105.664L61.297,105.754L61.539,105.845L61.78,105.939L62.021,106.033L62.263,106.128L62.507,106.226L62.749,106.325L62.993,106.425L63.237,106.527L63.48,106.63L63.725,106.735L63.971,106.842L64.216,106.95L64.462,107.059L64.708,107.17L64.954,107.282L65.201,107.396L65.449,107.511L65.698,107.628L65.946,107.747L66.194,107.867L66.442,107.988L66.693,108.111L66.943,108.236L67.193,108.361L67.445,108.489L67.695,108.618L67.947,108.749L68.199,108.881L68.328,108.949L68.359,108.665L68.409,108.222L68.461,107.78L68.515,107.34L68.57,106.901L68.628,106.464L68.687,106.028L68.748,105.594L68.81,105.161L68.875,104.729L68.941,104.299L69.009,103.871L69.079,103.444L69.151,103.018L69.224,102.594L69.299,102.172L69.376,101.75L69.455,101.33L69.536,100.912L69.618,100.496L69.702,100.081L69.787,99.667L69.875,99.255L69.964,98.844L70.055,98.435L70.148,98.027L70.243,97.621L70.339,97.216L70.437,96.813L70.537,96.411L70.638,96.011L70.741,95.613L70.846,95.216L70.953,94.82L71.061,94.426L71.171,94.034L71.283,93.643L71.396,93.254L71.512,92.866L71.629,92.479L71.747,92.095L71.868,91.712L71.99,91.33L72.113,90.95L72.239,90.572L72.366,90.194L72.495,89.819L72.625,89.446L72.757,89.073L72.891,88.702L73.027,88.334L73.164,87.966L73.303,87.6L73.443,87.236L73.585,86.874L73.729,86.512L73.875,86.152L74.022,85.795L74.171,85.439L74.321,85.084L74.474,84.731L74.627,84.38L74.783,84.03L74.94,83.682L75.099,83.335L75.259,82.991L75.421,82.647L75.585,82.306L75.75,81.966L75.917,81.628L76.085,81.292L76.256,80.956L76.427,80.623L76.601,80.292L76.776,79.962L76.952,79.634L77.13,79.307L77.31,78.983L77.491,78.659L77.674,78.338L77.859,78.018L78.045,77.7L78.233,77.384L78.422,77.07L78.613,76.757L78.806,76.445L79,76.136L79.195,75.829L79.392,75.523L79.591,75.219L79.791,74.916L79.993,74.616L80.196,74.317L80.401,74.02L80.608,73.725L80.816,73.432L81.025,73.14L81.237,72.85L81.449,72.562L81.663,72.276L81.879,71.992L82.096,71.709L82.314,71.428L82.535,71.149L82.756,70.872L82.979,70.597L83.204,70.323L83.43,70.052L83.658,69.782L83.887,69.514L84.117,69.248L84.349,68.984L84.583,68.722L84.818,68.461L85.054,68.203L85.291,67.947L85.531,67.692L85.772,67.439L86.014,67.188L86.258,66.939L86.502,66.693L86.749,66.448L86.997,66.204L87.246,65.963L87.496,65.724L87.748,65.487L88.001,65.252L88.257,65.018L88.512,64.787L88.77,64.558L89.029,64.33L89.289,64.105L89.55,63.882L89.814,63.66L90.078,63.441L90.343,63.224L90.61,63.008L90.879,62.795L91.147,62.584L91.418,62.375L91.691,62.167L91.964,61.962L92.238,61.759L92.515,61.558L92.792,61.359L93.07,61.163L93.35,60.968L93.63,60.775L93.912,60.585L94.196,60.396L94.481,60.209L94.766,60.025L95.053,59.843L95.342,59.663L95.631,59.485L95.922,59.309L96.213,59.136L96.506,58.964L96.8,58.794L97.095,58.627L97.392,58.462L97.689,58.299L97.987,58.139L98.287,57.98L98.588,57.823L98.891,57.669L99.193,57.517L99.497,57.367L99.802,57.219L100.108,57.074L100.415,56.93L100.724,56.789L101.033,56.65L101.343,56.514L101.654,56.379L101.967,56.246L102.28,56.116L102.595,55.988L102.911,55.862L103.226,55.739L103.543,55.618L103.861,55.499L104.181,55.382L104.501,55.267L104.822,55.155L105.144,55.045L105.467,54.937L105.79,54.831L106.115,54.728L106.441,54.627L106.767,54.528L107.094,54.432L107.422,54.337L107.751,54.245L108.081,54.155L108.411,54.068L108.743,53.982L109.075,53.899L109.408,53.819L109.741,53.74L110.076,53.664L110.412,53.59L110.748,53.518L111.084,53.449L111.422,53.382L111.761,53.317L112.1,53.255L112.44,53.194L112.78,53.136L113.122,53.081L113.463,53.027L113.806,52.976L114.149,52.927L114.493,52.881L114.838,52.836L115.183,52.794L115.53,52.755L115.876,52.717L116.223,52.682L116.571,52.649L116.919,52.619L117.268,52.59L117.618,52.565L117.968,52.541L118.319,52.519L118.671,52.5L119.023,52.483L119.375,52.469L119.728,52.457L120.083,52.447L120.437,52.439L120.791,52.434L121.14,52.431L121.555,52.429L121.963,52.428L122.37,52.429L122.775,52.43L123.178,52.433L123.58,52.437L123.98,52.442L124.379,52.448L124.776,52.455L125.171,52.463L125.566,52.472L125.959,52.483L126.35,52.494L126.74,52.507L127.129,52.521L127.516,52.536L127.902,52.553L128.286,52.57L128.668,52.589L129.05,52.608L129.43,52.629L129.809,52.652L130.186,52.675L130.561,52.7L130.936,52.726L131.309,52.753L131.681,52.781L132.051,52.811L132.42,52.841L132.787,52.874L133.154,52.907L133.519,52.942L133.882,52.977L134.245,53.015L134.606,53.053L134.966,53.093L135.324,53.134L135.681,53.176L136.037,53.22L136.392,53.265L136.745,53.311L137.096,53.359L137.448,53.408L137.798,53.459L138.145,53.511L138.492,53.564L138.839,53.618L139.183,53.674L139.526,53.732L139.868,53.79L140.209,53.85L140.548,53.912L140.886,53.975L141.224,54.039L141.56,54.105L141.894,54.173L142.228,54.242L142.56,54.312L142.891,54.383L143.221,54.457L143.55,54.531L143.878,54.608L144.204,54.685L144.529,54.765L144.853,54.846L145.177,54.928L145.498,55.012L145.818,55.097L146.138,55.184L146.456,55.273L146.773,55.363L147.089,55.454L147.405,55.548L147.718,55.643L148.029,55.739L148.341,55.837L148.652,55.937L148.96,56.038L149.268,56.141L149.574,56.246L149.88,56.352L150.184,56.46L150.488,56.569L150.789,56.681L151.09,56.793L151.39,56.908L151.689,57.024L151.986,57.143L152.282,57.262L152.577,57.383L152.871,57.506L153.164,57.631L153.455,57.758L153.746,57.886L154.035,58.016L154.322,58.147L154.609,58.281L154.895,58.416L155.18,58.553L155.463,58.691L155.745,58.832L156.026,58.974L156.306,59.118L156.584,59.264L156.861,59.411L157.138,59.561L157.412,59.712L157.685,59.864L157.958,60.019L158.23,60.175L158.5,60.334L158.768,60.493L159.035,60.655L159.302,60.818L159.567,60.983L159.831,61.151L160.094,61.32L160.354,61.49L160.614,61.662L160.874,61.837L161.131,62.012L161.387,62.19L161.642,62.369L161.896,62.551L162.148,62.734L162.4,62.919L162.65,63.106L162.898,63.293L163.146,63.484L163.392,63.676L163.637,63.869L163.88,64.064L164.122,64.262L164.364,64.461L164.603,64.661L164.842,64.864L165.079,65.068L165.314,65.274L165.549,65.482L165.782,65.691L166.014,65.902L166.245,66.115L166.474,66.33L166.702,66.546L166.929,66.764L167.155,66.984L167.379,67.205L167.602,67.428L167.823,67.653L168.044,67.88L168.263,68.107L168.481,68.337L168.698,68.569L168.913,68.802L169.127,69.037L169.34,69.274L169.551,69.512L169.762,69.753L169.971,69.994L170.178,70.236L170.385,70.482L170.591,70.729L170.795,70.977L170.998,71.227L171.199,71.478L171.4,71.731L171.599,71.986L171.798,72.243L171.994,72.501L172.19,72.76L172.385,73.022L172.578,73.285L172.771,73.55L172.961,73.815L173.151,74.083L173.34,74.353L173.528,74.624L173.714,74.897L173.9,75.171L174.085,75.448L174.268,75.725L174.449,76.004L174.631,76.285L174.811,76.568L174.989,76.851L175.167,77.137L175.344,77.425L175.52,77.713L175.695,78.004L175.868,78.296L176.041,78.59L176.213,78.885L176.383,79.183L176.553,79.481L176.721,79.781L176.889,80.083L177.056,80.386L177.222,80.692L177.387,80.999L177.551,81.308L177.713,81.617L177.875,81.928L178.036,82.242L178.197,82.558L178.356,82.874L178.514,83.192L178.672,83.513L178.829,83.834L178.984,84.157L179.139,84.482L179.293,84.809L179.447,85.137L179.599,85.466L179.751,85.798L179.901,86.132L180.051,86.467L180.201,86.804L180.349,87.143L180.497,87.482L180.643,87.823L180.79,88.167L180.935,88.512L181.08,88.859L181.224,89.208L181.367,89.559L181.509,89.91L181.651,90.264L181.792,90.619L181.932,90.976L182.072,91.336L182.211,91.697L182.349,92.059L182.487,92.423L182.624,92.789L182.761,93.157L182.897,93.527L183.032,93.899L183.166,94.271L183.3,94.646L183.35,94.786L183.586,94.696L184.017,94.534L184.447,94.374L184.876,94.217L185.304,94.061L185.731,93.908L186.157,93.758L186.582,93.609L187.006,93.464L187.429,93.32L187.851,93.179L188.272,93.04L188.691,92.904L189.11,92.77L189.527,92.639L189.945,92.509L190.36,92.383L190.775,92.258L191.189,92.136L191.601,92.017L192.013,91.9L192.423,91.786L192.834,91.674L193.242,91.564L193.649,91.457L194.056,91.353L194.462,91.25L194.867,91.151L195.27,91.054L195.672,90.959L196.074,90.867L196.475,90.778L196.875,90.691L197.274,90.606L197.671,90.525L198.068,90.445L198.464,90.369L198.859,90.295L199.253,90.223L199.646,90.154L200.039,90.088L200.43,90.024L200.819,89.964L201.209,89.905L201.597,89.85L201.984,89.797L202.371,89.747L202.756,89.699L203.141,89.654L203.525,89.612L203.907,89.573L204.289,89.536L204.67,89.503L205.05,89.472L205.429,89.444L205.807,89.418L206.185,89.396L206.56,89.376L206.935,89.359L207.31,89.345L207.684,89.334L208.055,89.326L208.427,89.321L208.798,89.318L209.167,89.319L209.536,89.323ZM121.592,64.929L121.221,64.93L120.94,64.933L120.666,64.937L120.393,64.943L120.121,64.951L119.85,64.96L119.578,64.971L119.308,64.984L119.039,64.999L118.771,65.015L118.503,65.033L118.236,65.053L117.97,65.075L117.704,65.098L117.44,65.123L117.176,65.15L116.912,65.178L116.65,65.208L116.389,65.24L116.128,65.273L115.868,65.309L115.609,65.345L115.35,65.384L115.093,65.424L114.837,65.466L114.58,65.51L114.325,65.555L114.07,65.602L113.817,65.651L113.564,65.701L113.311,65.753L113.06,65.806L112.81,65.862L112.561,65.918L112.311,65.977L112.062,66.037L111.816,66.099L111.569,66.162L111.323,66.227L111.078,66.294L110.834,66.362L110.591,66.433L110.348,66.504L110.106,66.578L109.865,66.652L109.625,66.729L109.385,66.807L109.146,66.887L108.909,66.968L108.672,67.051L108.436,67.135L108.2,67.222L107.966,67.309L107.731,67.399L107.498,67.49L107.266,67.583L107.034,67.677L106.803,67.773L106.574,67.87L106.345,67.969L106.116,68.07L105.888,68.173L105.662,68.276L105.436,68.382L105.21,68.489L104.986,68.597L104.762,68.708L104.539,68.82L104.317,68.933L104.097,69.048L103.876,69.165L103.656,69.283L103.437,69.403L103.219,69.525L103.002,69.648L102.785,69.773L102.57,69.899L102.355,70.027L102.14,70.157L101.927,70.287L101.715,70.42L101.503,70.555L101.292,70.691L101.082,70.829L100.873,70.967L100.665,71.108L100.457,71.251L100.25,71.395L100.044,71.541L99.839,71.688L99.634,71.837L99.431,71.987L99.227,72.14L99.026,72.293L98.825,72.448L98.624,72.606L98.425,72.764L98.227,72.924L98.029,73.086L97.831,73.25L97.635,73.415L97.44,73.582L97.245,73.751L97.052,73.921L96.859,74.092L96.667,74.266L96.476,74.44L96.286,74.617L96.096,74.796L95.908,74.976L95.719,75.158L95.533,75.34L95.347,75.525L95.162,75.712L94.978,75.901L94.794,76.091L94.612,76.282L94.431,76.475L94.25,76.67L94.07,76.867L93.891,77.065L93.713,77.265L93.536,77.467L93.36,77.67L93.184,77.875L93.01,78.082L92.837,78.29L92.664,78.499L92.493,78.712L92.322,78.925L92.152,79.14L91.983,79.357L91.816,79.575L91.649,79.795L91.482,80.018L91.318,80.241L91.154,80.466L90.991,80.693L90.829,80.921L90.668,81.152L90.508,81.384L90.349,81.617L90.19,81.853L90.033,82.09L89.877,82.329L89.722,82.569L89.568,82.812L89.415,83.056L89.263,83.301L89.112,83.548L88.962,83.798L88.813,84.049L88.666,84.301L88.519,84.555L88.373,84.811L88.228,85.069L88.085,85.328L87.942,85.589L87.801,85.852L87.661,86.116L87.521,86.383L87.383,86.651L87.246,86.92L87.11,87.192L86.976,87.465L86.842,87.74L86.71,88.016L86.578,88.294L86.448,88.574L86.319,88.856L86.191,89.139L86.064,89.425L85.939,89.712L85.814,90L85.691,90.29L85.569,90.583L85.448,90.876L85.329,91.171L85.21,91.468L85.093,91.767L84.977,92.068L84.862,92.371L84.749,92.674L84.636,92.98L84.525,93.287L84.416,93.597L84.307,93.908L84.2,94.22L84.094,94.534L83.989,94.85L83.886,95.169L83.784,95.488L83.683,95.809L83.583,96.132L83.485,96.456L83.388,96.782L83.292,97.111L83.198,97.44L83.105,97.772L83.014,98.105L82.923,98.439L82.834,98.776L82.747,99.114L82.661,99.454L82.576,99.796L82.492,100.139L82.41,100.484L82.33,100.83L82.25,101.179L82.173,101.529L82.096,101.88L82.021,102.234L81.948,102.589L81.875,102.946L81.805,103.304L81.735,103.664L81.667,104.026L81.601,104.389L81.536,104.755L81.472,105.122L81.41,105.49L81.35,105.86L81.291,106.232L81.233,106.606L81.177,106.981L81.123,107.357L81.07,107.736L81.018,108.116L80.968,108.498L80.919,108.881L80.873,109.266L80.827,109.653L80.783,110.042L80.741,110.432L80.7,110.823L80.661,111.217L80.623,111.612L80.587,112.008L80.552,112.407L80.52,112.806L80.488,113.208L80.459,113.611L80.43,114.016L80.404,114.423L80.379,114.831L80.356,115.24L80.334,115.652L80.314,116.065L80.296,116.479L80.279,116.895L80.264,117.313L80.25,117.733L80.238,118.153L80.228,118.576L80.22,119L80.213,119.426L80.121,127.172L76.317,129.113L70.106,124.723L69.872,124.558L69.639,124.396L69.406,124.234L69.174,124.075L68.943,123.917L68.712,123.761L68.483,123.607L68.254,123.454L68.026,123.303L67.799,123.154L67.572,123.006L67.346,122.86L67.121,122.715L66.897,122.572L66.673,122.431L66.451,122.291L66.23,122.154L66.008,122.017L65.788,121.882L65.569,121.749L65.35,121.618L65.132,121.488L64.915,121.359L64.699,121.233L64.484,121.107L64.27,120.984L64.055,120.862L63.842,120.741L63.63,120.622L63.418,120.504L63.207,120.388L62.998,120.274L62.789,120.162L62.58,120.05L62.373,119.94L62.167,119.832L61.96,119.725L61.755,119.619L61.551,119.516L61.347,119.413L61.145,119.312L60.944,119.213L60.742,119.115L60.541,119.018L60.341,118.923L60.143,118.829L59.946,118.737L59.748,118.646L59.552,118.557L59.356,118.469L59.161,118.382L58.968,118.297L58.775,118.213L58.583,118.131L58.391,118.05L58.201,117.97L58.01,117.892L57.821,117.815L57.634,117.74L57.446,117.665L57.258,117.592L57.073,117.52L56.888,117.45L56.704,117.381L56.521,117.314L56.337,117.247L56.156,117.182L55.975,117.118L55.794,117.056L55.616,116.995L55.436,116.935L55.258,116.876L55.081,116.818L54.906,116.763L54.73,116.708L54.554,116.653L54.381,116.601L54.209,116.55L54.035,116.5L53.864,116.451L53.693,116.403L53.523,116.356L53.354,116.311L53.186,116.267L53.019,116.224L52.852,116.182L52.685,116.141L52.519,116.102L52.356,116.063L52.193,116.026L52.029,115.99L51.866,115.954L51.705,115.92L51.545,115.888L51.385,115.856L51.225,115.825L51.067,115.795L50.91,115.767L50.753,115.739L50.597,115.713L50.442,115.687L50.287,115.662L50.134,115.639L49.98,115.617L49.827,115.595L49.677,115.575L49.525,115.555L49.374,115.537L49.225,115.52L49.075,115.503L48.928,115.487L48.781,115.473L48.634,115.459L48.489,115.447L48.344,115.435L48.198,115.424L48.054,115.414L47.913,115.405L47.771,115.397L47.626,115.39L47.486,115.384L47.347,115.379L47.206,115.374L47.067,115.37L46.929,115.368L46.791,115.366L46.654,115.365L46.518,115.365L46.383,115.365L46.246,115.367L46.111,115.369L45.978,115.372L45.845,115.377L45.712,115.381L45.581,115.387L45.45,115.393L45.318,115.401L45.187,115.409L45.058,115.417L44.929,115.427L44.8,115.437L44.672,115.449L44.544,115.461L44.419,115.473L44.293,115.486L44.166,115.501L44.041,115.516L43.918,115.531L43.793,115.548L43.67,115.565L43.547,115.583L43.424,115.601L43.302,115.621L43.181,115.641L43.06,115.661L42.94,115.683L42.821,115.705L42.701,115.728L42.581,115.751L42.464,115.775L42.346,115.8L42.228,115.826L42.113,115.852L41.995,115.879L41.879,115.907L41.763,115.935L41.648,115.964L41.534,115.993L41.42,116.024L41.306,116.055L41.192,116.086L41.08,116.118L40.968,116.151L40.855,116.185L40.743,116.219L40.633,116.254L40.521,116.29L40.41,116.326L40.301,116.362L40.191,116.4L40.082,116.438L39.973,116.477L39.865,116.516L39.757,116.556L39.648,116.596L39.541,116.637L39.434,116.679L39.328,116.721L39.221,116.765L39.116,116.808L39.01,116.852L38.905,116.897L38.8,116.943L38.695,116.989L38.591,117.036L38.488,117.083L38.384,117.131L38.28,117.179L38.178,117.228L38.074,117.278L37.972,117.328L37.872,117.379L37.77,117.431L37.667,117.483L37.567,117.535L37.467,117.588L37.365,117.643L37.265,117.698L37.166,117.752L37.067,117.808L36.968,117.864L36.869,117.92L36.772,117.977L36.673,118.035L36.574,118.095L36.476,118.154L36.38,118.213L36.282,118.273L36.185,118.334L36.089,118.395L35.992,118.458L35.896,118.52L35.802,118.583L35.707,118.646L35.611,118.71L35.516,118.776L35.422,118.841L35.327,118.907L35.233,118.973L35.14,119.04L35.047,119.107L34.953,119.176L34.861,119.244L34.77,119.313L34.676,119.384L34.583,119.454L34.493,119.524L34.402,119.595L34.311,119.667L34.22,119.739L34.135,119.808L33.949,119.96L33.77,120.109L33.592,120.261L33.415,120.414L33.239,120.57L33.065,120.727L32.892,120.887L32.72,121.048L32.549,121.212L32.379,121.378L32.21,121.545L32.043,121.714L31.876,121.885L31.711,122.057L31.548,122.232L31.384,122.408L31.223,122.586L31.063,122.766L30.904,122.947L30.746,123.13L30.589,123.315L30.434,123.501L30.28,123.689L30.127,123.878L29.975,124.068L29.825,124.26L29.676,124.454L29.529,124.649L29.382,124.845L29.237,125.043L29.093,125.242L28.951,125.441L28.81,125.643L28.67,125.845L28.531,126.049L28.394,126.254L28.258,126.459L28.124,126.666L27.991,126.874L27.859,127.082L27.729,127.292L27.6,127.502L27.472,127.714L27.346,127.926L27.222,128.138L27.098,128.352L26.976,128.566L26.856,128.781L26.736,128.997L26.619,129.212L26.502,129.429L26.387,129.646L26.274,129.863L26.162,130.081L26.051,130.299L25.942,130.517L25.834,130.737L25.728,130.955L25.624,131.174L25.52,131.393L25.418,131.613L25.318,131.832L25.219,132.051L25.121,132.271L25.025,132.49L24.93,132.709L24.837,132.929L24.746,133.147L24.655,133.366L24.567,133.584L24.479,133.802L24.393,134.02L24.309,134.237L24.226,134.453L24.145,134.67L24.065,134.886L23.987,135.101L23.91,135.315L23.834,135.528L23.76,135.742L23.687,135.955L23.616,136.166L23.547,136.376L23.479,136.586L23.412,136.795L23.347,137.003L23.283,137.209L23.221,137.415L23.16,137.619L23.1,137.822L23.042,138.024L22.986,138.225L22.931,138.424L22.878,138.622L22.826,138.818L22.775,139.013L22.726,139.207L22.678,139.398L22.632,139.589L22.587,139.777L22.544,139.963L22.502,140.149L22.461,140.332L22.422,140.513L22.384,140.691L22.348,140.868L22.313,141.044L22.28,141.216L22.248,141.386L22.217,141.555L22.188,141.721L22.16,141.884L22.134,142.045L22.109,142.203L22.085,142.359L22.063,142.512L22.042,142.661L22.022,142.808L22.004,142.953L21.987,143.094L21.971,143.232L21.956,143.367L21.943,143.498L21.931,143.626L21.921,143.75L21.911,143.872L21.903,143.989L21.896,144.102L21.89,144.211L21.885,144.316L21.881,144.416L21.878,144.512L21.876,144.603L21.875,144.69L21.875,144.779L21.876,144.966L21.878,145.159L21.881,145.351L21.886,145.543L21.891,145.734L21.897,145.924L21.905,146.114L21.913,146.303L21.922,146.492L21.933,146.679L21.944,146.866L21.956,147.053L21.97,147.239L21.984,147.423L22,147.608L22.016,147.792L22.034,147.974L22.052,148.156L22.071,148.338L22.092,148.52L22.113,148.7L22.136,148.879L22.159,149.059L22.183,149.237L22.209,149.414L22.235,149.591L22.262,149.768L22.29,149.943L22.32,150.118L22.35,150.292L22.381,150.466L22.413,150.639L22.446,150.811L22.48,150.982L22.515,151.153L22.551,151.323L22.588,151.492L22.626,151.661L22.664,151.83L22.704,151.996L22.744,152.162L22.786,152.329L22.829,152.494L22.872,152.659L22.916,152.822L22.962,152.985L23.008,153.148L23.055,153.31L23.103,153.47L23.152,153.631L23.202,153.79L23.253,153.95L23.304,154.108L23.357,154.265L23.41,154.422L23.465,154.578L23.52,154.735L23.576,154.889L23.633,155.043L23.691,155.197L23.75,155.349L23.81,155.502L23.871,155.653L23.933,155.804L23.995,155.954L24.058,156.102L24.122,156.251L24.188,156.4L24.254,156.547L24.321,156.694L24.389,156.84L24.458,156.985L24.527,157.13L24.598,157.273L24.669,157.417L24.741,157.559L24.815,157.701L24.889,157.843L24.964,157.983L25.04,158.123L25.117,158.263L25.195,158.402L25.273,158.539L25.352,158.676L25.433,158.813L25.514,158.949L25.596,159.085L25.679,159.219L25.763,159.353L25.848,159.487L25.934,159.62L26.02,159.752L26.108,159.883L26.196,160.013L26.285,160.144L26.376,160.274L26.467,160.403L26.559,160.531L26.652,160.659L26.746,160.785L26.84,160.912L26.936,161.038L27.033,161.163L27.131,161.288L27.229,161.411L27.328,161.534L27.428,161.657L27.53,161.78L27.632,161.901L27.735,162.021L27.839,162.141L27.944,162.261L28.05,162.38L28.157,162.498L28.265,162.615L28.374,162.733L28.483,162.849L28.594,162.964L28.706,163.08L28.819,163.194L28.932,163.308L29.046,163.421L29.162,163.534L29.279,163.646L29.396,163.757L29.515,163.868L29.634,163.978L29.755,164.087L29.877,164.197L29.999,164.305L30.122,164.412L30.247,164.519L30.373,164.626L30.499,164.732L30.627,164.837L30.756,164.941L30.885,165.045L31.015,165.148L31.147,165.251L31.28,165.352L31.414,165.454L31.549,165.554L31.685,165.655L31.822,165.754L31.959,165.852L32.098,165.95L32.239,166.048L32.38,166.145L32.522,166.24L32.666,166.336L32.81,166.431L32.956,166.526L33.103,166.619L33.249,166.711L33.398,166.803L33.549,166.895L33.7,166.986L33.852,167.076L34.005,167.165L34.159,167.253L34.315,167.341L34.472,167.429L34.629,167.515L34.788,167.602L34.948,167.687L35.109,167.771L35.272,167.855L35.435,167.938L35.599,168.02L35.764,168.101L35.932,168.182L36.1,168.263L36.269,168.342L36.439,168.42L36.611,168.498L36.783,168.575L36.957,168.652L37.132,168.727L37.308,168.802L37.486,168.876L37.665,168.95L37.845,169.022L38.024,169.093L38.207,169.165L38.391,169.235L38.574,169.304L38.76,169.372L38.947,169.44L39.135,169.507L39.325,169.573L39.515,169.638L39.707,169.703L39.9,169.767L40.093,169.829L40.288,169.891L40.485,169.952L40.684,170.013L40.882,170.072L41.081,170.131L41.283,170.188L41.486,170.245L41.689,170.301L41.893,170.356L42.101,170.41L42.309,170.464L42.517,170.516L42.726,170.567L42.938,170.618L43.15,170.667L43.363,170.716L43.579,170.764L43.795,170.811L44.012,170.857L44.23,170.902L44.45,170.946L44.671,170.989L44.893,171.031L45.116,171.072L45.341,171.112L45.567,171.151L45.794,171.19L46.023,171.227L46.253,171.263L46.483,171.299L46.715,171.333L46.948,171.366L47.182,171.398L47.418,171.43L47.655,171.46L47.895,171.489L48.133,171.518L48.374,171.545L48.616,171.571L48.859,171.596L49.104,171.62L49.35,171.643L49.597,171.665L49.844,171.686L50.093,171.706L50.345,171.725L50.597,171.742L50.849,171.759L51.103,171.774L51.36,171.789L51.617,171.802L51.874,171.814L52.133,171.825L52.394,171.835L52.656,171.844L52.919,171.852L53.183,171.859L53.449,171.864L53.715,171.869L53.983,171.872L54.252,171.874L54.524,171.875L201.521,171.875L201.521,171.875L201.721,171.86L201.921,171.845L202.121,171.828L202.321,171.81L202.521,171.792L202.721,171.772L202.92,171.752L203.119,171.731L203.318,171.709L203.518,171.686L203.716,171.662L203.915,171.637L204.113,171.611L204.311,171.584L204.509,171.556L204.707,171.527L204.904,171.498L205.103,171.467L205.3,171.436L205.495,171.404L205.692,171.37L205.89,171.336L206.086,171.301L206.281,171.265L206.477,171.228L206.673,171.19L206.868,171.151L207.063,171.111L207.257,171.071L207.452,171.029L207.646,170.987L207.839,170.943L208.032,170.899L208.226,170.854L208.418,170.808L208.611,170.761L208.803,170.713L208.995,170.664L209.187,170.614L209.377,170.563L209.567,170.512L209.758,170.459L209.949,170.406L210.138,170.352L210.326,170.297L210.515,170.24L210.704,170.183L210.892,170.125L211.08,170.066L211.267,170.007L211.454,169.946L211.641,169.885L211.826,169.823L212.011,169.759L212.197,169.695L212.382,169.629L212.565,169.564L212.748,169.497L212.933,169.429L213.116,169.36L213.298,169.291L213.48,169.221L213.661,169.149L213.841,169.077L214.022,169.004L214.201,168.93L214.381,168.855L214.561,168.779L214.739,168.703L214.917,168.625L215.094,168.547L215.271,168.468L215.447,168.388L215.622,168.307L215.798,168.225L215.972,168.142L216.147,168.058L216.32,167.974L216.493,167.888L216.665,167.802L216.836,167.715L217.008,167.627L217.179,167.538L217.349,167.449L217.518,167.358L217.687,167.267L217.856,167.174L218.024,167.081L218.19,166.987L218.355,166.893L218.522,166.797L218.688,166.699L218.852,166.603L219.015,166.505L219.178,166.405L219.341,166.305L219.504,166.204L219.665,166.102L219.825,166L219.985,165.897L220.145,165.792L220.303,165.688L220.461,165.581L220.619,165.474L220.775,165.367L220.93,165.259L221.086,165.149L221.241,165.039L221.395,164.928L221.547,164.816L221.7,164.703L221.851,164.59L222.002,164.475L222.153,164.36L222.302,164.244L222.451,164.127L222.6,164.009L222.746,163.891L222.893,163.771L223.04,163.65L223.184,163.53L223.328,163.408L223.472,163.285L223.615,163.161L223.757,163.037L223.899,162.911L224.039,162.785L224.178,162.658L224.318,162.53L224.456,162.402L224.593,162.272L224.73,162.141L224.865,162.011L225,161.879L225.135,161.745L225.269,161.611L225.402,161.476L225.533,161.342L225.664,161.205L225.795,161.068L225.924,160.93L226.053,160.791L226.181,160.652L226.308,160.51L226.434,160.369L226.559,160.228L226.684,160.084L226.808,159.94L226.931,159.795L227.052,159.65L227.173,159.503L227.294,159.355L227.413,159.207L227.532,159.058L227.65,158.908L227.766,158.758L227.883,158.605L227.998,158.453L228.112,158.3L228.226,158.144L228.338,157.99L228.449,157.834L228.561,157.676L228.67,157.519L228.779,157.36L228.888,157.2L228.994,157.04L229.1,156.879L229.206,156.715L229.311,156.553L229.414,156.389L229.517,156.223L229.618,156.058L229.719,155.891L229.82,155.722L229.919,155.553L230.016,155.385L230.113,155.215L230.209,155.043L230.304,154.87L230.399,154.697L230.492,154.523L230.584,154.348L230.676,154.171L230.766,153.994L230.855,153.816L230.944,153.637L231.032,153.457L231.118,153.276L231.203,153.095L231.288,152.911L231.372,152.727L231.454,152.543L231.535,152.357L231.616,152.17L231.695,151.984L231.774,151.795L231.851,151.605L231.928,151.414L232.003,151.222L232.077,151.029L232.15,150.837L232.223,150.641L232.294,150.445L232.364,150.249L232.433,150.052L232.501,149.852L232.568,149.652L232.634,149.451L232.699,149.25L232.762,149.047L232.825,148.843L232.886,148.638L232.946,148.432L233.006,148.224L233.063,148.017L233.12,147.808L233.176,147.596L233.231,147.385L233.284,147.174L233.336,146.961L233.388,146.745L233.438,146.529L233.487,146.313L233.534,146.095L233.581,145.877L233.626,145.655L233.67,145.435L233.713,145.214L233.755,144.989L233.795,144.765L233.834,144.539L233.872,144.313L233.909,144.085L233.944,143.856L233.978,143.626L234.011,143.395L234.043,143.162L234.073,142.929L234.102,142.694L234.13,142.459L234.156,142.222L234.182,141.983L234.205,141.745L234.228,141.505L234.249,141.263L234.269,141.019L234.287,140.776L234.304,140.531L234.32,140.284L234.335,140.037L234.348,139.789L234.359,139.539L234.369,139.295L234.357,139.077L234.329,138.597L234.3,138.12L234.269,137.647L234.236,137.177L234.201,136.71L234.165,136.247L234.127,135.787L234.087,135.331L234.046,134.878L234.003,134.429L233.958,133.983L233.912,133.54L233.864,133.101L233.814,132.665L233.763,132.233L233.71,131.805L233.656,131.379L233.6,130.958L233.542,130.539L233.482,130.123L233.422,129.713L233.359,129.305L233.295,128.9L233.23,128.498L233.162,128.1L233.094,127.706L233.024,127.315L232.952,126.927L232.879,126.543L232.804,126.162L232.728,125.785L232.65,125.412L232.571,125.041L232.49,124.673L232.408,124.311L232.324,123.95L232.239,123.593L232.153,123.24L232.065,122.891L231.975,122.544L231.885,122.201L231.792,121.861L231.699,121.524L231.604,121.192L231.508,120.862L231.41,120.536L231.311,120.213L231.211,119.894L231.11,119.578L231.007,119.265L230.903,118.956L230.797,118.65L230.691,118.348L230.583,118.048L230.474,117.753L230.363,117.46L230.252,117.171L230.139,116.886L230.025,116.603L229.91,116.324L229.794,116.048L229.676,115.775L229.558,115.506L229.438,115.24L229.318,114.978L229.196,114.718L229.073,114.461L228.949,114.208L228.823,113.958L228.698,113.712L228.571,113.469L228.442,113.229L228.313,112.991L228.183,112.757L228.052,112.527L227.92,112.299L227.787,112.074L227.653,111.853L227.518,111.635L227.382,111.419L227.245,111.207L227.108,110.998L226.965,110.785L226.899,110.689L226.829,110.587L226.759,110.486L226.69,110.389L226.619,110.289L226.548,110.19L226.477,110.092L226.406,109.995L226.334,109.898L226.263,109.803L226.191,109.709L226.12,109.615L226.047,109.521L225.974,109.428L225.902,109.337L225.829,109.245L225.755,109.154L225.683,109.066L225.609,108.976L225.535,108.887L225.462,108.8L225.387,108.712L225.313,108.626L225.239,108.541L225.164,108.455L225.088,108.37L225.014,108.287L224.939,108.204L224.863,108.121L224.786,108.039L224.711,107.959L224.634,107.878L224.558,107.798L224.481,107.719L224.403,107.639L224.327,107.562L224.25,107.485L224.171,107.407L224.093,107.331L224.017,107.257L223.939,107.182L223.859,107.107L223.781,107.034L223.702,106.961L223.624,106.889L223.544,106.817L223.464,106.745L223.384,106.675L223.304,106.604L223.224,106.536L223.144,106.467L223.063,106.399L222.982,106.331L222.901,106.264L222.82,106.198L222.737,106.131L222.656,106.066L222.573,106.001L222.491,105.937L222.409,105.873L222.325,105.809L222.243,105.748L222.16,105.686L222.075,105.624L221.99,105.562L221.907,105.502L221.824,105.443L221.738,105.383L221.652,105.324L221.567,105.266L221.483,105.209L221.396,105.151L221.308,105.093L221.223,105.038L221.137,104.983L221.049,104.927L220.963,104.873L220.875,104.819L220.786,104.764L220.7,104.712L220.611,104.659L220.521,104.607L220.432,104.555L220.344,104.505L220.253,104.453L220.161,104.402L220.072,104.353L219.983,104.305L219.892,104.256L219.8,104.208L219.708,104.16L219.616,104.113L219.524,104.066L219.431,104.02L219.337,103.974L219.245,103.929L219.15,103.884L219.057,103.84L218.963,103.796L218.866,103.752L218.773,103.71L218.678,103.668L218.579,103.624L218.484,103.583L218.389,103.543L218.29,103.502L218.192,103.462L218.097,103.423L217.997,103.383L217.898,103.344L217.8,103.307L217.7,103.268L217.6,103.231L217.499,103.194L217.399,103.158L217.299,103.122L217.197,103.087L217.096,103.052L216.994,103.018L216.891,102.984L216.789,102.951L216.685,102.918L216.579,102.884L216.482,102.855L216.266,102.79L216.054,102.729L215.84,102.67L215.625,102.613L215.409,102.558L215.189,102.505L214.969,102.453L214.746,102.404L214.522,102.356L214.295,102.311L214.067,102.267L213.837,102.226L213.605,102.186L213.371,102.148L213.136,102.113L212.898,102.079L212.658,102.047L212.417,102.017L212.174,101.99L211.928,101.964L211.679,101.94L211.43,101.919L211.179,101.899L210.925,101.882L210.67,101.867L210.413,101.853L210.152,101.842L209.891,101.833L209.628,101.826L209.363,101.822L209.095,101.819L208.825,101.818L208.555,101.82L208.281,101.824L208.005,101.83L207.727,101.838L207.449,101.849L207.167,101.861L206.883,101.876L206.598,101.893L206.311,101.912L206.021,101.934L205.73,101.958L205.437,101.984L205.142,102.012L204.844,102.043L204.545,102.075L204.244,102.11L203.941,102.148L203.636,102.187L203.329,102.229L203.02,102.273L202.71,102.32L202.396,102.369L202.082,102.42L201.766,102.473L201.447,102.529L201.127,102.587L200.804,102.648L200.48,102.71L200.155,102.776L199.827,102.843L199.497,102.913L199.165,102.985L198.832,103.059L198.498,103.136L198.16,103.215L197.821,103.297L197.48,103.381L197.139,103.467L196.794,103.555L196.448,103.646L196.1,103.739L195.751,103.835L195.4,103.933L195.046,104.033L194.691,104.136L194.335,104.241L193.977,104.348L193.616,104.458L193.255,104.57L192.891,104.684L192.526,104.801L192.159,104.921L191.79,105.042L191.42,105.166L191.048,105.292L190.674,105.421L190.299,105.552L189.922,105.685L189.543,105.82L189.163,105.959L188.78,106.099L188.396,106.242L188.011,106.387L187.625,106.534L187.236,106.684L186.845,106.836L186.454,106.99L186.061,107.147L185.666,107.306L185.269,107.467L184.871,107.631L184.471,107.797L184.07,107.965L183.667,108.136L183.262,108.309L182.856,108.484L182.449,108.662L175.634,111.659L175.591,111.64L173.421,104.575L173.305,104.2L173.188,103.827L173.071,103.455L172.954,103.087L172.837,102.72L172.719,102.356L172.601,101.994L172.482,101.634L172.363,101.276L172.244,100.921L172.125,100.567L172.005,100.216L171.885,99.868L171.765,99.521L171.644,99.176L171.523,98.834L171.401,98.493L171.279,98.155L171.157,97.819L171.034,97.486L170.911,97.155L170.788,96.825L170.664,96.498L170.54,96.172L170.416,95.849L170.291,95.53L170.166,95.211L170.04,94.894L169.914,94.58L169.788,94.267L169.661,93.957L169.534,93.65L169.407,93.344L169.279,93.04L169.151,92.739L169.022,92.439L168.892,92.141L168.763,91.847L168.633,91.554L168.503,91.262L168.372,90.974L168.241,90.688L168.109,90.402L167.977,90.119L167.845,89.839L167.712,89.561L167.579,89.284L167.445,89.01L167.312,88.738L167.177,88.467L167.042,88.199L166.907,87.933L166.771,87.669L166.635,87.407L166.498,87.146L166.361,86.888L166.224,86.633L166.086,86.379L165.947,86.127L165.808,85.877L165.669,85.628L165.529,85.382L165.389,85.138L165.249,84.897L165.107,84.656L164.966,84.418L164.824,84.182L164.681,83.947L164.538,83.716L164.395,83.485L164.251,83.256L164.106,83.03L163.962,82.806L163.816,82.582L163.67,82.361L163.525,82.143L163.378,81.926L163.23,81.71L163.082,81.496L162.935,81.285L162.786,81.076L162.636,80.867L162.487,80.661L162.337,80.458L162.186,80.255L162.035,80.054L161.883,79.855L161.73,79.658L161.578,79.463L161.424,79.269L161.27,79.077L161.116,78.887L160.961,78.698L160.806,78.512L160.65,78.327L160.492,78.143L160.335,77.961L160.177,77.781L160.019,77.603L159.861,77.427L159.701,77.251L159.54,77.078L159.38,76.906L159.219,76.736L159.056,76.567L158.894,76.4L158.731,76.235L158.566,76.07L158.402,75.908L158.237,75.747L158.071,75.587L157.904,75.429L157.737,75.273L157.569,75.118L157.4,74.964L157.231,74.812L157.061,74.662L156.889,74.512L156.717,74.364L156.545,74.218L156.372,74.073L156.198,73.929L156.023,73.787L155.848,73.646L155.671,73.506L155.494,73.368L155.316,73.232L155.136,73.095L154.957,72.961L154.776,72.829L154.594,72.697L154.412,72.566L154.229,72.437L154.044,72.309L153.858,72.182L153.673,72.057L153.486,71.933L153.296,71.81L153.107,71.688L152.917,71.568L152.726,71.449L152.534,71.331L152.34,71.214L152.145,71.097L151.949,70.983L151.753,70.87L151.555,70.758L151.356,70.646L151.155,70.536L150.954,70.428L150.752,70.32L150.548,70.213L150.343,70.108L150.137,70.004L149.93,69.901L149.721,69.798L149.511,69.697L149.301,69.598L149.088,69.499L148.874,69.401L148.659,69.304L148.443,69.209L148.225,69.114L148.006,69.021L147.786,68.929L147.564,68.837L147.34,68.747L147.116,68.658L146.89,68.57L146.663,68.483L146.434,68.397L146.203,68.312L145.972,68.229L145.739,68.146L145.504,68.064L145.268,67.984L145.03,67.904L144.79,67.826L144.55,67.748L144.308,67.672L144.063,67.597L143.817,67.522L143.571,67.449L143.323,67.377L143.072,67.306L142.821,67.236L142.568,67.167L142.312,67.099L142.055,67.032L141.798,66.966L141.538,66.902L141.276,66.838L141.012,66.775L140.748,66.713L140.482,66.653L140.214,66.593L139.944,66.535L139.672,66.477L139.399,66.421L139.123,66.366L138.847,66.311L138.569,66.258L138.289,66.206L138.007,66.155L137.723,66.105L137.438,66.056L137.15,66.008L136.861,65.961L136.572,65.915L136.279,65.87L135.984,65.827L135.689,65.784L135.392,65.742L135.092,65.702L134.791,65.662L134.487,65.624L134.183,65.586L133.876,65.55L133.567,65.514L133.257,65.48L132.945,65.447L132.631,65.415L132.315,65.383L131.997,65.353L131.678,65.324L131.356,65.296L131.033,65.269L130.708,65.243L130.381,65.218L130.052,65.194L129.722,65.172L129.389,65.15L129.054,65.129L128.718,65.109L128.38,65.09L128.04,65.073L127.698,65.056L127.354,65.041L127.008,65.026L126.661,65.012L126.311,65L125.96,64.988L125.606,64.978L125.251,64.968L124.894,64.96L124.535,64.952L124.173,64.946L123.81,64.94L123.445,64.936L123.078,64.933L122.709,64.93L122.339,64.929L121.966,64.928L121.592,64.929Z" style="fill:#b0b0b0;"/>
    <path d="M54.514,178.125C29.116,178.09 15.685,164.212 15.625,144.792C15.588,132.711 30.917,89.251 73.958,119.792C74.341,81.126 94.278,58.828 121.181,58.681C154.793,58.497 169.261,69.601 179.514,103.125C216.113,86.955 238.361,95.729 240.625,139.236C239.837,163.856 221.318,176.819 201.736,178.125L54.514,178.125Z" style="fill:url(#_Radial2);"/>
    <defs>
        <radialGradient id="_Radial1" cx="0" cy="0" r="1" gradientUnits="userSpaceOnUse" gradientTransform="matrix(139.453,0,0,139.453,168.75,46.4844)"><stop offset="0" style="stop-color:#ffdc46;stop-opacity:1"/><stop offset="0.33" style="stop-color:#ffdb46;stop-opacity:1"/><stop offset="0.42" style="stop-color:#ffd945;stop-opacity:1"/><stop offset="0.5" style="stop-color:#ffd643;stop-opacity:1"/><stop offset="0.5" style="stop-color:#ffc600;stop-opacity:1"/><stop offset="0.58" style="stop-color:#ffc500;stop-opacity:1"/><stop offset="0.67" style="stop-color:#ffc500;stop-opacity:1"/><stop offset="1" style="stop-color:#ffc500;stop-opacity:1"/></radialGradient>
        <radialGradient id="_Radial2" cx="0" cy="0" r="1" gradientUnits="userSpaceOnUse" gradientTransform="matrix(225,0,0,225,60.1017,83.9389)"><stop offset="0" style="stop-color:#e9e9e9;stop-opacity:1"/><stop offset="0.33" style="stop-color:#e9e9e9;stop-opacity:1"/><stop offset="0.42" style="stop-color:#e9e9e9;stop-opacity:1"/><stop offset="0.5" style="stop-color:#e9e9e9;stop-opacity:1"/><stop offset="0.5" style="stop-color:#dadada;stop-opacity:1"/><stop offset="0.58" style="stop-color:#dadada;stop-opacity:1"/><stop offset="0.67" style="stop-color:#dadada;stop-opacity:1"/><stop offset="1" style="stop-color:#dadada;stop-opacity:1"/></radialGradient>
    </defs>
</svg>
