<?xml version="1.0" encoding="UTF-8" standalone="no"?>
<!DOCTYPE svg PUBLIC "-//W3C//DTD SVG 1.1//EN" "http://www.w3.org/Graphics/SVG/1.1/DTD/svg11.dtd">
<svg width="100%" height="100%" viewBox="0 0 300 300" version="1.1" xmlns="http://www.w3.org/2000/svg" xmlns:xlink="http://www.w3.org/1999/xlink" xml:space="preserve" xmlns:serif="http://www.serif.com/" style="fill-rule:evenodd;clip-rule:evenodd;stroke-linejoin:round;stroke-miterlimit:1.41421;">
    <g>
        <path d="M152.336,207.42C152.054,208.305 150.568,208.976 150.99,212.421C150.99,212.421 157.059,217.774 164.271,219.731C170.65,221.462 179.855,223.156 179.855,223.156C200.426,226.919 225.21,227.395 234.673,247.754C238.758,256.543 238.307,267.206 233.157,275.717C228.127,284.03 216.562,290.941 211.169,293.932C208.145,295.61 203.727,294.97 200.799,293.669C197.871,292.367 194.759,289.108 193.601,286.122C192.443,283.137 192.568,278.678 193.851,275.755C195.134,272.831 198.486,270.569 201.302,268.579C205.018,265.953 213.467,266.138 216.147,260C220.394,250.271 202.628,242.595 191.929,239.001C178.454,234.475 164.147,232.158 151.686,224.851C147.796,222.57 144.18,219.327 143.005,214.682C143.005,214.682 142.083,208.399 145.082,204.221C148.153,199.942 155.405,197.735 158.312,196.854C159.81,196.4 162.167,197.888 162.521,198.937C162.876,199.985 161.642,202.146 160.438,203.146C158.799,204.509 154.034,206.401 152.684,207.113C152.547,207.185 152.383,207.273 152.336,207.42Z" style="fill:none;stroke:#fff;stroke-width:6.25px;"/>
        <path d="M152.336,207.42C152.054,208.305 150.568,208.976 150.99,212.421C150.99,212.421 157.059,217.774 164.271,219.731C170.65,221.462 179.855,223.156 179.855,223.156C200.426,226.919 225.21,227.395 234.673,247.754C238.758,256.543 238.307,267.206 233.157,275.717C228.127,284.03 216.562,290.941 211.169,293.932C208.145,295.61 203.727,294.97 200.799,293.669C197.871,292.367 194.759,289.108 193.601,286.122C192.443,283.137 192.568,278.678 193.851,275.755C195.134,272.831 198.486,270.569 201.302,268.579C205.018,265.953 213.467,266.138 216.147,260C220.394,250.271 202.628,242.595 191.929,239.001C178.454,234.475 164.147,232.158 151.686,224.851C147.796,222.57 144.18,219.327 143.005,214.682C143.005,214.682 142.083,208.399 145.082,204.221C148.153,199.942 155.405,197.735 158.312,196.854C159.81,196.4 162.167,197.888 162.521,198.937C162.876,199.985 161.642,202.146 160.438,203.146C158.799,204.509 154.034,206.401 152.684,207.113C152.547,207.185 152.383,207.273 152.336,207.42Z" style="fill:#6d6d6d;fill-rule:nonzero;"/>
        <path d="M102.347,210.866C102.141,211.556 100.698,213.572 101.386,214.694C103.17,217.606 107.016,222.532 113.052,228.34C113.634,228.91 113.633,228.909 114.211,229.485C124.213,239.66 127.639,256.808 110.183,273.433C100.608,282.553 83.632,290.796 76.265,294.125C73.134,295.54 68.838,294.837 65.982,293.41C63.126,291.982 60.164,288.593 59.131,285.562C58.097,282.531 58.394,278.086 59.781,275.224C61.168,272.361 64.471,270.069 67.455,268.385C75.589,263.794 100.684,264.127 108.582,247.678C108.582,247.678 109.038,242.734 106.231,238.659C99.451,228.817 85.061,219.122 94.916,206.511C99.511,200.63 110.04,198.271 114.017,197.009C115.648,196.492 118.328,197.918 118.773,198.942C119.217,199.965 117.463,202.276 116.683,203.148C116.065,203.84 114.916,203.74 114.095,204.172C111.751,205.406 105.52,207.421 102.621,210.551C102.589,210.585 102.387,210.732 102.347,210.866Z" style="fill:none;stroke:#fff;stroke-width:6.25px;"/>
        <path d="M102.347,210.866C102.141,211.556 100.698,213.572 101.386,214.694C103.17,217.606 107.016,222.532 113.052,228.34C113.634,228.91 113.633,228.909 114.211,229.485C124.213,239.66 127.639,256.808 110.183,273.433C100.608,282.553 83.632,290.796 76.265,294.125C73.134,295.54 68.838,294.837 65.982,293.41C63.126,291.982 60.164,288.593 59.131,285.562C58.097,282.531 58.394,278.086 59.781,275.224C61.168,272.361 64.471,270.069 67.455,268.385C75.589,263.794 100.684,264.127 108.582,247.678C108.582,247.678 109.038,242.734 106.231,238.659C99.451,228.817 85.061,219.122 94.916,206.511C99.511,200.63 110.04,198.271 114.017,197.009C115.648,196.492 118.328,197.918 118.773,198.942C119.217,199.965 117.463,202.276 116.683,203.148C116.065,203.84 114.916,203.74 114.095,204.172C111.751,205.406 105.52,207.421 102.621,210.551C102.589,210.585 102.387,210.732 102.347,210.866Z" style="fill:#6d6d6d;fill-rule:nonzero;"/>
    </g>
    <path d="M146.617,268.359L141.682,259.811L132.039,257.227L133.05,253.454L138.92,255.027L135.809,249.638L139.191,247.685L142.303,253.074L143.875,247.204L147.648,248.215L145.065,257.858L150,266.406L154.935,257.858L152.352,248.215L156.125,247.204L157.697,253.074L160.809,247.685L164.191,249.638L161.08,255.027L166.95,253.454L167.961,257.227L158.318,259.811L153.383,268.359L163.253,268.359L170.313,261.3C171.233,262.221 172.154,263.142 173.075,264.063L168.778,268.359L175,268.359L175,272.266L168.778,272.266L173.075,276.563L170.313,279.325C167.956,276.968 165.547,274.662 163.231,272.266L153.383,272.266L158.318,280.814L167.961,283.398C167.624,284.655 167.287,285.913 166.95,287.171L161.08,285.598L164.191,290.987L160.809,292.94L157.697,287.551L156.125,293.421L152.352,292.41C153.214,289.19 154.006,285.951 154.924,282.747L150,274.219L145.065,282.767L147.648,292.41C146.391,292.747 145.133,293.084 143.875,293.421L142.303,287.551L139.191,292.94L135.809,290.987L138.92,285.598L133.05,287.171L132.039,283.398C135.258,282.535 138.46,281.601 141.693,280.794L146.617,272.266L136.747,272.266L129.688,279.325L126.925,276.563L131.222,272.266L125,272.266L125,268.359L131.222,268.359L126.925,264.063L129.688,261.3L136.747,268.359L146.617,268.359Z" style="fill:none;stroke:#ccc;stroke-width:6.25px;"/>
    <path d="M146.617,268.359L141.682,259.811L132.039,257.227L133.05,253.454L138.92,255.027L135.809,249.638L139.191,247.685L142.303,253.074L143.875,247.204L147.648,248.215L145.065,257.858L150,266.406L154.935,257.858L152.352,248.215L156.125,247.204L157.697,253.074L160.809,247.685L164.191,249.638L161.08,255.027L166.95,253.454L167.961,257.227L158.318,259.811L153.383,268.359L163.253,268.359L170.313,261.3C171.233,262.221 172.154,263.142 173.075,264.063L168.778,268.359L175,268.359L175,272.266L168.778,272.266L173.075,276.563L170.313,279.325C167.956,276.968 165.547,274.662 163.231,272.266L153.383,272.266L158.318,280.814L167.961,283.398C167.624,284.655 167.287,285.913 166.95,287.171L161.08,285.598L164.191,290.987L160.809,292.94L157.697,287.551L156.125,293.421L152.352,292.41C153.214,289.19 154.006,285.951 154.924,282.747L150,274.219L145.065,282.767L147.648,292.41C146.391,292.747 145.133,293.084 143.875,293.421L142.303,287.551L139.191,292.94L135.809,290.987L138.92,285.598L133.05,287.171L132.039,283.398C135.258,282.535 138.46,281.601 141.693,280.794L146.617,272.266L136.747,272.266L129.688,279.325L126.925,276.563L131.222,272.266L125,272.266L125,268.359L131.222,268.359L126.925,264.063L129.688,261.3L136.747,268.359L146.617,268.359Z" style="fill:#fff;fill-rule:nonzero;"/>
    <path d="M143.123,1.078L143.603,1.08L144.082,1.083L144.558,1.088L145.032,1.093L145.505,1.1L145.976,1.109L146.445,1.119L146.913,1.13L147.378,1.142L147.842,1.156L148.304,1.171L148.765,1.188L149.223,1.205L149.68,1.225L150.135,1.245L150.588,1.267L151.04,1.291L151.49,1.316L151.937,1.342L152.384,1.37L152.829,1.399L153.272,1.43L153.713,1.462L154.152,1.495L154.59,1.53L155.027,1.567L155.461,1.605L155.894,1.644L156.326,1.685L156.755,1.727L157.183,1.771L157.61,1.817L158.035,1.864L158.458,1.912L158.879,1.962L159.3,2.014L159.719,2.067L160.135,2.122L160.551,2.178L160.965,2.236L161.376,2.295L161.787,2.357L162.197,2.419L162.604,2.484L163.01,2.55L163.415,2.617L163.818,2.686L164.219,2.757L164.619,2.83L165.018,2.904L165.415,2.98L165.81,3.057L166.204,3.137L166.597,3.218L166.988,3.3L167.377,3.385L167.765,3.471L168.152,3.559L168.537,3.648L168.921,3.74L169.304,3.833L169.684,3.928L170.064,4.025L170.442,4.123L170.817,4.223L171.193,4.326L171.567,4.43L171.939,4.535L172.31,4.643L172.679,4.753L173.047,4.864L173.413,4.977L173.778,5.092L174.142,5.209L174.505,5.328L174.865,5.448L175.224,5.571L175.582,5.695L175.94,5.822L176.295,5.951L176.648,6.08L177,6.213L177.351,6.347L177.701,6.483L178.049,6.621L178.395,6.761L178.741,6.903L179.085,7.047L179.427,7.193L179.768,7.341L180.107,7.491L180.446,7.643L180.783,7.797L181.117,7.953L181.452,8.111L181.785,8.271L182.116,8.433L182.445,8.597L182.773,8.763L183.101,8.932L183.426,9.102L183.749,9.274L184.072,9.448L184.393,9.625L184.712,9.803L185.031,9.984L185.348,10.167L185.662,10.35L185.976,10.537L186.289,10.726L186.6,10.917L186.909,11.11L187.217,11.305L187.524,11.502L187.828,11.701L188.132,11.902L188.435,12.106L188.735,12.311L189.034,12.518L189.332,12.728L189.628,12.94L189.922,13.153L190.216,13.369L190.508,13.587L190.797,13.806L191.086,14.028L191.374,14.253L191.659,14.478L191.944,14.706L192.227,14.937L192.508,15.169L192.788,15.403L193.066,15.64L193.343,15.878L193.618,16.118L193.892,16.361L194.165,16.605L194.436,16.852L194.704,17.1L194.973,17.351L195.239,17.604L195.504,17.858L195.768,18.115L196.029,18.373L196.291,18.635L196.549,18.897L196.807,19.162L197.064,19.429L197.318,19.698L197.572,19.97L197.824,20.242L198.073,20.516L198.322,20.793L198.57,21.071L198.816,21.352L199.062,21.636L199.304,21.92L199.547,22.207L199.787,22.496L200.026,22.786L200.264,23.079L200.499,23.373L200.735,23.671L200.969,23.97L201.199,24.269L201.431,24.572L201.661,24.877L201.888,25.182L202.116,25.492L202.341,25.802L202.565,26.114L202.788,26.429L203.01,26.745L203.23,27.063L203.45,27.384L203.667,27.706L203.883,28.029L204.098,28.355L204.313,28.684L204.526,29.014L204.737,29.345L204.946,29.678L205.156,30.015L205.365,30.354L205.571,30.693L205.776,31.034L205.98,31.378L206.183,31.723L206.386,32.072L206.587,32.422L206.786,32.773L206.985,33.127L207.182,33.481L207.378,33.839L207.575,34.2L207.769,34.562L207.961,34.924L208.153,35.289L208.344,35.657L208.534,36.027L208.723,36.398L208.911,36.772L209.098,37.147L209.283,37.524L209.469,37.904L209.653,38.287L209.836,38.671L210.017,39.054L210.198,39.442L210.379,39.833L210.558,40.225L210.735,40.617L210.914,41.015L211.09,41.413L211.265,41.812L211.439,42.214L211.613,42.617L211.786,43.024L211.958,43.433L212.129,43.842L212.299,44.256L212.469,44.67L212.637,45.086L212.805,45.505L212.972,45.926L213.138,46.348L213.304,46.775L213.469,47.202L213.632,47.631L213.795,48.062L213.957,48.495L214.119,48.931L214.281,49.37L214.441,49.811L214.6,50.252L214.758,50.695L214.917,51.142L215.074,51.592L215.23,52.042L215.649,51.879L216.163,51.681L216.674,51.486L217.185,51.294L217.695,51.104L218.203,50.917L218.709,50.734L219.215,50.553L219.719,50.374L220.222,50.199L220.723,50.027L221.224,49.857L221.722,49.69L222.22,49.526L222.716,49.365L223.211,49.207L223.705,49.051L224.197,48.898L224.688,48.749L225.178,48.602L225.666,48.458L226.154,48.317L226.64,48.179L227.124,48.044L227.608,47.912L228.09,47.783L228.571,47.656L229.051,47.533L229.529,47.413L230.006,47.295L230.482,47.181L230.957,47.069L231.43,46.961L231.902,46.855L232.373,46.753L232.842,46.654L233.311,46.557L233.779,46.464L234.244,46.374L234.708,46.287L235.172,46.203L235.634,46.122L236.095,46.044L236.555,45.969L237.013,45.898L237.471,45.829L237.927,45.764L238.382,45.702L238.835,45.643L239.287,45.587L239.739,45.534L240.189,45.485L240.637,45.439L241.085,45.396L241.532,45.356L241.977,45.32L242.421,45.287L242.863,45.258L243.305,45.231L243.745,45.208L244.184,45.188L244.623,45.172L245.054,45.159L245.277,45.154L245.495,45.15L245.712,45.146L245.929,45.143L246.146,45.142L246.362,45.141L246.578,45.141L246.793,45.142L247.009,45.143L247.224,45.146L247.44,45.149L247.653,45.153L247.867,45.159L248.082,45.165L248.295,45.172L248.508,45.179L248.721,45.188L248.933,45.198L249.147,45.208L249.358,45.22L249.57,45.232L249.782,45.245L249.993,45.259L250.203,45.274L250.413,45.29L250.622,45.306L250.833,45.324L251.043,45.343L251.252,45.362L251.46,45.382L251.669,45.404L251.878,45.426L252.085,45.449L252.292,45.473L252.499,45.498L252.706,45.524L252.913,45.551L253.119,45.579L253.325,45.607L253.531,45.637L253.735,45.668L253.939,45.699L254.145,45.732L254.348,45.765L254.552,45.799L254.756,45.835L254.958,45.871L255.162,45.908L255.365,45.946L255.565,45.985L255.767,46.025L255.968,46.066L256.17,46.108L256.37,46.151L256.569,46.195L256.771,46.24L256.969,46.286L257.169,46.333L257.366,46.38L257.564,46.429L257.764,46.479L257.96,46.53L258.157,46.581L258.354,46.634L258.55,46.688L258.746,46.742L258.943,46.798L259.137,46.855L259.331,46.912L259.525,46.971L259.719,47.03L259.914,47.091L260.107,47.153L260.3,47.216L260.491,47.279L260.683,47.343L260.874,47.409L261.064,47.475L261.255,47.543L261.446,47.612L261.635,47.681L261.824,47.752L262.012,47.823L262.202,47.896L262.389,47.97L262.577,48.045L262.764,48.121L262.949,48.197L263.135,48.274L263.321,48.353L263.507,48.433L263.691,48.514L263.873,48.595L264.058,48.678L264.24,48.761L264.424,48.847L264.606,48.933L264.786,49.018L264.968,49.107L265.148,49.195L265.329,49.285L265.508,49.376L265.687,49.468L265.866,49.561L266.042,49.654L266.221,49.75L266.398,49.846L266.574,49.942L266.749,50.04L266.923,50.138L267.1,50.239L267.275,50.341L267.447,50.442L267.62,50.545L267.793,50.649L267.963,50.753L268.135,50.859L268.307,50.967L268.477,51.075L268.645,51.183L268.815,51.293L268.983,51.404L269.151,51.516L269.319,51.629L269.484,51.742L269.652,51.858L269.817,51.974L269.981,52.09L270.145,52.208L270.309,52.327L270.472,52.446L270.634,52.567L270.796,52.689L270.957,52.812L271.118,52.936L271.278,53.061L271.435,53.184L271.595,53.312L271.755,53.441L271.91,53.568L272.067,53.698L272.225,53.83L272.378,53.959L272.533,54.091L272.688,54.225L272.842,54.36L272.994,54.494L273.144,54.629L273.298,54.768L273.449,54.906L273.599,55.045L273.749,55.185L273.895,55.324L274.044,55.466L274.194,55.611L274.341,55.755L274.484,55.897L274.63,56.042L274.777,56.191L274.921,56.338L275.063,56.484L275.205,56.633L275.347,56.783L275.489,56.934L275.632,57.089L275.772,57.241L275.909,57.392L276.047,57.547L276.186,57.702L276.323,57.858L276.462,58.018L276.598,58.176L276.731,58.333L276.865,58.493L276.999,58.653L277.133,58.815L277.267,58.98L277.398,59.143L277.527,59.304L277.658,59.469L277.79,59.638L277.919,59.805L278.045,59.97L278.172,60.138L278.301,60.31L278.428,60.48L278.551,60.648L278.678,60.823L278.802,60.996L278.926,61.169L279.048,61.344L279.17,61.518L279.291,61.694L279.412,61.872L279.533,62.05L279.652,62.228L279.77,62.407L279.888,62.587L280.007,62.772L280.124,62.953L280.238,63.133L280.353,63.316L280.469,63.504L280.583,63.689L280.696,63.874L280.809,64.062L280.92,64.249L281.031,64.437L281.141,64.626L281.253,64.82L281.362,65.011L281.468,65.199L281.578,65.395L281.685,65.588L281.791,65.782L281.896,65.977L282.001,66.172L282.106,66.369L282.209,66.567L282.314,66.767L282.416,66.966L282.517,67.166L282.618,67.366L282.719,67.568L282.818,67.77L282.917,67.973L283.015,68.176L283.114,68.384L283.211,68.589L283.306,68.792L283.403,69.002L283.5,69.213L283.592,69.418L283.686,69.628L283.78,69.841L283.873,70.052L283.964,70.263L284.055,70.476L284.146,70.689L284.237,70.906L284.326,71.121L284.414,71.337L284.502,71.553L284.589,71.77L284.677,71.991L284.761,72.207L284.847,72.427L284.932,72.65L285.018,72.874L285.101,73.096L285.182,73.316L285.265,73.543L285.347,73.767L285.427,73.992L285.509,74.221L285.587,74.445L285.666,74.672L285.745,74.904L285.824,75.136L285.901,75.366L285.976,75.593L286.053,75.828L286.129,76.064L286.202,76.294L286.276,76.527L286.351,76.765L286.423,77.001L286.496,77.24L286.567,77.477L286.638,77.715L286.708,77.954L286.779,78.198L286.916,78.678L287.051,79.164L287.184,79.654L287.314,80.146L287.442,80.642L287.567,81.141L287.69,81.643L287.811,82.149L287.929,82.659L288.045,83.171L288.158,83.687L288.269,84.207L288.378,84.729L288.484,85.254L288.588,85.782L288.689,86.314L288.789,86.85L288.885,87.389L288.98,87.93L289.072,88.477L289.162,89.026L289.249,89.578L289.334,90.133L289.417,90.693L289.497,91.256L289.575,91.821L289.65,92.39L289.724,92.963L289.795,93.538L289.864,94.118L289.93,94.701L289.994,95.287L290.056,95.877L290.115,96.47L290.172,97.066L290.227,97.667L290.279,98.271L290.33,98.878L290.377,99.489L290.423,100.102L290.466,100.719L290.507,101.339L290.546,101.964L290.583,102.594L290.631,103.49L290.609,104.129L290.593,104.508L290.576,104.886L290.556,105.263L290.534,105.637L290.51,106.01L290.484,106.384L290.456,106.757L290.426,107.126L290.394,107.495L290.359,107.865L290.322,108.231L290.284,108.597L290.243,108.961L290.2,109.325L290.155,109.687L290.109,110.048L290.059,110.408L290.009,110.765L289.956,111.123L289.9,111.482L289.843,111.836L289.784,112.188L289.723,112.542L289.66,112.892L289.595,113.241L289.527,113.591L289.457,113.941L289.386,114.286L289.314,114.629L289.239,114.973L289.161,115.317L289.082,115.659L289.001,115.999L288.917,116.338L288.833,116.674L288.746,117.011L288.657,117.346L288.566,117.679L288.473,118.012L288.378,118.345L288.282,118.673L288.184,119.001L288.083,119.33L287.981,119.655L287.877,119.979L287.771,120.305L287.663,120.626L287.553,120.947L287.442,121.267L287.329,121.583L287.214,121.9L287.097,122.216L286.978,122.531L286.857,122.844L286.735,123.154L286.61,123.465L286.484,123.775L286.356,124.081L286.227,124.386L286.095,124.693L285.962,124.995L285.828,125.297L285.69,125.599L285.552,125.898L285.412,126.196L285.271,126.49L285.128,126.785L284.982,127.082L284.834,127.374L284.687,127.663L284.538,127.952L284.385,128.24L284.231,128.528L284.076,128.814L283.918,129.099L283.76,129.381L283.602,129.659L283.44,129.94L283.276,130.22L283.112,130.494L282.945,130.772L282.777,131.045L282.609,131.316L282.437,131.589L282.264,131.859L282.091,132.126L281.915,132.393L281.738,132.658L281.559,132.923L281.378,133.186L281.197,133.446L281.015,133.704L280.829,133.964L280.644,134.22L280.457,134.474L280.267,134.729L280.077,134.981L279.885,135.231L279.692,135.481L279.498,135.728L279.302,135.974L279.105,136.219L278.906,136.463L278.706,136.705L278.506,136.944L278.303,137.184L278.098,137.422L277.893,137.657L277.686,137.892L277.479,138.124L277.27,138.355L277.059,138.586L276.848,138.814L276.635,139.041L276.42,139.268L276.204,139.491L275.989,139.713L275.771,139.934L275.551,140.154L275.331,140.372L275.11,140.588L274.888,140.802L274.664,141.016L274.438,141.23L274.212,141.44L273.985,141.648L273.757,141.856L273.528,142.062L273.297,142.266L273.065,142.469L272.832,142.671L272.599,142.871L272.364,143.069L272.128,143.266L271.891,143.462L271.653,143.655L271.414,143.848L271.173,144.039L270.932,144.229L270.69,144.417L270.447,144.604L270.204,144.787L269.96,144.97L269.712,145.153L269.465,145.334L269.216,145.514L268.967,145.691L268.719,145.866L268.469,146.04L268.216,146.214L267.963,146.386L267.71,146.556L267.455,146.724L267.2,146.891L266.944,147.057L266.687,147.221L266.431,147.382L266.172,147.544L265.911,147.705L265.651,147.862L265.39,148.019L265.128,148.174L264.865,148.327L264.602,148.479L264.339,148.63L264.072,148.78L263.806,148.927L263.541,149.073L263.273,149.218L263.004,149.362L262.737,149.503L262.467,149.643L262.197,149.782L261.926,149.92L261.653,150.056L261.38,150.191L261.108,150.323L260.835,150.454L260.561,150.584L260.286,150.713L260.01,150.84L259.734,150.965L259.456,151.09L259.179,151.212L258.901,151.334L258.622,151.453L258.342,151.572L258.063,151.688L257.783,151.803L257.501,151.918L257.219,152.03L256.937,152.141L256.655,152.25L256.371,152.359L256.086,152.466L255.802,152.571L255.518,152.674L255.232,152.776L254.947,152.877L254.66,152.977L254.373,153.075L254.085,153.171L253.797,153.266L253.509,153.36L253.219,153.452L252.931,153.542L252.641,153.632L252.35,153.72L252.06,153.806L251.769,153.891L251.477,153.974L251.186,154.056L250.893,154.137L250.599,154.217L250.307,154.294L250.013,154.37L249.719,154.445L249.426,154.519L249.131,154.591L248.836,154.661L248.54,154.731L248.244,154.798L247.949,154.864L247.652,154.929L247.356,154.993L247.058,155.055L246.761,155.116L246.464,155.175L246.166,155.232L245.867,155.289L245.569,155.344L245.27,155.397L244.972,155.449L244.672,155.5L244.372,155.549L244.073,155.597L243.773,155.643L243.473,155.688L243.172,155.732L242.871,155.774L242.571,155.815L242.269,155.854L241.968,155.892L241.667,155.928L241.366,155.963L241.063,155.997L240.761,156.029L240.459,156.06L240.157,156.089L239.855,156.117L239.552,156.144L239.249,156.169L238.946,156.193L238.643,156.215L238.14,156.25L62.064,156.25L61.685,156.249L61.305,156.246L60.926,156.241L60.548,156.235L60.171,156.227L59.795,156.218L59.42,156.207L59.047,156.194L58.676,156.18L58.304,156.164L57.934,156.146L57.566,156.127L57.199,156.106L56.832,156.084L56.467,156.06L56.103,156.034L55.741,156.007L55.379,155.979L55.019,155.948L54.659,155.916L54.302,155.883L53.945,155.848L53.59,155.811L53.235,155.772L52.882,155.733L52.53,155.691L52.179,155.648L51.829,155.603L51.481,155.557L51.134,155.509L50.788,155.46L50.443,155.409L50.1,155.356L49.758,155.302L49.416,155.247L49.076,155.189L48.737,155.13L48.4,155.07L48.064,155.008L47.729,154.945L47.395,154.88L47.062,154.813L46.73,154.745L46.4,154.675L46.071,154.603L45.743,154.53L45.417,154.456L45.091,154.38L44.767,154.302L44.444,154.223L44.123,154.143L43.802,154.06L43.484,153.977L43.166,153.891L42.848,153.804L42.533,153.716L42.219,153.626L41.906,153.534L41.594,153.441L41.284,153.347L40.974,153.25L40.666,153.153L40.36,153.054L40.056,152.953L39.75,152.851L39.448,152.747L39.146,152.641L38.845,152.534L38.547,152.426L38.249,152.316L37.953,152.205L37.657,152.092L37.364,151.977L37.072,151.862L36.779,151.744L36.49,151.625L36.201,151.504L35.913,151.382L35.628,151.259L35.343,151.134L35.06,151.007L34.778,150.879L34.497,150.75L34.217,150.618L33.939,150.486L33.662,150.351L33.388,150.216L33.114,150.079L32.841,149.941L32.57,149.801L32.299,149.659L32.031,149.516L31.764,149.372L31.498,149.226L31.234,149.079L30.97,148.929L30.709,148.779L30.449,148.628L30.19,148.475L29.933,148.32L29.676,148.164L29.422,148.006L29.169,147.847L28.917,147.687L28.667,147.525L28.417,147.362L28.17,147.197L27.924,147.031L27.68,146.864L27.437,146.695L27.195,146.524L26.953,146.351L26.715,146.178L26.48,146.005L26.243,145.828L26.008,145.65L25.777,145.473L25.544,145.292L25.313,145.109L25.087,144.929L24.861,144.745L24.634,144.558L24.409,144.37L24.187,144.182L23.967,143.993L23.747,143.801L23.53,143.609L23.315,143.416L23.1,143.222L22.886,143.024L22.674,142.826L22.466,142.629L22.257,142.428L22.049,142.225L21.846,142.025L21.641,141.819L21.439,141.613L21.239,141.407L21.041,141.2L20.844,140.992L20.647,140.78L20.452,140.568L20.26,140.356L20.07,140.142L19.88,139.926L19.693,139.71L19.506,139.492L19.321,139.272L19.14,139.054L18.959,138.832L18.779,138.609L18.601,138.385L18.426,138.162L18.251,137.935L18.077,137.707L17.908,137.481L17.738,137.251L17.569,137.02L17.404,136.789L17.239,136.555L17.075,136.321L16.915,136.087L16.756,135.852L16.597,135.613L16.442,135.377L16.287,135.137L16.134,134.895L15.983,134.655L15.833,134.412L15.687,134.17L15.541,133.927L15.396,133.68L15.253,133.433L15.112,133.184L14.973,132.937L14.837,132.689L14.701,132.438L14.566,132.186L14.433,131.932L14.303,131.681L14.175,131.428L14.048,131.172L13.922,130.915L13.797,130.657L13.676,130.401L13.557,130.144L13.437,129.883L13.32,129.622L13.205,129.359L13.091,129.096L12.98,128.835L12.871,128.573L12.762,128.307L12.655,128.04L12.55,127.773L12.447,127.507L12.346,127.238L12.246,126.969L12.148,126.701L12.052,126.429L11.957,126.157L11.865,125.887L11.773,125.613L11.684,125.339L11.596,125.064L11.51,124.788L11.426,124.514L11.344,124.236L11.263,123.961L11.184,123.682L11.107,123.402L11.031,123.122L10.957,122.841L10.885,122.562L10.814,122.28L10.745,121.997L10.678,121.713L10.613,121.432L10.549,121.147L10.487,120.861L10.426,120.575L10.368,120.288L10.311,120.003L10.256,119.715L10.202,119.423L10.151,119.137L10.101,118.85L10.052,118.556L10.005,118.265L9.96,117.976L9.917,117.683L9.875,117.391L9.835,117.097L9.796,116.803L9.76,116.508L9.725,116.213L9.692,115.92L9.66,115.624L9.63,115.327L9.602,115.029L9.575,114.731L9.55,114.433L9.527,114.134L9.505,113.835L9.485,113.535L9.467,113.237L9.45,112.936L9.435,112.632L9.422,112.332L9.41,112.03L9.4,111.724L9.392,111.423L9.385,111.119L9.38,110.815L9.377,110.51L9.375,110.198L9.375,109.971L9.378,109.736L9.383,109.505L9.39,109.269L9.399,109.031L9.41,108.792L9.424,108.551L9.439,108.309L9.456,108.065L9.476,107.816L9.497,107.569L9.52,107.321L9.545,107.07L9.572,106.818L9.602,106.56L9.633,106.301L9.666,106.043L9.7,105.784L9.738,105.516L9.776,105.253L9.817,104.989L9.859,104.719L9.904,104.447L9.951,104.174L9.999,103.902L10.049,103.625L10.101,103.347L10.155,103.066L10.212,102.784L10.269,102.501L10.33,102.216L10.391,101.929L10.456,101.638L10.522,101.348L10.59,101.056L10.659,100.763L10.732,100.466L10.805,100.17L10.881,99.872L10.959,99.57L11.039,99.267L11.121,98.966L11.205,98.663L11.292,98.353L11.379,98.047L11.469,97.74L11.561,97.43L11.656,97.116L11.753,96.803L11.851,96.491L11.952,96.176L12.055,95.86L12.159,95.543L12.266,95.225L12.375,94.907L12.486,94.587L12.6,94.266L12.716,93.942L12.833,93.62L12.953,93.298L13.075,92.972L13.2,92.647L13.326,92.32L13.456,91.992L13.586,91.666L13.719,91.34L13.855,91.01L13.993,90.681L14.133,90.353L14.275,90.023L14.42,89.692L14.567,89.361L14.717,89.03L14.868,88.698L15.023,88.367L15.178,88.037L15.336,87.705L15.498,87.372L15.662,87.04L15.827,86.708L15.997,86.375L16.167,86.043L16.34,85.712L16.517,85.379L16.694,85.048L16.874,84.718L17.058,84.385L17.243,84.055L17.432,83.724L17.623,83.393L17.816,83.065L18.012,82.735L18.211,82.406L18.412,82.078L18.615,81.751L18.821,81.424L19.031,81.096L19.242,80.772L19.456,80.448L19.675,80.122L19.893,79.801L20.116,79.479L20.341,79.157L20.569,78.837L20.8,78.518L21.034,78.199L21.27,77.883L21.509,77.568L21.751,77.253L21.997,76.939L22.244,76.628L22.494,76.319L22.748,76.009L23.005,75.701L23.265,75.395L23.526,75.092L23.792,74.789L24.06,74.488L24.327,74.195L24.469,74.04L24.605,73.893L24.744,73.744L24.884,73.596L25.022,73.451L25.165,73.302L25.305,73.157L25.446,73.014L25.592,72.866L25.736,72.72L25.879,72.579L26.024,72.435L26.171,72.291L26.316,72.151L26.464,72.009L26.615,71.864L26.763,71.726L26.911,71.588L27.064,71.445L27.216,71.307L27.367,71.17L27.52,71.032L27.674,70.895L27.83,70.757L27.986,70.621L28.143,70.486L28.3,70.351L28.456,70.219L28.615,70.085L28.775,69.953L28.936,69.82L29.097,69.689L29.259,69.558L29.423,69.428L29.584,69.301L29.749,69.172L29.917,69.043L30.083,68.915L30.249,68.79L30.416,68.665L30.585,68.54L30.755,68.416L30.925,68.293L31.096,68.171L31.268,68.049L31.441,67.928L31.615,67.808L31.79,67.688L31.965,67.57L32.141,67.452L32.318,67.336L32.496,67.219L32.674,67.105L32.854,66.99L33.035,66.877L33.215,66.765L33.397,66.653L33.58,66.543L33.763,66.433L33.948,66.324L34.136,66.215L34.321,66.109L34.507,66.003L34.695,65.898L34.884,65.793L35.073,65.691L35.262,65.59L35.453,65.488L35.647,65.387L35.839,65.288L36.033,65.19L36.229,65.092L36.423,64.997L36.618,64.902L36.815,64.808L37.015,64.714L37.212,64.623L37.411,64.532L37.612,64.442L37.813,64.354L38.016,64.266L38.219,64.18L38.42,64.095L38.625,64.011L38.832,63.927L39.037,63.846L39.242,63.765L39.451,63.685L39.659,63.607L39.868,63.53L40.078,63.454L40.29,63.379L40.501,63.305L40.712,63.233L40.926,63.162L41.139,63.092L41.354,63.023L41.569,62.956L41.786,62.889L42.004,62.824L42.22,62.761L42.438,62.699L42.658,62.637L42.877,62.578L43.099,62.519L43.321,62.462L43.541,62.406L43.765,62.351L43.989,62.298L44.213,62.246L44.439,62.196L44.664,62.147L44.89,62.099L45.118,62.052L45.347,62.007L45.575,61.963L45.804,61.921L46.035,61.88L46.265,61.84L46.496,61.802L46.729,61.765L46.961,61.73L47.195,61.696L47.43,61.664L47.664,61.633L47.9,61.603L48.135,61.575L48.373,61.548L48.611,61.523L48.848,61.499L49.088,61.477L49.327,61.456L49.567,61.437L49.808,61.419L50.05,61.402L50.291,61.387L50.534,61.374L50.777,61.362L51.021,61.352L51.266,61.343L51.511,61.335L51.756,61.329L52.003,61.325L52.25,61.322L52.497,61.321L52.745,61.321L52.994,61.323L53.244,61.327L53.493,61.331L53.743,61.338L53.995,61.346L54.247,61.356L54.498,61.367L54.751,61.379L55.005,61.394L55.259,61.41L55.513,61.427L55.767,61.446L56.023,61.467L56.28,61.489L56.536,61.513L56.793,61.538L57.052,61.565L57.309,61.594L57.567,61.624L57.828,61.656L58.088,61.689L58.347,61.724L58.608,61.761L58.87,61.799L59.132,61.839L59.395,61.881L59.658,61.924L59.92,61.969L60.185,62.015L60.45,62.063L60.715,62.113L60.981,62.165L61.246,62.217L61.513,62.272L61.78,62.328L62.048,62.386L62.317,62.446L62.585,62.508L62.854,62.57L63.124,62.635L63.394,62.701L63.664,62.769L63.937,62.839L64.207,62.91L64.48,62.983L64.753,63.058L65.027,63.134L65.301,63.213L65.573,63.292L65.849,63.374L66.125,63.457L66.4,63.542L66.676,63.628L66.953,63.717L67.231,63.806L67.508,63.898L67.787,63.992L68.066,64.087L68.345,64.183L68.625,64.282L68.905,64.382L69.186,64.484L69.468,64.588L69.749,64.694L70.032,64.801L70.315,64.91L70.599,65.021L70.883,65.133L71.166,65.247L71.452,65.363L71.737,65.481L72.023,65.6L72.311,65.722L72.597,65.845L72.884,65.969L73.173,66.097L73.462,66.225L73.751,66.355L74.04,66.487L74.331,66.621L74.621,66.756L74.912,66.894L75.204,67.033L75.497,67.174L75.79,67.317L76.083,67.461L76.378,67.608L76.672,67.756L76.967,67.906L77.263,68.058L77.558,68.211L77.855,68.367L78.153,68.524L78.45,68.683L78.75,68.845L79.048,69.008L79.347,69.172L79.603,69.314L79.606,69.28L79.656,68.75L79.709,68.222L79.764,67.694L79.821,67.167L79.88,66.644L79.941,66.122L80.005,65.601L80.071,65.083L80.138,64.566L80.208,64.05L80.28,63.536L80.354,63.025L80.431,62.515L80.509,62.007L80.589,61.501L80.672,60.996L80.756,60.495L80.843,59.994L80.932,59.492L81.023,58.995L81.116,58.5L81.211,58.008L81.308,57.515L81.407,57.024L81.509,56.535L81.612,56.049L81.717,55.565L81.825,55.081L81.934,54.599L82.046,54.12L82.159,53.643L82.275,53.168L82.392,52.694L82.512,52.221L82.634,51.751L82.758,51.283L82.884,50.816L83.011,50.353L83.141,49.89L83.273,49.427L83.407,48.968L83.543,48.512L83.68,48.056L83.82,47.602L83.962,47.152L84.106,46.701L84.252,46.253L84.399,45.808L84.549,45.363L84.701,44.921L84.854,44.482L85.01,44.042L85.168,43.606L85.328,43.17L85.49,42.738L85.653,42.308L85.818,41.879L85.986,41.452L86.156,41.025L86.326,40.604L86.5,40.183L86.675,39.763L86.852,39.346L87.031,38.93L87.212,38.516L87.395,38.105L87.58,37.696L87.767,37.288L87.955,36.884L88.146,36.479L88.339,36.077L88.532,35.678L88.728,35.281L88.927,34.884L89.127,34.49L89.328,34.1L89.532,33.711L89.738,33.322L89.946,32.935L90.155,32.554L90.365,32.172L90.579,31.791L90.794,31.415L91.01,31.04L91.23,30.665L91.45,30.293L91.672,29.925L91.895,29.559L92.121,29.193L92.35,28.828L92.58,28.468L92.81,28.11L93.044,27.753L93.279,27.397L93.516,27.045L93.754,26.695L93.995,26.346L94.238,25.999L94.481,25.655L94.726,25.314L94.974,24.974L95.223,24.636L95.474,24.301L95.728,23.966L95.983,23.635L96.238,23.307L96.496,22.98L96.756,22.655L97.017,22.332L97.281,22.012L97.546,21.693L97.813,21.376L98.081,21.063L98.35,20.753L98.622,20.443L98.896,20.135L99.171,19.831L99.448,19.527L99.726,19.227L100.007,18.929L100.289,18.633L100.572,18.34L100.858,18.047L101.143,17.76L101.433,17.472L101.723,17.187L102.014,16.905L102.307,16.625L102.602,16.348L102.899,16.072L103.196,15.8L103.497,15.528L103.798,15.26L104.1,14.995L104.405,14.731L104.712,14.469L105.019,14.21L105.327,13.954L105.638,13.7L105.95,13.448L106.264,13.199L106.579,12.951L106.895,12.707L107.214,12.465L107.534,12.224L107.855,11.987L108.177,11.752L108.501,11.52L108.826,11.29L109.154,11.062L109.482,10.837L109.812,10.613L110.144,10.393L110.476,10.176L110.81,9.96L111.145,9.747L111.482,9.537L111.82,9.329L112.161,9.123L112.502,8.92L112.844,8.72L113.187,8.522L113.532,8.326L113.879,8.133L114.226,7.943L114.575,7.755L114.926,7.569L115.277,7.387L115.63,7.206L115.984,7.028L116.339,6.853L116.696,6.68L117.054,6.51L117.412,6.343L117.773,6.178L118.134,6.015L118.497,5.855L118.861,5.698L119.227,5.543L119.592,5.391L119.959,5.242L120.328,5.095L120.698,4.95L121.069,4.809L121.441,4.669L121.813,4.533L122.188,4.399L122.564,4.267L122.939,4.139L123.317,4.013L123.695,3.889L124.075,3.768L124.455,3.65L124.837,3.535L125.22,3.422L125.604,3.311L125.988,3.204L126.373,3.099L126.76,2.996L127.148,2.897L127.537,2.799L127.925,2.705L128.316,2.613L128.708,2.524L129.1,2.438L129.493,2.354L129.887,2.273L130.282,2.194L130.678,2.118L131.075,2.045L131.473,1.975L131.872,1.907L132.27,1.842L132.67,1.779L133.073,1.719L133.474,1.662L133.876,1.608L134.28,1.556L134.684,1.506L135.09,1.46L135.496,1.416L135.902,1.375L136.31,1.336L136.718,1.301L137.126,1.268L137.536,1.237L137.946,1.209L138.357,1.184L138.769,1.162L139.182,1.142L139.595,1.125L140.009,1.111L140.424,1.099L140.839,1.09L141.254,1.084L141.665,1.08L142.157,1.078L142.641,1.078L143.123,1.078ZM142.193,13.578L141.745,13.58L141.404,13.583L141.069,13.588L140.735,13.595L140.402,13.605L140.069,13.616L139.737,13.63L139.407,13.646L139.078,13.664L138.749,13.684L138.421,13.706L138.094,13.73L137.768,13.757L137.443,13.785L137.119,13.816L136.795,13.848L136.473,13.883L136.152,13.92L135.832,13.959L135.512,14L135.193,14.043L134.875,14.089L134.559,14.136L134.243,14.185L133.927,14.237L133.613,14.29L133.301,14.345L132.988,14.403L132.676,14.463L132.366,14.524L132.057,14.588L131.749,14.654L131.441,14.722L131.135,14.791L130.829,14.863L130.524,14.937L130.221,15.013L129.918,15.091L129.616,15.171L129.315,15.253L129.015,15.337L128.716,15.423L128.418,15.511L128.121,15.601L127.825,15.693L127.53,15.787L127.236,15.883L126.943,15.981L126.65,16.081L126.358,16.183L126.069,16.286L125.779,16.392L125.49,16.5L125.203,16.61L124.916,16.722L124.631,16.836L124.346,16.952L124.062,17.07L123.78,17.19L123.498,17.311L123.218,17.435L122.938,17.561L122.659,17.689L122.381,17.818L122.103,17.95L121.828,18.083L121.553,18.219L121.279,18.357L121.006,18.496L120.734,18.638L120.463,18.781L120.194,18.926L119.924,19.074L119.656,19.224L119.389,19.375L119.123,19.528L118.857,19.684L118.593,19.841L118.331,20L118.069,20.161L117.807,20.324L117.547,20.49L117.288,20.657L117.029,20.826L116.772,20.997L116.516,21.17L116.261,21.345L116.007,21.522L115.754,21.701L115.501,21.882L115.25,22.065L115,22.25L114.751,22.436L114.503,22.625L114.256,22.817L114.01,23.009L113.765,23.204L113.521,23.4L113.279,23.599L113.037,23.8L112.795,24.003L112.556,24.208L112.318,24.414L112.079,24.624L111.843,24.834L111.608,25.046L111.373,25.262L111.139,25.478L110.907,25.697L110.676,25.918L110.446,26.141L110.216,26.366L109.989,26.591L109.761,26.821L109.536,27.051L109.311,27.284L109.087,27.52L108.865,27.756L108.644,27.995L108.424,28.235L108.204,28.478L107.987,28.723L107.77,28.969L107.554,29.219L107.339,29.471L107.125,29.723L106.914,29.978L106.702,30.235L106.493,30.494L106.284,30.754L106.076,31.018L105.869,31.284L105.664,31.551L105.46,31.819L105.258,32.091L105.056,32.364L104.856,32.638L104.656,32.917L104.457,33.197L104.261,33.478L104.066,33.76L103.871,34.046L103.678,34.334L103.486,34.623L103.296,34.914L103.106,35.209L102.918,35.506L102.732,35.801L102.547,36.101L102.362,36.404L102.178,36.709L101.997,37.014L101.817,37.321L101.639,37.631L101.46,37.944L101.284,38.257L101.11,38.573L100.935,38.893L100.763,39.212L100.593,39.534L100.423,39.858L100.254,40.186L100.087,40.514L99.923,40.844L99.758,41.177L99.595,41.512L99.434,41.848L99.275,42.186L99.116,42.528L98.959,42.87L98.803,43.216L98.649,43.562L98.496,43.911L98.345,44.262L98.195,44.614L98.047,44.969L97.9,45.326L97.754,45.687L97.611,46.047L97.468,46.41L97.327,46.775L97.188,47.143L97.049,47.513L96.914,47.883L96.779,48.257L96.646,48.631L96.514,49.009L96.383,49.39L96.255,49.77L96.127,50.155L96.002,50.539L95.878,50.927L95.756,51.317L95.635,51.708L95.516,52.102L95.398,52.499L95.282,52.896L95.168,53.294L95.056,53.696L94.944,54.101L94.835,54.507L94.727,54.915L94.621,55.325L94.517,55.735L94.414,56.149L94.313,56.566L94.213,56.984L94.116,57.404L94.02,57.825L93.926,58.248L93.833,58.675L93.742,59.103L93.653,59.533L93.566,59.964L93.48,60.397L93.396,60.834L93.314,61.273L93.233,61.712L93.155,62.152L93.079,62.595L93.003,63.043L92.93,63.49L92.859,63.94L92.789,64.392L92.721,64.845L92.655,65.301L92.591,65.759L92.529,66.217L92.468,66.679L92.41,67.143L92.353,67.607L92.298,68.075L92.245,68.545L92.194,69.015L92.145,69.488L92.097,69.964L92.052,70.442L92.008,70.92L91.966,71.401L91.927,71.883L91.889,72.368L91.853,72.856L91.819,73.344L91.787,73.835L91.757,74.327L91.729,74.821L91.702,75.318L91.678,75.816L91.656,76.317L91.636,76.818L91.618,77.322L91.601,77.828L91.587,78.335L91.575,78.845L91.565,79.357L91.557,79.87L91.465,87.704L87.66,89.645L81.4,85.221L81.117,85.022L80.835,84.825L80.553,84.63L80.273,84.437L79.993,84.246L79.715,84.058L79.438,83.871L79.16,83.686L78.884,83.504L78.609,83.323L78.334,83.143L78.062,82.967L77.791,82.793L77.518,82.62L77.247,82.448L76.978,82.279L76.709,82.112L76.441,81.946L76.174,81.783L75.909,81.623L75.644,81.463L75.379,81.305L75.116,81.149L74.855,80.996L74.592,80.843L74.332,80.694L74.073,80.545L73.814,80.399L73.556,80.255L73.3,80.112L73.044,79.971L72.788,79.832L72.535,79.695L72.281,79.56L72.029,79.426L71.778,79.295L71.527,79.164L71.278,79.036L71.029,78.91L70.781,78.785L70.536,78.663L70.289,78.541L70.044,78.422L69.801,78.304L69.558,78.189L69.315,78.074L69.074,77.962L68.834,77.851L68.594,77.742L68.356,77.635L68.118,77.529L67.883,77.426L67.646,77.323L67.411,77.222L67.179,77.124L66.945,77.026L66.713,76.93L66.482,76.836L66.251,76.744L66.022,76.653L65.794,76.564L65.567,76.476L65.341,76.39L65.114,76.306L64.89,76.223L64.666,76.142L64.443,76.062L64.222,75.984L64,75.907L63.781,75.832L63.561,75.759L63.343,75.687L63.126,75.616L62.91,75.547L62.694,75.48L62.479,75.413L62.266,75.349L62.053,75.286L61.84,75.224L61.629,75.164L61.42,75.105L61.211,75.048L61.003,74.992L60.794,74.938L60.589,74.885L60.383,74.833L60.178,74.783L59.975,74.734L59.771,74.687L59.569,74.641L59.369,74.596L59.168,74.553L58.969,74.51L58.771,74.47L58.572,74.43L58.376,74.392L58.179,74.355L57.985,74.32L57.791,74.286L57.597,74.253L57.404,74.221L57.213,74.191L57.023,74.162L56.833,74.134L56.644,74.108L56.454,74.082L56.268,74.058L56.082,74.035L55.896,74.014L55.711,73.993L55.527,73.974L55.344,73.956L55.161,73.939L54.98,73.923L54.8,73.909L54.619,73.895L54.44,73.883L54.262,73.872L54.085,73.862L53.908,73.853L53.731,73.845L53.556,73.838L53.382,73.833L53.209,73.828L53.036,73.825L52.864,73.823L52.693,73.821L52.523,73.821L52.352,73.822L52.183,73.824L52.016,73.827L51.847,73.831L51.68,73.836L51.514,73.842L51.35,73.849L51.185,73.857L51.021,73.866L50.857,73.876L50.695,73.887L50.533,73.899L50.371,73.912L50.211,73.926L50.052,73.941L49.892,73.957L49.734,73.974L49.577,73.992L49.42,74.01L49.263,74.03L49.106,74.051L48.952,74.072L48.799,74.094L48.644,74.118L48.491,74.142L48.338,74.167L48.185,74.193L48.035,74.22L47.883,74.248L47.733,74.277L47.584,74.306L47.435,74.337L47.287,74.368L47.138,74.401L46.992,74.434L46.845,74.468L46.699,74.502L46.554,74.538L46.408,74.575L46.264,74.612L46.121,74.649L45.977,74.689L45.834,74.729L45.692,74.769L45.549,74.811L45.408,74.853L45.268,74.896L45.128,74.94L44.989,74.985L44.849,75.03L44.711,75.076L44.571,75.124L44.433,75.172L44.298,75.22L44.161,75.27L44.025,75.32L43.888,75.371L43.754,75.423L43.619,75.476L43.483,75.53L43.351,75.583L43.218,75.638L43.083,75.694L42.95,75.751L42.82,75.807L42.688,75.866L42.557,75.924L42.426,75.984L42.294,76.045L42.166,76.105L42.037,76.167L41.907,76.23L41.777,76.294L41.65,76.357L41.523,76.422L41.394,76.487L41.27,76.553L41.144,76.619L41.016,76.688L40.889,76.757L40.765,76.825L40.64,76.895L40.515,76.966L40.389,77.038L40.267,77.109L40.145,77.181L40.022,77.255L39.899,77.329L39.777,77.404L39.655,77.48L39.534,77.556L39.413,77.633L39.292,77.711L39.173,77.789L39.053,77.868L38.933,77.948L38.814,78.028L38.696,78.109L38.577,78.191L38.46,78.273L38.343,78.356L38.225,78.44L38.108,78.524L37.992,78.609L37.877,78.694L37.761,78.781L37.644,78.87L37.53,78.957L37.418,79.043L37.304,79.132L37.187,79.224L37.075,79.314L36.963,79.404L36.85,79.496L36.738,79.588L36.627,79.68L36.516,79.774L36.403,79.869L36.292,79.964L36.182,80.059L36.073,80.155L35.964,80.25L35.855,80.348L35.747,80.445L35.637,80.545L35.528,80.644L35.424,80.74L35.315,80.842L35.206,80.945L35.103,81.043L34.997,81.145L34.89,81.249L34.785,81.351L34.68,81.454L34.574,81.56L34.47,81.664L34.37,81.766L34.265,81.874L34.16,81.982L34.061,82.086L33.957,82.195L33.855,82.302L33.755,82.41L33.652,82.52L33.557,82.623L33.353,82.849L33.154,83.071L32.958,83.295L32.762,83.522L32.569,83.75L32.377,83.98L32.188,84.211L31.999,84.445L31.811,84.681L31.626,84.917L31.443,85.155L31.261,85.395L31.08,85.638L30.902,85.88L30.725,86.125L30.549,86.372L30.376,86.618L30.204,86.867L30.033,87.119L29.865,87.369L29.699,87.622L29.533,87.877L29.37,88.131L29.209,88.387L29.048,88.645L28.89,88.903L28.734,89.162L28.579,89.421L28.426,89.683L28.275,89.944L28.126,90.206L27.977,90.47L27.832,90.733L27.687,90.998L27.544,91.264L27.404,91.529L27.265,91.795L27.128,92.062L26.993,92.328L26.86,92.595L26.728,92.863L26.599,93.129L26.471,93.397L26.343,93.667L26.219,93.935L26.096,94.203L25.975,94.471L25.856,94.739L25.739,95.007L25.623,95.274L25.509,95.543L25.397,95.81L25.287,96.076L25.178,96.344L25.071,96.612L24.966,96.877L24.864,97.141L24.762,97.406L24.663,97.669L24.566,97.934L24.469,98.197L24.376,98.457L24.284,98.719L24.193,98.979L24.104,99.239L24.017,99.498L23.932,99.755L23.849,100.011L23.768,100.266L23.687,100.522L23.609,100.774L23.534,101.023L23.46,101.273L23.387,101.523L23.315,101.771L23.247,102.014L23.18,102.259L23.113,102.503L23.05,102.742L22.988,102.98L22.928,103.218L22.869,103.454L22.813,103.685L22.758,103.917L22.704,104.147L22.653,104.375L22.603,104.597L22.555,104.82L22.509,105.04L22.464,105.258L22.421,105.474L22.38,105.686L22.341,105.896L22.303,106.103L22.267,106.311L22.232,106.512L22.2,106.71L22.169,106.905L22.139,107.101L22.111,107.292L22.085,107.474L22.061,107.66L22.038,107.841L22.017,108.016L21.997,108.186L21.979,108.357L21.962,108.523L21.947,108.686L21.933,108.844L21.922,108.994L21.911,109.144L21.902,109.289L21.894,109.429L21.888,109.564L21.883,109.695L21.879,109.82L21.877,109.944L21.875,110.058L21.875,110.173L21.876,110.403L21.879,110.64L21.883,110.876L21.888,111.112L21.895,111.349L21.902,111.581L21.911,111.814L21.922,112.049L21.933,112.278L21.946,112.508L21.96,112.741L21.975,112.971L21.992,113.199L22.01,113.427L22.029,113.654L22.049,113.88L22.07,114.105L22.093,114.33L22.117,114.553L22.142,114.779L22.169,115.001L22.196,115.222L22.225,115.443L22.255,115.663L22.286,115.882L22.319,116.1L22.353,116.32L22.387,116.536L22.423,116.749L22.461,116.967L22.499,117.183L22.539,117.394L22.579,117.606L22.622,117.82L22.665,118.031L22.709,118.241L22.755,118.45L22.802,118.658L22.85,118.868L22.899,119.075L22.949,119.281L23,119.486L23.054,119.693L23.107,119.896L23.162,120.098L23.218,120.3L23.275,120.501L23.334,120.704L23.393,120.903L23.455,121.104L23.516,121.301L23.579,121.498L23.643,121.693L23.708,121.888L23.775,122.085L23.843,122.279L23.911,122.471L23.982,122.665L24.052,122.856L24.124,123.046L24.198,123.238L24.272,123.426L24.348,123.614L24.424,123.8L24.502,123.989L24.582,124.177L24.662,124.361L24.742,124.544L24.824,124.726L24.907,124.908L24.993,125.092L25.079,125.275L25.165,125.454L25.253,125.632L25.341,125.81L25.433,125.989L25.524,126.168L25.616,126.343L25.709,126.517L25.803,126.691L25.9,126.866L25.998,127.04L26.095,127.211L26.193,127.381L26.293,127.551L26.395,127.722L26.499,127.892L26.602,128.059L26.707,128.228L26.812,128.393L26.919,128.558L27.028,128.724L27.136,128.887L27.247,129.052L27.359,129.215L27.471,129.376L27.585,129.536L27.7,129.697L27.815,129.855L27.932,130.013L28.053,130.174L28.171,130.33L28.291,130.485L28.414,130.642L28.537,130.797L28.66,130.95L28.785,131.102L28.914,131.257L29.04,131.407L29.168,131.557L29.299,131.708L29.429,131.856L29.562,132.005L29.696,132.153L29.83,132.299L29.965,132.444L30.102,132.59L30.241,132.735L30.381,132.879L30.521,133.021L30.661,133.162L30.806,133.306L30.95,133.445L31.094,133.584L31.243,133.725L31.389,133.862L31.537,133.998L31.688,134.135L31.84,134.271L31.993,134.407L32.146,134.54L32.302,134.674L32.458,134.806L32.615,134.937L32.773,135.067L32.933,135.197L33.097,135.329L33.259,135.456L33.421,135.583L33.588,135.711L33.753,135.836L33.92,135.961L34.091,136.087L34.262,136.21L34.432,136.332L34.604,136.453L34.778,136.574L34.954,136.695L35.131,136.815L35.309,136.933L35.488,137.05L35.669,137.167L35.851,137.283L36.034,137.399L36.219,137.513L36.404,137.625L36.591,137.738L36.78,137.85L36.971,137.961L37.162,138.071L37.353,138.179L37.547,138.287L37.743,138.395L37.94,138.501L38.138,138.607L38.336,138.711L38.538,138.814L38.739,138.917L38.943,139.018L39.148,139.12L39.355,139.22L39.561,139.318L39.77,139.416L39.98,139.513L40.192,139.609L40.406,139.705L40.62,139.799L40.836,139.892L41.053,139.984L41.272,140.076L41.492,140.166L41.712,140.255L41.936,140.344L42.16,140.431L42.386,140.517L42.612,140.602L42.841,140.687L43.072,140.771L43.303,140.853L43.535,140.934L43.769,141.014L44.004,141.093L44.242,141.172L44.481,141.249L44.721,141.325L44.962,141.4L45.204,141.474L45.448,141.547L45.693,141.618L45.941,141.689L46.19,141.759L46.439,141.827L46.69,141.895L46.944,141.961L47.198,142.027L47.453,142.091L47.71,142.154L47.969,142.216L48.229,142.276L48.49,142.336L48.753,142.395L49.017,142.452L49.283,142.508L49.55,142.563L49.819,142.617L50.089,142.67L50.361,142.721L50.634,142.771L50.908,142.82L51.184,142.868L51.462,142.915L51.74,142.961L52.021,143.005L52.303,143.048L52.585,143.09L52.87,143.13L53.157,143.17L53.444,143.208L53.733,143.245L54.023,143.281L54.315,143.315L54.609,143.348L54.903,143.38L55.199,143.411L55.497,143.44L55.797,143.468L56.097,143.495L56.399,143.52L56.702,143.544L57.008,143.567L57.315,143.589L57.622,143.609L57.931,143.628L58.242,143.645L58.554,143.661L58.868,143.676L59.183,143.69L59.499,143.702L59.818,143.713L60.137,143.722L60.458,143.73L60.78,143.737L61.104,143.742L61.429,143.746L61.756,143.749L62.087,143.75L237.709,143.75L237.753,143.747L237.999,143.729L238.243,143.71L238.488,143.689L238.732,143.668L238.976,143.645L239.221,143.622L239.464,143.597L239.708,143.571L239.951,143.544L240.194,143.515L240.438,143.486L240.681,143.455L240.924,143.424L241.167,143.391L241.408,143.357L241.65,143.322L241.892,143.286L242.133,143.248L242.375,143.21L242.616,143.17L242.856,143.13L243.096,143.088L243.336,143.045L243.576,143.001L243.816,142.955L244.055,142.909L244.294,142.861L244.533,142.813L244.77,142.763L245.008,142.712L245.245,142.66L245.483,142.607L245.72,142.553L245.956,142.498L246.191,142.441L246.427,142.384L246.663,142.325L246.897,142.265L247.132,142.204L247.367,142.142L247.6,142.079L247.832,142.015L248.065,141.949L248.297,141.883L248.528,141.815L248.761,141.746L248.991,141.677L249.221,141.606L249.452,141.533L249.681,141.46L249.909,141.386L250.138,141.311L250.366,141.234L250.593,141.157L250.82,141.078L251.046,140.998L251.272,140.917L251.498,140.835L251.723,140.752L251.947,140.668L252.17,140.583L252.393,140.496L252.616,140.409L252.837,140.32L253.058,140.231L253.279,140.14L253.5,140.048L253.719,139.955L253.938,139.861L254.156,139.766L254.374,139.67L254.59,139.573L254.807,139.474L255.023,139.375L255.237,139.274L255.451,139.173L255.665,139.07L255.88,138.965L256.092,138.861L256.303,138.756L256.514,138.649L256.724,138.541L256.933,138.432L257.143,138.321L257.351,138.21L257.558,138.098L257.765,137.984L257.972,137.869L258.176,137.755L258.381,137.638L258.585,137.52L258.788,137.401L258.99,137.281L259.192,137.16L259.394,137.038L259.592,136.916L259.79,136.792L259.99,136.666L260.188,136.54L260.385,136.413L260.581,136.284L260.776,136.155L260.97,136.025L261.164,135.893L261.355,135.762L261.547,135.628L261.74,135.492L261.931,135.356L262.12,135.22L262.308,135.082L262.494,134.945L262.681,134.804L262.869,134.662L263.053,134.521L263.238,134.377L263.421,134.233L263.604,134.088L263.785,133.942L263.966,133.795L264.145,133.647L264.324,133.498L264.502,133.347L264.679,133.196L264.856,133.043L265.03,132.89L265.205,132.735L265.379,132.579L265.551,132.423L265.723,132.265L265.894,132.105L266.062,131.947L266.23,131.786L266.398,131.624L266.566,131.46L266.732,131.296L266.895,131.132L267.059,130.966L267.223,130.797L267.385,130.629L267.544,130.461L267.704,130.291L267.864,130.119L268.021,129.947L268.178,129.773L268.334,129.598L268.488,129.423L268.643,129.245L268.795,129.068L268.946,128.89L269.098,128.709L269.247,128.528L269.396,128.346L269.543,128.164L269.69,127.979L269.835,127.794L269.979,127.608L270.123,127.42L270.265,127.231L270.406,127.043L270.546,126.852L270.685,126.659L270.822,126.468L270.96,126.273L271.096,126.077L271.231,125.881L271.364,125.685L271.496,125.487L271.627,125.288L271.758,125.086L271.887,124.885L272.013,124.684L272.141,124.478L272.267,124.273L272.39,124.069L272.515,123.859L272.636,123.652L272.756,123.444L272.878,123.231L272.997,123.018L273.114,122.806L273.23,122.593L273.345,122.379L273.458,122.164L273.572,121.945L273.684,121.724L273.794,121.505L273.902,121.287L274.01,121.065L274.118,120.84L274.223,120.615L274.328,120.389L274.43,120.164L274.532,119.936L274.633,119.706L274.731,119.477L274.83,119.245L274.927,119.011L275.022,118.778L275.116,118.544L275.209,118.307L275.301,118.07L275.391,117.832L275.479,117.592L275.567,117.351L275.654,117.107L275.739,116.863L275.823,116.618L275.905,116.372L275.986,116.127L276.066,115.878L276.144,115.627L276.221,115.378L276.296,115.125L276.371,114.87L276.444,114.616L276.515,114.361L276.585,114.102L276.653,113.845L276.72,113.585L276.787,113.322L276.851,113.06L276.914,112.796L276.975,112.531L277.035,112.267L277.093,112L277.151,111.728L277.207,111.457L277.26,111.187L277.313,110.916L277.364,110.641L277.414,110.364L277.462,110.089L277.508,109.809L277.554,109.528L277.597,109.251L277.638,108.969L277.679,108.684L277.718,108.399L277.755,108.113L277.79,107.826L277.824,107.537L277.857,107.246L277.888,106.955L277.917,106.661L277.944,106.369L277.97,106.072L277.995,105.774L278.017,105.477L278.038,105.178L278.057,104.876L278.075,104.572L278.091,104.269L278.105,103.964L278.117,103.658L278.119,103.609L278.102,103.291L278.069,102.714L278.033,102.14L277.995,101.568L277.955,101.002L277.914,100.439L277.87,99.881L277.824,99.327L277.776,98.777L277.726,98.231L277.674,97.688L277.621,97.151L277.565,96.617L277.507,96.086L277.447,95.561L277.385,95.04L277.321,94.521L277.255,94.008L277.188,93.498L277.118,92.991L277.046,92.49L276.973,91.993L276.897,91.499L276.82,91.009L276.741,90.524L276.66,90.044L276.576,89.566L276.491,89.092L276.404,88.624L276.316,88.158L276.225,87.696L276.132,87.238L276.038,86.785L275.942,86.337L275.844,85.891L275.745,85.45L275.643,85.014L275.54,84.58L275.435,84.151L275.328,83.725L275.219,83.304L275.109,82.887L274.997,82.474L274.883,82.064L274.767,81.656L274.709,81.459L274.65,81.258L274.591,81.058L274.531,80.859L274.472,80.664L274.411,80.467L274.351,80.275L274.289,80.08L274.227,79.882L274.165,79.693L274.104,79.504L274.039,79.31L273.976,79.12L273.913,78.934L273.85,78.75L273.785,78.563L273.718,78.374L273.654,78.192L273.588,78.008L273.522,77.825L273.456,77.646L273.388,77.462L273.32,77.282L273.254,77.106L273.186,76.931L273.118,76.754L273.047,76.575L272.979,76.403L272.909,76.229L272.839,76.056L272.769,75.884L272.698,75.713L272.628,75.546L272.556,75.376L272.484,75.208L272.412,75.041L272.339,74.875L272.267,74.713L272.193,74.548L272.118,74.382L272.045,74.222L271.972,74.064L271.896,73.901L271.821,73.741L271.746,73.586L271.67,73.428L271.594,73.271L271.517,73.116L271.44,72.961L271.363,72.808L271.285,72.655L271.207,72.503L271.13,72.355L271.052,72.205L270.973,72.056L270.893,71.908L270.814,71.761L270.733,71.615L270.653,71.469L270.574,71.328L270.491,71.182L270.41,71.039L270.33,70.901L270.248,70.76L270.166,70.621L270.083,70.482L270.001,70.344L269.917,70.207L269.834,70.071L269.752,69.939L269.667,69.805L269.581,69.669L269.496,69.536L269.413,69.408L269.328,69.278L269.242,69.148L269.155,69.019L269.07,68.891L268.983,68.765L268.896,68.638L268.808,68.513L268.721,68.389L268.633,68.265L268.545,68.143L268.459,68.024L268.368,67.9L268.28,67.781L268.192,67.664L268.102,67.545L268.01,67.425L267.921,67.309L267.832,67.196L267.742,67.082L267.648,66.965L267.557,66.851L267.467,66.742L267.376,66.631L267.283,66.52L267.191,66.41L267.096,66.299L267.003,66.191L266.912,66.086L266.819,65.979L266.725,65.874L266.631,65.769L266.534,65.662L266.439,65.559L266.346,65.459L266.252,65.358L266.156,65.256L266.059,65.156L265.961,65.054L265.865,64.956L265.771,64.861L265.673,64.763L265.573,64.665L265.476,64.569L265.381,64.477L265.283,64.384L265.182,64.288L265.083,64.195L264.984,64.104L264.884,64.013L264.787,63.925L264.685,63.834L264.584,63.744L264.484,63.656L264.383,63.57L264.282,63.483L264.178,63.395L264.078,63.312L263.976,63.227L263.872,63.142L263.771,63.06L263.668,62.979L263.563,62.895L263.459,62.814L263.355,62.734L263.251,62.655L263.146,62.576L263.041,62.498L262.935,62.42L262.83,62.343L262.723,62.267L262.616,62.191L262.509,62.116L262.403,62.043L262.294,61.968L262.187,61.896L262.078,61.824L261.97,61.752L261.861,61.682L261.75,61.61L261.641,61.541L261.532,61.473L261.422,61.405L261.309,61.336L261.198,61.269L261.087,61.203L260.973,61.136L260.862,61.071L260.751,61.008L260.636,60.943L260.523,60.88L260.408,60.817L260.294,60.755L260.181,60.695L260.063,60.633L259.948,60.573L259.833,60.514L259.716,60.455L259.6,60.397L259.483,60.339L259.365,60.282L259.245,60.225L259.127,60.169L259.009,60.114L258.89,60.059L258.77,60.006L258.648,59.952L258.527,59.899L258.407,59.847L258.286,59.796L258.164,59.744L258.04,59.693L257.918,59.644L257.794,59.595L257.67,59.546L257.546,59.498L257.421,59.451L257.296,59.404L257.169,59.358L257.044,59.312L256.918,59.268L256.789,59.223L256.661,59.179L256.533,59.136L256.403,59.093L256.274,59.051L256.145,59.009L256.015,58.969L255.885,58.929L255.754,58.889L255.621,58.85L255.488,58.811L255.356,58.774L255.223,58.737L255.088,58.7L254.954,58.664L254.82,58.629L254.684,58.594L254.549,58.56L254.412,58.526L254.274,58.493L254.137,58.461L253.999,58.429L253.861,58.398L253.722,58.368L253.582,58.338L253.442,58.308L253.301,58.28L253.161,58.252L253.017,58.224L252.875,58.197L252.733,58.171L252.588,58.145L252.446,58.121L252.301,58.096L252.155,58.072L252.011,58.049L251.863,58.027L251.716,58.005L251.569,57.984L251.422,57.963L251.273,57.943L251.124,57.924L250.975,57.905L250.825,57.887L250.673,57.869L250.521,57.852L250.37,57.836L250.218,57.821L250.065,57.806L249.911,57.791L249.758,57.778L249.604,57.765L249.448,57.752L249.292,57.741L249.135,57.73L248.978,57.719L248.821,57.709L248.663,57.7L248.504,57.692L248.345,57.684L248.185,57.677L248.025,57.67L247.864,57.664L247.702,57.659L247.541,57.654L247.378,57.65L247.214,57.647L247.051,57.645L246.886,57.643L246.721,57.641L246.556,57.641L246.39,57.641L246.223,57.641L246.056,57.643L245.888,57.645L245.72,57.648L245.551,57.651L245.387,57.655L245.04,57.665L244.697,57.678L244.352,57.693L244.004,57.712L243.655,57.732L243.303,57.756L242.948,57.783L242.592,57.812L242.233,57.843L241.872,57.878L241.509,57.915L241.143,57.955L240.776,57.998L240.405,58.044L240.033,58.092L239.658,58.143L239.282,58.197L238.903,58.254L238.522,58.313L238.139,58.376L237.753,58.441L237.366,58.509L236.976,58.579L236.584,58.653L236.19,58.729L235.793,58.808L235.396,58.89L234.996,58.975L234.592,59.063L234.188,59.153L233.781,59.246L233.372,59.342L232.961,59.441L232.548,59.543L232.132,59.647L231.716,59.754L231.296,59.864L230.875,59.977L230.452,60.093L230.026,60.212L229.599,60.333L229.17,60.457L228.738,60.585L228.304,60.714L227.869,60.847L227.431,60.983L226.992,61.121L226.55,61.262L226.107,61.406L225.662,61.553L225.214,61.703L224.765,61.855L224.314,62.01L223.86,62.168L223.405,62.329L222.948,62.493L222.489,62.66L222.028,62.829L221.566,63.001L221.101,63.176L220.634,63.354L220.166,63.534L219.695,63.717L219.223,63.903L218.749,64.092L218.273,64.284L217.795,64.478L217.315,64.676L216.834,64.876L216.351,65.078L215.865,65.284L215.379,65.492L214.89,65.703L214.399,65.917L207.501,68.951L207.455,68.93L205.265,61.79L205.126,61.341L204.985,60.891L204.845,60.445L204.704,60.001L204.562,59.561L204.421,59.124L204.279,58.688L204.136,58.255L203.993,57.824L203.85,57.396L203.706,56.97L203.562,56.548L203.417,56.129L203.272,55.711L203.127,55.296L202.981,54.885L202.834,54.474L202.687,54.066L202.54,53.661L202.393,53.261L202.245,52.861L202.096,52.463L201.947,52.069L201.797,51.677L201.647,51.287L201.497,50.902L201.346,50.517L201.194,50.135L201.043,49.757L200.89,49.379L200.737,49.005L200.584,48.634L200.429,48.264L200.275,47.898L200.12,47.534L199.964,47.171L199.808,46.812L199.651,46.454L199.495,46.1L199.338,45.75L199.179,45.399L199.021,45.052L198.862,44.709L198.702,44.367L198.541,44.025L198.38,43.688L198.22,43.355L198.058,43.023L197.895,42.693L197.732,42.365L197.569,42.04L197.404,41.717L197.24,41.397L197.075,41.08L196.909,40.764L196.742,40.449L196.575,40.139L196.409,39.832L196.241,39.527L196.071,39.221L195.902,38.92L195.732,38.621L195.562,38.324L195.392,38.031L195.22,37.739L195.047,37.449L194.874,37.161L194.7,36.875L194.527,36.593L194.353,36.314L194.177,36.034L194.001,35.758L193.825,35.484L193.648,35.213L193.47,34.945L193.291,34.676L193.112,34.411L192.933,34.149L192.752,33.889L192.571,33.63L192.39,33.374L192.207,33.12L192.024,32.868L191.841,32.619L191.656,32.37L191.472,32.125L191.286,31.883L191.098,31.64L190.912,31.402L190.725,31.165L190.536,30.929L190.347,30.697L190.156,30.465L189.966,30.237L189.775,30.01L189.582,29.784L189.39,29.563L189.197,29.342L189.003,29.123L188.807,28.906L188.61,28.69L188.414,28.477L188.217,28.267L188.018,28.057L187.82,27.851L187.62,27.645L187.419,27.441L187.218,27.24L187.015,27.039L186.812,26.842L186.607,26.645L186.403,26.451L186.197,26.259L185.989,26.067L185.782,25.878L185.573,25.691L185.364,25.506L185.154,25.322L184.942,25.14L184.73,24.96L184.517,24.781L184.302,24.604L184.087,24.429L183.871,24.255L183.653,24.083L183.435,23.913L183.215,23.744L182.994,23.577L182.773,23.412L182.551,23.248L182.326,23.085L182.101,22.925L181.876,22.766L181.648,22.608L181.419,22.452L181.191,22.298L180.96,22.145L180.727,21.993L180.494,21.843L180.259,21.694L180.023,21.547L179.787,21.402L179.549,21.258L179.309,21.116L179.067,20.974L178.825,20.835L178.583,20.697L178.337,20.56L178.091,20.424L177.843,20.291L177.593,20.158L177.342,20.027L177.091,19.897L176.838,19.769L176.582,19.642L176.326,19.516L176.069,19.393L175.809,19.27L175.547,19.148L175.285,19.028L175.021,18.91L174.756,18.792L174.489,18.676L174.22,18.562L173.949,18.448L173.677,18.337L173.403,18.226L173.128,18.117L172.851,18.009L172.573,17.903L172.292,17.797L172.009,17.693L171.726,17.59L171.441,17.49L171.154,17.39L170.864,17.291L170.573,17.194L170.281,17.098L169.987,17.003L169.691,16.91L169.393,16.818L169.093,16.727L168.792,16.638L168.488,16.55L168.183,16.463L167.876,16.378L167.567,16.293L167.255,16.21L166.943,16.129L166.628,16.049L166.311,15.97L165.993,15.892L165.673,15.816L165.35,15.741L165.026,15.667L164.699,15.595L164.371,15.523L164.041,15.454L163.709,15.385L163.374,15.318L163.038,15.252L162.7,15.187L162.36,15.124L162.018,15.062L161.673,15.001L161.327,14.941L160.979,14.883L160.628,14.826L160.276,14.771L159.921,14.716L159.564,14.663L159.206,14.612L158.845,14.561L158.482,14.512L158.117,14.464L157.75,14.417L157.381,14.372L157.01,14.328L156.636,14.285L156.261,14.244L155.883,14.203L155.504,14.165L155.121,14.127L154.737,14.09L154.351,14.055L153.963,14.021L153.573,13.989L153.18,13.957L152.785,13.927L152.387,13.898L151.988,13.871L151.587,13.844L151.184,13.819L150.778,13.796L150.37,13.773L149.96,13.752L149.547,13.732L149.133,13.713L148.715,13.695L148.296,13.679L147.875,13.664L147.452,13.65L147.026,13.637L146.598,13.626L146.167,13.615L145.735,13.607L145.3,13.599L144.863,13.592L144.423,13.587L143.982,13.583L143.538,13.58L143.092,13.578L142.643,13.578L142.193,13.578Z" style="fill:#989898;"/>
    <path d="M62.076,150C31.739,149.958 15.697,133.382 15.625,110.185C15.58,95.755 33.891,43.846 85.301,80.324C85.758,34.14 109.571,7.506 141.705,7.33C181.853,7.111 199.135,20.374 211.381,60.417C255.097,41.103 281.671,51.582 284.375,103.549C283.433,132.957 261.314,148.44 237.924,150L62.076,150Z" style="fill:url(#_Radial1);"/>
    <path d="M71.875,165.625C57.864,185.88 55.841,199.135 53.125,209.375C49.461,223.19 55.334,226.851 59.375,225C68.977,220.602 72.244,193.398 71.875,165.625Z" style="fill:none;stroke:#00658e;stroke-width:7.81px;stroke-linecap:round;stroke-miterlimit:1.5;"/>
    <path d="M71.875,165.625C57.864,185.88 55.841,199.135 53.125,209.375C49.461,223.19 55.334,226.851 59.375,225C68.977,220.602 72.244,193.398 71.875,165.625Z" style="fill:url(#_Linear2);"/>
    <path d="M146.875,137.5C132.864,157.755 130.841,171.01 128.125,181.25C124.461,195.065 130.334,198.726 134.375,196.875C143.977,192.477 147.244,165.273 146.875,137.5Z" style="fill:none;stroke:#00658e;stroke-width:7.81px;stroke-linecap:round;stroke-miterlimit:1.5;"/>
    <path d="M146.875,137.5C132.864,157.755 130.841,171.01 128.125,181.25C124.461,195.065 130.334,198.726 134.375,196.875C143.977,192.477 147.244,165.273 146.875,137.5Z" style="fill:url(#_Linear3);"/>
    <path d="M203.125,193.75C189.114,214.005 187.091,227.26 184.375,237.5C180.711,251.315 186.584,254.976 190.625,253.125C200.227,248.727 203.494,221.523 203.125,193.75Z" style="fill:none;stroke:#00658e;stroke-width:7.81px;stroke-linecap:round;stroke-miterlimit:1.5;"/>
    <path d="M203.125,193.75C189.114,214.005 187.091,227.26 184.375,237.5C180.711,251.315 186.584,254.976 190.625,253.125C200.227,248.727 203.494,221.523 203.125,193.75Z" style="fill:url(#_Linear4);"/>
    <defs>
        <radialGradient id="_Radial1" cx="0" cy="0" r="1" gradientUnits="userSpaceOnUse" gradientTransform="matrix(268.75,0,0,268.75,68.75,37.5)"><stop offset="0" style="stop-color:#d0d0d0;stop-opacity:1"/><stop offset="0.33" style="stop-color:#d0d0d0;stop-opacity:1"/><stop offset="0.42" style="stop-color:#d0d0d0;stop-opacity:1"/><stop offset="0.5" style="stop-color:#d1d1d1;stop-opacity:1"/><stop offset="0.5" style="stop-color:#bcbcbc;stop-opacity:1"/><stop offset="0.58" style="stop-color:#bdbdbd;stop-opacity:1"/><stop offset="0.67" style="stop-color:#bdbdbd;stop-opacity:1"/><stop offset="1" style="stop-color:#bdbdbd;stop-opacity:1"/></radialGradient>
        <linearGradient id="_Linear2" x1="0" y1="0" x2="1" y2="0" gradientUnits="userSpaceOnUse" gradientTransform="matrix(31.25,6.25,-6.25,31.25,46.875,200)"><stop offset="0" style="stop-color:#00aff0;stop-opacity:1"/><stop offset="0.33" style="stop-color:#00b0f0;stop-opacity:1"/><stop offset="0.42" style="stop-color:#00b2f0;stop-opacity:1"/><stop offset="0.49" style="stop-color:#00b5f1;stop-opacity:1"/><stop offset="0.51" style="stop-color:#008dcd;stop-opacity:1"/><stop offset="0.58" style="stop-color:#008fce;stop-opacity:1"/><stop offset="0.67" style="stop-color:#0091cf;stop-opacity:1"/><stop offset="1" style="stop-color:#0092cf;stop-opacity:1"/></linearGradient>
        <linearGradient id="_Linear3" x1="0" y1="0" x2="1" y2="0" gradientUnits="userSpaceOnUse" gradientTransform="matrix(31.25,6.25,-6.25,31.25,121.875,171.875)"><stop offset="0" style="stop-color:#00aff0;stop-opacity:1"/><stop offset="0.33" style="stop-color:#00b0f0;stop-opacity:1"/><stop offset="0.42" style="stop-color:#00b2f0;stop-opacity:1"/><stop offset="0.49" style="stop-color:#00b5f1;stop-opacity:1"/><stop offset="0.51" style="stop-color:#008dcd;stop-opacity:1"/><stop offset="0.58" style="stop-color:#008fce;stop-opacity:1"/><stop offset="0.67" style="stop-color:#0091cf;stop-opacity:1"/><stop offset="1" style="stop-color:#0092cf;stop-opacity:1"/></linearGradient>
        <linearGradient id="_Linear4" x1="0" y1="0" x2="1" y2="0" gradientUnits="userSpaceOnUse" gradientTransform="matrix(31.25,6.25,-6.25,31.25,178.125,228.125)"><stop offset="0" style="stop-color:#00aff0;stop-opacity:1"/><stop offset="0.33" style="stop-color:#00b0f0;stop-opacity:1"/><stop offset="0.42" style="stop-color:#00b2f0;stop-opacity:1"/><stop offset="0.49" style="stop-color:#00b5f1;stop-opacity:1"/><stop offset="0.51" style="stop-color:#008dcd;stop-opacity:1"/><stop offset="0.58" style="stop-color:#008fce;stop-opacity:1"/><stop offset="0.67" style="stop-color:#0091cf;stop-opacity:1"/><stop offset="1" style="stop-color:#0092cf;stop-opacity:1"/></linearGradient>
    </defs>
</svg>
