<?xml version="1.0" encoding="UTF-8" standalone="no"?>
<!DOCTYPE svg PUBLIC "-//W3C//DTD SVG 1.1//EN" "http://www.w3.org/Graphics/SVG/1.1/DTD/svg11.dtd">
<svg width="100%" height="100%" viewBox="0 0 300 300" version="1.1" xmlns="http://www.w3.org/2000/svg" xmlns:xlink="http://www.w3.org/1999/xlink" xml:space="preserve" xmlns:serif="http://www.serif.com/" style="fill-rule:evenodd;clip-rule:evenodd;stroke-linejoin:round;stroke-miterlimit:1.41421;">
    <g>
        <path d="M152.336,207.42C152.054,208.305 150.568,208.976 150.99,212.421C150.99,212.421 157.059,217.774 164.271,219.731C170.65,221.462 179.855,223.156 179.855,223.156C200.426,226.919 225.21,227.395 234.673,247.754C238.758,256.543 238.307,267.206 233.157,275.717C228.127,284.03 216.562,290.941 211.169,293.932C208.145,295.61 203.727,294.97 200.799,293.669C197.871,292.367 194.759,289.108 193.601,286.122C192.443,283.137 192.568,278.678 193.851,275.755C195.134,272.831 198.486,270.569 201.302,268.579C205.018,265.953 213.467,266.138 216.147,260C220.394,250.271 202.628,242.595 191.929,239.001C178.454,234.475 164.147,232.158 151.686,224.851C147.796,222.57 144.18,219.327 143.005,214.682C143.005,214.682 142.083,208.399 145.082,204.221C148.153,199.942 155.405,197.735 158.312,196.854C159.81,196.4 162.167,197.888 162.521,198.937C162.876,199.985 161.642,202.146 160.438,203.146C158.799,204.509 154.034,206.401 152.684,207.113C152.547,207.185 152.383,207.273 152.336,207.42Z" style="fill:none;stroke:#fff;stroke-width:6.25px;"/>
        <path d="M152.336,207.42C152.054,208.305 150.568,208.976 150.99,212.421C150.99,212.421 157.059,217.774 164.271,219.731C170.65,221.462 179.855,223.156 179.855,223.156C200.426,226.919 225.21,227.395 234.673,247.754C238.758,256.543 238.307,267.206 233.157,275.717C228.127,284.03 216.562,290.941 211.169,293.932C208.145,295.61 203.727,294.97 200.799,293.669C197.871,292.367 194.759,289.108 193.601,286.122C192.443,283.137 192.568,278.678 193.851,275.755C195.134,272.831 198.486,270.569 201.302,268.579C205.018,265.953 213.467,266.138 216.147,260C220.394,250.271 202.628,242.595 191.929,239.001C178.454,234.475 164.147,232.158 151.686,224.851C147.796,222.57 144.18,219.327 143.005,214.682C143.005,214.682 142.083,208.399 145.082,204.221C148.153,199.942 155.405,197.735 158.312,196.854C159.81,196.4 162.167,197.888 162.521,198.937C162.876,199.985 161.642,202.146 160.438,203.146C158.799,204.509 154.034,206.401 152.684,207.113C152.547,207.185 152.383,207.273 152.336,207.42Z" style="fill:#6d6d6d;fill-rule:nonzero;"/>
        <path d="M102.347,210.866C102.141,211.556 100.698,213.572 101.386,214.694C103.17,217.606 107.016,222.532 113.052,228.34C113.634,228.91 113.633,228.909 114.211,229.485C124.213,239.66 127.639,256.808 110.183,273.433C100.608,282.553 83.632,290.796 76.265,294.125C73.134,295.54 68.838,294.837 65.982,293.41C63.126,291.982 60.164,288.593 59.131,285.562C58.097,282.531 58.394,278.086 59.781,275.224C61.168,272.361 64.471,270.069 67.455,268.385C75.589,263.794 100.684,264.127 108.582,247.678C108.582,247.678 109.038,242.734 106.231,238.659C99.451,228.817 85.061,219.122 94.916,206.511C99.511,200.63 110.04,198.271 114.017,197.009C115.648,196.492 118.328,197.918 118.773,198.942C119.217,199.965 117.463,202.276 116.683,203.148C116.065,203.84 114.916,203.74 114.095,204.172C111.751,205.406 105.52,207.421 102.621,210.551C102.589,210.585 102.387,210.732 102.347,210.866Z" style="fill:none;stroke:#fff;stroke-width:6.25px;"/>
        <path d="M102.347,210.866C102.141,211.556 100.698,213.572 101.386,214.694C103.17,217.606 107.016,222.532 113.052,228.34C113.634,228.91 113.633,228.909 114.211,229.485C124.213,239.66 127.639,256.808 110.183,273.433C100.608,282.553 83.632,290.796 76.265,294.125C73.134,295.54 68.838,294.837 65.982,293.41C63.126,291.982 60.164,288.593 59.131,285.562C58.097,282.531 58.394,278.086 59.781,275.224C61.168,272.361 64.471,270.069 67.455,268.385C75.589,263.794 100.684,264.127 108.582,247.678C108.582,247.678 109.038,242.734 106.231,238.659C99.451,228.817 85.061,219.122 94.916,206.511C99.511,200.63 110.04,198.271 114.017,197.009C115.648,196.492 118.328,197.918 118.773,198.942C119.217,199.965 117.463,202.276 116.683,203.148C116.065,203.84 114.916,203.74 114.095,204.172C111.751,205.406 105.52,207.421 102.621,210.551C102.589,210.585 102.387,210.732 102.347,210.866Z" style="fill:#6d6d6d;fill-rule:nonzero;"/>
    </g>
    <path d="M146.617,268.359L141.682,259.811L132.039,257.227L133.05,253.454L138.92,255.027L135.809,249.638L139.191,247.685L142.303,253.074L143.875,247.204L147.648,248.215L145.065,257.858L150,266.406L154.935,257.858L152.352,248.215L156.125,247.204L157.697,253.074L160.809,247.685L164.191,249.638L161.08,255.027L166.95,253.454L167.961,257.227L158.318,259.811L153.383,268.359L163.253,268.359L170.313,261.3C171.233,262.221 172.154,263.142 173.075,264.063L168.778,268.359L175,268.359L175,272.266L168.778,272.266L173.075,276.563L170.313,279.325C167.956,276.968 165.547,274.662 163.231,272.266L153.383,272.266L158.318,280.814L167.961,283.398C167.624,284.655 167.287,285.913 166.95,287.171L161.08,285.598L164.191,290.987L160.809,292.94L157.697,287.551L156.125,293.421L152.352,292.41C153.214,289.19 154.006,285.951 154.924,282.747L150,274.219L145.065,282.767L147.648,292.41C146.391,292.747 145.133,293.084 143.875,293.421L142.303,287.551L139.191,292.94L135.809,290.987L138.92,285.598L133.05,287.171L132.039,283.398C135.258,282.535 138.46,281.601 141.693,280.794L146.617,272.266L136.747,272.266L129.688,279.325L126.925,276.563L131.222,272.266L125,272.266L125,268.359L131.222,268.359L126.925,264.063L129.688,261.3L136.747,268.359L146.617,268.359Z" style="fill:none;stroke:#ccc;stroke-width:6.25px;"/>
    <path d="M146.617,268.359L141.682,259.811L132.039,257.227L133.05,253.454L138.92,255.027L135.809,249.638L139.191,247.685L142.303,253.074L143.875,247.204L147.648,248.215L145.065,257.858L150,266.406L154.935,257.858L152.352,248.215L156.125,247.204L157.697,253.074L160.809,247.685L164.191,249.638L161.08,255.027L166.95,253.454L167.961,257.227L158.318,259.811L153.383,268.359L163.253,268.359L170.313,261.3C171.233,262.221 172.154,263.142 173.075,264.063L168.778,268.359L175,268.359L175,272.266L168.778,272.266L173.075,276.563L170.313,279.325C167.956,276.968 165.547,274.662 163.231,272.266L153.383,272.266L158.318,280.814L167.961,283.398C167.624,284.655 167.287,285.913 166.95,287.171L161.08,285.598L164.191,290.987L160.809,292.94L157.697,287.551L156.125,293.421L152.352,292.41C153.214,289.19 154.006,285.951 154.924,282.747L150,274.219L145.065,282.767L147.648,292.41C146.391,292.747 145.133,293.084 143.875,293.421L142.303,287.551L139.191,292.94L135.809,290.987L138.92,285.598L133.05,287.171L132.039,283.398C135.258,282.535 138.46,281.601 141.693,280.794L146.617,272.266L136.747,272.266L129.688,279.325L126.925,276.563L131.222,272.266L125,272.266L125,268.359L131.222,268.359L126.925,264.063L129.688,261.3L136.747,268.359L146.617,268.359Z" style="fill:#fff;fill-rule:nonzero;"/>
    <path d="M143.123,1.078L143.603,1.08L144.081,1.083L144.558,1.088L145.032,1.093L145.505,1.1L145.976,1.109L146.446,1.119L146.913,1.13L147.378,1.142L147.842,1.156L148.304,1.171L148.765,1.188L149.223,1.205L149.68,1.225L150.135,1.245L150.588,1.267L151.04,1.291L151.49,1.316L151.937,1.342L152.384,1.37L152.829,1.399L153.272,1.43L153.713,1.462L154.152,1.495L154.59,1.53L155.027,1.567L155.461,1.605L155.895,1.644L156.326,1.685L156.755,1.727L157.184,1.771L157.61,1.817L158.035,1.864L158.458,1.912L158.88,1.962L159.3,2.014L159.719,2.067L160.135,2.122L160.551,2.178L160.964,2.236L161.376,2.295L161.788,2.357L162.196,2.419L162.604,2.484L163.01,2.55L163.415,2.617L163.818,2.686L164.219,2.757L164.619,2.83L165.018,2.904L165.415,2.98L165.81,3.057L166.204,3.137L166.597,3.218L166.988,3.3L167.377,3.385L167.765,3.471L168.152,3.559L168.537,3.648L168.921,3.74L169.304,3.833L169.684,3.928L170.064,4.025L170.442,4.123L170.818,4.223L171.193,4.326L171.567,4.43L171.938,4.535L172.31,4.643L172.679,4.753L173.047,4.864L173.413,4.977L173.778,5.092L174.142,5.209L174.505,5.328L174.865,5.448L175.224,5.571L175.582,5.695L175.939,5.822L176.294,5.95L176.648,6.08L177,6.213L177.351,6.347L177.7,6.483L178.048,6.621L178.395,6.761L178.741,6.903L179.085,7.047L179.427,7.193L179.768,7.341L180.108,7.491L180.446,7.643L180.783,7.797L181.118,7.953L181.452,8.111L181.785,8.271L182.116,8.433L182.445,8.597L182.773,8.763L183.1,8.931L183.426,9.102L183.75,9.274L184.072,9.448L184.393,9.625L184.712,9.803L185.03,9.983L185.347,10.166L185.663,10.351L185.977,10.538L186.29,10.727L186.6,10.917L186.909,11.11L187.217,11.305L187.523,11.502L187.829,11.701L188.133,11.903L188.434,12.105L188.735,12.311L189.034,12.518L189.332,12.728L189.628,12.94L189.922,13.153L190.216,13.369L190.507,13.586L190.798,13.806L191.087,14.029L191.373,14.252L191.66,14.479L191.944,14.707L192.227,14.937L192.508,15.169L192.788,15.403L193.066,15.64L193.343,15.878L193.618,16.118L193.892,16.361L194.165,16.605L194.435,16.852L194.705,17.1L194.973,17.351L195.239,17.604L195.504,17.859L195.767,18.115L196.03,18.374L196.291,18.635L196.549,18.897L196.807,19.162L197.064,19.429L197.318,19.698L197.571,19.968L197.823,20.242L198.074,20.516L198.323,20.793L198.57,21.072L198.817,21.353L199.06,21.635L199.304,21.92L199.546,22.207L199.787,22.496L200.026,22.787L200.264,23.079L200.499,23.373L200.734,23.67L200.969,23.969L201.201,24.27L201.431,24.572L201.661,24.877L201.889,25.183L202.115,25.491L202.341,25.802L202.565,26.114L202.789,26.429L203.01,26.745L203.229,27.062L203.449,27.383L203.667,27.706L203.883,28.029L204.098,28.355L204.313,28.684L204.525,29.013L204.737,29.345L204.947,29.679L205.156,30.015L205.364,30.353L205.57,30.692L205.776,31.034L205.981,31.379L206.184,31.724L206.386,32.071L206.587,32.422L206.786,32.773L206.985,33.126L207.182,33.482L207.379,33.84L207.574,34.198L207.768,34.56L207.961,34.924L208.153,35.289L208.345,35.658L208.534,36.027L208.723,36.399L208.911,36.772L209.098,37.147L209.284,37.525L209.469,37.904L209.653,38.286L209.836,38.67L210.017,39.055L210.198,39.443L210.378,39.832L210.558,40.224L210.736,40.619L210.913,41.014L211.089,41.412L211.265,41.812L211.44,42.214L211.613,42.619L211.786,43.024L211.958,43.432L212.129,43.843L212.299,44.256L212.469,44.67L212.637,45.086L212.805,45.505L212.972,45.926L213.138,46.349L213.304,46.774L213.468,47.201L213.632,47.63L213.796,48.062L213.958,48.496L214.119,48.931L214.28,49.369L214.44,49.809L214.6,50.252L214.759,50.696L214.917,51.143L215.074,51.592L215.23,52.042L215.649,51.879L216.163,51.681L216.675,51.486L217.185,51.294L217.695,51.104L218.203,50.917L218.709,50.734L219.215,50.553L219.719,50.374L220.222,50.199L220.723,50.027L221.223,49.857L221.722,49.69L222.22,49.526L222.716,49.365L223.211,49.207L223.705,49.051L224.197,48.899L224.688,48.749L225.178,48.602L225.667,48.458L226.154,48.317L226.64,48.179L227.124,48.044L227.608,47.912L228.09,47.783L228.571,47.656L229.051,47.533L229.529,47.413L230.006,47.295L230.482,47.181L230.957,47.069L231.43,46.961L231.902,46.855L232.373,46.753L232.842,46.654L233.311,46.557L233.778,46.464L234.244,46.374L234.708,46.287L235.172,46.203L235.634,46.122L236.095,46.044L236.555,45.969L237.013,45.898L237.471,45.829L237.927,45.764L238.382,45.702L238.835,45.643L239.288,45.587L239.739,45.534L240.189,45.485L240.638,45.439L241.085,45.396L241.532,45.356L241.977,45.32L242.421,45.287L242.863,45.258L243.305,45.231L243.745,45.208L244.184,45.188L244.623,45.172L245.054,45.159L245.277,45.154L245.494,45.15L245.712,45.146L245.929,45.143L246.145,45.142L246.362,45.141L246.578,45.141L246.794,45.142L247.009,45.143L247.224,45.146L247.44,45.149L247.653,45.153L247.867,45.159L248.082,45.165L248.295,45.172L248.508,45.179L248.721,45.188L248.933,45.198L249.147,45.208L249.358,45.22L249.57,45.232L249.782,45.245L249.993,45.259L250.203,45.274L250.413,45.29L250.623,45.306L250.833,45.324L251.043,45.343L251.252,45.362L251.46,45.382L251.669,45.404L251.878,45.426L252.085,45.449L252.292,45.473L252.499,45.498L252.706,45.524L252.913,45.551L253.119,45.579L253.325,45.607L253.531,45.637L253.735,45.668L253.94,45.699L254.145,45.732L254.349,45.765L254.552,45.799L254.756,45.835L254.959,45.871L255.162,45.908L255.364,45.946L255.566,45.985L255.767,46.025L255.968,46.066L256.17,46.108L256.369,46.151L256.569,46.195L256.771,46.24L256.969,46.286L257.168,46.333L257.367,46.38L257.565,46.429L257.763,46.479L257.96,46.53L258.158,46.582L258.354,46.634L258.551,46.688L258.747,46.743L258.942,46.798L259.137,46.855L259.331,46.912L259.526,46.971L259.72,47.031L259.913,47.091L260.107,47.153L260.299,47.215L260.491,47.279L260.683,47.343L260.874,47.409L261.064,47.475L261.255,47.543L261.446,47.612L261.635,47.681L261.824,47.752L262.013,47.824L262.201,47.896L262.389,47.97L262.576,48.044L262.763,48.12L262.95,48.197L263.135,48.274L263.321,48.353L263.507,48.433L263.69,48.514L263.874,48.595L264.058,48.678L264.24,48.761L264.424,48.847L264.605,48.932L264.787,49.019L264.968,49.107L265.148,49.195L265.328,49.285L265.508,49.376L265.686,49.468L265.865,49.561L266.043,49.654L266.221,49.75L266.398,49.846L266.574,49.942L266.748,50.04L266.924,50.139L267.099,50.239L267.273,50.339L267.448,50.442L267.62,50.545L267.792,50.648L267.965,50.754L268.137,50.86L268.306,50.966L268.475,51.074L268.645,51.183L268.816,51.293L268.984,51.404L269.15,51.515L269.318,51.629L269.486,51.743L269.65,51.857L269.816,51.973L269.982,52.091L270.145,52.208L270.309,52.327L270.472,52.446L270.634,52.567L270.796,52.689L270.957,52.812L271.118,52.936L271.277,53.06L271.436,53.185L271.596,53.312L271.754,53.44L271.911,53.568L272.067,53.698L272.223,53.828L272.378,53.959L272.533,54.091L272.688,54.225L272.842,54.36L272.994,54.494L273.146,54.631L273.298,54.768L273.448,54.905L273.598,55.044L273.749,55.185L273.896,55.325L274.045,55.467L274.192,55.61L274.34,55.754L274.485,55.898L274.631,56.043L274.776,56.19L274.92,56.337L275.064,56.486L275.205,56.633L275.348,56.784L275.49,56.936L275.63,57.086L275.771,57.24L275.91,57.394L276.047,57.547L276.187,57.703L276.324,57.86L276.46,58.016L276.596,58.174L276.732,58.334L276.867,58.494L276.999,58.653L277.134,58.816L277.266,58.979L277.398,59.141L277.529,59.306L277.659,59.471L277.789,59.636L277.918,59.804L278.046,59.971L278.173,60.139L278.3,60.308L278.427,60.479L278.553,60.651L278.678,60.823L278.801,60.994L278.925,61.168L279.049,61.344L279.17,61.518L279.292,61.694L279.412,61.872L279.533,62.05L279.653,62.229L279.771,62.408L279.888,62.587L280.006,62.77L280.123,62.952L280.239,63.134L280.355,63.319L280.468,63.502L280.582,63.687L280.696,63.874L280.809,64.062L280.92,64.249L281.032,64.439L281.142,64.628L281.251,64.817L281.361,65.009L281.469,65.201L281.577,65.393L281.685,65.588L281.791,65.782L281.896,65.977L282.001,66.172L282.107,66.371L282.21,66.568L282.313,66.766L282.415,66.964L282.517,67.164L282.618,67.366L282.719,67.568L282.819,67.772L282.918,67.974L283.015,68.176L283.114,68.382L283.211,68.589L283.308,68.795L283.403,69.002L283.498,69.21L283.593,69.42L283.687,69.629L283.78,69.839L283.873,70.052L283.964,70.263L284.055,70.476L284.146,70.691L284.236,70.905L284.325,71.119L284.414,71.337L284.502,71.553L284.59,71.772L284.676,71.99L284.762,72.208L284.848,72.43L284.932,72.65L285.016,72.871L285.1,73.095L285.183,73.317L285.265,73.541L285.347,73.767L285.428,73.994L285.508,74.22L285.588,74.446L285.667,74.676L285.745,74.904L285.823,75.133L285.9,75.364L285.977,75.597L286.053,75.828L286.128,76.061L286.203,76.295L286.277,76.531L286.35,76.765L286.423,77.001L286.495,77.237L286.567,77.476L286.638,77.715L286.708,77.954L286.78,78.2L286.916,78.678L287.051,79.163L287.184,79.654L287.314,80.146L287.442,80.642L287.567,81.142L287.69,81.644L287.811,82.15L287.929,82.659L288.045,83.171L288.158,83.687L288.269,84.206L288.378,84.728L288.484,85.254L288.588,85.783L288.689,86.315L288.789,86.85L288.885,87.389L288.98,87.931L289.072,88.477L289.161,89.026L289.249,89.577L289.334,90.133L289.417,90.693L289.497,91.255L289.575,91.821L289.65,92.39L289.724,92.962L289.795,93.539L289.863,94.119L289.93,94.701L289.994,95.287L290.056,95.877L290.115,96.47L290.172,97.067L290.227,97.667L290.279,98.271L290.33,98.877L290.377,99.487L290.423,100.102L290.466,100.719L290.507,101.341L290.546,101.965L290.582,102.593L290.631,103.489L290.609,104.129L290.593,104.508L290.576,104.886L290.556,105.262L290.534,105.637L290.51,106.012L290.484,106.384L290.456,106.756L290.426,107.126L290.394,107.495L290.359,107.865L290.322,108.231L290.284,108.596L290.243,108.961L290.2,109.326L290.155,109.687L290.109,110.048L290.059,110.408L290.009,110.766L289.955,111.124L289.9,111.48L289.843,111.834L289.784,112.189L289.723,112.542L289.66,112.892L289.594,113.242L289.527,113.591L289.458,113.938L289.387,114.285L289.313,114.631L289.238,114.975L289.161,115.316L289.082,115.658L289.001,115.999L288.918,116.337L288.833,116.675L288.745,117.012L288.657,117.345L288.566,117.679L288.473,118.012L288.378,118.345L288.282,118.673L288.184,119.002L288.083,119.33L287.981,119.655L287.877,119.981L287.771,120.304L287.663,120.625L287.554,120.946L287.442,121.266L287.329,121.584L287.214,121.901L287.096,122.217L286.978,122.531L286.857,122.843L286.734,123.155L286.61,123.465L286.484,123.774L286.356,124.081L286.227,124.388L286.095,124.693L285.962,124.995L285.828,125.297L285.691,125.598L285.552,125.898L285.413,126.195L285.271,126.491L285.127,126.786L284.982,127.081L284.835,127.373L284.687,127.663L284.536,127.954L284.385,128.241L284.231,128.528L284.076,128.813L283.92,129.097L283.761,129.38L283.601,129.661L283.439,129.941L283.276,130.219L283.112,130.495L282.945,130.771L282.778,131.044L282.608,131.318L282.436,131.589L282.264,131.858L282.09,132.127L281.914,132.394L281.737,132.658L281.559,132.922L281.378,133.185L281.197,133.446L281.015,133.704L280.83,133.963L280.644,134.22L280.456,134.475L280.267,134.729L280.077,134.981L279.885,135.231L279.692,135.481L279.498,135.728L279.302,135.974L279.105,136.219L278.906,136.463L278.707,136.704L278.505,136.945L278.302,137.184L278.099,137.421L277.893,137.658L277.687,137.891L277.479,138.124L277.27,138.356L277.059,138.586L276.848,138.814L276.635,139.041L276.421,139.267L276.205,139.491L275.988,139.714L275.77,139.935L275.552,140.153L275.332,140.371L275.109,140.589L274.887,140.804L274.664,141.017L274.439,141.228L274.213,141.439L273.985,141.649L273.757,141.856L273.528,142.062L273.297,142.266L273.066,142.469L272.833,142.671L272.599,142.871L272.364,143.069L272.128,143.266L271.89,143.462L271.652,143.656L271.414,143.848L271.174,144.039L270.933,144.228L270.69,144.417L270.447,144.604L270.203,144.788L269.958,144.971L269.712,145.154L269.465,145.334L269.217,145.513L268.968,145.691L268.719,145.866L268.467,146.041L268.216,146.214L267.964,146.385L267.71,146.556L267.455,146.724L267.201,146.891L266.944,147.057L266.687,147.221L266.43,147.383L266.171,147.544L265.912,147.704L265.651,147.862L265.389,148.019L265.128,148.174L264.866,148.327L264.602,148.48L264.338,148.63L264.073,148.779L263.807,148.927L263.54,149.074L263.273,149.218L263.005,149.361L262.736,149.503L262.466,149.644L262.196,149.782L261.926,149.92L261.653,150.056L261.381,150.19L261.109,150.323L260.835,150.454L260.56,150.585L260.285,150.713L260.01,150.84L259.733,150.966L259.457,151.09L259.179,151.212L258.901,151.334L258.622,151.453L258.343,151.572L258.063,151.688L257.782,151.804L257.501,151.918L257.219,152.03L256.938,152.141L256.654,152.251L256.371,152.359L256.087,152.465L255.802,152.571L255.518,152.674L255.232,152.777L254.946,152.877L254.66,152.976L254.373,153.075L254.085,153.171L253.797,153.266L253.509,153.36L253.219,153.452L252.93,153.543L252.641,153.632L252.35,153.72L252.06,153.806L251.769,153.891L251.477,153.974L251.185,154.057L250.893,154.137L250.599,154.216L250.307,154.294L250.014,154.37L249.719,154.445L249.425,154.519L249.131,154.591L248.836,154.661L248.54,154.731L248.244,154.798L247.949,154.864L247.652,154.929L247.355,154.993L247.058,155.055L246.761,155.116L246.464,155.175L246.166,155.232L245.867,155.289L245.569,155.344L245.271,155.397L244.971,155.449L244.672,155.5L244.372,155.549L244.073,155.597L243.773,155.643L243.472,155.688L243.172,155.732L242.871,155.774L242.571,155.815L242.27,155.854L241.968,155.892L241.667,155.928L241.366,155.963L241.064,155.997L240.761,156.029L240.459,156.06L240.157,156.089L239.855,156.117L239.552,156.144L239.249,156.169L238.946,156.193L238.644,156.215L238.14,156.25L62.064,156.25L61.685,156.249L61.305,156.246L60.926,156.241L60.548,156.235L60.171,156.227L59.795,156.218L59.42,156.207L59.048,156.194L58.676,156.18L58.304,156.164L57.934,156.146L57.566,156.127L57.199,156.106L56.832,156.084L56.467,156.06L56.103,156.034L55.741,156.007L55.379,155.979L55.019,155.948L54.66,155.916L54.302,155.883L53.945,155.848L53.59,155.811L53.235,155.773L52.882,155.733L52.53,155.691L52.179,155.648L51.829,155.603L51.481,155.557L51.134,155.509L50.788,155.46L50.443,155.409L50.1,155.356L49.758,155.302L49.416,155.247L49.076,155.189L48.738,155.131L48.4,155.07L48.064,155.008L47.729,154.945L47.395,154.88L47.062,154.813L46.73,154.745L46.4,154.675L46.071,154.603L45.743,154.53L45.417,154.456L45.092,154.38L44.768,154.303L44.444,154.223L44.123,154.143L43.802,154.06L43.483,153.977L43.165,153.891L42.848,153.804L42.533,153.716L42.218,153.626L41.906,153.534L41.595,153.441L41.284,153.347L40.974,153.25L40.666,153.153L40.36,153.054L40.055,152.953L39.751,152.851L39.447,152.747L39.146,152.641L38.845,152.534L38.546,152.426L38.249,152.316L37.953,152.205L37.657,152.092L37.363,151.977L37.071,151.861L36.78,151.744L36.49,151.625L36.201,151.504L35.913,151.382L35.628,151.259L35.343,151.134L35.06,151.007L34.777,150.879L34.497,150.749L34.218,150.619L33.939,150.486L33.662,150.351L33.388,150.216L33.114,150.079L32.84,149.94L32.569,149.801L32.3,149.659L32.031,149.516L31.764,149.372L31.498,149.226L31.234,149.079L30.97,148.93L30.709,148.779L30.449,148.628L30.19,148.475L29.932,148.32L29.677,148.164L29.422,148.007L29.168,147.847L28.916,147.686L28.666,147.525L28.418,147.362L28.17,147.197L27.923,147.03L27.68,146.863L27.437,146.695L27.195,146.524L26.955,146.352L26.715,146.179L26.478,146.004L26.243,145.828L26.009,145.651L25.775,145.472L25.544,145.292L25.314,145.11L25.086,144.928L24.859,144.743L24.633,144.557L24.41,144.371L24.188,144.183L23.967,143.993L23.748,143.802L23.53,143.609L23.314,143.415L23.1,143.221L22.887,143.025L22.675,142.827L22.465,142.628L22.257,142.428L22.05,142.227L21.844,142.023L21.641,141.819L21.439,141.614L21.239,141.407L21.04,141.2L20.842,140.99L20.647,140.78L20.453,140.569L20.26,140.356L20.07,140.142L19.88,139.926L19.692,139.709L19.507,139.493L19.323,139.273L19.139,139.052L18.959,138.832L18.779,138.61L18.601,138.385L18.426,138.162L18.251,137.935L18.078,137.708L17.906,137.479L17.737,137.25L17.57,137.021L17.403,136.788L17.239,136.555L17.077,136.323L16.915,136.087L16.755,135.851L16.597,135.613L16.441,135.376L16.287,135.137L16.134,134.896L15.983,134.655L15.834,134.413L15.686,134.17L15.54,133.924L15.396,133.679L15.254,133.434L15.113,133.186L14.973,132.937L14.836,132.688L14.7,132.437L14.567,132.187L14.434,131.935L14.303,131.681L14.174,131.426L14.047,131.171L13.922,130.916L13.798,130.66L13.676,130.401L13.555,130.141L13.437,129.882L13.32,129.622L13.205,129.361L13.092,129.099L12.98,128.835L12.87,128.571L12.762,128.307L12.655,128.04L12.55,127.773L12.447,127.506L12.346,127.24L12.246,126.97L12.148,126.699L12.052,126.429L11.957,126.157L11.864,125.885L11.774,125.613L11.684,125.339L11.597,125.065L11.511,124.79L11.426,124.514L11.343,124.236L11.263,123.959L11.184,123.68L11.106,123.401L11.031,123.123L10.957,122.842L10.884,122.561L10.814,122.28L10.745,121.997L10.678,121.715L10.613,121.43L10.549,121.145L10.487,120.861L10.426,120.575L10.368,120.289L10.311,120.002L10.256,119.713L10.202,119.426L10.15,119.137L10.1,118.847L10.052,118.557L10.005,118.266L9.96,117.974L9.917,117.683L9.875,117.391L9.835,117.097L9.797,116.804L9.76,116.51L9.725,116.213L9.692,115.919L9.66,115.624L9.63,115.327L9.602,115.029L9.575,114.731L9.55,114.433L9.527,114.134L9.505,113.835L9.485,113.536L9.467,113.235L9.45,112.934L9.435,112.633L9.422,112.331L9.41,112.03L9.4,111.727L9.392,111.422L9.385,111.118L9.38,110.815L9.377,110.51L9.375,110.197L9.375,109.973L9.378,109.741L9.383,109.505L9.39,109.267L9.399,109.029L9.41,108.792L9.424,108.551L9.439,108.309L9.456,108.063L9.476,107.818L9.497,107.571L9.52,107.321L9.545,107.068L9.573,106.814L9.602,106.56L9.633,106.303L9.666,106.043L9.701,105.782L9.737,105.52L9.776,105.255L9.817,104.987L9.859,104.719L9.904,104.449L9.95,104.175L9.999,103.9L10.049,103.623L10.101,103.347L10.155,103.066L10.212,102.784L10.269,102.501L10.33,102.214L10.392,101.927L10.456,101.639L10.521,101.349L10.59,101.056L10.66,100.762L10.731,100.467L10.805,100.17L10.881,99.871L10.959,99.57L11.039,99.269L11.121,98.966L11.205,98.661L11.291,98.356L11.379,98.047L11.47,97.738L11.562,97.429L11.656,97.118L11.752,96.805L11.851,96.491L11.952,96.176L12.054,95.86L12.159,95.543L12.266,95.225L12.375,94.905L12.487,94.586L12.6,94.265L12.716,93.942L12.833,93.62L12.953,93.298L13.075,92.972L13.2,92.646L13.326,92.321L13.455,91.995L13.586,91.666L13.72,91.339L13.855,91.01L13.993,90.681L14.133,90.353L14.275,90.023L14.42,89.692L14.567,89.361L14.717,89.03L14.868,88.699L15.022,88.368L15.178,88.036L15.337,87.704L15.498,87.372L15.662,87.04L15.828,86.707L15.996,86.376L16.167,86.044L16.34,85.712L16.516,85.38L16.694,85.048L16.875,84.717L17.058,84.385L17.244,84.055L17.432,83.724L17.623,83.394L17.816,83.065L18.012,82.735L18.211,82.406L18.412,82.078L18.616,81.75L18.822,81.423L19.03,81.098L19.242,80.772L19.457,80.447L19.674,80.123L19.894,79.8L20.116,79.478L20.341,79.157L20.569,78.837L20.8,78.517L21.034,78.199L21.27,77.883L21.509,77.568L21.751,77.253L21.996,76.94L22.244,76.628L22.494,76.318L22.748,76.009L23.005,75.701L23.264,75.396L23.526,75.092L23.792,74.789L24.06,74.488L24.327,74.194L24.468,74.041L24.606,73.892L24.745,73.744L24.883,73.597L25.023,73.45L25.164,73.303L25.306,73.156L25.448,73.011L25.591,72.867L25.735,72.722L25.879,72.579L26.024,72.435L26.171,72.291L26.317,72.15L26.465,72.008L26.613,71.867L26.762,71.726L26.913,71.585L27.064,71.446L27.215,71.308L27.368,71.169L27.52,71.032L27.674,70.895L27.83,70.757L27.985,70.622L28.141,70.487L28.299,70.352L28.457,70.218L28.615,70.085L28.775,69.953L28.936,69.82L29.097,69.689L29.259,69.558L29.422,69.429L29.585,69.3L29.75,69.171L29.916,69.043L30.082,68.916L30.25,68.79L30.417,68.665L30.585,68.54L30.755,68.416L30.926,68.292L31.096,68.171L31.268,68.049L31.441,67.928L31.615,67.808L31.79,67.688L31.965,67.57L32.141,67.452L32.318,67.336L32.496,67.219L32.673,67.105L32.854,66.99L33.035,66.876L33.215,66.765L33.397,66.653L33.58,66.543L33.763,66.433L33.949,66.323L34.134,66.216L34.319,66.11L34.507,66.003L34.695,65.898L34.883,65.794L35.072,65.691L35.263,65.589L35.455,65.487L35.646,65.387L35.839,65.288L36.034,65.19L36.227,65.093L36.421,64.997L36.619,64.902L36.816,64.808L37.015,64.714L37.212,64.623L37.411,64.532L37.612,64.442L37.813,64.354L38.015,64.266L38.218,64.18L38.421,64.095L38.625,64.011L38.83,63.928L39.037,63.845L39.243,63.765L39.451,63.685L39.659,63.607L39.868,63.53L40.078,63.454L40.289,63.379L40.501,63.305L40.712,63.233L40.925,63.162L41.14,63.092L41.355,63.023L41.569,62.956L41.785,62.89L42.003,62.824L42.221,62.761L42.439,62.698L42.657,62.638L42.877,62.578L43.098,62.519L43.32,62.462L43.542,62.406L43.765,62.351L43.989,62.298L44.214,62.246L44.439,62.196L44.664,62.147L44.89,62.099L45.118,62.052L45.347,62.007L45.575,61.963L45.804,61.921L46.034,61.88L46.265,61.84L46.496,61.802L46.728,61.765L46.961,61.73L47.195,61.696L47.43,61.664L47.664,61.633L47.899,61.603L48.136,61.575L48.374,61.548L48.611,61.523L48.848,61.499L49.088,61.477L49.327,61.456L49.566,61.437L49.808,61.419L50.05,61.402L50.291,61.387L50.534,61.374L50.777,61.362L51.021,61.352L51.266,61.343L51.511,61.335L51.756,61.329L52.003,61.325L52.25,61.322L52.497,61.321L52.745,61.321L52.994,61.323L53.244,61.327L53.493,61.331L53.744,61.338L53.995,61.346L54.247,61.356L54.498,61.367L54.751,61.379L55.005,61.394L55.259,61.41L55.513,61.427L55.767,61.446L56.023,61.467L56.28,61.489L56.536,61.513L56.793,61.538L57.052,61.565L57.309,61.594L57.568,61.624L57.828,61.656L58.088,61.689L58.348,61.724L58.608,61.761L58.869,61.799L59.132,61.839L59.395,61.881L59.658,61.924L59.921,61.969L60.186,62.015L60.45,62.063L60.715,62.113L60.981,62.165L61.246,62.217L61.513,62.272L61.78,62.328L62.047,62.386L62.316,62.446L62.585,62.508L62.854,62.57L63.124,62.635L63.394,62.701L63.664,62.769L63.937,62.839L64.208,62.91L64.48,62.983L64.753,63.058L65.026,63.134L65.3,63.213L65.574,63.292L65.849,63.374L66.124,63.457L66.4,63.542L66.677,63.628L66.953,63.716L67.231,63.806L67.509,63.898L67.786,63.991L68.065,64.087L68.345,64.184L68.625,64.282L68.905,64.382L69.186,64.484L69.468,64.588L69.749,64.694L70.032,64.801L70.315,64.91L70.599,65.021L70.883,65.133L71.166,65.247L71.452,65.363L71.738,65.481L72.023,65.601L72.31,65.722L72.597,65.845L72.885,65.97L73.173,66.097L73.461,66.225L73.75,66.355L74.04,66.487L74.331,66.621L74.621,66.756L74.912,66.894L75.205,67.033L75.497,67.174L75.79,67.317L76.083,67.461L76.377,67.607L76.672,67.756L76.967,67.906L77.262,68.058L77.558,68.211L77.855,68.367L78.153,68.525L78.451,68.684L78.749,68.845L79.048,69.008L79.347,69.172L79.602,69.314L79.605,69.281L79.656,68.75L79.709,68.221L79.764,67.693L79.821,67.168L79.88,66.644L79.942,66.122L80.005,65.601L80.071,65.083L80.138,64.565L80.208,64.05L80.28,63.537L80.354,63.026L80.431,62.515L80.509,62.007L80.589,61.501L80.672,60.996L80.757,60.493L80.843,59.992L80.932,59.493L81.023,58.996L81.116,58.5L81.211,58.006L81.308,57.514L81.407,57.024L81.509,56.536L81.612,56.049L81.717,55.564L81.825,55.081L81.934,54.6L82.046,54.121L82.159,53.643L82.275,53.168L82.392,52.694L82.512,52.221L82.634,51.751L82.758,51.283L82.883,50.817L83.011,50.351L83.141,49.889L83.273,49.428L83.407,48.969L83.543,48.512L83.68,48.056L83.82,47.602L83.962,47.151L84.106,46.701L84.252,46.254L84.399,45.808L84.549,45.364L84.701,44.921L84.855,44.481L85.01,44.042L85.168,43.605L85.328,43.171L85.489,42.739L85.653,42.308L85.819,41.878L85.986,41.452L86.155,41.027L86.327,40.603L86.5,40.182L86.675,39.763L86.852,39.346L87.031,38.93L87.212,38.517L87.395,38.105L87.58,37.696L87.766,37.289L87.955,36.883L88.146,36.479L88.338,36.078L88.532,35.678L88.729,35.28L88.927,34.884L89.126,34.492L89.328,34.1L89.532,33.709L89.738,33.322L89.945,32.937L90.155,32.553L90.366,32.171L90.579,31.792L90.794,31.414L91.011,31.039L91.229,30.665L91.45,30.294L91.672,29.925L91.896,29.558L92.122,29.192L92.35,28.83L92.579,28.468L92.811,28.109L93.044,27.753L93.279,27.397L93.516,27.045L93.755,26.694L93.995,26.346L94.237,26L94.481,25.656L94.727,25.313L94.974,24.974L95.223,24.636L95.474,24.301L95.727,23.967L95.982,23.635L96.238,23.307L96.496,22.979L96.756,22.654L97.018,22.332L97.281,22.012L97.546,21.693L97.812,21.378L98.081,21.063L98.351,20.752L98.623,20.442L98.896,20.136L99.171,19.83L99.448,19.527L99.726,19.227L100.007,18.929L100.288,18.633L100.572,18.339L100.857,18.048L101.144,17.759L101.432,17.472L101.723,17.187L102.014,16.905L102.307,16.625L102.602,16.348L102.899,16.072L103.197,15.799L103.496,15.529L103.798,15.26L104.1,14.995L104.404,14.731L104.711,14.469L105.019,14.21L105.328,13.954L105.638,13.7L105.95,13.448L106.264,13.198L106.579,12.951L106.895,12.707L107.214,12.465L107.534,12.225L107.855,11.987L108.177,11.752L108.501,11.52L108.826,11.29L109.154,11.062L109.482,10.836L109.812,10.614L110.143,10.394L110.476,10.176L110.81,9.96L111.146,9.747L111.482,9.537L111.82,9.329L112.16,9.123L112.501,8.92L112.844,8.72L113.187,8.521L113.532,8.326L113.879,8.133L114.226,7.943L114.575,7.755L114.925,7.57L115.278,7.386L115.63,7.206L115.984,7.028L116.339,6.853L116.695,6.68L117.054,6.51L117.413,6.343L117.773,6.178L118.134,6.015L118.497,5.855L118.861,5.698L119.227,5.543L119.592,5.391L119.959,5.242L120.328,5.095L120.698,4.95L121.068,4.809L121.441,4.669L121.814,4.533L122.188,4.399L122.563,4.268L122.94,4.139L123.317,4.013L123.695,3.889L124.075,3.769L124.455,3.65L124.837,3.535L125.22,3.422L125.604,3.311L125.988,3.204L126.373,3.099L126.76,2.996L127.148,2.897L127.536,2.8L127.926,2.705L128.316,2.613L128.708,2.524L129.1,2.438L129.493,2.354L129.888,2.273L130.282,2.194L130.678,2.118L131.075,2.045L131.473,1.975L131.872,1.907L132.271,1.842L132.67,1.779L133.072,1.719L133.474,1.662L133.876,1.608L134.28,1.556L134.685,1.506L135.09,1.46L135.495,1.416L135.902,1.375L136.31,1.336L136.718,1.301L137.126,1.268L137.536,1.237L137.946,1.209L138.358,1.184L138.769,1.162L139.182,1.142L139.595,1.125L140.009,1.111L140.424,1.099L140.839,1.09L141.254,1.084L141.665,1.08L142.157,1.078L142.641,1.078L143.123,1.078ZM142.193,13.578L141.745,13.58L141.404,13.583L141.069,13.588L140.734,13.595L140.402,13.605L140.069,13.616L139.737,13.63L139.407,13.646L139.078,13.664L138.749,13.684L138.421,13.706L138.094,13.73L137.768,13.757L137.443,13.785L137.119,13.816L136.795,13.848L136.473,13.883L136.152,13.92L135.832,13.959L135.512,14L135.192,14.043L134.875,14.089L134.559,14.136L134.243,14.185L133.927,14.237L133.613,14.29L133.3,14.346L132.989,14.403L132.677,14.463L132.366,14.524L132.057,14.588L131.749,14.654L131.441,14.722L131.135,14.791L130.829,14.863L130.524,14.937L130.22,15.013L129.918,15.091L129.616,15.171L129.315,15.253L129.015,15.337L128.716,15.423L128.418,15.511L128.121,15.601L127.825,15.693L127.53,15.787L127.236,15.883L126.942,15.981L126.65,16.081L126.359,16.183L126.068,16.287L125.779,16.393L125.491,16.5L125.203,16.61L124.916,16.722L124.631,16.836L124.346,16.952L124.062,17.07L123.78,17.19L123.498,17.311L123.218,17.435L122.938,17.561L122.658,17.689L122.38,17.818L122.104,17.95L121.828,18.083L121.553,18.219L121.279,18.357L121.005,18.497L120.735,18.637L120.463,18.781L120.193,18.927L119.924,19.074L119.656,19.224L119.388,19.375L119.123,19.528L118.858,19.683L118.593,19.841L118.331,20L118.068,20.161L117.806,20.325L117.546,20.49L117.288,20.657L117.03,20.826L116.773,20.996L116.516,21.17L116.26,21.345L116.007,21.522L115.754,21.701L115.501,21.882L115.25,22.065L115,22.25L114.751,22.436L114.503,22.625L114.256,22.817L114.01,23.009L113.766,23.204L113.522,23.4L113.278,23.6L113.036,23.801L112.796,24.003L112.556,24.207L112.318,24.414L112.08,24.623L111.843,24.834L111.607,25.047L111.373,25.262L111.14,25.478L110.907,25.697L110.676,25.918L110.446,26.141L110.217,26.365L109.989,26.592L109.762,26.821L109.536,27.052L109.311,27.284L109.088,27.519L108.865,27.756L108.644,27.995L108.423,28.236L108.205,28.478L107.986,28.724L107.769,28.97L107.554,29.219L107.339,29.47L107.126,29.723L106.914,29.978L106.702,30.235L106.492,30.494L106.283,30.755L106.076,31.018L105.869,31.283L105.664,31.551L105.46,31.819L105.258,32.091L105.056,32.364L104.855,32.64L104.656,32.916L104.458,33.196L104.261,33.478L104.065,33.761L103.871,34.046L103.678,34.334L103.486,34.623L103.296,34.915L103.106,35.209L102.919,35.504L102.732,35.802L102.546,36.102L102.362,36.404L102.179,36.707L101.997,37.014L101.817,37.322L101.638,37.632L101.46,37.944L101.284,38.258L101.109,38.574L100.936,38.892L100.763,39.212L100.592,39.535L100.423,39.859L100.255,40.185L100.087,40.514L99.922,40.844L99.758,41.177L99.595,41.511L99.434,41.848L99.274,42.187L99.116,42.527L98.959,42.871L98.803,43.215L98.649,43.561L98.496,43.911L98.345,44.262L98.195,44.614L98.047,44.97L97.9,45.327L97.755,45.685L97.611,46.047L97.468,46.411L97.327,46.775L97.188,47.142L97.05,47.512L96.913,47.884L96.779,48.257L96.645,48.632L96.513,49.01L96.383,49.389L96.255,49.77L96.128,50.154L96.002,50.539L95.878,50.927L95.756,51.317L95.635,51.708L95.516,52.102L95.398,52.498L95.282,52.895L95.168,53.296L95.055,53.697L94.944,54.1L94.835,54.506L94.727,54.915L94.621,55.325L94.517,55.735L94.414,56.149L94.313,56.566L94.214,56.983L94.116,57.403L94.02,57.825L93.926,58.249L93.833,58.675L93.742,59.103L93.653,59.533L93.566,59.964L93.48,60.398L93.396,60.834L93.314,61.271L93.234,61.711L93.155,62.154L93.078,62.597L93.003,63.043L92.93,63.49L92.859,63.94L92.789,64.392L92.721,64.845L92.655,65.3L92.591,65.759L92.529,66.218L92.468,66.679L92.41,67.142L92.353,67.608L92.298,68.075L92.245,68.544L92.194,69.016L92.144,69.489L92.097,69.964L92.052,70.441L92.008,70.92L91.966,71.401L91.927,71.884L91.889,72.368L91.853,72.855L91.819,73.343L91.787,73.835L91.757,74.327L91.729,74.821L91.702,75.318L91.678,75.816L91.656,76.316L91.636,76.818L91.618,77.322L91.602,77.828L91.587,78.336L91.575,78.845L91.565,79.357L91.557,79.871L91.463,87.705L87.657,89.646L81.4,85.22L81.117,85.022L80.835,84.825L80.553,84.63L80.273,84.437L79.993,84.247L79.715,84.058L79.437,83.871L79.16,83.686L78.884,83.504L78.609,83.323L78.335,83.144L78.062,82.967L77.79,82.793L77.518,82.619L77.247,82.448L76.978,82.279L76.709,82.112L76.442,81.947L76.174,81.783L75.909,81.622L75.644,81.463L75.38,81.305L75.117,81.15L74.853,80.995L74.592,80.843L74.332,80.694L74.073,80.545L73.814,80.399L73.556,80.255L73.3,80.112L73.044,79.971L72.789,79.832L72.534,79.695L72.281,79.559L72.029,79.426L71.778,79.295L71.528,79.165L71.278,79.036L71.029,78.91L70.782,78.785L70.535,78.663L70.289,78.541L70.044,78.422L69.8,78.304L69.558,78.189L69.315,78.074L69.074,77.962L68.834,77.851L68.595,77.742L68.356,77.635L68.118,77.529L67.882,77.425L67.646,77.323L67.412,77.222L67.178,77.123L66.944,77.026L66.713,76.93L66.482,76.836L66.251,76.744L66.022,76.653L65.794,76.564L65.567,76.476L65.34,76.39L65.114,76.306L64.89,76.223L64.666,76.142L64.443,76.062L64.221,75.984L64.001,75.907L63.781,75.832L63.561,75.759L63.343,75.687L63.126,75.616L62.909,75.547L62.694,75.48L62.479,75.414L62.265,75.349L62.053,75.286L61.841,75.224L61.63,75.164L61.42,75.105L61.21,75.048L61.002,74.992L60.794,74.938L60.589,74.885L60.383,74.833L60.178,74.783L59.974,74.734L59.771,74.687L59.569,74.641L59.369,74.596L59.168,74.553L58.968,74.51L58.77,74.47L58.572,74.43L58.376,74.392L58.179,74.355L57.984,74.32L57.791,74.286L57.597,74.253L57.404,74.221L57.213,74.191L57.023,74.162L56.833,74.134L56.643,74.108L56.455,74.082L56.268,74.058L56.082,74.035L55.896,74.014L55.711,73.993L55.527,73.974L55.344,73.956L55.162,73.939L54.981,73.923L54.8,73.909L54.619,73.895L54.44,73.883L54.262,73.872L54.085,73.862L53.908,73.853L53.731,73.845L53.557,73.838L53.383,73.833L53.209,73.828L53.036,73.825L52.864,73.823L52.693,73.821L52.522,73.821L52.352,73.822L52.183,73.824L52.016,73.827L51.847,73.831L51.68,73.836L51.514,73.842L51.35,73.849L51.185,73.857L51.021,73.866L50.857,73.876L50.695,73.887L50.534,73.899L50.372,73.912L50.211,73.926L50.052,73.941L49.893,73.957L49.734,73.974L49.577,73.992L49.42,74.01L49.263,74.03L49.107,74.051L48.952,74.072L48.798,74.094L48.644,74.118L48.491,74.142L48.338,74.167L48.186,74.193L48.035,74.22L47.883,74.248L47.733,74.277L47.584,74.306L47.436,74.337L47.287,74.368L47.139,74.401L46.991,74.434L46.845,74.468L46.699,74.502L46.553,74.538L46.408,74.574L46.264,74.612L46.121,74.65L45.977,74.689L45.834,74.729L45.691,74.769L45.549,74.811L45.409,74.853L45.268,74.896L45.127,74.94L44.988,74.985L44.849,75.03L44.711,75.076L44.572,75.124L44.434,75.172L44.297,75.22L44.161,75.27L44.025,75.32L43.888,75.371L43.754,75.423L43.618,75.476L43.484,75.529L43.351,75.583L43.217,75.638L43.084,75.694L42.951,75.751L42.82,75.807L42.688,75.866L42.557,75.924L42.426,75.984L42.294,76.045L42.165,76.105L42.036,76.167L41.908,76.229L41.779,76.293L41.649,76.357L41.523,76.422L41.395,76.487L41.268,76.553L41.142,76.62L41.017,76.687L40.89,76.756L40.764,76.826L40.639,76.895L40.516,76.965L40.391,77.037L40.267,77.11L40.145,77.181L40.022,77.255L39.899,77.329L39.778,77.404L39.654,77.48L39.534,77.556L39.414,77.632L39.292,77.711L39.173,77.789L39.053,77.868L38.933,77.948L38.814,78.028L38.696,78.109L38.577,78.191L38.46,78.273L38.343,78.356L38.224,78.44L38.108,78.524L37.992,78.609L37.876,78.695L37.76,78.782L37.645,78.869L37.531,78.956L37.417,79.044L37.303,79.133L37.188,79.223L37.075,79.314L36.962,79.404L36.85,79.496L36.738,79.588L36.627,79.68L36.514,79.775L36.404,79.868L36.293,79.963L36.183,80.058L36.073,80.155L35.964,80.25L35.855,80.348L35.746,80.446L35.638,80.544L35.53,80.643L35.422,80.743L35.315,80.842L35.208,80.943L35.102,81.044L34.996,81.146L34.89,81.249L34.785,81.351L34.68,81.454L34.575,81.559L34.472,81.663L34.368,81.769L34.264,81.875L34.161,81.981L34.06,82.087L33.958,82.194L33.855,82.302L33.754,82.411L33.653,82.519L33.557,82.624L33.353,82.849L33.154,83.071L32.958,83.295L32.763,83.522L32.569,83.75L32.377,83.98L32.187,84.211L31.998,84.445L31.811,84.68L31.627,84.916L31.443,85.155L31.261,85.395L31.08,85.638L30.901,85.881L30.725,86.125L30.55,86.371L30.376,86.619L30.204,86.868L30.034,87.118L29.865,87.37L29.699,87.622L29.534,87.876L29.37,88.131L29.208,88.387L29.048,88.644L28.89,88.903L28.734,89.162L28.579,89.421L28.426,89.682L28.275,89.944L28.125,90.207L27.977,90.47L27.832,90.734L27.687,90.998L27.545,91.263L27.404,91.529L27.266,91.794L27.129,92.061L26.993,92.329L26.86,92.595L26.728,92.863L26.598,93.131L26.47,93.398L26.344,93.666L26.219,93.934L26.096,94.203L25.975,94.471L25.856,94.739L25.739,95.007L25.623,95.274L25.509,95.543L25.397,95.81L25.287,96.077L25.178,96.344L25.072,96.61L24.967,96.875L24.864,97.142L24.762,97.406L24.664,97.669L24.566,97.933L24.47,98.197L24.376,98.458L24.283,98.72L24.193,98.981L24.104,99.239L24.017,99.498L23.932,99.755L23.849,100.011L23.767,100.266L23.688,100.52L23.61,100.772L23.534,101.024L23.459,101.275L23.387,101.523L23.316,101.769L23.247,102.015L23.179,102.259L23.114,102.502L23.05,102.742L22.988,102.981L22.928,103.218L22.87,103.453L22.813,103.687L22.758,103.917L22.705,104.146L22.653,104.373L22.603,104.599L22.555,104.821L22.509,105.04L22.464,105.258L22.421,105.474L22.38,105.686L22.341,105.898L22.303,106.105L22.267,106.309L22.233,106.511L22.2,106.71L22.169,106.907L22.139,107.099L22.112,107.289L22.085,107.476L22.061,107.66L22.038,107.839L22.017,108.016L21.997,108.19L21.979,108.359L21.962,108.523L21.947,108.684L21.934,108.842L21.922,108.996L21.911,109.144L21.902,109.289L21.894,109.429L21.888,109.566L21.883,109.697L21.879,109.82L21.877,109.94L21.875,110.056L21.875,110.174L21.876,110.403L21.879,110.64L21.883,110.878L21.888,111.113L21.895,111.347L21.902,111.581L21.911,111.815L21.922,112.047L21.933,112.279L21.946,112.51L21.96,112.74L21.975,112.971L21.992,113.199L22.01,113.427L22.029,113.654L22.049,113.88L22.07,114.105L22.093,114.33L22.117,114.555L22.142,114.779L22.168,115L22.196,115.221L22.225,115.443L22.255,115.663L22.286,115.882L22.319,116.101L22.352,116.318L22.387,116.535L22.423,116.752L22.461,116.967L22.499,117.181L22.539,117.395L22.58,117.607L22.622,117.819L22.665,118.031L22.709,118.241L22.755,118.451L22.802,118.66L22.85,118.867L22.899,119.075L22.949,119.281L23.001,119.487L23.053,119.691L23.107,119.894L23.162,120.1L23.218,120.301L23.275,120.502L23.334,120.704L23.393,120.903L23.454,121.101L23.516,121.3L23.579,121.498L23.643,121.693L23.709,121.89L23.775,122.085L23.843,122.279L23.912,122.472L23.981,122.664L24.052,122.855L24.125,123.048L24.198,123.238L24.272,123.426L24.348,123.614L24.424,123.802L24.502,123.989L24.581,124.174L24.661,124.359L24.742,124.544L24.825,124.728L24.908,124.911L24.993,125.092L25.078,125.272L25.165,125.452L25.253,125.633L25.343,125.812L25.432,125.989L25.523,126.165L25.616,126.341L25.71,126.518L25.804,126.692L25.9,126.866L25.997,127.039L26.094,127.21L26.194,127.383L26.294,127.553L26.395,127.722L26.498,127.891L26.602,128.059L26.707,128.227L26.812,128.393L26.919,128.559L27.028,128.724L27.137,128.888L27.247,129.052L27.358,129.213L27.471,129.376L27.585,129.537L27.699,129.696L27.816,129.856L27.934,130.015L28.052,130.173L28.171,130.33L28.291,130.485L28.414,130.642L28.536,130.796L28.66,130.95L28.787,131.104L28.912,131.255L29.039,131.406L29.169,131.558L29.299,131.708L29.429,131.856L29.562,132.005L29.695,132.152L29.83,132.299L29.966,132.446L30.102,132.59L30.241,132.735L30.38,132.878L30.521,133.021L30.663,133.164L30.805,133.304L30.95,133.445L31.095,133.585L31.241,133.723L31.389,133.861L31.538,133.999L31.689,134.136L31.84,134.271L31.992,134.406L32.146,134.54L32.301,134.673L32.458,134.806L32.616,134.938L32.774,135.068L32.934,135.198L33.096,135.328L33.259,135.456L33.422,135.584L33.587,135.71L33.754,135.836L33.922,135.962L34.091,136.086L34.26,136.209L34.431,136.332L34.604,136.454L34.779,136.575L34.955,136.696L35.131,136.815L35.309,136.933L35.488,137.051L35.67,137.168L35.851,137.283L36.034,137.398L36.218,137.512L36.405,137.626L36.591,137.738L36.78,137.85L36.971,137.961L37.162,138.071L37.354,138.179L37.548,138.288L37.743,138.395L37.939,138.501L38.138,138.606L38.337,138.711L38.538,138.815L38.739,138.917L38.943,139.018L39.148,139.12L39.354,139.219L39.561,139.318L39.771,139.416L39.981,139.513L40.192,139.609L40.406,139.705L40.62,139.799L40.836,139.892L41.053,139.984L41.271,140.075L41.491,140.166L41.713,140.255L41.936,140.344L42.161,140.431L42.385,140.517L42.612,140.602L42.842,140.687L43.071,140.77L43.303,140.853L43.535,140.934L43.769,141.014L44.005,141.093L44.242,141.172L44.481,141.249L44.721,141.325L44.962,141.4L45.204,141.474L45.448,141.547L45.694,141.619L45.941,141.689L46.189,141.759L46.439,141.828L46.69,141.895L46.943,141.961L47.198,142.027L47.453,142.091L47.71,142.154L47.969,142.216L48.229,142.276L48.49,142.336L48.753,142.395L49.017,142.452L49.283,142.508L49.55,142.563L49.819,142.617L50.089,142.669L50.36,142.721L50.634,142.771L50.908,142.82L51.184,142.868L51.461,142.915L51.74,142.961L52.021,143.005L52.302,143.048L52.585,143.09L52.87,143.13L53.156,143.17L53.444,143.208L53.733,143.245L54.023,143.281L54.315,143.315L54.609,143.348L54.903,143.38L55.199,143.411L55.497,143.44L55.796,143.468L56.097,143.495L56.399,143.52L56.702,143.544L57.008,143.567L57.315,143.589L57.622,143.609L57.931,143.628L58.242,143.645L58.554,143.661L58.868,143.676L59.183,143.69L59.5,143.702L59.818,143.713L60.137,143.722L60.458,143.73L60.78,143.737L61.104,143.742L61.429,143.746L61.756,143.749L62.087,143.75L237.709,143.75L237.753,143.747L237.999,143.729L238.243,143.71L238.488,143.689L238.732,143.668L238.976,143.645L239.221,143.622L239.464,143.597L239.708,143.571L239.951,143.544L240.194,143.515L240.438,143.486L240.681,143.455L240.923,143.424L241.166,143.391L241.408,143.357L241.65,143.322L241.892,143.286L242.133,143.248L242.375,143.21L242.616,143.17L242.856,143.129L243.096,143.088L243.336,143.045L243.577,143L243.816,142.955L244.055,142.909L244.294,142.861L244.532,142.813L244.77,142.763L245.008,142.712L245.245,142.66L245.483,142.607L245.719,142.553L245.956,142.498L246.192,142.441L246.427,142.384L246.663,142.325L246.897,142.265L247.131,142.204L247.366,142.142L247.599,142.079L247.832,142.015L248.065,141.949L248.297,141.883L248.529,141.815L248.76,141.746L248.991,141.676L249.221,141.605L249.452,141.533L249.681,141.46L249.91,141.386L250.138,141.311L250.366,141.234L250.593,141.157L250.82,141.078L251.047,140.998L251.272,140.917L251.498,140.835L251.722,140.752L251.946,140.668L252.17,140.583L252.393,140.496L252.616,140.409L252.838,140.32L253.058,140.231L253.279,140.14L253.499,140.048L253.719,139.955L253.938,139.861L254.155,139.766L254.373,139.67L254.591,139.572L254.807,139.474L255.022,139.375L255.238,139.274L255.452,139.173L255.665,139.07L255.879,138.966L256.091,138.861L256.303,138.756L256.514,138.649L256.724,138.54L256.934,138.431L257.143,138.321L257.351,138.21L257.559,138.097L257.765,137.984L257.971,137.87L258.176,137.754L258.382,137.637L258.584,137.52L258.788,137.401L258.991,137.281L259.192,137.16L259.392,137.039L259.592,136.916L259.791,136.791L259.991,136.666L260.188,136.54L260.384,136.413L260.581,136.284L260.776,136.155L260.97,136.025L261.164,135.893L261.357,135.761L261.548,135.627L261.74,135.492L261.93,135.357L262.119,135.22L262.308,135.082L262.495,134.944L262.682,134.804L262.869,134.662L263.054,134.521L263.237,134.378L263.421,134.234L263.603,134.089L263.785,133.942L263.966,133.794L264.145,133.647L264.324,133.498L264.502,133.347L264.679,133.196L264.855,133.043L265.03,132.89L265.205,132.735L265.379,132.579L265.551,132.422L265.722,132.265L265.893,132.106L266.062,131.946L266.231,131.785L266.399,131.623L266.565,131.461L266.73,131.297L266.897,131.131L267.06,130.965L267.222,130.798L267.384,130.63L267.544,130.461L267.704,130.291L267.864,130.119L268.021,129.946L268.178,129.773L268.334,129.598L268.489,129.422L268.642,129.246L268.795,129.068L268.947,128.889L269.097,128.71L269.247,128.528L269.396,128.346L269.543,128.164L269.69,127.979L269.835,127.794L269.979,127.608L270.123,127.42L270.265,127.231L270.406,127.042L270.546,126.852L270.685,126.66L270.822,126.468L270.96,126.273L271.096,126.078L271.23,125.882L271.363,125.685L271.496,125.486L271.627,125.287L271.757,125.087L271.887,124.885L272.014,124.682L272.141,124.479L272.266,124.274L272.391,124.068L272.514,123.86L272.637,123.651L272.758,123.442L272.877,123.232L272.996,123.02L273.114,122.807L273.23,122.593L273.345,122.378L273.459,122.162L273.572,121.945L273.684,121.726L273.794,121.506L273.903,121.286L274.011,121.064L274.117,120.841L274.223,120.615L274.327,120.39L274.43,120.164L274.532,119.936L274.633,119.706L274.732,119.476L274.83,119.245L274.927,119.012L275.022,118.778L275.116,118.543L275.209,118.308L275.301,118.07L275.391,117.831L275.48,117.591L275.567,117.35L275.654,117.108L275.739,116.865L275.822,116.62L275.905,116.373L275.986,116.126L276.066,115.878L276.144,115.627L276.221,115.377L276.296,115.125L276.371,114.87L276.444,114.616L276.515,114.361L276.585,114.104L276.654,113.843L276.721,113.584L276.786,113.323L276.851,113.06L276.914,112.798L276.975,112.533L277.035,112.265L277.094,111.997L277.151,111.729L277.206,111.459L277.26,111.187L277.313,110.915L277.364,110.641L277.414,110.364L277.462,110.088L277.508,109.81L277.553,109.531L277.597,109.25L277.638,108.968L277.679,108.684L277.718,108.399L277.755,108.113L277.791,107.825L277.824,107.537L277.857,107.248L277.888,106.955L277.917,106.661L277.944,106.369L277.97,106.072L277.995,105.775L278.017,105.477L278.038,105.176L278.057,104.876L278.075,104.573L278.091,104.269L278.105,103.964L278.117,103.658L278.119,103.61L278.102,103.292L278.068,102.713L278.033,102.138L277.995,101.568L277.956,101.002L277.914,100.44L277.87,99.881L277.824,99.327L277.776,98.777L277.726,98.231L277.674,97.688L277.621,97.151L277.565,96.617L277.507,96.087L277.447,95.56L277.385,95.039L277.321,94.522L277.255,94.007L277.188,93.498L277.118,92.992L277.046,92.49L276.973,91.993L276.897,91.5L276.82,91.01L276.741,90.524L276.659,90.043L276.576,89.565L276.491,89.092L276.404,88.623L276.316,88.157L276.225,87.696L276.133,87.239L276.038,86.785L275.942,86.337L275.844,85.892L275.745,85.45L275.643,85.013L275.54,84.579L275.435,84.15L275.328,83.726L275.219,83.304L275.109,82.887L274.997,82.474L274.883,82.064L274.766,81.654L274.71,81.459L274.65,81.258L274.592,81.059L274.532,80.862L274.472,80.664L274.411,80.467L274.35,80.271L274.289,80.078L274.227,79.886L274.165,79.693L274.103,79.501L274.04,79.312L273.977,79.123L273.913,78.934L273.848,78.746L273.784,78.561L273.719,78.375L273.654,78.19L273.588,78.008L273.522,77.826L273.456,77.645L273.388,77.464L273.321,77.285L273.253,77.106L273.185,76.928L273.117,76.753L273.048,76.577L272.979,76.401L272.909,76.229L272.839,76.056L272.769,75.885L272.698,75.714L272.627,75.544L272.556,75.376L272.484,75.208L272.412,75.041L272.339,74.876L272.266,74.711L272.193,74.547L272.119,74.385L272.045,74.222L271.971,74.061L271.896,73.901L271.821,73.743L271.746,73.586L271.67,73.427L271.593,73.27L271.517,73.116L271.44,72.961L271.364,72.809L271.286,72.656L271.208,72.504L271.129,72.353L271.051,72.203L270.973,72.056L270.893,71.908L270.814,71.761L270.734,71.615L270.654,71.471L270.573,71.327L270.492,71.183L270.412,71.042L270.329,70.9L270.247,70.759L270.166,70.621L270.083,70.482L270.001,70.344L269.918,70.209L269.834,70.073L269.75,69.936L269.666,69.804L269.582,69.67L269.497,69.538L269.413,69.408L269.327,69.276L269.241,69.146L269.156,69.019L269.07,68.891L268.983,68.765L268.896,68.638L268.809,68.513L268.722,68.39L268.634,68.267L268.545,68.143L268.457,68.021L268.369,67.901L268.281,67.782L268.191,67.663L268.101,67.544L268.011,67.427L267.922,67.311L267.831,67.195L267.741,67.08L267.65,66.966L267.558,66.853L267.466,66.74L267.376,66.631L267.282,66.518L267.19,66.409L267.098,66.301L267.006,66.193L266.911,66.085L266.818,65.978L266.725,65.874L266.629,65.767L266.535,65.663L266.441,65.561L266.345,65.457L266.251,65.356L266.156,65.256L266.058,65.155L265.962,65.056L265.866,64.957L265.77,64.86L265.672,64.762L265.575,64.666L265.477,64.571L265.38,64.476L265.282,64.382L265.182,64.288L265.084,64.196L264.985,64.105L264.884,64.013L264.785,63.923L264.685,63.834L264.584,63.744L264.484,63.656L264.383,63.57L264.282,63.483L264.18,63.397L264.078,63.312L263.975,63.227L263.873,63.143L263.77,63.06L263.667,62.978L263.564,62.896L263.459,62.814L263.355,62.734L263.251,62.655L263.146,62.576L263.041,62.498L262.935,62.42L262.83,62.343L262.722,62.267L262.617,62.192L262.51,62.117L262.401,62.042L262.295,61.969L262.188,61.897L262.077,61.823L261.969,61.752L261.861,61.682L261.752,61.612L261.642,61.541L261.53,61.472L261.42,61.403L261.31,61.337L261.198,61.269L261.086,61.202L260.976,61.137L260.862,61.072L260.75,61.008L260.637,60.944L260.522,60.88L260.408,60.817L260.294,60.755L260.18,60.694L260.064,60.633L259.949,60.573L259.833,60.514L259.716,60.455L259.6,60.397L259.481,60.338L259.365,60.282L259.246,60.225L259.127,60.169L259.009,60.114L258.889,60.059L258.77,60.005L258.649,59.952L258.527,59.899L258.407,59.847L258.286,59.796L258.163,59.744L258.04,59.694L257.918,59.644L257.794,59.595L257.67,59.546L257.546,59.498L257.421,59.451L257.296,59.404L257.169,59.358L257.044,59.312L256.917,59.267L256.789,59.223L256.661,59.179L256.533,59.136L256.404,59.093L256.275,59.051L256.145,59.01L256.015,58.969L255.884,58.929L255.753,58.889L255.621,58.85L255.489,58.812L255.356,58.774L255.223,58.737L255.089,58.7L254.954,58.664L254.82,58.629L254.684,58.594L254.548,58.56L254.412,58.526L254.275,58.493L254.137,58.461L253.999,58.429L253.861,58.398L253.722,58.368L253.581,58.338L253.442,58.308L253.301,58.28L253.16,58.252L253.017,58.224L252.875,58.197L252.733,58.171L252.589,58.145L252.446,58.12L252.301,58.096L252.155,58.072L252.01,58.049L251.864,58.027L251.716,58.005L251.569,57.984L251.422,57.963L251.273,57.943L251.124,57.924L250.975,57.905L250.824,57.887L250.673,57.869L250.521,57.852L250.37,57.836L250.218,57.821L250.065,57.806L249.911,57.791L249.757,57.778L249.604,57.765L249.448,57.752L249.292,57.741L249.135,57.73L248.978,57.719L248.821,57.709L248.663,57.7L248.504,57.692L248.345,57.684L248.185,57.677L248.025,57.67L247.864,57.664L247.702,57.659L247.541,57.654L247.378,57.65L247.214,57.647L247.051,57.645L246.886,57.643L246.721,57.641L246.556,57.641L246.39,57.641L246.223,57.641L246.056,57.643L245.888,57.645L245.72,57.648L245.551,57.651L245.387,57.655L245.04,57.665L244.698,57.678L244.352,57.693L244.005,57.712L243.655,57.732L243.303,57.756L242.948,57.783L242.592,57.812L242.233,57.843L241.872,57.878L241.509,57.915L241.143,57.955L240.775,57.998L240.405,58.044L240.033,58.092L239.658,58.143L239.282,58.197L238.903,58.254L238.522,58.313L238.138,58.376L237.753,58.441L237.366,58.509L236.976,58.579L236.584,58.653L236.19,58.729L235.794,58.808L235.396,58.89L234.995,58.975L234.592,59.062L234.188,59.153L233.781,59.246L233.372,59.342L232.961,59.441L232.548,59.543L232.132,59.647L231.715,59.754L231.296,59.864L230.875,59.977L230.452,60.093L230.026,60.212L229.599,60.333L229.169,60.457L228.738,60.585L228.304,60.714L227.869,60.847L227.431,60.983L226.992,61.121L226.55,61.262L226.107,61.406L225.661,61.553L225.214,61.703L224.765,61.855L224.314,62.01L223.86,62.169L223.405,62.329L222.948,62.493L222.489,62.66L222.028,62.829L221.565,63.001L221.101,63.176L220.634,63.354L220.166,63.534L219.695,63.717L219.223,63.903L218.749,64.092L218.273,64.284L217.795,64.478L217.316,64.675L216.834,64.876L216.351,65.078L215.866,65.284L215.379,65.492L214.89,65.703L214.399,65.917L207.501,68.951L207.459,68.932L205.265,61.791L205.125,61.339L204.985,60.891L204.845,60.445L204.704,60.001L204.562,59.56L204.421,59.123L204.279,58.687L204.136,58.254L203.993,57.824L203.85,57.396L203.706,56.971L203.562,56.548L203.417,56.128L203.272,55.711L203.127,55.296L202.981,54.884L202.834,54.474L202.688,54.067L202.541,53.663L202.393,53.26L202.244,52.86L202.096,52.463L201.947,52.07L201.797,51.677L201.647,51.288L201.497,50.901L201.346,50.517L201.194,50.135L201.042,49.756L200.89,49.379L200.737,49.005L200.583,48.633L200.43,48.264L200.275,47.898L200.12,47.532L199.964,47.171L199.809,46.812L199.652,46.456L199.495,46.101L199.337,45.748L199.179,45.4L199.021,45.053L198.862,44.708L198.702,44.366L198.541,44.026L198.381,43.69L198.219,43.355L198.058,43.023L197.895,42.693L197.732,42.365L197.569,42.04L197.404,41.717L197.24,41.397L197.075,41.079L196.909,40.764L196.743,40.451L196.576,40.141L196.408,39.831L196.24,39.525L196.072,39.222L195.902,38.92L195.732,38.621L195.562,38.325L195.391,38.031L195.219,37.738L195.047,37.449L194.875,37.162L194.701,36.876L194.527,36.593L194.352,36.313L194.177,36.034L194.001,35.758L193.825,35.484L193.648,35.213L193.47,34.944L193.291,34.676L193.113,34.412L192.933,34.15L192.752,33.888L192.571,33.629L192.39,33.374L192.207,33.12L192.025,32.868L191.841,32.619L191.656,32.371L191.471,32.125L191.285,31.882L191.099,31.64L190.913,31.402L190.725,31.165L190.536,30.929L190.347,30.696L190.157,30.466L189.966,30.237L189.775,30.01L189.583,29.786L189.39,29.562L189.196,29.341L189.002,29.123L188.807,28.906L188.611,28.691L188.415,28.478L188.217,28.267L188.018,28.057L187.82,27.85L187.62,27.645L187.419,27.441L187.217,27.239L187.015,27.04L186.811,26.841L186.608,26.645L186.403,26.451L186.197,26.259L185.99,26.068L185.782,25.878L185.573,25.691L185.364,25.506L185.154,25.322L184.942,25.14L184.73,24.96L184.517,24.781L184.302,24.604L184.087,24.428L183.87,24.255L183.653,24.083L183.434,23.912L183.215,23.744L182.995,23.577L182.773,23.412L182.551,23.248L182.326,23.085L182.101,22.925L181.876,22.766L181.648,22.608L181.42,22.452L181.189,22.297L180.959,22.144L180.727,21.993L180.494,21.843L180.26,21.695L180.024,21.548L179.786,21.402L179.548,21.258L179.309,21.116L179.068,20.974L178.826,20.835L178.582,20.697L178.337,20.56L178.091,20.424L177.843,20.29L177.593,20.158L177.343,20.027L177.091,19.897L176.837,19.769L176.582,19.642L176.326,19.516L176.068,19.392L175.809,19.27L175.548,19.148L175.285,19.028L175.022,18.91L174.756,18.792L174.488,18.676L174.219,18.561L173.95,18.449L173.677,18.337L173.404,18.226L173.129,18.117L172.851,18.009L172.572,17.902L172.292,17.797L172.01,17.693L171.726,17.591L171.441,17.49L171.154,17.39L170.864,17.291L170.573,17.194L170.281,17.098L169.987,17.003L169.691,16.91L169.393,16.818L169.093,16.727L168.792,16.638L168.488,16.55L168.183,16.463L167.875,16.377L167.567,16.293L167.255,16.21L166.943,16.129L166.628,16.049L166.311,15.97L165.993,15.892L165.673,15.816L165.35,15.741L165.026,15.667L164.7,15.595L164.371,15.523L164.04,15.454L163.709,15.385L163.374,15.318L163.038,15.252L162.7,15.187L162.36,15.124L162.018,15.062L161.673,15.001L161.327,14.942L160.978,14.883L160.628,14.826L160.276,14.771L159.921,14.716L159.565,14.663L159.206,14.612L158.845,14.561L158.482,14.512L158.117,14.464L157.75,14.417L157.381,14.372L157.01,14.328L156.636,14.285L156.261,14.244L155.883,14.203L155.504,14.165L155.122,14.127L154.737,14.09L154.351,14.055L153.963,14.021L153.573,13.989L153.18,13.957L152.785,13.927L152.388,13.898L151.988,13.871L151.587,13.844L151.184,13.819L150.778,13.796L150.37,13.773L149.96,13.752L149.547,13.732L149.132,13.713L148.716,13.695L148.296,13.679L147.875,13.664L147.451,13.65L147.026,13.637L146.598,13.626L146.167,13.615L145.735,13.607L145.3,13.599L144.863,13.592L144.423,13.587L143.982,13.583L143.538,13.58L143.092,13.578L142.643,13.578L142.193,13.578Z" style="fill:#b0b0b0;"/>
    <path d="M62.076,150C31.739,149.958 15.697,133.382 15.625,110.185C15.58,95.755 33.891,43.846 85.301,80.324C85.758,34.14 109.571,7.506 141.705,7.33C181.853,7.111 199.135,20.374 211.381,60.417C255.097,41.103 281.671,51.582 284.375,103.549C283.433,132.957 261.314,148.44 237.924,150L62.076,150Z" style="fill:url(#_Radial1);"/>
    <path d="M146.875,137.5C132.864,157.755 130.841,171.01 128.125,181.25C124.461,195.065 130.334,198.726 134.375,196.875C143.977,192.477 147.244,165.273 146.875,137.5Z" style="fill:none;stroke:#00658e;stroke-width:7.81px;stroke-linecap:round;stroke-miterlimit:1.5;"/>
    <path d="M146.875,137.5C132.864,157.755 130.841,171.01 128.125,181.25C124.461,195.065 130.334,198.726 134.375,196.875C143.977,192.477 147.244,165.273 146.875,137.5Z" style="fill:url(#_Linear2);"/>
    <path d="M203.125,193.75C189.114,214.005 187.091,227.26 184.375,237.5C180.711,251.315 186.584,254.976 190.625,253.125C200.227,248.727 203.494,221.523 203.125,193.75Z" style="fill:none;stroke:#00658e;stroke-width:7.81px;stroke-linecap:round;stroke-miterlimit:1.5;"/>
    <path d="M203.125,193.75C189.114,214.005 187.091,227.26 184.375,237.5C180.711,251.315 186.584,254.976 190.625,253.125C200.227,248.727 203.494,221.523 203.125,193.75Z" style="fill:url(#_Linear3);"/>
    <defs>
        <radialGradient id="_Radial1" cx="0" cy="0" r="1" gradientUnits="userSpaceOnUse" gradientTransform="matrix(268.75,0,0,268.75,68.75,37.5)"><stop offset="0" style="stop-color:#e9e9e9;stop-opacity:1"/><stop offset="0.33" style="stop-color:#e9e9e9;stop-opacity:1"/><stop offset="0.42" style="stop-color:#e9e9e9;stop-opacity:1"/><stop offset="0.5" style="stop-color:#e9e9e9;stop-opacity:1"/><stop offset="0.5" style="stop-color:#dadada;stop-opacity:1"/><stop offset="0.58" style="stop-color:#dadada;stop-opacity:1"/><stop offset="0.67" style="stop-color:#dadada;stop-opacity:1"/><stop offset="1" style="stop-color:#dadada;stop-opacity:1"/></radialGradient>
        <linearGradient id="_Linear2" x1="0" y1="0" x2="1" y2="0" gradientUnits="userSpaceOnUse" gradientTransform="matrix(31.25,6.25,-6.25,31.25,121.875,171.875)"><stop offset="0" style="stop-color:#00aff0;stop-opacity:1"/><stop offset="0.33" style="stop-color:#00b0f0;stop-opacity:1"/><stop offset="0.42" style="stop-color:#00b2f0;stop-opacity:1"/><stop offset="0.49" style="stop-color:#00b5f1;stop-opacity:1"/><stop offset="0.51" style="stop-color:#008dcd;stop-opacity:1"/><stop offset="0.58" style="stop-color:#008fce;stop-opacity:1"/><stop offset="0.67" style="stop-color:#0091cf;stop-opacity:1"/><stop offset="1" style="stop-color:#0092cf;stop-opacity:1"/></linearGradient>
        <linearGradient id="_Linear3" x1="0" y1="0" x2="1" y2="0" gradientUnits="userSpaceOnUse" gradientTransform="matrix(31.25,6.25,-6.25,31.25,178.125,228.125)"><stop offset="0" style="stop-color:#00aff0;stop-opacity:1"/><stop offset="0.33" style="stop-color:#00b0f0;stop-opacity:1"/><stop offset="0.42" style="stop-color:#00b2f0;stop-opacity:1"/><stop offset="0.49" style="stop-color:#00b5f1;stop-opacity:1"/><stop offset="0.51" style="stop-color:#008dcd;stop-opacity:1"/><stop offset="0.58" style="stop-color:#008fce;stop-opacity:1"/><stop offset="0.67" style="stop-color:#0091cf;stop-opacity:1"/><stop offset="1" style="stop-color:#0092cf;stop-opacity:1"/></linearGradient>
    </defs>
</svg>
