<?xml version="1.0" encoding="UTF-8" standalone="no"?>
<!DOCTYPE svg PUBLIC "-//W3C//DTD SVG 1.1//EN" "http://www.w3.org/Graphics/SVG/1.1/DTD/svg11.dtd">
<svg width="100%" height="100%" viewBox="0 0 300 300" version="1.1" xmlns="http://www.w3.org/2000/svg" xmlns:xlink="http://www.w3.org/1999/xlink" xml:space="preserve" xmlns:serif="http://www.serif.com/" style="fill-rule:evenodd;clip-rule:evenodd;stroke-linejoin:round;stroke-miterlimit:1.41421;">
    <g>
        <path d="M97.66,164.613C101.438,165.045 101.617,166.061 104.243,167.425C112.211,171.38 122.045,171.21 131.716,171.715C171.05,173.77 211.636,166.921 249.243,176.348C260.283,179.115 272.547,189.509 263.425,198.176C257.396,203.906 248.635,197.352 241.361,195.935C199.376,187.752 154.488,198.444 109,190.306C100.581,188.8 90.53,186.289 87.375,179.272C84.526,172.938 88.533,164.912 96.863,164.583C97.129,164.593 97.394,164.603 97.66,164.613Z" style="fill:none;stroke:#bababa;stroke-width:12.5px;"/>
        <path d="M97.66,164.613C101.438,165.045 101.617,166.061 104.243,167.425C112.211,171.38 122.045,171.21 131.716,171.715C171.05,173.77 211.636,166.921 249.243,176.348C260.283,179.115 272.547,189.509 263.425,198.176C257.396,203.906 248.635,197.352 241.361,195.935C199.376,187.752 154.488,198.444 109,190.306C100.581,188.8 90.53,186.289 87.375,179.272C84.526,172.938 88.533,164.912 96.863,164.583C97.129,164.593 97.394,164.603 97.66,164.613Z" style="fill:#e6e6e6;fill-rule:nonzero;"/>
        <path d="M175,171.633C200.227,170.94 225.336,170.355 249.243,176.348C260.283,179.115 272.547,189.509 263.425,198.176C257.396,203.906 248.635,197.352 241.361,195.935C219.897,191.751 197.674,192.501 175,193.146L175,171.633Z" style="fill:#d3d3d3;fill-rule:nonzero;"/>
        <path d="M50.786,117.738C54.563,118.17 54.742,119.186 57.368,120.55C65.336,124.505 75.17,124.335 84.841,124.84C124.175,126.895 164.761,120.046 202.368,129.473C213.408,132.24 225.672,142.634 216.55,151.301C210.521,157.031 201.76,150.477 194.486,149.06C152.501,140.877 107.613,151.569 62.125,143.431C51.636,141.555 37.582,137.515 39.772,126.153C40.693,121.376 43.988,117.945 49.988,117.708C50.254,117.718 50.52,117.728 50.786,117.738Z" style="fill:none;stroke:#bababa;stroke-width:12.5px;"/>
        <path d="M50.786,117.738C54.563,118.17 54.742,119.186 57.368,120.55C65.336,124.505 75.17,124.335 84.841,124.84C124.175,126.895 164.761,120.046 202.368,129.473C213.408,132.24 225.672,142.634 216.55,151.301C210.521,157.031 201.76,150.477 194.486,149.06C152.501,140.877 107.613,151.569 62.125,143.431C51.636,141.555 37.582,137.515 39.772,126.153C40.693,121.376 43.988,117.945 49.988,117.708C50.254,117.718 50.52,117.728 50.786,117.738Z" style="fill:#e6e6e6;fill-rule:nonzero;"/>
        <path d="M128.125,124.758C153.352,124.065 178.461,123.48 202.368,129.473C213.408,132.24 225.672,142.634 216.55,151.301C210.521,157.031 201.76,150.477 194.486,149.06C173.022,144.876 150.799,145.626 128.125,146.271L128.125,124.758Z" style="fill:#d3d3d3;fill-rule:nonzero;"/>
        <path d="M88.286,73.988C92.063,74.42 92.243,75.436 94.868,76.8C102.836,80.755 112.67,80.585 122.341,81.09C161.675,83.145 202.26,76.296 239.868,85.723C250.893,88.487 263.172,98.884 254.05,107.551C248.021,113.281 239.26,106.727 231.986,105.31C190.001,97.127 145.113,107.819 99.625,99.681C91.206,98.175 81.155,95.664 78,88.647C75.151,82.312 79.158,74.287 87.488,73.958C87.754,73.968 88.02,73.978 88.286,73.988Z" style="fill:none;stroke:#bababa;stroke-width:12.5px;"/>
        <path d="M88.286,73.988C92.063,74.42 92.243,75.436 94.868,76.8C102.836,80.755 112.67,80.585 122.341,81.09C161.675,83.145 202.26,76.296 239.868,85.723C250.893,88.487 263.172,98.884 254.05,107.551C248.021,113.281 239.26,106.727 231.986,105.31C190.001,97.127 145.113,107.819 99.625,99.681C91.206,98.175 81.155,95.664 78,88.647C75.151,82.312 79.158,74.287 87.488,73.958C87.754,73.968 88.02,73.978 88.286,73.988Z" style="fill:#e6e6e6;fill-rule:nonzero;"/>
        <path d="M165.625,81.008C190.852,80.315 215.961,79.73 239.868,85.723C250.893,88.487 263.172,98.884 254.05,107.551C248.021,113.281 239.26,106.727 231.986,105.31C210.522,101.126 188.299,101.876 165.625,102.521L165.625,81.008Z" style="fill:#d3d3d3;fill-rule:nonzero;"/>
    </g>
</svg>
