<?xml version="1.0" encoding="UTF-8" standalone="no"?>
<!DOCTYPE svg PUBLIC "-//W3C//DTD SVG 1.1//EN" "http://www.w3.org/Graphics/SVG/1.1/DTD/svg11.dtd">
<svg width="100%" height="100%" viewBox="0 0 300 300" version="1.1" xmlns="http://www.w3.org/2000/svg" xmlns:xlink="http://www.w3.org/1999/xlink" xml:space="preserve" xmlns:serif="http://www.serif.com/" style="fill-rule:evenodd;clip-rule:evenodd;stroke-linejoin:round;stroke-miterlimit:1.41421;">
    <g>
        <path d="M152.336,207.42C152.054,208.305 150.568,208.976 150.99,212.421C150.99,212.421 157.059,217.774 164.271,219.731C170.65,221.462 179.855,223.156 179.855,223.156C200.426,226.919 225.21,227.395 234.673,247.754C238.758,256.543 238.307,267.206 233.157,275.717C228.127,284.03 216.562,290.941 211.169,293.932C208.145,295.61 203.727,294.97 200.799,293.669C197.871,292.367 194.759,289.108 193.601,286.122C192.443,283.137 192.568,278.678 193.851,275.755C195.134,272.831 198.486,270.569 201.302,268.579C205.018,265.953 213.467,266.138 216.147,260C220.394,250.271 202.628,242.595 191.929,239.001C178.454,234.475 164.147,232.158 151.686,224.851C147.796,222.57 144.18,219.327 143.005,214.682C143.005,214.682 142.083,208.399 145.082,204.221C148.153,199.942 155.405,197.735 158.312,196.854C159.81,196.4 162.167,197.888 162.521,198.937C162.876,199.985 161.642,202.146 160.438,203.146C158.799,204.509 154.034,206.401 152.684,207.113C152.547,207.185 152.383,207.273 152.336,207.42Z" style="fill:none;stroke:#fff;stroke-width:6.25px;"/>
        <path d="M152.336,207.42C152.054,208.305 150.568,208.976 150.99,212.421C150.99,212.421 157.059,217.774 164.271,219.731C170.65,221.462 179.855,223.156 179.855,223.156C200.426,226.919 225.21,227.395 234.673,247.754C238.758,256.543 238.307,267.206 233.157,275.717C228.127,284.03 216.562,290.941 211.169,293.932C208.145,295.61 203.727,294.97 200.799,293.669C197.871,292.367 194.759,289.108 193.601,286.122C192.443,283.137 192.568,278.678 193.851,275.755C195.134,272.831 198.486,270.569 201.302,268.579C205.018,265.953 213.467,266.138 216.147,260C220.394,250.271 202.628,242.595 191.929,239.001C178.454,234.475 164.147,232.158 151.686,224.851C147.796,222.57 144.18,219.327 143.005,214.682C143.005,214.682 142.083,208.399 145.082,204.221C148.153,199.942 155.405,197.735 158.312,196.854C159.81,196.4 162.167,197.888 162.521,198.937C162.876,199.985 161.642,202.146 160.438,203.146C158.799,204.509 154.034,206.401 152.684,207.113C152.547,207.185 152.383,207.273 152.336,207.42Z" style="fill:#6d6d6d;fill-rule:nonzero;"/>
        <path d="M102.347,210.866C102.141,211.556 100.698,213.572 101.386,214.694C103.17,217.606 107.016,222.532 113.052,228.34C113.634,228.91 113.633,228.909 114.211,229.485C124.213,239.66 127.639,256.808 110.183,273.433C100.608,282.553 83.632,290.796 76.265,294.125C73.134,295.54 68.838,294.837 65.982,293.41C63.126,291.982 60.164,288.593 59.131,285.562C58.097,282.531 58.394,278.086 59.781,275.224C61.168,272.361 64.471,270.069 67.455,268.385C75.589,263.794 100.684,264.127 108.582,247.678C108.582,247.678 109.038,242.734 106.231,238.659C99.451,228.817 85.061,219.122 94.916,206.511C99.511,200.63 110.04,198.271 114.017,197.009C115.648,196.492 118.328,197.918 118.773,198.942C119.217,199.965 117.463,202.276 116.683,203.148C116.065,203.84 114.916,203.74 114.095,204.172C111.751,205.406 105.52,207.421 102.621,210.551C102.589,210.585 102.387,210.732 102.347,210.866Z" style="fill:none;stroke:#fff;stroke-width:6.25px;"/>
        <path d="M102.347,210.866C102.141,211.556 100.698,213.572 101.386,214.694C103.17,217.606 107.016,222.532 113.052,228.34C113.634,228.91 113.633,228.909 114.211,229.485C124.213,239.66 127.639,256.808 110.183,273.433C100.608,282.553 83.632,290.796 76.265,294.125C73.134,295.54 68.838,294.837 65.982,293.41C63.126,291.982 60.164,288.593 59.131,285.562C58.097,282.531 58.394,278.086 59.781,275.224C61.168,272.361 64.471,270.069 67.455,268.385C75.589,263.794 100.684,264.127 108.582,247.678C108.582,247.678 109.038,242.734 106.231,238.659C99.451,228.817 85.061,219.122 94.916,206.511C99.511,200.63 110.04,198.271 114.017,197.009C115.648,196.492 118.328,197.918 118.773,198.942C119.217,199.965 117.463,202.276 116.683,203.148C116.065,203.84 114.916,203.74 114.095,204.172C111.751,205.406 105.52,207.421 102.621,210.551C102.589,210.585 102.387,210.732 102.347,210.866Z" style="fill:#6d6d6d;fill-rule:nonzero;"/>
    </g>
    <path d="M146.617,268.359L141.682,259.811L132.039,257.227L133.05,253.454L138.92,255.027L135.809,249.638L139.191,247.685L142.303,253.074L143.875,247.204L147.648,248.215L145.065,257.858L150,266.406L154.935,257.858L152.352,248.215L156.125,247.204L157.697,253.074L160.809,247.685L164.191,249.638L161.08,255.027L166.95,253.454L167.961,257.227L158.318,259.811L153.383,268.359L163.253,268.359L170.313,261.3C171.233,262.221 172.154,263.142 173.075,264.063L168.778,268.359L175,268.359L175,272.266L168.778,272.266L173.075,276.563L170.313,279.325C167.956,276.968 165.547,274.662 163.231,272.266L153.383,272.266L158.318,280.814L167.961,283.398C167.624,284.655 167.287,285.913 166.95,287.171L161.08,285.598L164.191,290.987L160.809,292.94L157.697,287.551L156.125,293.421L152.352,292.41C153.214,289.19 154.006,285.951 154.924,282.747L150,274.219L145.065,282.767L147.648,292.41C146.391,292.747 145.133,293.084 143.875,293.421L142.303,287.551L139.191,292.94L135.809,290.987L138.92,285.598L133.05,287.171L132.039,283.398C135.258,282.535 138.46,281.601 141.693,280.794L146.617,272.266L136.747,272.266L129.688,279.325L126.925,276.563L131.222,272.266L125,272.266L125,268.359L131.222,268.359L126.925,264.063L129.688,261.3L136.747,268.359L146.617,268.359Z" style="fill:none;stroke:#ccc;stroke-width:6.25px;"/>
    <path d="M146.617,268.359L141.682,259.811L132.039,257.227L133.05,253.454L138.92,255.027L135.809,249.638L139.191,247.685L142.303,253.074L143.875,247.204L147.648,248.215L145.065,257.858L150,266.406L154.935,257.858L152.352,248.215L156.125,247.204L157.697,253.074L160.809,247.685L164.191,249.638L161.08,255.027L166.95,253.454L167.961,257.227L158.318,259.811L153.383,268.359L163.253,268.359L170.313,261.3C171.233,262.221 172.154,263.142 173.075,264.063L168.778,268.359L175,268.359L175,272.266L168.778,272.266L173.075,276.563L170.313,279.325C167.956,276.968 165.547,274.662 163.231,272.266L153.383,272.266L158.318,280.814L167.961,283.398C167.624,284.655 167.287,285.913 166.95,287.171L161.08,285.598L164.191,290.987L160.809,292.94L157.697,287.551L156.125,293.421L152.352,292.41C153.214,289.19 154.006,285.951 154.924,282.747L150,274.219L145.065,282.767L147.648,292.41C146.391,292.747 145.133,293.084 143.875,293.421L142.303,287.551L139.191,292.94L135.809,290.987L138.92,285.598L133.05,287.171L132.039,283.398C135.258,282.535 138.46,281.601 141.693,280.794L146.617,272.266L136.747,272.266L129.688,279.325L126.925,276.563L131.222,272.266L125,272.266L125,268.359L131.222,268.359L126.925,264.063L129.688,261.3L136.747,268.359L146.617,268.359Z" style="fill:#fff;fill-rule:nonzero;"/>
    <g>
        <path d="M97.66,164.613C101.438,165.045 101.617,166.061 104.243,167.425C112.211,171.38 122.045,171.21 131.716,171.715C171.05,173.77 211.636,166.921 249.243,176.348C260.283,179.115 272.547,189.509 263.425,198.176C257.396,203.906 248.635,197.352 241.361,195.935C199.376,187.752 154.488,198.444 109,190.306C100.581,188.8 90.53,186.289 87.375,179.272C84.526,172.938 88.533,164.912 96.863,164.583C97.129,164.593 97.394,164.603 97.66,164.613Z" style="fill:none;stroke:#bababa;stroke-width:12.5px;"/>
        <path d="M97.66,164.613C101.438,165.045 101.617,166.061 104.243,167.425C112.211,171.38 122.045,171.21 131.716,171.715C171.05,173.77 211.636,166.921 249.243,176.348C260.283,179.115 272.547,189.509 263.425,198.176C257.396,203.906 248.635,197.352 241.361,195.935C199.376,187.752 154.488,198.444 109,190.306C100.581,188.8 90.53,186.289 87.375,179.272C84.526,172.938 88.533,164.912 96.863,164.583C97.129,164.593 97.394,164.603 97.66,164.613Z" style="fill:#e6e6e6;fill-rule:nonzero;"/>
        <path d="M175,171.633C200.227,170.94 225.336,170.355 249.243,176.348C260.283,179.115 272.547,189.509 263.425,198.176C257.396,203.906 248.635,197.352 241.361,195.935C219.897,191.751 197.674,192.501 175,193.146L175,171.633Z" style="fill:#d3d3d3;fill-rule:nonzero;"/>
        <path d="M50.786,117.738C54.563,118.17 54.742,119.186 57.368,120.55C65.336,124.505 75.17,124.335 84.841,124.84C124.175,126.895 164.761,120.046 202.368,129.473C213.408,132.24 225.672,142.634 216.55,151.301C210.521,157.031 201.76,150.477 194.486,149.06C152.501,140.877 107.613,151.569 62.125,143.431C51.636,141.555 37.582,137.515 39.772,126.153C40.693,121.376 43.988,117.945 49.988,117.708C50.254,117.718 50.52,117.728 50.786,117.738Z" style="fill:none;stroke:#bababa;stroke-width:12.5px;"/>
        <path d="M50.786,117.738C54.563,118.17 54.742,119.186 57.368,120.55C65.336,124.505 75.17,124.335 84.841,124.84C124.175,126.895 164.761,120.046 202.368,129.473C213.408,132.24 225.672,142.634 216.55,151.301C210.521,157.031 201.76,150.477 194.486,149.06C152.501,140.877 107.613,151.569 62.125,143.431C51.636,141.555 37.582,137.515 39.772,126.153C40.693,121.376 43.988,117.945 49.988,117.708C50.254,117.718 50.52,117.728 50.786,117.738Z" style="fill:#e6e6e6;fill-rule:nonzero;"/>
        <path d="M128.125,124.758C153.352,124.065 178.461,123.48 202.368,129.473C213.408,132.24 225.672,142.634 216.55,151.301C210.521,157.031 201.76,150.477 194.486,149.06C173.022,144.876 150.799,145.626 128.125,146.271L128.125,124.758Z" style="fill:#d3d3d3;fill-rule:nonzero;"/>
        <path d="M88.286,73.988C92.063,74.42 92.243,75.436 94.868,76.8C102.836,80.755 112.67,80.585 122.341,81.09C161.675,83.145 202.26,76.296 239.868,85.723C250.893,88.487 263.172,98.884 254.05,107.551C248.021,113.281 239.26,106.727 231.986,105.31C190.001,97.127 145.113,107.819 99.625,99.681C91.206,98.175 81.155,95.664 78,88.647C75.151,82.312 79.158,74.287 87.488,73.958C87.754,73.968 88.02,73.978 88.286,73.988Z" style="fill:none;stroke:#bababa;stroke-width:12.5px;"/>
        <path d="M88.286,73.988C92.063,74.42 92.243,75.436 94.868,76.8C102.836,80.755 112.67,80.585 122.341,81.09C161.675,83.145 202.26,76.296 239.868,85.723C250.893,88.487 263.172,98.884 254.05,107.551C248.021,113.281 239.26,106.727 231.986,105.31C190.001,97.127 145.113,107.819 99.625,99.681C91.206,98.175 81.155,95.664 78,88.647C75.151,82.312 79.158,74.287 87.488,73.958C87.754,73.968 88.02,73.978 88.286,73.988Z" style="fill:#e6e6e6;fill-rule:nonzero;"/>
        <path d="M165.625,81.008C190.852,80.315 215.961,79.73 239.868,85.723C250.893,88.487 263.172,98.884 254.05,107.551C248.021,113.281 239.26,106.727 231.986,105.31C210.522,101.126 188.299,101.876 165.625,102.521L165.625,81.008Z" style="fill:#d3d3d3;fill-rule:nonzero;"/>
    </g>
</svg>
