<?xml version="1.0" encoding="UTF-8" standalone="no"?>
<!DOCTYPE svg PUBLIC "-//W3C//DTD SVG 1.1//EN" "http://www.w3.org/Graphics/SVG/1.1/DTD/svg11.dtd">
<svg width="100%" height="100%" viewBox="0 0 300 300" version="1.1" xmlns="http://www.w3.org/2000/svg" xmlns:xlink="http://www.w3.org/1999/xlink" xml:space="preserve" xmlns:serif="http://www.serif.com/" style="fill-rule:evenodd;clip-rule:evenodd;stroke-linecap:round;stroke-linejoin:round;stroke-miterlimit:1.5;">
    <path d="M247.009,70.143L247.224,70.146L247.439,70.149L247.653,70.153L247.868,70.159L248.082,70.165L248.295,70.172L248.508,70.179L248.721,70.188L248.934,70.198L249.146,70.208L249.358,70.219L249.57,70.232L249.781,70.245L249.993,70.259L250.203,70.274L250.413,70.29L250.623,70.306L250.834,70.324L251.043,70.343L251.252,70.362L251.461,70.383L251.669,70.404L251.877,70.426L252.085,70.449L252.292,70.473L252.5,70.498L252.707,70.524L252.913,70.551L253.119,70.579L253.325,70.607L253.53,70.637L253.735,70.668L253.94,70.699L254.145,70.732L254.348,70.765L254.552,70.799L254.756,70.835L254.959,70.871L255.162,70.908L255.364,70.946L255.565,70.985L255.767,71.025L255.968,71.066L256.169,71.108L256.37,71.151L256.57,71.195L256.769,71.24L256.97,71.286L257.169,71.333L257.366,71.38L257.564,71.429L257.764,71.479L257.961,71.53L258.157,71.581L258.354,71.634L258.549,71.687L258.746,71.742L258.943,71.798L259.137,71.855L259.331,71.912L259.526,71.971L259.72,72.031L259.914,72.091L260.107,72.153L260.299,72.215L260.491,72.279L260.683,72.343L260.875,72.409L261.065,72.476L261.255,72.543L261.445,72.612L261.635,72.682L261.825,72.752L262.012,72.823L262.201,72.896L262.389,72.97L262.577,73.045L262.764,73.12L262.949,73.197L263.135,73.274L263.321,73.353L263.506,73.433L263.691,73.514L263.874,73.595L264.058,73.678L264.241,73.762L264.424,73.847L264.606,73.932L264.786,74.018L264.967,74.106L265.148,74.195L265.329,74.285L265.508,74.376L265.688,74.468L265.866,74.561L266.042,74.654L266.22,74.749L266.397,74.845L266.574,74.942L266.75,75.04L266.924,75.138L267.101,75.24L267.275,75.341L267.447,75.442L267.62,75.545L267.792,75.649L267.963,75.752L268.134,75.859L268.307,75.967L268.478,76.075L268.645,76.183L268.815,76.293L268.983,76.404L269.152,76.516L269.319,76.629L269.483,76.741L269.652,76.858L269.817,76.974L269.981,77.09L270.145,77.208L270.308,77.326L270.472,77.446L270.635,77.567L270.796,77.689L270.958,77.812L271.118,77.936L271.278,78.061L271.436,78.185L271.594,78.311L271.754,78.441L271.91,78.568L272.067,78.697L272.225,78.83L272.378,78.959L272.533,79.092L272.688,79.225L272.841,79.359L272.994,79.495L273.144,79.629L273.298,79.768L273.449,79.906L273.599,80.045L273.749,80.185L273.896,80.324L274.044,80.466L274.193,80.611L274.34,80.754L274.484,80.897L274.63,81.042L274.777,81.191L274.921,81.338L275.062,81.484L275.205,81.633L275.347,81.783L275.489,81.934L275.632,82.088L275.772,82.241L275.909,82.392L276.048,82.547L276.186,82.702L276.323,82.858L276.462,83.018L276.598,83.176L276.731,83.333L276.865,83.492L276.999,83.653L277.132,83.815L277.267,83.98L277.399,84.143L277.527,84.304L277.658,84.469L277.79,84.638L277.918,84.804L278.045,84.97L278.173,85.138L278.302,85.31L278.428,85.48L278.551,85.648L278.678,85.823L278.802,85.996L278.926,86.169L279.048,86.344L279.17,86.519L279.292,86.695L279.412,86.872L279.532,87.049L279.652,87.228L279.77,87.407L279.888,87.587L280.007,87.771L280.124,87.953L280.238,88.133L280.353,88.316L280.469,88.504L280.583,88.689L280.696,88.875L280.808,89.061L280.92,89.249L281.031,89.437L281.141,89.627L281.253,89.82L281.362,90.01L281.468,90.199L281.578,90.395L281.685,90.588L281.791,90.782L281.896,90.977L282.001,91.172L282.106,91.369L282.209,91.566L282.314,91.767L282.416,91.966L282.517,92.166L282.618,92.366L282.719,92.568L282.818,92.77L282.917,92.973L283.015,93.177L283.114,93.384L283.211,93.589L283.306,93.792L283.403,94.002L283.5,94.213L283.592,94.418L283.686,94.628L283.78,94.841L283.873,95.052L283.964,95.263L284.055,95.476L284.146,95.689L284.237,95.906L284.326,96.121L284.414,96.337L284.502,96.553L284.589,96.77L284.677,96.991L284.761,97.207L284.847,97.427L284.932,97.65L285.018,97.874L285.101,98.096L285.182,98.316L285.265,98.543L285.347,98.767L285.428,98.992L285.509,99.221L285.587,99.445L285.666,99.672L285.745,99.904L285.824,100.136L285.901,100.366L285.976,100.594L286.053,100.828L286.129,101.064L286.202,101.294L286.276,101.528L286.35,101.765L286.423,102.001L286.496,102.24L286.567,102.477L286.638,102.715L286.708,102.954L286.779,103.198L286.916,103.678L287.051,104.164L287.184,104.654L287.314,105.146L287.442,105.642L287.567,106.141L287.69,106.643L287.811,107.149L287.929,107.659L288.045,108.171L288.158,108.687L288.269,109.207L288.378,109.729L288.484,110.254L288.588,110.782L288.689,111.314L288.789,111.85L288.885,112.389L288.98,112.93L289.072,113.477L289.162,114.027L289.249,114.578L289.334,115.133L289.417,115.693L289.497,116.256L289.575,116.821L289.65,117.39L289.724,117.963L289.795,118.538L289.864,119.118L289.93,119.701L289.994,120.287L290.056,120.877L290.115,121.47L290.172,122.066L290.227,122.667L290.279,123.271L290.33,123.878L290.377,124.489L290.423,125.102L290.466,125.719L290.507,126.339L290.546,126.964L290.583,127.594L290.631,128.49L290.609,129.129L290.593,129.508L290.576,129.886L290.556,130.263L290.534,130.637L290.51,131.01L290.484,131.384L290.456,131.757L290.426,132.126L290.394,132.495L290.359,132.865L290.322,133.231L290.284,133.597L290.243,133.961L290.2,134.325L290.155,134.687L290.109,135.048L290.059,135.408L290.009,135.765L289.956,136.123L289.9,136.482L289.843,136.836L289.784,137.188L289.723,137.542L289.66,137.892L289.595,138.241L289.527,138.591L289.457,138.941L289.386,139.287L289.314,139.629L289.239,139.973L289.161,140.317L289.082,140.659L289.001,140.999L288.917,141.338L288.833,141.674L288.746,142.011L288.657,142.346L288.566,142.679L288.473,143.012L288.379,143.344L288.282,143.673L288.184,144.001L288.083,144.33L287.981,144.655L287.877,144.979L287.771,145.305L287.663,145.627L287.553,145.947L287.442,146.267L287.329,146.583L287.214,146.9L287.097,147.216L286.978,147.53L286.857,147.844L286.735,148.154L286.61,148.465L286.484,148.775L286.356,149.081L286.227,149.386L286.095,149.693L285.962,149.995L285.828,150.297L285.69,150.599L285.552,150.898L285.412,151.196L285.271,151.49L285.128,151.785L284.982,152.082L284.835,152.374L284.687,152.663L284.538,152.952L284.385,153.24L284.231,153.528L284.076,153.814L283.918,154.099L283.76,154.381L283.602,154.659L283.44,154.94L283.276,155.22L283.112,155.494L282.945,155.772L282.777,156.045L282.609,156.316L282.437,156.589L282.264,156.859L282.091,157.125L281.915,157.393L281.737,157.659L281.559,157.923L281.378,158.186L281.197,158.446L281.014,158.705L280.829,158.964L280.644,159.22L280.457,159.474L280.267,159.729L280.077,159.981L279.885,160.231L279.693,160.48L279.498,160.728L279.302,160.975L279.105,161.219L278.906,161.463L278.706,161.705L278.505,161.944L278.303,162.184L278.098,162.422L277.894,162.657L277.686,162.892L277.479,163.124L277.271,163.355L277.059,163.586L276.848,163.814L276.635,164.041L276.42,164.268L276.205,164.491L275.989,164.712L275.771,164.933L275.551,165.154L275.33,165.373L275.11,165.588L274.888,165.802L274.664,166.016L274.438,166.23L274.212,166.44L273.986,166.648L273.757,166.856L273.528,167.062L273.297,167.266L273.065,167.47L272.832,167.671L272.599,167.871L272.364,168.069L272.128,168.266L271.891,168.461L271.653,168.656L271.414,168.848L271.173,169.039L270.932,169.229L270.69,169.416L270.447,169.603L270.203,169.788L269.959,169.971L269.713,170.153L269.465,170.334L269.216,170.514L268.967,170.691L268.719,170.866L268.469,171.04L268.216,171.214L267.963,171.386L267.71,171.556L267.456,171.724L267.2,171.891L266.944,172.057L266.687,172.221L266.431,172.383L266.172,172.544L265.911,172.705L265.651,172.862L265.39,173.018L265.128,173.174L264.865,173.327L264.602,173.479L264.338,173.63L264.072,173.78L263.806,173.927L263.541,174.073L263.273,174.218L263.004,174.362L262.737,174.503L262.467,174.643L262.197,174.782L261.925,174.92L261.653,175.056L261.381,175.19L261.108,175.323L260.835,175.454L260.561,175.584L260.285,175.713L260.01,175.84L259.734,175.965L259.456,176.09L259.179,176.213L258.901,176.334L258.622,176.453L258.342,176.572L258.064,176.688L257.783,176.804L257.501,176.918L257.219,177.03L256.937,177.141L256.655,177.25L256.371,177.359L256.086,177.466L255.802,177.571L255.518,177.674L255.232,177.776L254.947,177.877L254.66,177.977L254.372,178.075L254.085,178.171L253.797,178.266L253.509,178.36L253.22,178.452L252.931,178.542L252.641,178.632L252.35,178.72L252.06,178.806L251.769,178.891L251.477,178.974L251.186,179.056L250.893,179.137L250.6,179.216L250.306,179.294L250.013,179.37L249.72,179.445L249.425,179.519L249.131,179.591L248.836,179.661L248.54,179.731L248.244,179.798L247.949,179.865L247.652,179.929L247.356,179.993L247.058,180.055L246.761,180.116L246.464,180.175L246.166,180.232L245.868,180.289L245.569,180.344L245.27,180.397L244.972,180.449L244.672,180.5L244.372,180.549L244.073,180.597L243.773,180.643L243.473,180.688L243.172,180.732L242.871,180.774L242.571,180.815L242.269,180.854L241.968,180.892L241.667,180.928L241.366,180.963L241.063,180.997L240.761,181.029L240.459,181.06L240.157,181.089L239.855,181.117L239.552,181.144L239.249,181.169L238.946,181.193L238.643,181.215L238.14,181.25L62.065,181.25L61.685,181.249L61.305,181.246L60.926,181.241L60.548,181.235L60.171,181.227L59.795,181.218L59.421,181.207L59.047,181.194L58.675,181.18L58.304,181.164L57.935,181.146L57.566,181.127L57.198,181.106L56.832,181.084L56.467,181.06L56.103,181.034L55.741,181.007L55.379,180.979L55.019,180.948L54.659,180.916L54.302,180.883L53.945,180.848L53.589,180.811L53.235,180.773L52.882,180.733L52.53,180.691L52.179,180.648L51.83,180.603L51.481,180.557L51.134,180.509L50.788,180.46L50.443,180.409L50.1,180.356L49.757,180.302L49.416,180.247L49.077,180.189L48.737,180.131L48.4,180.07L48.064,180.008L47.728,179.945L47.395,179.88L47.062,179.813L46.731,179.745L46.4,179.675L46.071,179.603L45.743,179.531L45.417,179.456L45.091,179.38L44.767,179.302L44.444,179.223L44.123,179.143L43.802,179.06L43.483,178.976L43.166,178.891L42.848,178.804L42.533,178.716L42.219,178.626L41.906,178.534L41.594,178.441L41.283,178.347L40.974,178.25L40.667,178.153L40.36,178.054L40.055,177.953L39.75,177.851L39.448,177.747L39.146,177.641L38.845,177.534L38.547,177.426L38.249,177.316L37.953,177.205L37.657,177.092L37.364,176.978L37.071,176.862L36.779,176.744L36.489,176.625L36.201,176.504L35.914,176.382L35.627,176.259L35.343,176.134L35.06,176.007L34.778,175.879L34.497,175.75L34.217,175.618L33.939,175.486L33.663,175.352L33.387,175.216L33.113,175.079L32.841,174.941L32.57,174.801L32.299,174.659L32.031,174.516L31.764,174.372L31.498,174.226L31.234,174.079L30.97,173.929L30.709,173.779L30.448,173.628L30.19,173.475L29.933,173.32L29.676,173.163L29.421,173.006L29.169,172.847L28.917,172.687L28.667,172.525L28.417,172.362L28.17,172.197L27.924,172.031L27.68,171.864L27.437,171.695L27.194,171.524L26.953,171.351L26.715,171.178L26.48,171.005L26.243,170.828L26.008,170.65L25.776,170.473L25.544,170.292L25.313,170.11L25.087,169.928L24.86,169.744L24.634,169.558L24.409,169.37L24.188,169.182L23.967,168.993L23.747,168.801L23.53,168.609L23.315,168.416L23.1,168.222L22.886,168.024L22.674,167.826L22.466,167.629L22.257,167.428L22.049,167.225L21.846,167.025L21.641,166.819L21.438,166.613L21.239,166.407L21.04,166.2L20.844,165.992L20.647,165.78L20.452,165.568L20.26,165.355L20.07,165.142L19.88,164.926L19.693,164.71L19.506,164.491L19.321,164.271L19.141,164.054L18.959,163.832L18.779,163.608L18.601,163.386L18.426,163.162L18.251,162.935L18.077,162.707L17.908,162.481L17.738,162.251L17.569,162.019L17.404,161.789L17.239,161.555L17.075,161.321L16.915,161.086L16.756,160.852L16.597,160.614L16.442,160.377L16.287,160.136L16.134,159.895L15.983,159.655L15.833,159.412L15.687,159.17L15.541,158.927L15.396,158.68L15.253,158.433L15.112,158.184L14.974,157.937L14.837,157.69L14.7,157.438L14.566,157.186L14.433,156.933L14.303,156.681L14.175,156.428L14.047,156.172L13.922,155.915L13.797,155.657L13.676,155.401L13.557,155.144L13.437,154.883L13.32,154.622L13.205,154.359L13.091,154.096L12.98,153.835L12.871,153.573L12.762,153.307L12.655,153.04L12.55,152.773L12.447,152.507L12.346,152.238L12.246,151.969L12.148,151.701L12.052,151.429L11.957,151.157L11.865,150.887L11.773,150.613L11.684,150.339L11.596,150.063L11.51,149.787L11.426,149.513L11.344,149.236L11.263,148.961L11.184,148.682L11.107,148.402L11.031,148.122L10.957,147.841L10.885,147.562L10.814,147.28L10.745,146.997L10.678,146.713L10.613,146.432L10.549,146.147L10.487,145.861L10.426,145.575L10.368,145.288L10.311,145.003L10.256,144.715L10.202,144.423L10.151,144.137L10.101,143.85L10.052,143.556L10.005,143.265L9.96,142.976L9.917,142.683L9.875,142.39L9.835,142.097L9.796,141.803L9.76,141.508L9.725,141.213L9.692,140.92L9.66,140.624L9.63,140.327L9.602,140.029L9.575,139.731L9.55,139.433L9.527,139.134L9.505,138.835L9.485,138.535L9.467,138.237L9.45,137.936L9.435,137.632L9.422,137.332L9.41,137.03L9.4,136.724L9.392,136.423L9.385,136.119L9.38,135.815L9.377,135.51L9.375,135.198L9.375,134.97L9.378,134.736L9.383,134.505L9.39,134.269L9.399,134.031L9.41,133.792L9.424,133.551L9.439,133.309L9.456,133.065L9.476,132.816L9.497,132.569L9.52,132.321L9.545,132.07L9.572,131.818L9.602,131.56L9.633,131.301L9.666,131.043L9.7,130.784L9.738,130.516L9.776,130.253L9.817,129.989L9.859,129.719L9.904,129.447L9.951,129.174L9.999,128.902L10.049,128.625L10.101,128.347L10.155,128.066L10.211,127.784L10.269,127.501L10.33,127.216L10.391,126.929L10.456,126.638L10.522,126.348L10.59,126.056L10.659,125.763L10.731,125.466L10.805,125.169L10.881,124.872L10.959,124.57L11.039,124.267L11.121,123.966L11.205,123.663L11.292,123.353L11.379,123.047L11.469,122.741L11.561,122.43L11.656,122.116L11.753,121.803L11.851,121.491L11.952,121.176L12.054,120.86L12.159,120.543L12.266,120.225L12.375,119.907L12.486,119.587L12.6,119.266L12.716,118.943L12.833,118.62L12.953,118.297L13.075,117.972L13.2,117.647L13.326,117.32L13.456,116.992L13.586,116.666L13.719,116.34L13.855,116.01L13.993,115.681L14.133,115.353L14.275,115.023L14.42,114.692L14.567,114.361L14.717,114.03L14.868,113.699L15.022,113.367L15.178,113.037L15.336,112.705L15.498,112.372L15.662,112.04L15.828,111.708L15.997,111.375L16.167,111.043L16.34,110.712L16.516,110.379L16.694,110.048L16.875,109.718L17.058,109.386L17.243,109.056L17.432,108.724L17.623,108.393L17.816,108.065L18.012,107.735L18.211,107.406L18.412,107.078L18.615,106.751L18.821,106.424L19.032,106.096L19.242,105.772L19.456,105.448L19.675,105.122L19.893,104.801L20.115,104.479L20.341,104.157L20.569,103.837L20.8,103.518L21.034,103.199L21.27,102.883L21.509,102.568L21.751,102.253L21.997,101.939L22.244,101.628L22.494,101.319L22.748,101.009L23.005,100.701L23.265,100.395L23.526,100.092L23.792,99.789L24.06,99.488L24.327,99.194L24.47,99.039L24.605,98.893L24.744,98.744L24.884,98.596L25.022,98.451L25.165,98.302L25.306,98.157L25.446,98.013L25.591,97.866L25.736,97.721L25.879,97.579L26.024,97.435L26.171,97.291L26.316,97.151L26.464,97.009L26.615,96.865L26.763,96.726L26.911,96.588L27.064,96.446L27.216,96.306L27.367,96.17L27.52,96.032L27.675,95.894L27.83,95.758L27.986,95.622L28.142,95.486L28.3,95.351L28.456,95.219L28.615,95.085L28.775,94.953L28.936,94.82L29.097,94.689L29.259,94.558L29.423,94.428L29.584,94.301L29.749,94.172L29.917,94.043L30.083,93.915L30.249,93.79L30.416,93.665L30.585,93.54L30.754,93.416L30.925,93.293L31.096,93.17L31.269,93.048L31.441,92.928L31.615,92.808L31.79,92.688L31.965,92.57L32.141,92.452L32.318,92.335L32.496,92.22L32.674,92.105L32.854,91.991L33.034,91.877L33.216,91.765L33.397,91.653L33.58,91.543L33.764,91.433L33.948,91.324L34.135,91.215L34.321,91.108L34.506,91.004L34.694,90.899L34.884,90.793L35.074,90.69L35.262,90.589L35.453,90.488L35.646,90.387L35.839,90.288L36.033,90.19L36.229,90.092L36.424,89.996L36.619,89.902L36.815,89.808L37.014,89.715L37.213,89.623L37.412,89.532L37.612,89.443L37.813,89.354L38.016,89.266L38.218,89.18L38.42,89.095L38.625,89.011L38.832,88.927L39.036,88.846L39.242,88.765L39.451,88.685L39.66,88.607L39.868,88.53L40.077,88.454L40.289,88.379L40.501,88.305L40.713,88.233L40.927,88.162L41.139,88.092L41.353,88.024L41.57,87.956L41.787,87.889L42.003,87.825L42.219,87.761L42.438,87.699L42.659,87.637L42.878,87.578L43.098,87.519L43.321,87.462L43.542,87.406L43.765,87.351L43.989,87.298L44.213,87.246L44.439,87.196L44.664,87.147L44.891,87.099L45.118,87.052L45.346,87.007L45.574,86.963L45.804,86.921L46.035,86.88L46.265,86.84L46.497,86.802L46.729,86.765L46.961,86.73L47.195,86.696L47.43,86.664L47.664,86.633L47.9,86.603L48.136,86.575L48.373,86.548L48.611,86.523L48.849,86.499L49.087,86.477L49.327,86.456L49.567,86.436L49.808,86.419L50.049,86.402L50.292,86.387L50.534,86.374L50.777,86.362L51.021,86.352L51.266,86.343L51.511,86.335L51.757,86.329L52.003,86.325L52.25,86.322L52.497,86.321L52.745,86.321L52.994,86.323L53.243,86.327L53.493,86.331L53.744,86.338L53.994,86.346L54.246,86.356L54.498,86.367L54.751,86.379L55.005,86.394L55.258,86.41L55.512,86.427L55.768,86.446L56.024,86.467L56.28,86.489L56.536,86.513L56.793,86.538L57.051,86.565L57.31,86.594L57.568,86.624L57.828,86.656L58.087,86.689L58.347,86.724L58.608,86.761L58.87,86.799L59.132,86.839L59.394,86.881L59.658,86.924L59.921,86.969L60.185,87.015L60.45,87.063L60.715,87.113L60.98,87.164L61.246,87.217L61.513,87.272L61.78,87.328L62.048,87.386L62.317,87.446L62.585,87.507L62.854,87.57L63.125,87.635L63.394,87.701L63.665,87.769L63.936,87.839L64.207,87.91L64.48,87.983L64.753,88.058L65.027,88.134L65.3,88.213L65.574,88.292L65.849,88.374L66.125,88.457L66.4,88.542L66.676,88.628L66.954,88.717L67.231,88.807L67.508,88.898L67.787,88.992L68.066,89.087L68.344,89.183L68.625,89.282L68.905,89.382L69.186,89.484L69.467,89.588L69.749,89.694L70.032,89.801L70.315,89.91L70.598,90.021L70.882,90.133L71.167,90.247L71.452,90.363L71.737,90.481L72.023,90.601L72.311,90.722L72.597,90.845L72.884,90.97L73.173,91.097L73.462,91.225L73.751,91.355L74.04,91.487L74.331,91.621L74.621,91.756L74.913,91.894L75.204,92.033L75.497,92.174L75.789,92.316L76.083,92.461L76.378,92.608L76.672,92.756L76.967,92.906L77.263,93.058L77.559,93.211L77.855,93.367L78.152,93.524L78.45,93.684L78.75,93.845L79.048,94.008L79.347,94.172L79.603,94.314L79.606,94.28L79.656,93.75L79.709,93.222L79.764,92.694L79.821,92.167L79.88,91.644L79.941,91.122L80.005,90.601L80.071,90.083L80.138,89.566L80.208,89.05L80.28,88.536L80.354,88.025L80.431,87.515L80.509,87.007L80.589,86.501L80.672,85.996L80.756,85.495L80.843,84.994L80.932,84.493L81.023,83.995L81.116,83.5L81.211,83.007L81.308,82.515L81.407,82.024L81.509,81.535L81.612,81.049L81.717,80.565L81.825,80.081L81.934,79.599L82.046,79.12L82.159,78.643L82.275,78.168L82.392,77.694L82.512,77.221L82.634,76.751L82.758,76.283L82.884,75.816L83.011,75.353L83.141,74.89L83.273,74.427L83.407,73.968L83.543,73.512L83.68,73.056L83.82,72.602L83.962,72.152L84.106,71.701L84.252,71.253L84.399,70.808L84.549,70.363L84.701,69.921L84.854,69.482L85.01,69.042L85.168,68.606L85.328,68.17L85.49,67.738L85.653,67.307L85.818,66.879L85.986,66.452L86.156,66.025L86.326,65.604L86.5,65.183L86.675,64.763L86.852,64.346L87.031,63.93L87.212,63.517L87.395,63.105L87.58,62.696L87.767,62.288L87.955,61.884L88.146,61.479L88.338,61.077L88.532,60.678L88.728,60.281L88.927,59.885L89.127,59.49L89.328,59.1L89.532,58.711L89.738,58.322L89.946,57.935L90.155,57.554L90.365,57.172L90.579,56.791L90.794,56.415L91.01,56.04L91.23,55.665L91.45,55.293L91.672,54.925L91.896,54.559L92.122,54.193L92.35,53.828L92.58,53.468L92.81,53.11L93.044,52.753L93.279,52.397L93.516,52.045L93.754,51.695L93.995,51.346L94.238,50.999L94.482,50.655L94.726,50.315L94.974,49.974L95.223,49.636L95.474,49.301L95.728,48.966L95.983,48.635L96.238,48.307L96.496,47.98L96.756,47.655L97.017,47.332L97.281,47.011L97.546,46.693L97.813,46.376L98.081,46.064L98.35,45.753L98.622,45.443L98.896,45.135L99.171,44.831L99.448,44.527L99.726,44.228L100.007,43.929L100.289,43.633L100.572,43.34L100.858,43.047L101.143,42.76L101.432,42.472L101.723,42.187L102.014,41.905L102.307,41.625L102.602,41.348L102.899,41.072L103.196,40.8L103.497,40.528L103.799,40.26L104.101,39.995L104.405,39.731L104.711,39.469L105.018,39.211L105.327,38.955L105.638,38.7L105.95,38.448L106.264,38.199L106.579,37.951L106.896,37.707L107.213,37.465L107.534,37.224L107.855,36.987L108.177,36.752L108.501,36.52L108.827,36.29L109.154,36.062L109.482,35.837L109.813,35.613L110.144,35.393L110.476,35.176L110.81,34.96L111.145,34.748L111.482,34.537L111.821,34.329L112.16,34.123L112.502,33.92L112.844,33.72L113.187,33.522L113.532,33.326L113.879,33.133L114.225,32.943L114.575,32.755L114.926,32.569L115.276,32.387L115.63,32.206L115.984,32.028L116.339,31.853L116.697,31.68L117.053,31.51L117.412,31.343L117.773,31.178L118.134,31.015L118.497,30.855L118.861,30.698L119.227,30.543L119.592,30.391L119.959,30.242L120.329,30.094L120.698,29.95L121.069,29.808L121.44,29.67L121.813,29.533L122.188,29.399L122.563,29.268L122.939,29.139L123.317,29.013L123.696,28.889L124.075,28.768L124.456,28.65L124.837,28.535L125.22,28.422L125.603,28.312L125.988,28.204L126.374,28.099L126.76,27.997L127.147,27.897L127.537,27.799L127.926,27.705L128.316,27.613L128.708,27.524L129.1,27.438L129.493,27.354L129.887,27.273L130.282,27.194L130.679,27.118L131.075,27.045L131.473,26.975L131.872,26.907L132.27,26.842L132.671,26.779L133.072,26.719L133.474,26.662L133.877,26.607L134.28,26.556L134.684,26.506L135.09,26.46L135.496,26.416L135.902,26.375L136.309,26.337L136.718,26.301L137.127,26.268L137.536,26.237L137.947,26.209L138.357,26.184L138.769,26.162L139.182,26.142L139.595,26.125L140.009,26.111L140.423,26.099L140.839,26.09L141.255,26.084L141.665,26.08L142.157,26.078L142.641,26.078L143.123,26.078L143.603,26.08L144.082,26.083L144.558,26.088L145.033,26.093L145.505,26.1L145.976,26.109L146.445,26.119L146.913,26.13L147.378,26.142L147.842,26.156L148.305,26.171L148.765,26.188L149.223,26.205L149.68,26.225L150.135,26.245L150.588,26.267L151.04,26.291L151.489,26.316L151.938,26.342L152.384,26.37L152.829,26.399L153.271,26.43L153.713,26.462L154.152,26.495L154.591,26.53L155.027,26.567L155.461,26.605L155.894,26.644L156.326,26.685L156.755,26.727L157.183,26.771L157.61,26.817L158.035,26.864L158.458,26.912L158.88,26.962L159.3,27.014L159.718,27.067L160.135,27.122L160.551,27.178L160.965,27.236L161.376,27.295L161.787,27.357L162.197,27.419L162.604,27.484L163.01,27.549L163.415,27.617L163.818,27.686L164.219,27.757L164.619,27.83L165.018,27.904L165.415,27.98L165.81,28.057L166.204,28.137L166.596,28.218L166.988,28.3L167.378,28.385L167.765,28.471L168.152,28.559L168.537,28.648L168.921,28.74L169.304,28.833L169.684,28.928L170.063,29.025L170.441,29.123L170.818,29.224L171.192,29.326L171.567,29.43L171.939,29.535L172.31,29.643L172.679,29.753L173.047,29.864L173.413,29.977L173.778,30.092L174.142,30.209L174.504,30.328L174.865,30.448L175.224,30.571L175.582,30.695L175.94,30.822L176.295,30.95L176.648,31.08L177,31.213L177.351,31.347L177.701,31.483L178.049,31.621L178.395,31.761L178.741,31.903L179.085,32.047L179.426,32.193L179.768,32.341L180.108,32.491L180.446,32.643L180.783,32.797L181.118,32.953L181.452,33.111L181.785,33.271L182.116,33.433L182.445,33.597L182.773,33.763L183.101,33.932L183.426,34.102L183.749,34.274L184.072,34.448L184.393,34.625L184.712,34.803L185.031,34.984L185.348,35.167L185.662,35.35L185.976,35.537L186.289,35.726L186.601,35.917L186.91,36.11L187.217,36.305L187.524,36.502L187.828,36.701L188.132,36.902L188.435,37.106L188.736,37.311L189.034,37.518L189.332,37.728L189.628,37.94L189.922,38.153L190.216,38.369L190.508,38.587L190.798,38.807L191.086,39.028L191.374,39.252L191.659,39.478L191.943,39.706L192.227,39.937L192.508,40.169L192.788,40.403L193.066,40.639L193.343,40.878L193.618,41.118L193.892,41.361L194.165,41.606L194.436,41.852L194.704,42.1L194.973,42.351L195.239,42.604L195.504,42.858L195.768,43.115L196.029,43.374L196.291,43.635L196.549,43.897L196.807,44.162L197.064,44.429L197.318,44.698L197.572,44.97L197.824,45.242L198.073,45.516L198.322,45.792L198.57,46.071L198.816,46.352L199.062,46.637L199.304,46.92L199.546,47.207L199.787,47.496L200.025,47.786L200.263,48.079L200.499,48.373L200.735,48.671L200.969,48.97L201.199,49.269L201.431,49.572L201.661,49.877L201.888,50.182L202.116,50.492L202.341,50.802L202.565,51.114L202.788,51.428L203.01,51.745L203.23,52.063L203.449,52.383L203.667,52.706L203.883,53.029L204.098,53.355L204.313,53.684L204.526,54.014L204.737,54.345L204.946,54.678L205.156,55.015L205.365,55.354L205.571,55.693L205.776,56.034L205.98,56.378L206.183,56.723L206.386,57.072L206.587,57.422L206.786,57.773L206.985,58.127L207.182,58.481L207.378,58.839L207.575,59.2L207.769,59.562L207.961,59.924L208.153,60.289L208.344,60.657L208.534,61.027L208.723,61.398L208.911,61.772L209.098,62.147L209.284,62.524L209.469,62.905L209.653,63.287L209.836,63.671L210.017,64.054L210.198,64.442L210.379,64.833L210.558,65.225L210.735,65.617L210.914,66.015L211.09,66.413L211.265,66.812L211.44,67.214L211.613,67.617L211.786,68.024L211.958,68.433L212.129,68.842L212.299,69.256L212.469,69.669L212.637,70.086L212.805,70.505L212.972,70.926L213.138,71.348L213.304,71.775L213.469,72.202L213.632,72.631L213.795,73.063L213.957,73.495L214.119,73.931L214.281,74.37L214.441,74.811L214.6,75.252L214.758,75.695L214.917,76.142L215.074,76.592L215.23,77.042L215.649,76.878L216.163,76.681L216.674,76.486L217.185,76.294L217.695,76.104L218.203,75.918L218.709,75.734L219.215,75.553L219.719,75.375L220.222,75.199L220.723,75.027L221.224,74.857L221.722,74.69L222.219,74.526L222.716,74.365L223.211,74.207L223.705,74.051L224.198,73.898L224.688,73.749L225.178,73.602L225.666,73.458L226.154,73.317L226.64,73.179L227.125,73.044L227.608,72.912L228.09,72.783L228.571,72.656L229.051,72.533L229.529,72.412L230.006,72.295L230.482,72.181L230.957,72.069L231.43,71.961L231.902,71.855L232.373,71.753L232.842,71.654L233.311,71.557L233.779,71.464L234.244,71.374L234.708,71.287L235.172,71.203L235.634,71.122L236.095,71.044L236.555,70.969L237.014,70.897L237.471,70.829L237.927,70.764L238.382,70.702L238.836,70.643L239.288,70.587L239.739,70.534L240.189,70.485L240.638,70.439L241.085,70.396L241.532,70.356L241.977,70.32L242.421,70.287L242.864,70.257L243.305,70.231L243.745,70.208L244.185,70.188L244.622,70.172L245.053,70.159L245.277,70.154L245.495,70.15L245.712,70.146L245.929,70.143L246.146,70.142L246.362,70.141L246.578,70.141L246.793,70.142L247.009,70.143ZM142.193,38.578L141.745,38.58L141.403,38.583L141.069,38.588L140.735,38.595L140.401,38.605L140.069,38.616L139.737,38.63L139.407,38.646L139.078,38.664L138.749,38.684L138.421,38.706L138.094,38.73L137.768,38.757L137.443,38.785L137.119,38.816L136.795,38.848L136.473,38.883L136.152,38.92L135.831,38.959L135.512,39L135.193,39.043L134.875,39.089L134.558,39.136L134.243,39.185L133.927,39.237L133.613,39.29L133.301,39.346L132.988,39.403L132.677,39.463L132.367,39.524L132.057,39.588L131.749,39.654L131.441,39.722L131.135,39.792L130.829,39.863L130.524,39.937L130.221,40.013L129.918,40.091L129.616,40.171L129.315,40.253L129.015,40.337L128.716,40.423L128.418,40.511L128.121,40.601L127.825,40.693L127.529,40.787L127.236,40.883L126.943,40.98L126.65,41.081L126.358,41.183L126.069,41.286L125.779,41.392L125.49,41.501L125.203,41.61L124.916,41.722L124.631,41.836L124.347,41.952L124.062,42.07L123.78,42.19L123.498,42.311L123.217,42.435L122.938,42.561L122.659,42.688L122.381,42.818L122.103,42.95L121.828,43.083L121.553,43.219L121.279,43.357L121.007,43.496L120.734,43.638L120.463,43.781L120.194,43.926L119.923,44.074L119.656,44.224L119.389,44.375L119.123,44.528L118.857,44.684L118.593,44.841L118.33,45L118.068,45.161L117.808,45.324L117.547,45.49L117.288,45.657L117.029,45.826L116.771,45.997L116.516,46.17L116.261,46.345L116.007,46.522L115.754,46.701L115.502,46.882L115.25,47.065L115,47.25L114.751,47.436L114.503,47.625L114.256,47.817L114.01,48.009L113.765,48.204L113.521,48.4L113.279,48.599L113.037,48.8L112.795,49.003L112.556,49.208L112.317,49.414L112.079,49.624L111.842,49.834L111.608,50.046L111.373,50.262L111.14,50.478L110.907,50.697L110.676,50.918L110.446,51.141L110.216,51.365L109.989,51.591L109.761,51.821L109.536,52.051L109.311,52.284L109.087,52.519L108.865,52.756L108.644,52.995L108.424,53.235L108.204,53.479L107.987,53.723L107.77,53.969L107.554,54.219L107.339,54.471L107.125,54.723L106.913,54.978L106.702,55.235L106.493,55.494L106.284,55.755L106.076,56.018L105.869,56.284L105.664,56.551L105.46,56.819L105.258,57.091L105.056,57.364L104.856,57.638L104.656,57.917L104.457,58.197L104.261,58.478L104.066,58.76L103.871,59.046L103.678,59.334L103.486,59.623L103.296,59.914L103.106,60.209L102.918,60.505L102.732,60.801L102.547,61.101L102.362,61.404L102.178,61.709L101.997,62.015L101.817,62.321L101.639,62.631L101.46,62.944L101.284,63.257L101.11,63.573L100.935,63.893L100.763,64.212L100.593,64.533L100.423,64.858L100.254,65.187L100.087,65.514L99.923,65.844L99.758,66.177L99.595,66.512L99.434,66.848L99.275,67.186L99.116,67.528L98.959,67.87L98.803,68.216L98.649,68.562L98.496,68.911L98.345,69.262L98.195,69.614L98.047,69.969L97.9,70.326L97.754,70.687L97.611,71.047L97.468,71.41L97.327,71.775L97.188,72.143L97.05,72.513L96.914,72.883L96.779,73.257L96.646,73.631L96.514,74.009L96.383,74.39L96.255,74.77L96.127,75.155L96.002,75.54L95.878,75.927L95.756,76.317L95.635,76.708L95.516,77.102L95.398,77.499L95.282,77.896L95.168,78.294L95.056,78.696L94.944,79.101L94.835,79.507L94.727,79.915L94.621,80.325L94.517,80.735L94.414,81.149L94.313,81.566L94.213,81.984L94.115,82.404L94.02,82.825L93.926,83.248L93.833,83.675L93.742,84.103L93.653,84.532L93.566,84.964L93.48,85.397L93.396,85.834L93.314,86.273L93.233,86.712L93.155,87.152L93.079,87.595L93.003,88.043L92.93,88.49L92.859,88.94L92.789,89.392L92.721,89.845L92.655,90.301L92.591,90.759L92.529,91.217L92.468,91.679L92.41,92.143L92.353,92.607L92.298,93.075L92.245,93.545L92.194,94.015L92.145,94.488L92.097,94.964L92.052,95.442L92.008,95.92L91.966,96.401L91.927,96.883L91.889,97.368L91.853,97.856L91.819,98.344L91.787,98.835L91.757,99.327L91.729,99.821L91.702,100.318L91.678,100.816L91.656,101.317L91.636,101.818L91.618,102.322L91.601,102.828L91.587,103.335L91.575,103.845L91.565,104.357L91.557,104.87L91.465,112.704L87.661,114.645L81.401,110.221L81.117,110.021L80.835,109.825L80.553,109.63L80.273,109.438L79.993,109.246L79.714,109.058L79.438,108.872L79.16,108.686L78.884,108.504L78.609,108.323L78.334,108.144L78.061,107.967L77.79,107.793L77.519,107.62L77.247,107.448L76.978,107.279L76.709,107.112L76.441,106.946L76.174,106.783L75.909,106.622L75.644,106.463L75.379,106.305L75.116,106.149L74.855,105.996L74.592,105.844L74.332,105.694L74.073,105.545L73.814,105.399L73.556,105.255L73.3,105.112L73.044,104.971L72.788,104.832L72.535,104.695L72.282,104.56L72.029,104.426L71.778,104.294L71.527,104.164L71.278,104.036L71.029,103.91L70.781,103.785L70.535,103.662L70.29,103.541L70.045,103.422L69.8,103.304L69.558,103.189L69.315,103.074L69.074,102.962L68.834,102.851L68.595,102.742L68.356,102.635L68.118,102.529L67.883,102.426L67.646,102.323L67.411,102.222L67.178,102.123L66.945,102.026L66.713,101.93L66.482,101.836L66.251,101.744L66.022,101.653L65.794,101.564L65.566,101.476L65.341,101.39L65.115,101.306L64.89,101.223L64.666,101.142L64.443,101.062L64.222,100.984L64,100.907L63.78,100.832L63.562,100.759L63.343,100.687L63.125,100.616L62.91,100.547L62.694,100.48L62.479,100.413L62.266,100.349L62.053,100.286L61.84,100.224L61.629,100.164L61.42,100.105L61.211,100.048L61.003,99.992L60.795,99.938L60.589,99.885L60.383,99.833L60.178,99.783L59.975,99.734L59.771,99.687L59.569,99.641L59.368,99.596L59.168,99.553L58.969,99.51L58.77,99.47L58.573,99.43L58.376,99.392L58.18,99.356L57.985,99.32L57.79,99.286L57.597,99.253L57.405,99.222L57.213,99.191L57.022,99.162L56.833,99.134L56.644,99.108L56.455,99.082L56.268,99.058L56.082,99.035L55.896,99.014L55.711,98.993L55.527,98.974L55.344,98.956L55.161,98.939L54.98,98.923L54.8,98.909L54.62,98.895L54.44,98.883L54.262,98.872L54.085,98.862L53.908,98.853L53.732,98.845L53.557,98.838L53.382,98.833L53.209,98.828L53.036,98.825L52.864,98.823L52.693,98.821L52.522,98.821L52.352,98.822L52.184,98.824L52.015,98.827L51.847,98.831L51.681,98.836L51.515,98.842L51.349,98.849L51.184,98.857L51.02,98.866L50.858,98.876L50.695,98.887L50.533,98.899L50.372,98.912L50.211,98.926L50.052,98.941L49.892,98.957L49.734,98.974L49.576,98.992L49.42,99.01L49.263,99.03L49.107,99.051L48.952,99.072L48.798,99.094L48.643,99.118L48.49,99.142L48.338,99.167L48.185,99.193L48.034,99.22L47.884,99.248L47.734,99.277L47.584,99.307L47.435,99.337L47.287,99.368L47.138,99.401L46.992,99.434L46.845,99.467L46.699,99.502L46.554,99.538L46.408,99.575L46.264,99.612L46.12,99.65L45.976,99.689L45.834,99.729L45.693,99.769L45.55,99.811L45.408,99.853L45.268,99.896L45.129,99.94L44.989,99.985L44.848,100.031L44.71,100.077L44.572,100.124L44.434,100.172L44.298,100.22L44.161,100.27L44.024,100.32L43.888,100.371L43.754,100.423L43.619,100.476L43.483,100.53L43.35,100.583L43.218,100.638L43.083,100.694L42.951,100.751L42.82,100.807L42.688,100.866L42.556,100.925L42.425,100.984L42.295,101.044L42.167,101.105L42.037,101.167L41.906,101.23L41.777,101.293L41.65,101.357L41.523,101.422L41.395,101.487L41.27,101.553L41.143,101.62L41.015,101.688L40.889,101.757L40.766,101.825L40.641,101.895L40.514,101.967L40.39,102.038L40.268,102.109L40.144,102.182L40.022,102.255L39.899,102.329L39.777,102.404L39.655,102.48L39.534,102.556L39.413,102.633L39.292,102.71L39.172,102.789L39.052,102.868L38.933,102.947L38.814,103.028L38.696,103.109L38.578,103.19L38.459,103.273L38.342,103.356L38.225,103.44L38.109,103.524L37.993,103.609L37.877,103.695L37.761,103.781L37.644,103.87L37.53,103.957L37.417,104.044L37.304,104.132L37.188,104.224L37.075,104.314L36.962,104.405L36.85,104.496L36.738,104.588L36.627,104.68L36.515,104.774L36.403,104.869L36.292,104.964L36.182,105.059L36.073,105.155L35.964,105.251L35.855,105.348L35.747,105.445L35.636,105.545L35.529,105.643L35.424,105.741L35.315,105.842L35.206,105.944L35.103,106.043L34.997,106.145L34.89,106.249L34.785,106.351L34.68,106.454L34.574,106.56L34.471,106.664L34.37,106.767L34.265,106.874L34.16,106.982L34.06,107.086L33.957,107.195L33.856,107.302L33.755,107.41L33.652,107.521L33.557,107.624L33.353,107.849L33.154,108.071L32.958,108.295L32.762,108.522L32.569,108.75L32.378,108.979L32.188,109.211L31.998,109.445L31.811,109.681L31.626,109.917L31.443,110.155L31.261,110.396L31.08,110.638L30.902,110.88L30.725,111.125L30.549,111.372L30.376,111.618L30.204,111.867L30.033,112.119L29.865,112.369L29.699,112.622L29.532,112.877L29.37,113.131L29.209,113.386L29.048,113.645L28.89,113.903L28.734,114.162L28.579,114.421L28.426,114.683L28.275,114.944L28.126,115.206L27.977,115.47L27.832,115.733L27.687,115.998L27.545,116.264L27.404,116.529L27.265,116.795L27.128,117.062L26.993,117.328L26.86,117.595L26.728,117.863L26.599,118.129L26.47,118.397L26.343,118.667L26.219,118.935L26.096,119.203L25.975,119.471L25.856,119.739L25.739,120.007L25.623,120.274L25.509,120.543L25.397,120.81L25.287,121.076L25.178,121.344L25.071,121.612L24.966,121.877L24.864,122.141L24.762,122.406L24.663,122.669L24.566,122.933L24.469,123.197L24.376,123.457L24.284,123.719L24.193,123.979L24.104,124.239L24.017,124.498L23.932,124.755L23.849,125.011L23.768,125.266L23.687,125.522L23.609,125.775L23.534,126.023L23.46,126.272L23.387,126.523L23.315,126.771L23.247,127.014L23.18,127.259L23.113,127.503L23.05,127.742L22.988,127.98L22.928,128.218L22.869,128.454L22.813,128.685L22.758,128.917L22.704,129.147L22.653,129.375L22.603,129.597L22.555,129.82L22.509,130.04L22.464,130.258L22.421,130.474L22.38,130.686L22.341,130.896L22.303,131.103L22.267,131.311L22.232,131.512L22.2,131.71L22.169,131.905L22.139,132.101L22.111,132.293L22.085,132.474L22.061,132.66L22.038,132.841L22.017,133.016L21.997,133.186L21.979,133.357L21.962,133.523L21.947,133.686L21.933,133.844L21.922,133.994L21.911,134.144L21.902,134.289L21.894,134.429L21.888,134.564L21.883,134.695L21.879,134.82L21.877,134.944L21.875,135.058L21.875,135.173L21.876,135.403L21.879,135.64L21.883,135.876L21.888,136.112L21.895,136.349L21.902,136.581L21.911,136.814L21.922,137.049L21.933,137.278L21.946,137.508L21.96,137.741L21.975,137.971L21.992,138.199L22.01,138.427L22.029,138.654L22.049,138.88L22.07,139.105L22.093,139.33L22.117,139.553L22.142,139.779L22.169,140.001L22.196,140.222L22.225,140.443L22.255,140.663L22.286,140.882L22.319,141.1L22.353,141.32L22.387,141.536L22.423,141.749L22.461,141.967L22.499,142.183L22.539,142.394L22.579,142.606L22.622,142.82L22.665,143.031L22.709,143.241L22.755,143.45L22.802,143.658L22.85,143.869L22.899,144.075L22.949,144.281L23,144.486L23.054,144.693L23.107,144.896L23.162,145.098L23.218,145.3L23.275,145.501L23.334,145.703L23.393,145.903L23.455,146.104L23.516,146.301L23.579,146.498L23.643,146.693L23.708,146.888L23.775,147.085L23.843,147.279L23.911,147.471L23.982,147.665L24.052,147.856L24.124,148.046L24.198,148.238L24.272,148.426L24.347,148.614L24.424,148.8L24.502,148.989L24.582,149.176L24.662,149.361L24.742,149.544L24.824,149.727L24.907,149.908L24.993,150.092L25.079,150.274L25.165,150.454L25.253,150.632L25.341,150.81L25.432,150.989L25.524,151.167L25.616,151.343L25.709,151.517L25.803,151.69L25.9,151.866L25.998,152.04L26.095,152.211L26.193,152.381L26.293,152.551L26.395,152.722L26.499,152.892L26.602,153.059L26.707,153.228L26.812,153.393L26.919,153.558L27.028,153.724L27.136,153.887L27.247,154.052L27.359,154.215L27.471,154.376L27.585,154.536L27.7,154.697L27.815,154.856L27.932,155.013L28.053,155.174L28.171,155.33L28.291,155.485L28.414,155.641L28.537,155.797L28.661,155.95L28.785,156.102L28.914,156.257L29.04,156.407L29.168,156.557L29.299,156.708L29.429,156.856L29.562,157.005L29.696,157.153L29.83,157.299L29.965,157.444L30.102,157.59L30.241,157.735L30.381,157.879L30.521,158.021L30.661,158.162L30.806,158.305L30.95,158.445L31.094,158.584L31.243,158.725L31.389,158.862L31.537,158.998L31.688,159.135L31.84,159.271L31.993,159.407L32.146,159.54L32.302,159.674L32.458,159.807L32.615,159.937L32.773,160.067L32.934,160.198L33.097,160.329L33.258,160.456L33.421,160.583L33.588,160.711L33.753,160.836L33.92,160.961L34.091,161.087L34.262,161.21L34.432,161.332L34.604,161.453L34.778,161.575L34.954,161.695L35.131,161.815L35.309,161.933L35.488,162.05L35.669,162.167L35.851,162.283L36.035,162.399L36.219,162.513L36.404,162.625L36.592,162.738L36.781,162.85L36.971,162.961L37.162,163.071L37.353,163.179L37.548,163.287L37.743,163.395L37.94,163.501L38.138,163.607L38.336,163.71L38.537,163.814L38.74,163.917L38.943,164.019L39.148,164.119L39.354,164.219L39.562,164.319L39.77,164.416L39.98,164.513L40.192,164.609L40.405,164.705L40.62,164.799L40.836,164.892L41.053,164.984L41.272,165.076L41.492,165.166L41.712,165.255L41.935,165.343L42.16,165.431L42.386,165.517L42.613,165.603L42.841,165.687L43.072,165.771L43.303,165.853L43.535,165.934L43.769,166.014L44.004,166.093L44.242,166.172L44.48,166.249L44.721,166.325L44.962,166.4L45.204,166.474L45.448,166.547L45.693,166.618L45.941,166.689L46.189,166.759L46.439,166.827L46.691,166.895L46.943,166.961L47.197,167.027L47.453,167.091L47.71,167.154L47.969,167.216L48.229,167.276L48.49,167.336L48.753,167.394L49.017,167.452L49.283,167.508L49.55,167.563L49.819,167.617L50.09,167.67L50.361,167.721L50.634,167.771L50.908,167.82L51.184,167.868L51.462,167.915L51.74,167.961L52.021,168.005L52.303,168.048L52.585,168.09L52.87,168.13L53.156,168.17L53.444,168.208L53.733,168.245L54.023,168.281L54.315,168.315L54.609,168.348L54.903,168.38L55.199,168.411L55.497,168.44L55.797,168.468L56.097,168.495L56.399,168.52L56.703,168.544L57.008,168.567L57.314,168.589L57.622,168.609L57.931,168.628L58.242,168.645L58.554,168.661L58.868,168.676L59.183,168.69L59.5,168.702L59.818,168.713L60.137,168.722L60.458,168.73L60.781,168.737L61.104,168.742L61.429,168.746L61.756,168.749L62.087,168.75L237.709,168.75L237.754,168.747L237.998,168.729L238.243,168.71L238.488,168.689L238.732,168.668L238.976,168.645L239.221,168.622L239.464,168.597L239.708,168.571L239.951,168.544L240.195,168.515L240.438,168.486L240.681,168.455L240.924,168.424L241.166,168.391L241.408,168.357L241.65,168.322L241.892,168.286L242.133,168.248L242.375,168.21L242.616,168.17L242.856,168.13L243.097,168.088L243.337,168.045L243.576,168.001L243.816,167.955L244.055,167.909L244.294,167.861L244.533,167.813L244.77,167.763L245.008,167.712L245.246,167.66L245.483,167.607L245.72,167.553L245.956,167.498L246.192,167.441L246.427,167.384L246.662,167.325L246.897,167.265L247.132,167.204L247.366,167.142L247.599,167.079L247.832,167.015L248.065,166.949L248.297,166.883L248.529,166.815L248.761,166.746L248.991,166.677L249.221,166.606L249.451,166.533L249.681,166.46L249.909,166.386L250.138,166.311L250.366,166.234L250.593,166.156L250.82,166.078L251.046,165.998L251.272,165.917L251.498,165.835L251.723,165.752L251.947,165.668L252.17,165.583L252.393,165.496L252.616,165.409L252.837,165.32L253.058,165.231L253.278,165.14L253.499,165.048L253.719,164.955L253.938,164.861L254.156,164.766L254.374,164.67L254.59,164.573L254.807,164.474L255.023,164.375L255.237,164.275L255.452,164.173L255.666,164.07L255.88,163.966L256.092,163.861L256.303,163.755L256.514,163.649L256.724,163.541L256.933,163.432L257.143,163.321L257.351,163.21L257.558,163.098L257.765,162.984L257.972,162.869L258.176,162.754L258.381,162.638L258.585,162.52L258.788,162.401L258.99,162.281L259.192,162.16L259.394,162.038L259.592,161.916L259.79,161.792L259.99,161.666L260.188,161.54L260.385,161.413L260.581,161.284L260.776,161.155L260.97,161.025L261.164,160.893L261.356,160.761L261.548,160.628L261.74,160.492L261.931,160.356L262.12,160.22L262.307,160.083L262.494,159.944L262.682,159.804L262.868,159.662L263.053,159.521L263.238,159.377L263.421,159.233L263.604,159.088L263.785,158.942L263.965,158.795L264.145,158.647L264.324,158.497L264.502,158.347L264.679,158.195L264.856,158.043L265.03,157.89L265.205,157.735L265.379,157.579L265.55,157.423L265.723,157.265L265.894,157.105L266.062,156.947L266.23,156.787L266.398,156.624L266.566,156.46L266.732,156.296L266.895,156.132L267.059,155.966L267.223,155.798L267.385,155.629L267.545,155.461L267.705,155.29L267.864,155.119L268.02,154.947L268.178,154.773L268.334,154.598L268.488,154.423L268.643,154.245L268.795,154.068L268.946,153.89L269.098,153.709L269.247,153.528L269.396,153.346L269.543,153.163L269.689,152.979L269.835,152.794L269.979,152.608L270.123,152.42L270.265,152.231L270.405,152.043L270.546,151.852L270.685,151.659L270.823,151.467L270.96,151.273L271.096,151.077L271.231,150.881L271.364,150.685L271.496,150.487L271.626,150.288L271.758,150.086L271.887,149.884L272.013,149.684L272.141,149.478L272.267,149.273L272.39,149.069L272.515,148.859L272.636,148.652L272.756,148.444L272.878,148.231L272.997,148.018L273.114,147.806L273.23,147.593L273.345,147.379L273.458,147.164L273.572,146.945L273.684,146.725L273.794,146.505L273.902,146.287L274.01,146.065L274.118,145.839L274.223,145.615L274.328,145.389L274.43,145.164L274.532,144.936L274.633,144.706L274.731,144.477L274.83,144.245L274.927,144.011L275.022,143.778L275.116,143.544L275.209,143.307L275.301,143.07L275.391,142.832L275.48,142.592L275.567,142.351L275.654,142.107L275.739,141.863L275.823,141.618L275.905,141.372L275.986,141.127L276.066,140.878L276.144,140.627L276.221,140.378L276.296,140.125L276.371,139.87L276.444,139.616L276.515,139.361L276.585,139.102L276.653,138.844L276.72,138.585L276.787,138.322L276.851,138.06L276.914,137.797L276.975,137.532L277.035,137.267L277.093,137L277.151,136.728L277.207,136.457L277.26,136.187L277.313,135.916L277.364,135.641L277.414,135.364L277.462,135.089L277.508,134.809L277.554,134.528L277.597,134.251L277.638,133.969L277.679,133.684L277.718,133.399L277.755,133.113L277.79,132.826L277.824,132.537L277.857,132.247L277.888,131.955L277.917,131.661L277.944,131.369L277.97,131.072L277.995,130.774L278.017,130.477L278.038,130.178L278.057,129.876L278.075,129.572L278.091,129.269L278.105,128.964L278.117,128.658L278.119,128.609L278.102,128.291L278.069,127.714L278.033,127.14L277.995,126.568L277.955,126.002L277.914,125.439L277.87,124.881L277.824,124.327L277.776,123.777L277.726,123.231L277.674,122.688L277.621,122.151L277.565,121.617L277.507,121.086L277.447,120.561L277.385,120.04L277.321,119.521L277.255,119.008L277.188,118.498L277.118,117.991L277.046,117.49L276.973,116.993L276.897,116.499L276.82,116.009L276.741,115.524L276.66,115.044L276.576,114.566L276.491,114.092L276.404,113.624L276.316,113.158L276.225,112.696L276.132,112.238L276.038,111.785L275.942,111.337L275.844,110.891L275.745,110.45L275.643,110.014L275.54,109.58L275.435,109.151L275.328,108.725L275.219,108.304L275.109,107.887L274.997,107.473L274.883,107.064L274.767,106.656L274.709,106.459L274.651,106.258L274.591,106.058L274.531,105.859L274.472,105.664L274.411,105.467L274.351,105.275L274.289,105.08L274.227,104.883L274.165,104.693L274.103,104.504L274.039,104.31L273.976,104.12L273.913,103.934L273.85,103.75L273.785,103.563L273.718,103.374L273.654,103.192L273.588,103.008L273.522,102.825L273.456,102.646L273.388,102.462L273.32,102.282L273.254,102.106L273.187,101.931L273.118,101.754L273.047,101.575L272.979,101.403L272.909,101.229L272.839,101.056L272.769,100.884L272.698,100.713L272.628,100.546L272.556,100.376L272.484,100.208L272.412,100.041L272.339,99.875L272.267,99.712L272.193,99.548L272.118,99.382L272.045,99.223L271.972,99.064L271.896,98.901L271.821,98.741L271.746,98.586L271.67,98.428L271.594,98.272L271.517,98.116L271.44,97.961L271.363,97.808L271.285,97.655L271.207,97.503L271.131,97.355L271.052,97.205L270.973,97.056L270.893,96.908L270.814,96.761L270.733,96.615L270.653,96.47L270.574,96.328L270.491,96.182L270.41,96.039L270.33,95.901L270.248,95.76L270.166,95.621L270.083,95.482L270,95.344L269.917,95.207L269.834,95.071L269.752,94.939L269.667,94.805L269.581,94.669L269.496,94.536L269.413,94.408L269.327,94.277L269.242,94.148L269.156,94.019L269.07,93.891L268.983,93.764L268.896,93.638L268.809,93.513L268.721,93.389L268.633,93.265L268.546,93.143L268.459,93.024L268.368,92.9L268.279,92.78L268.192,92.664L268.102,92.546L268.011,92.426L267.921,92.309L267.832,92.196L267.742,92.082L267.648,91.965L267.557,91.852L267.468,91.742L267.376,91.631L267.284,91.52L267.191,91.41L267.096,91.299L267.003,91.191L266.912,91.086L266.819,90.979L266.725,90.873L266.631,90.769L266.534,90.662L266.44,90.559L266.347,90.459L266.251,90.357L266.156,90.256L266.06,90.156L265.961,90.054L265.865,89.956L265.771,89.861L265.673,89.763L265.574,89.665L265.477,89.57L265.381,89.477L265.282,89.383L265.182,89.288L265.083,89.196L264.984,89.104L264.885,89.013L264.787,88.925L264.685,88.833L264.585,88.745L264.484,88.656L264.383,88.569L264.282,88.483L264.178,88.395L264.079,88.312L263.976,88.227L263.872,88.142L263.771,88.061L263.668,87.978L263.563,87.895L263.459,87.814L263.355,87.734L263.25,87.655L263.146,87.576L263.041,87.498L262.936,87.421L262.83,87.343L262.723,87.267L262.615,87.191L262.509,87.116L262.404,87.044L262.294,86.968L262.186,86.896L262.078,86.824L261.97,86.752L261.861,86.682L261.75,86.61L261.64,86.541L261.533,86.473L261.422,86.405L261.31,86.336L261.198,86.269L261.087,86.203L260.973,86.136L260.861,86.071L260.751,86.008L260.636,85.943L260.523,85.88L260.409,85.818L260.295,85.756L260.18,85.694L260.063,85.633L259.948,85.573L259.833,85.513L259.716,85.455L259.6,85.396L259.483,85.339L259.365,85.282L259.246,85.225L259.127,85.169L259.009,85.114L258.89,85.059L258.77,85.006L258.649,84.952L258.528,84.899L258.407,84.847L258.286,84.795L258.164,84.744L258.04,84.694L257.918,84.644L257.794,84.595L257.671,84.546L257.546,84.498L257.42,84.45L257.295,84.404L257.17,84.358L257.044,84.312L256.917,84.267L256.789,84.223L256.661,84.179L256.533,84.136L256.404,84.093L256.275,84.051L256.145,84.01L256.015,83.969L255.884,83.929L255.754,83.889L255.621,83.85L255.488,83.811L255.357,83.774L255.224,83.737L255.088,83.7L254.954,83.664L254.819,83.629L254.684,83.594L254.55,83.56L254.412,83.526L254.274,83.493L254.137,83.461L254,83.429L253.861,83.398L253.721,83.367L253.582,83.338L253.442,83.308L253.301,83.28L253.16,83.252L253.017,83.224L252.875,83.197L252.733,83.171L252.589,83.145L252.446,83.12L252.301,83.096L252.155,83.072L252.009,83.049L251.863,83.027L251.717,83.005L251.569,82.984L251.422,82.963L251.273,82.943L251.124,82.924L250.974,82.905L250.825,82.887L250.674,82.869L250.522,82.852L250.371,82.836L250.218,82.821L250.065,82.806L249.911,82.791L249.757,82.778L249.603,82.765L249.448,82.752L249.292,82.741L249.135,82.73L248.978,82.719L248.821,82.709L248.663,82.7L248.504,82.692L248.345,82.684L248.185,82.677L248.025,82.67L247.864,82.664L247.702,82.659L247.54,82.654L247.378,82.65L247.215,82.647L247.05,82.645L246.886,82.643L246.721,82.641L246.556,82.641L246.39,82.641L246.223,82.641L246.056,82.643L245.888,82.645L245.72,82.648L245.55,82.651L245.387,82.655L245.041,82.665L244.697,82.678L244.352,82.693L244.004,82.712L243.655,82.732L243.303,82.756L242.948,82.782L242.592,82.812L242.233,82.843L241.872,82.878L241.508,82.915L241.143,82.955L240.775,82.998L240.405,83.044L240.033,83.092L239.659,83.143L239.282,83.197L238.903,83.254L238.522,83.313L238.139,83.376L237.753,83.441L237.366,83.509L236.976,83.579L236.584,83.653L236.19,83.729L235.793,83.808L235.396,83.89L234.995,83.975L234.592,84.062L234.188,84.153L233.781,84.246L233.372,84.342L232.961,84.441L232.548,84.543L232.133,84.647L231.716,84.754L231.296,84.864L230.875,84.977L230.452,85.093L230.026,85.212L229.599,85.333L229.17,85.457L228.738,85.585L228.304,85.714L227.868,85.847L227.431,85.983L226.992,86.121L226.55,86.262L226.107,86.406L225.662,86.553L225.214,86.703L224.765,86.855L224.314,87.01L223.86,87.168L223.405,87.329L222.948,87.493L222.489,87.66L222.028,87.829L221.566,88.001L221.101,88.176L220.634,88.354L220.166,88.534L219.695,88.717L219.223,88.903L218.749,89.092L218.273,89.284L217.795,89.478L217.315,89.676L216.834,89.876L216.351,90.078L215.865,90.284L215.379,90.492L214.89,90.703L214.399,90.917L207.501,93.951L207.455,93.93L205.265,86.79L205.126,86.341L204.985,85.891L204.845,85.445L204.704,85.001L204.562,84.561L204.421,84.124L204.279,83.688L204.136,83.255L203.993,82.824L203.85,82.396L203.706,81.97L203.562,81.548L203.417,81.129L203.272,80.711L203.127,80.296L202.981,79.885L202.834,79.474L202.687,79.066L202.54,78.661L202.393,78.261L202.245,77.862L202.096,77.463L201.947,77.069L201.797,76.677L201.647,76.287L201.497,75.902L201.346,75.517L201.194,75.135L201.043,74.757L200.89,74.379L200.737,74.005L200.584,73.634L200.429,73.264L200.275,72.897L200.12,72.534L199.964,72.171L199.808,71.812L199.651,71.454L199.495,71.1L199.338,70.75L199.179,70.399L199.021,70.052L198.862,69.709L198.702,69.367L198.541,69.026L198.38,68.688L198.22,68.355L198.058,68.023L197.895,67.693L197.732,67.365L197.569,67.04L197.405,66.717L197.24,66.397L197.075,66.08L196.909,65.764L196.742,65.449L196.575,65.139L196.409,64.832L196.241,64.527L196.071,64.221L195.902,63.92L195.732,63.621L195.562,63.324L195.392,63.031L195.22,62.739L195.047,62.449L194.874,62.161L194.7,61.875L194.527,61.593L194.353,61.314L194.177,61.035L194.001,60.758L193.824,60.484L193.648,60.213L193.47,59.944L193.291,59.676L193.112,59.411L192.932,59.149L192.752,58.888L192.571,58.63L192.39,58.374L192.207,58.12L192.024,57.868L191.841,57.619L191.656,57.37L191.472,57.126L191.286,56.883L191.099,56.64L190.912,56.402L190.725,56.165L190.536,55.929L190.347,55.697L190.156,55.465L189.966,55.237L189.775,55.01L189.582,54.784L189.391,54.563L189.197,54.342L189.003,54.123L188.807,53.906L188.61,53.69L188.414,53.477L188.217,53.267L188.018,53.057L187.82,52.851L187.62,52.645L187.419,52.441L187.218,52.24L187.015,52.039L186.812,51.842L186.607,51.645L186.403,51.451L186.197,51.259L185.989,51.067L185.782,50.878L185.574,50.691L185.364,50.506L185.154,50.322L184.942,50.14L184.73,49.959L184.516,49.781L184.302,49.604L184.087,49.429L183.871,49.255L183.653,49.083L183.435,48.913L183.215,48.744L182.994,48.576L182.773,48.412L182.551,48.248L182.326,48.085L182.101,47.925L181.876,47.766L181.647,47.607L181.419,47.452L181.191,47.298L180.96,47.145L180.727,46.993L180.494,46.843L180.259,46.694L180.023,46.547L179.787,46.402L179.549,46.259L179.309,46.116L179.067,45.974L178.825,45.834L178.582,45.697L178.337,45.56L178.091,45.424L177.843,45.291L177.593,45.158L177.342,45.026L177.091,44.897L176.838,44.769L176.582,44.642L176.326,44.516L176.069,44.393L175.809,44.27L175.547,44.148L175.286,44.028L175.021,43.909L174.756,43.792L174.489,43.677L174.22,43.562L173.949,43.448L173.677,43.337L173.403,43.226L173.128,43.117L172.852,43.009L172.573,42.903L172.292,42.797L172.01,42.693L171.726,42.591L171.441,42.49L171.154,42.39L170.864,42.291L170.574,42.194L170.282,42.098L169.987,42.003L169.691,41.91L169.393,41.818L169.093,41.727L168.792,41.638L168.488,41.55L168.183,41.463L167.876,41.378L167.567,41.293L167.255,41.21L166.943,41.129L166.628,41.049L166.311,40.97L165.993,40.892L165.673,40.816L165.35,40.741L165.026,40.667L164.699,40.595L164.371,40.523L164.041,40.454L163.709,40.385L163.374,40.318L163.038,40.252L162.7,40.187L162.36,40.124L162.018,40.062L161.673,40.001L161.327,39.941L160.979,39.883L160.628,39.826L160.275,39.771L159.921,39.716L159.564,39.663L159.206,39.612L158.845,39.561L158.482,39.512L158.117,39.464L157.75,39.417L157.381,39.372L157.01,39.328L156.636,39.285L156.261,39.244L155.883,39.204L155.503,39.165L155.121,39.127L154.738,39.09L154.351,39.055L153.963,39.021L153.573,38.989L153.18,38.957L152.785,38.927L152.388,38.898L151.989,38.871L151.587,38.845L151.184,38.819L150.778,38.796L150.37,38.773L149.96,38.752L149.547,38.732L149.133,38.713L148.716,38.695L148.296,38.679L147.875,38.664L147.452,38.65L147.026,38.637L146.598,38.626L146.167,38.615L145.735,38.607L145.3,38.599L144.863,38.592L144.424,38.587L143.982,38.583L143.538,38.58L143.092,38.578L142.644,38.578L142.193,38.578Z" style="fill:#989898;"/>
    <path d="M62.076,175C31.739,174.958 15.697,158.382 15.625,135.185C15.58,120.755 33.891,68.846 85.301,105.324C85.758,59.14 109.571,32.506 141.705,32.33C181.853,32.111 199.135,45.374 211.381,85.417C255.097,66.103 281.671,76.582 284.375,128.549C283.433,157.957 261.314,173.44 237.924,175L62.076,175Z" style="fill:url(#_Radial1);"/>
    <path d="M147.118,162.772C133.107,183.026 118.83,196.35 115.868,206.522C113.166,215.802 133.578,234.629 147.118,219.022C155.537,209.317 156.117,192.712 147.118,162.772Z" style="fill:none;stroke:#00658e;stroke-width:12.5px;"/>
    <path d="M147.118,162.772C133.107,183.026 118.83,196.35 115.868,206.522C113.166,215.802 133.578,234.629 147.118,219.022C155.537,209.317 156.117,192.712 147.118,162.772Z" style="fill:url(#_Radial2);"/>
    <path d="M203.368,218.75C189.357,239.005 175.08,252.328 172.118,262.5C169.416,271.78 189.828,290.607 203.368,275C211.787,265.296 212.367,248.69 203.368,218.75Z" style="fill:none;stroke:#00658e;stroke-width:12.5px;"/>
    <path d="M203.368,218.75C189.357,239.005 175.08,252.328 172.118,262.5C169.416,271.78 189.828,290.607 203.368,275C211.787,265.296 212.367,248.69 203.368,218.75Z" style="fill:url(#_Radial3);"/>
    <defs>
        <radialGradient id="_Radial1" cx="0" cy="0" r="1" gradientUnits="userSpaceOnUse" gradientTransform="matrix(268.75,0,0,268.75,68.75,62.5)"><stop offset="0" style="stop-color:#d0d0d0;stop-opacity:1"/><stop offset="0.33" style="stop-color:#d0d0d0;stop-opacity:1"/><stop offset="0.42" style="stop-color:#d0d0d0;stop-opacity:1"/><stop offset="0.5" style="stop-color:#d1d1d1;stop-opacity:1"/><stop offset="0.5" style="stop-color:#bcbcbc;stop-opacity:1"/><stop offset="0.58" style="stop-color:#bdbdbd;stop-opacity:1"/><stop offset="0.67" style="stop-color:#bdbdbd;stop-opacity:1"/><stop offset="1" style="stop-color:#bdbdbd;stop-opacity:1"/></radialGradient>
        <radialGradient id="_Radial2" cx="0" cy="0" r="1" gradientUnits="userSpaceOnUse" gradientTransform="matrix(106.994,0,0,106.994,93.9932,173.709)"><stop offset="0" style="stop-color:#00aff0;stop-opacity:1"/><stop offset="0.33" style="stop-color:#00b0f0;stop-opacity:1"/><stop offset="0.42" style="stop-color:#00b2f0;stop-opacity:1"/><stop offset="0.5" style="stop-color:#00b5f1;stop-opacity:1"/><stop offset="0.5" style="stop-color:#008dcd;stop-opacity:1"/><stop offset="0.58" style="stop-color:#008fce;stop-opacity:1"/><stop offset="0.67" style="stop-color:#0091cf;stop-opacity:1"/><stop offset="1" style="stop-color:#0092cf;stop-opacity:1"/></radialGradient>
        <radialGradient id="_Radial3" cx="0" cy="0" r="1" gradientUnits="userSpaceOnUse" gradientTransform="matrix(106.994,0,0,106.994,150.243,229.688)"><stop offset="0" style="stop-color:#00aff0;stop-opacity:1"/><stop offset="0.33" style="stop-color:#00b0f0;stop-opacity:1"/><stop offset="0.42" style="stop-color:#00b2f0;stop-opacity:1"/><stop offset="0.5" style="stop-color:#00b5f1;stop-opacity:1"/><stop offset="0.5" style="stop-color:#008dcd;stop-opacity:1"/><stop offset="0.58" style="stop-color:#008fce;stop-opacity:1"/><stop offset="0.67" style="stop-color:#0091cf;stop-opacity:1"/><stop offset="1" style="stop-color:#0092cf;stop-opacity:1"/></radialGradient>
    </defs>
</svg>
