<?xml version="1.0" encoding="UTF-8" standalone="no"?>
<!DOCTYPE svg PUBLIC "-//W3C//DTD SVG 1.1//EN" "http://www.w3.org/Graphics/SVG/1.1/DTD/svg11.dtd">
<svg width="100%" height="100%" viewBox="0 0 96 96" version="1.1" xmlns="http://www.w3.org/2000/svg" xmlns:xlink="http://www.w3.org/1999/xlink" xml:space="preserve" xmlns:serif="http://www.serif.com/" style="fill-rule:evenodd;clip-rule:evenodd;stroke-linejoin:round;stroke-miterlimit:1.41421;">
    <g>
        <path d="M48.748,66.374C48.657,66.657 48.182,66.872 48.317,67.975C48.317,67.975 50.259,69.688 52.567,70.314C54.608,70.868 57.554,71.41 57.554,71.41C64.136,72.614 72.067,72.766 75.095,79.281C76.403,82.094 76.258,85.506 74.61,88.229C73.001,90.89 69.3,93.101 67.574,94.058C66.606,94.595 65.193,94.39 64.256,93.974C63.319,93.557 62.323,92.515 61.952,91.559C61.582,90.604 61.622,89.177 62.032,88.241C62.443,87.306 63.516,86.582 64.417,85.945C65.606,85.105 68.309,85.164 69.167,83.2C70.526,80.087 64.841,77.63 61.417,76.48C57.105,75.032 52.527,74.291 48.539,71.952C47.295,71.222 46.138,70.185 45.761,68.698C45.761,68.698 45.466,66.688 46.426,65.351C47.409,63.981 49.73,63.275 50.66,62.993C51.139,62.848 51.893,63.324 52.007,63.66C52.12,63.995 51.726,64.687 51.34,65.007C50.816,65.443 49.291,66.048 48.859,66.276C48.815,66.299 48.763,66.327 48.748,66.374Z" style="fill:none;stroke:#fff;stroke-width:2px;"/>
        <path d="M48.748,66.374C48.657,66.657 48.182,66.872 48.317,67.975C48.317,67.975 50.259,69.688 52.567,70.314C54.608,70.868 57.554,71.41 57.554,71.41C64.136,72.614 72.067,72.766 75.095,79.281C76.403,82.094 76.258,85.506 74.61,88.229C73.001,90.89 69.3,93.101 67.574,94.058C66.606,94.595 65.193,94.39 64.256,93.974C63.319,93.557 62.323,92.515 61.952,91.559C61.582,90.604 61.622,89.177 62.032,88.241C62.443,87.306 63.516,86.582 64.417,85.945C65.606,85.105 68.309,85.164 69.167,83.2C70.526,80.087 64.841,77.63 61.417,76.48C57.105,75.032 52.527,74.291 48.539,71.952C47.295,71.222 46.138,70.185 45.761,68.698C45.761,68.698 45.466,66.688 46.426,65.351C47.409,63.981 49.73,63.275 50.66,62.993C51.139,62.848 51.893,63.324 52.007,63.66C52.12,63.995 51.726,64.687 51.34,65.007C50.816,65.443 49.291,66.048 48.859,66.276C48.815,66.299 48.763,66.327 48.748,66.374Z" style="fill:#6d6d6d;fill-rule:nonzero;"/>
        <path d="M32.751,67.477C32.685,67.698 32.223,68.343 32.443,68.702C33.014,69.634 34.245,71.21 36.177,73.069C36.363,73.251 36.363,73.251 36.548,73.435C39.748,76.691 40.844,82.179 35.259,87.499C32.195,90.417 26.762,93.055 24.405,94.12C23.403,94.573 22.028,94.348 21.114,93.891C20.2,93.434 19.253,92.35 18.922,91.38C18.591,90.41 18.686,88.988 19.13,88.072C19.574,87.155 20.631,86.422 21.586,85.883C24.188,84.414 32.219,84.521 34.746,79.257C34.746,79.257 34.892,77.675 33.994,76.371C31.824,73.221 27.219,70.119 30.373,66.083C31.843,64.202 35.213,63.447 36.485,63.043C37.007,62.877 37.865,63.334 38.007,63.661C38.15,63.989 37.588,64.728 37.339,65.007C37.141,65.229 36.773,65.197 36.51,65.335C35.76,65.73 33.766,66.375 32.839,67.376C32.829,67.387 32.764,67.434 32.751,67.477Z" style="fill:none;stroke:#fff;stroke-width:2px;"/>
        <path d="M32.751,67.477C32.685,67.698 32.223,68.343 32.443,68.702C33.014,69.634 34.245,71.21 36.177,73.069C36.363,73.251 36.363,73.251 36.548,73.435C39.748,76.691 40.844,82.179 35.259,87.499C32.195,90.417 26.762,93.055 24.405,94.12C23.403,94.573 22.028,94.348 21.114,93.891C20.2,93.434 19.253,92.35 18.922,91.38C18.591,90.41 18.686,88.988 19.13,88.072C19.574,87.155 20.631,86.422 21.586,85.883C24.188,84.414 32.219,84.521 34.746,79.257C34.746,79.257 34.892,77.675 33.994,76.371C31.824,73.221 27.219,70.119 30.373,66.083C31.843,64.202 35.213,63.447 36.485,63.043C37.007,62.877 37.865,63.334 38.007,63.661C38.15,63.989 37.588,64.728 37.339,65.007C37.141,65.229 36.773,65.197 36.51,65.335C35.76,65.73 33.766,66.375 32.839,67.376C32.829,67.387 32.764,67.434 32.751,67.477Z" style="fill:#6d6d6d;fill-rule:nonzero;"/>
    </g>
    <path d="M46.917,85.875L45.338,83.14L42.252,82.313L42.576,81.105L44.454,81.609L43.459,79.884L44.541,79.259L45.537,80.984L46.04,79.105L47.248,79.429L46.421,82.515L48,85.25L49.579,82.515L48.752,79.429L49.96,79.105L50.463,80.984L51.459,79.259L52.541,79.884L51.546,81.609L53.424,81.105L53.748,82.313L50.662,83.14L49.083,85.875L52.241,85.875L54.5,83.616C54.795,83.911 55.089,84.205 55.384,84.5L54.009,85.875L56,85.875L56,87.125L54.009,87.125L55.384,88.5L54.5,89.384C53.746,88.63 52.975,87.892 52.234,87.125L49.083,87.125L50.662,89.86L53.748,90.687C53.64,91.09 53.532,91.492 53.424,91.895L51.546,91.391L52.541,93.116L51.459,93.741L50.463,92.016L49.96,93.895L48.752,93.571C49.029,92.541 49.282,91.504 49.576,90.479L48,87.75L46.421,90.485L47.248,93.571C46.845,93.679 46.443,93.787 46.04,93.895L45.537,92.016L44.541,93.741L43.459,93.116L44.454,91.391L42.576,91.895L42.252,90.687C43.283,90.411 44.307,90.112 45.342,89.854L46.917,87.125L43.759,87.125L41.5,89.384L40.616,88.5L41.991,87.125L40,87.125L40,85.875L41.991,85.875L40.616,84.5L41.5,83.616L43.759,85.875L46.917,85.875Z" style="fill:none;stroke:#ccc;stroke-width:2px;"/>
    <path d="M46.917,85.875L45.338,83.14L42.252,82.313L42.576,81.105L44.454,81.609L43.459,79.884L44.541,79.259L45.537,80.984L46.04,79.105L47.248,79.429L46.421,82.515L48,85.25L49.579,82.515L48.752,79.429L49.96,79.105L50.463,80.984L51.459,79.259L52.541,79.884L51.546,81.609L53.424,81.105L53.748,82.313L50.662,83.14L49.083,85.875L52.241,85.875L54.5,83.616C54.795,83.911 55.089,84.205 55.384,84.5L54.009,85.875L56,85.875L56,87.125L54.009,87.125L55.384,88.5L54.5,89.384C53.746,88.63 52.975,87.892 52.234,87.125L49.083,87.125L50.662,89.86L53.748,90.687C53.64,91.09 53.532,91.492 53.424,91.895L51.546,91.391L52.541,93.116L51.459,93.741L50.463,92.016L49.96,93.895L48.752,93.571C49.029,92.541 49.282,91.504 49.576,90.479L48,87.75L46.421,90.485L47.248,93.571C46.845,93.679 46.443,93.787 46.04,93.895L45.537,92.016L44.541,93.741L43.459,93.116L44.454,91.391L42.576,91.895L42.252,90.687C43.283,90.411 44.307,90.112 45.342,89.854L46.917,87.125L43.759,87.125L41.5,89.384L40.616,88.5L41.991,87.125L40,87.125L40,85.875L41.991,85.875L40.616,84.5L41.5,83.616L43.759,85.875L46.917,85.875Z" style="fill:#fff;fill-rule:nonzero;"/>
    <path d="M79.112,14.447L79.249,14.449L79.386,14.453L79.523,14.457L79.659,14.463L79.795,14.47L79.93,14.478L80.065,14.488L80.2,14.498L80.334,14.51L80.467,14.522L80.601,14.536L80.734,14.551L80.866,14.568L80.998,14.585L81.13,14.604L81.261,14.624L81.392,14.645L81.522,14.667L81.652,14.691L81.781,14.715L81.91,14.741L82.038,14.768L82.166,14.797L82.294,14.826L82.421,14.857L82.547,14.889L82.673,14.923L82.799,14.958L82.924,14.993L83.048,15.031L83.172,15.069L83.296,15.109L83.419,15.15L83.541,15.192L83.663,15.236L83.784,15.281L83.904,15.327L84.024,15.374L84.144,15.423L84.263,15.473L84.381,15.524L84.499,15.577L84.615,15.631L84.732,15.686L84.848,15.743L84.963,15.8L85.077,15.859L85.191,15.92L85.304,15.981L85.416,16.044L85.528,16.109L85.638,16.174L85.749,16.241L85.858,16.309L85.967,16.379L86.075,16.449L86.182,16.521L86.288,16.594L86.394,16.669L86.499,16.745L86.603,16.821L86.706,16.9L86.809,16.979L86.911,17.06L87.011,17.142L87.112,17.225L87.211,17.309L87.309,17.395L87.407,17.482L87.503,17.57L87.599,17.659L87.694,17.749L87.789,17.841L87.882,17.934L87.974,18.028L88.066,18.123L88.157,18.219L88.246,18.317L88.335,18.415L88.424,18.515L88.511,18.616L88.597,18.718L88.683,18.821L88.767,18.925L88.851,19.031L88.934,19.137L89.016,19.245L89.097,19.353L89.177,19.463L89.256,19.574L89.334,19.686L89.412,19.799L89.489,19.913L89.564,20.028L89.639,20.144L89.713,20.262L89.786,20.38L89.859,20.5L89.93,20.62L90.001,20.742L90.07,20.864L90.139,20.988L90.207,21.113L90.274,21.238L90.34,21.365L90.406,21.493L90.47,21.622L90.534,21.752L90.596,21.882L90.658,22.014L90.719,22.147L90.78,22.281L90.839,22.416L90.898,22.552L90.956,22.689L91.012,22.828L91.069,22.967L91.124,23.107L91.178,23.248L91.232,23.39L91.285,23.533L91.337,23.678L91.388,23.823L91.438,23.969L91.488,24.117L91.537,24.265L91.585,24.414L91.632,24.565L91.679,24.716L91.724,24.869L91.769,25.022L91.813,25.177L91.856,25.332L91.899,25.489L91.94,25.647L91.981,25.805L92.022,25.965L92.061,26.126L92.099,26.288L92.137,26.451L92.174,26.615L92.211,26.78L92.246,26.946L92.281,27.113L92.315,27.281L92.348,27.45L92.381,27.621L92.412,27.792L92.443,27.965L92.474,28.138L92.503,28.313L92.532,28.488L92.56,28.665L92.587,28.843L92.613,29.022L92.639,29.202L92.664,29.383L92.688,29.565L92.712,29.748L92.734,29.932L92.756,30.118L92.778,30.304L92.798,30.492L92.818,30.681L92.837,30.87L92.855,31.061L92.873,31.253L92.889,31.447L92.905,31.641L92.921,31.836L92.935,32.033L92.949,32.23L92.962,32.429L92.975,32.629L92.986,32.83L93.002,33.12L92.99,33.443L92.978,33.684L92.963,33.924L92.946,34.162L92.926,34.399L92.903,34.634L92.878,34.868L92.85,35.1L92.819,35.33L92.786,35.56L92.75,35.787L92.711,36.013L92.67,36.238L92.627,36.46L92.58,36.682L92.532,36.901L92.48,37.119L92.426,37.336L92.37,37.551L92.312,37.764L92.25,37.976L92.187,38.185L92.121,38.394L92.052,38.6L91.981,38.805L91.908,39.008L91.833,39.21L91.755,39.41L91.675,39.608L91.593,39.804L91.508,39.999L91.421,40.191L91.332,40.382L91.241,40.572L91.147,40.759L91.052,40.945L90.954,41.129L90.854,41.311L90.752,41.491L90.648,41.67L90.542,41.847L90.435,42.022L90.325,42.195L90.213,42.366L90.099,42.535L89.983,42.703L89.865,42.868L89.746,43.032L89.625,43.194L89.502,43.354L89.377,43.512L89.25,43.668L89.122,43.822L88.992,43.975L88.86,44.125L88.726,44.274L88.591,44.421L88.455,44.565L88.316,44.708L88.177,44.849L88.035,44.988L87.892,45.125L87.748,45.261L87.602,45.394L87.455,45.525L87.306,45.655L87.156,45.782L87.005,45.908L86.852,46.031L86.698,46.153L86.543,46.273L86.387,46.391L86.229,46.507L86.07,46.621L85.91,46.733L85.748,46.843L85.586,46.952L85.422,47.058L85.257,47.163L85.092,47.265L84.925,47.366L84.757,47.465L84.588,47.562L84.418,47.657L84.247,47.75L84.076,47.841L83.903,47.93L83.729,48.018L83.555,48.103L83.379,48.187L83.203,48.269L83.026,48.349L82.848,48.427L82.67,48.503L82.49,48.577L82.31,48.65L82.129,48.72L81.948,48.789L81.766,48.856L81.583,48.921L81.399,48.984L81.215,49.045L81.03,49.105L80.845,49.162L80.659,49.218L80.473,49.272L80.286,49.324L80.098,49.374L79.91,49.423L79.722,49.469L79.533,49.514L79.344,49.557L79.154,49.598L78.964,49.637L78.773,49.674L78.582,49.71L78.391,49.744L78.199,49.776L78.007,49.806L77.815,49.834L77.623,49.861L77.43,49.885L77.237,49.908L77.044,49.929L76.85,49.949L76.657,49.966L76.463,49.982L76.207,50L19.859,50L19.618,49.999L19.375,49.995L19.134,49.99L18.895,49.982L18.657,49.972L18.421,49.961L18.186,49.947L17.953,49.931L17.721,49.913L17.491,49.893L17.262,49.871L17.035,49.847L16.81,49.821L16.585,49.793L16.363,49.763L16.142,49.731L15.922,49.697L15.704,49.661L15.488,49.622L15.273,49.582L15.06,49.54L14.848,49.496L14.638,49.45L14.429,49.402L14.222,49.351L14.017,49.299L13.813,49.245L13.611,49.189L13.41,49.131L13.211,49.071L13.013,49.009L12.817,48.945L12.623,48.879L12.431,48.811L12.24,48.741L12.05,48.669L11.863,48.596L11.677,48.52L11.492,48.442L11.31,48.363L11.129,48.281L10.95,48.198L10.772,48.113L10.596,48.025L10.422,47.936L10.25,47.845L10.079,47.752L9.911,47.658L9.744,47.561L9.578,47.462L9.415,47.362L9.253,47.26L9.094,47.156L8.936,47.05L8.78,46.942L8.625,46.833L8.473,46.721L8.323,46.608L8.174,46.493L8.028,46.377L7.883,46.259L7.74,46.138L7.599,46.017L7.46,45.893L7.324,45.768L7.189,45.641L7.056,45.512L6.925,45.382L6.796,45.25L6.67,45.117L6.545,44.982L6.422,44.845L6.302,44.707L6.183,44.567L6.067,44.426L5.952,44.283L5.84,44.139L5.73,43.994L5.622,43.846L5.516,43.698L5.413,43.548L5.311,43.396L5.212,43.244L5.115,43.09L5.02,42.934L4.927,42.777L4.836,42.619L4.748,42.46L4.661,42.3L4.577,42.138L4.495,41.975L4.415,41.811L4.338,41.646L4.262,41.479L4.189,41.311L4.118,41.143L4.05,40.973L3.983,40.802L3.919,40.63L3.857,40.457L3.797,40.283L3.739,40.108L3.683,39.933L3.63,39.756L3.579,39.578L3.53,39.399L3.483,39.22L3.438,39.039L3.396,38.858L3.356,38.675L3.318,38.492L3.282,38.308L3.248,38.124L3.217,37.938L3.187,37.752L3.16,37.565L3.135,37.377L3.112,37.189L3.091,36.999L3.073,36.809L3.056,36.619L3.042,36.427L3.029,36.235L3.019,36.043L3.011,35.849L3.005,35.655L3.002,35.461L3,35.261L3.001,35.117L3.005,34.966L3.011,34.813L3.02,34.659L3.032,34.502L3.046,34.343L3.063,34.181L3.082,34.017L3.104,33.85L3.128,33.681L3.155,33.51L3.184,33.336L3.216,33.16L3.25,32.981L3.286,32.8L3.325,32.617L3.367,32.431L3.411,32.244L3.458,32.054L3.507,31.863L3.559,31.669L3.613,31.474L3.67,31.276L3.73,31.078L3.792,30.877L3.857,30.675L3.925,30.472L3.996,30.267L4.069,30.062L4.145,29.855L4.224,29.647L4.306,29.438L4.39,29.228L4.478,29.018L4.568,28.807L4.661,28.596L4.758,28.384L4.857,28.171L4.959,27.959L5.065,27.746L5.173,27.534L5.285,27.322L5.4,27.109L5.518,26.897L5.639,26.686L5.764,26.475L5.892,26.265L6.021,26.058L6.09,25.951L6.158,25.847L6.226,25.743L6.296,25.639L6.366,25.536L6.437,25.433L6.509,25.33L6.582,25.228L6.656,25.126L6.731,25.024L6.806,24.923L6.883,24.822L6.96,24.721L7.039,24.621L7.118,24.521L7.198,24.422L7.279,24.323L7.361,24.225L7.445,24.127L7.528,24.029L7.613,23.933L7.699,23.836L7.786,23.741L7.874,23.645L7.963,23.551L8.053,23.457L8.143,23.364L8.235,23.271L8.328,23.179L8.422,23.088L8.516,22.997L8.612,22.907L8.709,22.818L8.807,22.73L8.905,22.642L9.005,22.556L9.106,22.47L9.208,22.385L9.311,22.3L9.415,22.217L9.52,22.135L9.626,22.053L9.733,21.973L9.842,21.893L9.951,21.814L10.061,21.737L10.173,21.66L10.285,21.585L10.399,21.51L10.513,21.437L10.629,21.365L10.746,21.294L10.864,21.224L10.982,21.155L11.102,21.087L11.223,21.021L11.345,20.956L11.469,20.892L11.593,20.83L11.718,20.769L11.844,20.709L11.972,20.65L12.1,20.593L12.23,20.538L12.36,20.483L12.492,20.431L12.624,20.379L12.758,20.33L12.892,20.281L13.028,20.235L13.165,20.189L13.302,20.146L13.441,20.104L13.58,20.064L13.721,20.025L13.862,19.988L14.005,19.952L14.148,19.919L14.293,19.887L14.438,19.857L14.584,19.828L14.731,19.802L14.879,19.777L15.028,19.754L15.177,19.732L15.328,19.713L15.479,19.695L15.632,19.68L15.785,19.666L15.939,19.654L16.093,19.644L16.249,19.636L16.405,19.63L16.562,19.625L16.72,19.623L16.879,19.623L17.038,19.624L17.198,19.628L17.359,19.634L17.52,19.641L17.683,19.651L17.846,19.663L18.009,19.676L18.174,19.692L18.339,19.71L18.505,19.73L18.671,19.752L18.838,19.776L19.006,19.802L19.175,19.83L19.344,19.86L19.514,19.893L19.684,19.927L19.855,19.964L20.027,20.002L20.2,20.043L20.373,20.086L20.547,20.131L20.721,20.179L20.896,20.228L21.072,20.28L21.248,20.333L21.425,20.389L21.603,20.447L21.781,20.508L21.96,20.57L22.14,20.635L22.32,20.702L22.501,20.771L22.682,20.843L22.865,20.916L23.047,20.992L23.231,21.07L23.415,21.151L23.6,21.234L23.786,21.319L23.972,21.406L24.159,21.496L24.347,21.588L24.535,21.682L24.724,21.778L24.914,21.877L25.104,21.979L25.295,22.082L25.473,22.181L25.474,22.17L25.507,21.831L25.543,21.494L25.581,21.159L25.623,20.826L25.667,20.496L25.713,20.168L25.763,19.842L25.815,19.519L25.87,19.198L25.927,18.879L25.987,18.562L26.05,18.248L26.116,17.936L26.184,17.626L26.255,17.319L26.328,17.014L26.404,16.711L26.482,16.411L26.564,16.113L26.647,15.817L26.734,15.524L26.822,15.233L26.914,14.944L27.008,14.658L27.104,14.375L27.203,14.094L27.305,13.815L27.409,13.538L27.515,13.265L27.624,12.993L27.736,12.724L27.849,12.46L27.908,12.325L27.966,12.194L28.026,12.063L28.085,11.932L28.146,11.803L28.207,11.673L28.268,11.545L28.33,11.417L28.393,11.29L28.457,11.163L28.521,11.037L28.585,10.912L28.65,10.787L28.716,10.663L28.783,10.54L28.85,10.417L28.917,10.295L28.985,10.173L29.054,10.053L29.123,9.932L29.193,9.813L29.264,9.694L29.335,9.576L29.407,9.458L29.479,9.342L29.552,9.225L29.625,9.11L29.699,8.995L29.774,8.881L29.849,8.767L29.925,8.654L30.001,8.542L30.078,8.431L30.156,8.32L30.234,8.21L30.313,8.1L30.392,7.992L30.472,7.883L30.552,7.776L30.633,7.669L30.714,7.563L30.796,7.458L30.879,7.353L30.962,7.249L31.046,7.146L31.13,7.044L31.215,6.942L31.3,6.841L31.386,6.74L31.472,6.641L31.559,6.542L31.647,6.443L31.735,6.346L31.823,6.249L31.913,6.153L32.002,6.057L32.092,5.963L32.183,5.869L32.274,5.775L32.366,5.683L32.458,5.591L32.551,5.5L32.645,5.41L32.738,5.32L32.833,5.231L32.928,5.143L33.023,5.056L33.119,4.969L33.215,4.883L33.312,4.798L33.41,4.714L33.508,4.63L33.606,4.547L33.705,4.465L33.804,4.384L33.904,4.303L34.004,4.224L34.105,4.144L34.207,4.066L34.308,3.989L34.411,3.912L34.513,3.836L34.617,3.761L34.72,3.686L34.825,3.613L34.929,3.54L35.034,3.468L35.14,3.396L35.246,3.326L35.352,3.256L35.459,3.187L35.567,3.119L35.674,3.052L35.783,2.985L35.891,2.919L36,2.854L36.11,2.79L36.22,2.727L36.33,2.664L36.441,2.603L36.552,2.542L36.664,2.482L36.776,2.422L36.889,2.364L37.002,2.306L37.115,2.249L37.229,2.193L37.343,2.138L37.457,2.083L37.572,2.03L37.687,1.977L37.803,1.925L37.919,1.874L38.036,1.823L38.152,1.774L38.27,1.725L38.387,1.677L38.505,1.63L38.623,1.584L38.742,1.539L38.861,1.494L38.98,1.451L39.1,1.408L39.22,1.366L39.341,1.324L39.461,1.284L39.583,1.245L39.704,1.206L39.826,1.168L39.948,1.131L40.07,1.095L40.193,1.06L40.316,1.025L40.44,0.992L40.563,0.959L40.687,0.927L40.812,0.896L40.936,0.866L41.061,0.836L41.186,0.808L41.312,0.78L41.438,0.753L41.564,0.727L41.69,0.702L41.817,0.678L41.944,0.654L42.071,0.632L42.199,0.61L42.327,0.589L42.455,0.569L42.583,0.55L42.712,0.532L42.841,0.514L42.97,0.498L43.099,0.482L43.229,0.467L43.359,0.453L43.489,0.44L43.619,0.428L43.75,0.416L43.88,0.406L44.012,0.396L44.143,0.387L44.274,0.379L44.406,0.372L44.538,0.366L44.67,0.36L44.803,0.355L44.936,0.352L45.068,0.349L45.201,0.347L45.334,0.346L45.645,0.345L45.953,0.346L46.259,0.348L46.562,0.352L46.863,0.358L47.161,0.365L47.457,0.375L47.751,0.386L48.043,0.399L48.333,0.413L48.62,0.429L48.905,0.448L49.188,0.468L49.469,0.49L49.748,0.513L50.024,0.539L50.299,0.567L50.571,0.596L50.842,0.628L51.11,0.661L51.376,0.697L51.641,0.735L51.903,0.774L52.163,0.816L52.422,0.86L52.678,0.906L52.933,0.954L53.185,1.004L53.436,1.056L53.685,1.111L53.932,1.167L54.177,1.227L54.42,1.288L54.662,1.352L54.901,1.417L55.139,1.486L55.375,1.556L55.609,1.629L55.841,1.705L56.072,1.783L56.301,1.863L56.527,1.946L56.752,2.031L56.976,2.119L57.197,2.209L57.417,2.302L57.635,2.397L57.851,2.495L58.065,2.596L58.277,2.699L58.488,2.804L58.696,2.913L58.903,3.023L59.108,3.137L59.311,3.253L59.513,3.372L59.712,3.493L59.91,3.618L60.105,3.744L60.299,3.874L60.491,4.006L60.681,4.141L60.869,4.278L61.055,4.418L61.24,4.561L61.422,4.706L61.603,4.854L61.781,5.005L61.958,5.158L62.133,5.314L62.306,5.472L62.477,5.633L62.646,5.797L62.813,5.963L62.978,6.132L63.142,6.303L63.303,6.477L63.463,6.654L63.621,6.833L63.777,7.014L63.932,7.199L64.084,7.385L64.235,7.574L64.384,7.766L64.531,7.96L64.677,8.157L64.821,8.356L64.963,8.558L65.104,8.763L65.243,8.969L65.38,9.179L65.516,9.39L65.65,9.605L65.783,9.822L65.914,10.041L66.043,10.263L66.172,10.487L66.298,10.714L66.424,10.944L66.548,11.176L66.67,11.41L66.791,11.647L66.911,11.887L67.03,12.129L67.147,12.374L67.264,12.622L67.378,12.872L67.492,13.124L67.605,13.38L67.716,13.638L67.827,13.898L67.936,14.162L68.044,14.428L68.151,14.696L68.257,14.968L68.362,15.242L68.466,15.519L68.57,15.798L68.672,16.08L68.773,16.366L68.874,16.653L69.172,16.538L69.499,16.414L69.825,16.294L70.149,16.177L70.471,16.064L70.791,15.954L71.11,15.848L71.428,15.746L71.743,15.647L72.057,15.553L72.369,15.461L72.677,15.375L72.835,15.332L72.989,15.29L73.143,15.25L73.296,15.211L73.449,15.172L73.602,15.134L73.754,15.098L73.906,15.062L74.058,15.027L74.209,14.994L74.359,14.961L74.51,14.929L74.659,14.898L74.809,14.868L74.958,14.84L75.107,14.812L75.255,14.785L75.403,14.759L75.55,14.734L75.698,14.71L75.844,14.687L75.991,14.665L76.137,14.644L76.282,14.625L76.427,14.606L76.572,14.588L76.716,14.571L76.86,14.555L77.004,14.54L77.147,14.527L77.29,14.514L77.433,14.502L77.575,14.492L77.716,14.482L77.858,14.474L77.999,14.467L78.139,14.46L78.279,14.455L78.419,14.451L78.558,14.448L78.697,14.446L78.836,14.445L78.974,14.445L79.112,14.447ZM45.357,4.346L45.249,4.347L45.142,4.348L45.035,4.351L44.928,4.354L44.822,4.357L44.716,4.362L44.61,4.367L44.505,4.372L44.4,4.379L44.295,4.386L44.19,4.394L44.086,4.402L43.982,4.411L43.878,4.421L43.775,4.431L43.671,4.443L43.569,4.454L43.466,4.467L43.364,4.48L43.262,4.494L43.16,4.508L43.059,4.523L42.958,4.539L42.857,4.556L42.756,4.573L42.656,4.591L42.556,4.609L42.457,4.628L42.357,4.648L42.258,4.668L42.16,4.689L42.061,4.711L41.963,4.733L41.865,4.756L41.768,4.78L41.671,4.804L41.574,4.829L41.477,4.855L41.381,4.881L41.285,4.908L41.189,4.935L41.094,4.963L40.999,4.992L40.904,5.022L40.81,5.052L40.715,5.082L40.622,5.114L40.528,5.146L40.435,5.178L40.342,5.212L40.249,5.246L40.157,5.28L40.065,5.315L39.973,5.351L39.882,5.388L39.791,5.425L39.7,5.462L39.61,5.501L39.519,5.54L39.43,5.579L39.34,5.619L39.251,5.66L39.162,5.702L39.073,5.744L38.985,5.787L38.897,5.83L38.809,5.874L38.722,5.919L38.635,5.964L38.548,6.01L38.462,6.057L38.376,6.104L38.29,6.152L38.204,6.2L38.119,6.249L38.034,6.299L37.95,6.349L37.866,6.4L37.782,6.452L37.698,6.504L37.615,6.557L37.532,6.61L37.449,6.664L37.367,6.719L37.285,6.774L37.203,6.83L37.122,6.887L37.041,6.944L36.96,7.002L36.88,7.061L36.8,7.12L36.72,7.18L36.641,7.24L36.562,7.301L36.483,7.363L36.405,7.425L36.327,7.488L36.249,7.552L36.172,7.616L36.095,7.681L36.018,7.746L35.942,7.813L35.865,7.879L35.79,7.947L35.714,8.015L35.639,8.084L35.565,8.153L35.49,8.223L35.416,8.294L35.343,8.365L35.269,8.437L35.196,8.509L35.124,8.583L35.052,8.656L34.98,8.731L34.908,8.806L34.837,8.882L34.766,8.958L34.696,9.035L34.625,9.113L34.556,9.191L34.486,9.27L34.417,9.35L34.349,9.43L34.28,9.511L34.212,9.593L34.145,9.675L34.078,9.758L34.011,9.842L33.944,9.926L33.878,10.011L33.813,10.096L33.747,10.182L33.682,10.269L33.618,10.356L33.554,10.445L33.49,10.533L33.427,10.623L33.364,10.713L33.301,10.803L33.239,10.895L33.177,10.987L33.116,11.079L33.055,11.173L32.994,11.267L32.934,11.361L32.874,11.457L32.815,11.553L32.756,11.649L32.697,11.746L32.639,11.844L32.581,11.943L32.524,12.042L32.467,12.142L32.411,12.242L32.355,12.344L32.299,12.445L32.244,12.548L32.19,12.651L32.135,12.755L32.081,12.859L32.028,12.964L31.975,13.07L31.923,13.177L31.871,13.284L31.819,13.391L31.768,13.5L31.717,13.609L31.667,13.718L31.617,13.829L31.568,13.94L31.52,14.049L31.422,14.277L31.328,14.505L31.235,14.735L31.145,14.968L31.056,15.204L30.969,15.442L30.884,15.683L30.802,15.927L30.721,16.173L30.642,16.421L30.565,16.673L30.49,16.927L30.418,17.183L30.347,17.442L30.279,17.704L30.212,17.968L30.148,18.235L30.086,18.504L30.027,18.776L29.969,19.05L29.914,19.327L29.86,19.607L29.81,19.889L29.761,20.174L29.715,20.461L29.671,20.75L29.629,21.043L29.59,21.337L29.553,21.635L29.518,21.934L29.486,22.236L29.457,22.541L29.429,22.848L29.404,23.158L29.382,23.47L29.362,23.785L29.345,24.102L29.33,24.421L29.318,24.743L29.308,25.067L29.301,25.394L29.264,28.068L28.055,28.685L25.957,27.207L25.777,27.082L25.598,26.959L25.42,26.839L25.243,26.721L25.067,26.606L24.893,26.494L24.719,26.383L24.547,26.276L24.376,26.171L24.206,26.068L24.037,25.968L23.87,25.87L23.703,25.775L23.538,25.681L23.374,25.591L23.211,25.502L23.049,25.416L22.889,25.333L22.729,25.251L22.571,25.172L22.414,25.095L22.258,25.02L22.104,24.948L21.95,24.877L21.798,24.809L21.647,24.743L21.497,24.679L21.348,24.618L21.201,24.558L21.054,24.5L20.909,24.445L20.765,24.391L20.622,24.34L20.48,24.29L20.34,24.243L20.2,24.197L20.062,24.153L19.925,24.112L19.789,24.072L19.654,24.034L19.521,23.998L19.388,23.963L19.257,23.931L19.127,23.9L18.998,23.871L18.87,23.843L18.743,23.818L18.618,23.794L18.493,23.772L18.37,23.751L18.247,23.732L18.126,23.714L18.006,23.699L17.887,23.684L17.769,23.672L17.652,23.66L17.536,23.651L17.421,23.643L17.307,23.636L17.194,23.63L17.082,23.627L16.972,23.624L16.862,23.623L16.753,23.623L16.645,23.625L16.538,23.627L16.432,23.632L16.327,23.637L16.222,23.644L16.119,23.652L16.017,23.661L15.915,23.672L15.814,23.683L15.714,23.696L15.615,23.71L15.517,23.726L15.419,23.742L15.323,23.759L15.227,23.778L15.132,23.798L15.037,23.819L14.944,23.841L14.851,23.864L14.758,23.888L14.667,23.913L14.576,23.939L14.486,23.967L14.396,23.995L14.307,24.025L14.219,24.055L14.131,24.086L14.044,24.119L13.958,24.152L13.872,24.187L13.787,24.222L13.702,24.258L13.618,24.296L13.535,24.334L13.452,24.373L13.369,24.414L13.287,24.455L13.206,24.497L13.125,24.54L13.045,24.584L12.965,24.629L12.886,24.675L12.807,24.722L12.729,24.769L12.651,24.818L12.574,24.867L12.497,24.918L12.421,24.969L12.345,25.021L12.269,25.074L12.195,25.128L12.12,25.182L12.047,25.238L11.973,25.294L11.9,25.351L11.828,25.409L11.756,25.468L11.685,25.528L11.614,25.588L11.543,25.649L11.473,25.711L11.404,25.774L11.335,25.838L11.267,25.902L11.199,25.967L11.131,26.032L11.064,26.099L10.998,26.166L10.932,26.234L10.866,26.302L10.801,26.371L10.737,26.441L10.673,26.512L10.609,26.583L10.546,26.655L10.484,26.727L10.422,26.8L10.361,26.873L10.3,26.948L10.24,27.022L10.18,27.098L10.12,27.173L10.062,27.25L10.003,27.327L9.946,27.404L9.889,27.482L9.832,27.56L9.776,27.639L9.72,27.718L9.665,27.798L9.611,27.878L9.557,27.958L9.503,28.039L9.451,28.12L9.4,28.199L9.295,28.366L9.195,28.532L9.096,28.698L9,28.866L8.906,29.035L8.814,29.204L8.725,29.374L8.638,29.545L8.553,29.716L8.47,29.888L8.39,30.059L8.312,30.231L8.236,30.402L8.163,30.574L8.092,30.745L8.023,30.915L7.956,31.085L7.892,31.254L7.83,31.423L7.771,31.59L7.713,31.757L7.658,31.922L7.606,32.085L7.555,32.247L7.507,32.408L7.461,32.566L7.417,32.723L7.376,32.877L7.337,33.03L7.3,33.18L7.265,33.327L7.233,33.471L7.203,33.613L7.175,33.752L7.149,33.887L7.125,34.019L7.104,34.147L7.085,34.272L7.067,34.392L7.052,34.509L7.039,34.62L7.028,34.727L7.019,34.829L7.012,34.926L7.006,35.017L7.003,35.102L7.001,35.181L7,35.257L7.001,35.405L7.004,35.556L7.009,35.706L7.015,35.855L7.023,36.003L7.032,36.15L7.043,36.296L7.056,36.442L7.07,36.586L7.085,36.729L7.103,36.871L7.122,37.012L7.142,37.152L7.164,37.291L7.187,37.429L7.212,37.566L7.239,37.702L7.267,37.837L7.297,37.971L7.328,38.104L7.36,38.236L7.394,38.367L7.43,38.496L7.467,38.625L7.505,38.753L7.545,38.879L7.587,39.005L7.63,39.129L7.674,39.253L7.72,39.375L7.767,39.496L7.816,39.617L7.866,39.736L7.918,39.854L7.971,39.971L8.025,40.087L8.081,40.202L8.138,40.316L8.197,40.429L8.257,40.541L8.319,40.652L8.382,40.762L8.447,40.871L8.513,40.979L8.58,41.086L8.649,41.192L8.719,41.296L8.791,41.4L8.864,41.503L8.939,41.605L9.015,41.705L9.092,41.805L9.171,41.904L9.252,42.002L9.334,42.098L9.417,42.194L9.502,42.289L9.589,42.382L9.677,42.475L9.767,42.567L9.858,42.657L9.95,42.747L10.045,42.836L10.14,42.923L10.238,43.01L10.336,43.095L10.437,43.18L10.539,43.263L10.643,43.346L10.748,43.427L10.855,43.508L10.963,43.587L11.074,43.665L11.185,43.742L11.299,43.819L11.414,43.894L11.531,43.967L11.649,44.04L11.77,44.112L11.892,44.183L12.015,44.252L12.141,44.32L12.268,44.387L12.397,44.453L12.527,44.518L12.66,44.582L12.794,44.644L12.93,44.705L13.067,44.765L13.207,44.824L13.348,44.882L13.491,44.938L13.636,44.993L13.783,45.046L13.931,45.099L14.082,45.15L14.234,45.2L14.388,45.248L14.543,45.295L14.701,45.341L14.861,45.385L15.022,45.428L15.185,45.469L15.35,45.509L15.517,45.548L15.686,45.585L15.856,45.62L16.029,45.654L16.203,45.687L16.379,45.718L16.557,45.747L16.737,45.775L16.918,45.802L17.102,45.827L17.287,45.85L17.475,45.871L17.664,45.891L17.855,45.91L18.048,45.926L18.242,45.941L18.439,45.955L18.637,45.966L18.838,45.976L19.04,45.985L19.244,45.991L19.45,45.996L19.657,45.999L19.87,46L76.065,46L76.159,45.993L76.316,45.981L76.472,45.966L76.629,45.951L76.784,45.934L76.94,45.915L77.096,45.896L77.251,45.874L77.405,45.851L77.56,45.827L77.714,45.801L77.868,45.774L78.021,45.746L78.174,45.716L78.327,45.684L78.479,45.651L78.63,45.617L78.781,45.581L78.932,45.544L79.082,45.505L79.232,45.465L79.381,45.424L79.529,45.381L79.677,45.336L79.824,45.291L79.971,45.244L80.117,45.195L80.262,45.145L80.407,45.093L80.551,45.041L80.694,44.986L80.837,44.931L80.979,44.874L81.12,44.815L81.26,44.756L81.4,44.694L81.538,44.632L81.676,44.568L81.813,44.502L81.949,44.436L82.084,44.368L82.219,44.298L82.352,44.227L82.485,44.155L82.616,44.081L82.747,44.006L82.877,43.93L83.006,43.852L83.133,43.773L83.26,43.693L83.386,43.611L83.51,43.528L83.634,43.443L83.757,43.358L83.878,43.27L83.999,43.182L84.118,43.092L84.236,43.001L84.353,42.908L84.469,42.814L84.584,42.719L84.697,42.623L84.81,42.525L84.921,42.425L85.031,42.325L85.14,42.223L85.248,42.12L85.354,42.015L85.459,41.909L85.563,41.802L85.665,41.693L85.767,41.583L85.867,41.471L85.966,41.359L86.063,41.245L86.159,41.129L86.254,41.012L86.347,40.894L86.439,40.774L86.53,40.653L86.619,40.531L86.707,40.407L86.794,40.282L86.879,40.156L86.962,40.028L87.045,39.898L87.125,39.767L87.205,39.635L87.282,39.502L87.359,39.366L87.434,39.23L87.507,39.092L87.579,38.952L87.649,38.811L87.718,38.669L87.785,38.525L87.85,38.379L87.914,38.232L87.976,38.084L88.037,37.934L88.096,37.782L88.154,37.629L88.209,37.474L88.263,37.318L88.315,37.16L88.366,37.001L88.415,36.84L88.462,36.677L88.507,36.513L88.551,36.347L88.592,36.179L88.632,36.01L88.67,35.839L88.706,35.667L88.74,35.493L88.772,35.317L88.803,35.139L88.831,34.96L88.857,34.779L88.882,34.596L88.904,34.412L88.924,34.226L88.942,34.038L88.958,33.848L88.972,33.657L88.984,33.463L88.994,33.269L88.998,33.152L88.993,33.053L88.982,32.868L88.971,32.684L88.958,32.502L88.946,32.321L88.932,32.141L88.918,31.962L88.904,31.785L88.888,31.609L88.872,31.434L88.856,31.26L88.839,31.088L88.821,30.917L88.802,30.748L88.783,30.579L88.763,30.413L88.743,30.247L88.722,30.082L88.7,29.919L88.678,29.758L88.655,29.597L88.631,29.438L88.607,29.28L88.582,29.123L88.557,28.968L88.531,28.814L88.504,28.661L88.477,28.509L88.449,28.359L88.421,28.21L88.392,28.063L88.362,27.916L88.332,27.771L88.302,27.628L88.27,27.485L88.238,27.344L88.206,27.204L88.173,27.065L88.139,26.928L88.105,26.792L88.07,26.657L88.035,26.524L87.999,26.392L87.963,26.261L87.926,26.131L87.888,26.003L87.85,25.876L87.812,25.75L87.772,25.625L87.733,25.502L87.693,25.38L87.652,25.259L87.611,25.139L87.569,25.021L87.527,24.904L87.484,24.788L87.441,24.674L87.397,24.561L87.353,24.449L87.309,24.338L87.263,24.229L87.218,24.12L87.172,24.013L87.125,23.908L87.078,23.803L87.031,23.7L86.983,23.598L86.934,23.497L86.886,23.397L86.836,23.299L86.787,23.201L86.736,23.105L86.686,23.011L86.635,22.917L86.583,22.824L86.532,22.733L86.479,22.643L86.427,22.554L86.374,22.467L86.32,22.38L86.266,22.295L86.212,22.21L86.157,22.127L86.102,22.045L86.047,21.964L85.991,21.885L85.935,21.806L85.878,21.728L85.821,21.652L85.764,21.577L85.706,21.502L85.648,21.429L85.589,21.357L85.531,21.286L85.471,21.216L85.412,21.147L85.352,21.079L85.291,21.012L85.231,20.947L85.17,20.882L85.108,20.818L85.046,20.755L84.984,20.693L84.921,20.632L84.858,20.572L84.795,20.513L84.731,20.455L84.667,20.398L84.603,20.342L84.538,20.287L84.472,20.233L84.406,20.179L84.34,20.127L84.274,20.075L84.207,20.024L84.139,19.974L84.071,19.925L84.003,19.877L83.934,19.83L83.865,19.784L83.795,19.738L83.725,19.693L83.655,19.649L83.584,19.606L83.512,19.564L83.44,19.522L83.367,19.482L83.294,19.442L83.221,19.403L83.146,19.364L83.072,19.327L82.997,19.29L82.921,19.254L82.845,19.219L82.768,19.185L82.69,19.151L82.612,19.118L82.534,19.086L82.454,19.055L82.375,19.024L82.294,18.994L82.213,18.966L82.132,18.937L82.049,18.91L81.966,18.883L81.883,18.857L81.799,18.832L81.714,18.808L81.628,18.784L81.542,18.761L81.455,18.739L81.368,18.718L81.28,18.697L81.191,18.678L81.101,18.659L81.011,18.641L80.92,18.623L80.828,18.607L80.736,18.591L80.643,18.576L80.549,18.562L80.455,18.548L80.36,18.536L80.264,18.524L80.167,18.513L80.07,18.503L79.972,18.493L79.873,18.485L79.773,18.477L79.673,18.47L79.572,18.464L79.47,18.459L79.368,18.454L79.265,18.451L79.161,18.448L79.056,18.446L78.951,18.445L78.845,18.445L78.738,18.446L78.63,18.447L78.522,18.45L78.413,18.453L78.303,18.457L78.193,18.462L78.081,18.468L77.97,18.474L77.857,18.482L77.743,18.49L77.629,18.5L77.515,18.51L77.399,18.521L77.283,18.533L77.166,18.546L77.048,18.559L76.93,18.574L76.811,18.589L76.691,18.606L76.57,18.623L76.449,18.641L76.327,18.66L76.204,18.68L76.081,18.701L75.957,18.723L75.832,18.745L75.707,18.769L75.581,18.793L75.454,18.819L75.327,18.845L75.198,18.872L75.07,18.9L74.94,18.929L74.81,18.959L74.679,18.989L74.548,19.021L74.415,19.054L74.283,19.087L74.149,19.121L74.015,19.157L73.88,19.193L73.747,19.229L73.472,19.307L73.196,19.387L72.918,19.471L72.637,19.559L72.354,19.65L72.068,19.745L71.78,19.843L71.49,19.945L71.196,20.051L70.901,20.16L70.603,20.273L70.302,20.39L70,20.51L69.694,20.633L69.387,20.76L69.077,20.891L68.765,21.025L66.396,22.062L66.39,22.06L65.64,19.629L65.55,19.342L65.46,19.059L65.369,18.78L65.278,18.504L65.186,18.231L65.094,17.961L65.001,17.695L64.907,17.432L64.813,17.172L64.718,16.915L64.623,16.662L64.527,16.412L64.431,16.165L64.334,15.922L64.236,15.682L64.137,15.444L64.038,15.211L63.939,14.98L63.838,14.752L63.737,14.528L63.636,14.307L63.533,14.089L63.43,13.874L63.326,13.662L63.222,13.453L63.117,13.247L63.011,13.044L62.904,12.845L62.797,12.648L62.689,12.455L62.58,12.264L62.47,12.076L62.36,11.892L62.249,11.71L62.137,11.531L62.024,11.355L61.91,11.182L61.796,11.012L61.681,10.844L61.565,10.68L61.448,10.518L61.33,10.359L61.211,10.202L61.092,10.049L60.972,9.898L60.85,9.749L60.728,9.603L60.605,9.46L60.481,9.319L60.356,9.181L60.229,9.045L60.102,8.912L59.974,8.781L59.845,8.653L59.714,8.527L59.583,8.403L59.45,8.281L59.317,8.162L59.182,8.045L59.045,7.93L58.908,7.817L58.769,7.707L58.629,7.598L58.487,7.492L58.344,7.387L58.2,7.285L58.054,7.185L57.907,7.086L57.758,6.99L57.608,6.895L57.455,6.803L57.302,6.712L57.146,6.623L56.989,6.536L56.83,6.451L56.669,6.367L56.506,6.285L56.342,6.206L56.175,6.127L56.007,6.051L55.836,5.976L55.664,5.904L55.489,5.832L55.312,5.763L55.133,5.695L54.952,5.629L54.769,5.565L54.584,5.502L54.396,5.441L54.206,5.382L54.013,5.324L53.818,5.268L53.621,5.214L53.422,5.161L53.22,5.11L53.015,5.061L52.808,5.013L52.599,4.968L52.387,4.923L52.172,4.881L51.955,4.84L51.735,4.8L51.513,4.763L51.288,4.727L51.061,4.692L50.83,4.66L50.597,4.629L50.362,4.599L50.124,4.571L49.883,4.545L49.639,4.521L49.392,4.498L49.143,4.476L48.891,4.457L48.636,4.439L48.379,4.422L48.118,4.407L47.855,4.394L47.589,4.382L47.32,4.372L47.048,4.364L46.774,4.357L46.496,4.352L46.216,4.348L45.932,4.346L45.646,4.345L45.357,4.346Z" style="fill:#b0b0b0;"/>
    <path d="M19.864,48C10.157,47.986 5.023,42.682 5,35.259C4.986,30.642 10.845,14.031 27.296,25.704C27.443,10.925 35.063,2.402 45.346,2.346C58.193,2.275 63.723,6.52 67.642,19.333C81.631,13.153 90.135,16.506 91,33.136C90.699,42.546 83.62,47.501 76.136,48L19.864,48Z" style="fill:url(#_Radial1);"/>
    <path d="M47.078,44.087C42.594,50.568 38.026,54.832 37.078,58.087C36.213,61.057 42.745,67.081 47.078,62.087C49.772,58.982 49.957,53.668 47.078,44.087Z" style="fill:none;stroke:#00658e;stroke-width:4px;stroke-linecap:round;stroke-miterlimit:1.5;"/>
    <path d="M47.078,44.087C42.594,50.568 38.026,54.832 37.078,58.087C36.213,61.057 42.745,67.081 47.078,62.087C49.772,58.982 49.957,53.668 47.078,44.087Z" style="fill:url(#_Radial2);"/>
    <defs>
        <radialGradient id="_Radial1" cx="0" cy="0" r="1" gradientUnits="userSpaceOnUse" gradientTransform="matrix(86,0,0,86,22,12)"><stop offset="0" style="stop-color:#e9e9e9;stop-opacity:1"/><stop offset="0.33" style="stop-color:#e9e9e9;stop-opacity:1"/><stop offset="0.42" style="stop-color:#e9e9e9;stop-opacity:1"/><stop offset="0.5" style="stop-color:#e9e9e9;stop-opacity:1"/><stop offset="0.5" style="stop-color:#dadada;stop-opacity:1"/><stop offset="0.58" style="stop-color:#dadada;stop-opacity:1"/><stop offset="0.67" style="stop-color:#dadada;stop-opacity:1"/><stop offset="1" style="stop-color:#dadada;stop-opacity:1"/></radialGradient>
        <radialGradient id="_Radial2" cx="0" cy="0" r="1" gradientUnits="userSpaceOnUse" gradientTransform="matrix(34.2381,0,0,34.2381,30.0778,47.5869)"><stop offset="0" style="stop-color:#00aff0;stop-opacity:1"/><stop offset="0.33" style="stop-color:#00b0f0;stop-opacity:1"/><stop offset="0.42" style="stop-color:#00b2f0;stop-opacity:1"/><stop offset="0.5" style="stop-color:#00b5f1;stop-opacity:1"/><stop offset="0.5" style="stop-color:#008dcd;stop-opacity:1"/><stop offset="0.58" style="stop-color:#008fce;stop-opacity:1"/><stop offset="0.67" style="stop-color:#0091cf;stop-opacity:1"/><stop offset="1" style="stop-color:#0092cf;stop-opacity:1"/></radialGradient>
    </defs>
</svg>
