<?xml version="1.0" encoding="UTF-8" standalone="no"?>
<!DOCTYPE svg PUBLIC "-//W3C//DTD SVG 1.1//EN" "http://www.w3.org/Graphics/SVG/1.1/DTD/svg11.dtd">
<svg width="100%" height="100%" viewBox="0 0 300 300" version="1.1" xmlns="http://www.w3.org/2000/svg" xmlns:xlink="http://www.w3.org/1999/xlink" xml:space="preserve" xmlns:serif="http://www.serif.com/" style="fill-rule:evenodd;clip-rule:evenodd;stroke-linejoin:round;stroke-miterlimit:1.41421;">
    <path d="M247.009,70.143L247.224,70.146L247.439,70.149L247.653,70.153L247.868,70.159L248.082,70.165L248.295,70.172L248.508,70.179L248.722,70.188L248.934,70.198L249.146,70.208L249.358,70.219L249.57,70.232L249.781,70.245L249.993,70.259L250.203,70.274L250.413,70.29L250.624,70.306L250.834,70.324L251.042,70.343L251.252,70.362L251.461,70.383L251.669,70.404L251.877,70.426L252.085,70.449L252.292,70.473L252.5,70.498L252.707,70.524L252.912,70.551L253.119,70.579L253.325,70.607L253.53,70.637L253.735,70.668L253.941,70.699L254.144,70.732L254.349,70.765L254.552,70.799L254.755,70.835L254.959,70.871L255.161,70.908L255.364,70.946L255.566,70.985L255.767,71.025L255.968,71.066L256.169,71.108L256.37,71.151L256.57,71.195L256.769,71.24L256.97,71.286L257.169,71.333L257.366,71.38L257.565,71.429L257.763,71.479L257.961,71.53L258.158,71.582L258.354,71.634L258.55,71.688L258.746,71.742L258.942,71.798L259.137,71.855L259.331,71.912L259.526,71.971L259.72,72.031L259.913,72.091L260.106,72.153L260.299,72.215L260.491,72.279L260.683,72.343L260.875,72.409L261.065,72.476L261.255,72.543L261.445,72.612L261.635,72.682L261.825,72.752L262.013,72.824L262.201,72.896L262.389,72.97L262.576,73.044L262.763,73.12L262.95,73.197L263.135,73.274L263.321,73.353L263.506,73.433L263.69,73.513L263.875,73.595L264.058,73.678L264.241,73.762L264.424,73.847L264.605,73.932L264.787,74.019L264.968,74.107L265.148,74.195L265.328,74.285L265.508,74.376L265.687,74.468L265.865,74.561L266.043,74.655L266.22,74.749L266.397,74.845L266.574,74.942L266.749,75.04L266.925,75.139L267.1,75.239L267.273,75.339L267.448,75.442L267.62,75.545L267.792,75.648L267.965,75.754L268.136,75.86L268.306,75.966L268.476,76.074L268.645,76.183L268.816,76.293L268.984,76.405L269.15,76.515L269.318,76.628L269.485,76.743L269.65,76.857L269.817,76.973L269.982,77.091L270.145,77.208L270.308,77.326L270.472,77.446L270.635,77.567L270.796,77.689L270.958,77.812L271.118,77.936L271.277,78.06L271.437,78.186L271.595,78.312L271.753,78.44L271.911,78.568L272.067,78.697L272.223,78.828L272.378,78.959L272.533,79.092L272.688,79.225L272.841,79.359L272.994,79.495L273.147,79.631L273.298,79.768L273.448,79.905L273.598,80.044L273.749,80.185L273.897,80.325L274.045,80.467L274.192,80.609L274.339,80.753L274.485,80.898L274.631,81.043L274.776,81.19L274.92,81.337L275.063,81.485L275.205,81.633L275.349,81.785L275.49,81.935L275.629,82.086L275.771,82.24L275.91,82.394L276.048,82.547L276.187,82.703L276.324,82.86L276.46,83.016L276.596,83.174L276.732,83.334L276.866,83.494L276.999,83.653L277.133,83.816L277.266,83.978L277.398,84.142L277.529,84.306L277.659,84.471L277.789,84.637L277.918,84.803L278.046,84.971L278.174,85.139L278.3,85.309L278.427,85.479L278.553,85.651L278.678,85.823L278.801,85.994L278.925,86.168L279.048,86.344L279.17,86.519L279.292,86.695L279.412,86.872L279.532,87.049L279.653,87.229L279.771,87.409L279.888,87.587L280.006,87.77L280.123,87.952L280.239,88.134L280.355,88.319L280.468,88.502L280.582,88.687L280.696,88.875L280.808,89.061L280.92,89.249L281.032,89.439L281.142,89.628L281.251,89.817L281.361,90.009L281.469,90.201L281.577,90.393L281.685,90.588L281.791,90.782L281.896,90.977L282.001,91.172L282.107,91.371L282.21,91.568L282.313,91.766L282.415,91.965L282.517,92.164L282.618,92.366L282.719,92.568L282.819,92.771L282.918,92.974L283.015,93.177L283.114,93.382L283.211,93.589L283.308,93.795L283.403,94.002L283.498,94.21L283.593,94.42L283.687,94.629L283.78,94.839L283.873,95.052L283.964,95.263L284.055,95.476L284.146,95.691L284.236,95.905L284.325,96.12L284.414,96.337L284.502,96.553L284.59,96.772L284.676,96.99L284.762,97.209L284.848,97.43L284.932,97.65L285.016,97.871L285.1,98.095L285.183,98.318L285.265,98.541L285.347,98.767L285.428,98.994L285.508,99.22L285.588,99.446L285.667,99.675L285.745,99.904L285.823,100.133L285.9,100.364L285.977,100.597L286.053,100.828L286.128,101.06L286.203,101.295L286.277,101.531L286.35,101.765L286.423,102.001L286.495,102.237L286.567,102.476L286.638,102.715L286.708,102.954L286.78,103.2L286.916,103.678L287.051,104.163L287.184,104.654L287.314,105.146L287.442,105.642L287.567,106.142L287.69,106.644L287.811,107.15L287.929,107.659L288.045,108.171L288.158,108.687L288.269,109.206L288.378,109.728L288.484,110.254L288.588,110.783L288.689,111.315L288.789,111.85L288.885,112.389L288.98,112.931L289.072,113.477L289.161,114.026L289.249,114.578L289.334,115.133L289.417,115.693L289.497,116.255L289.575,116.821L289.65,117.39L289.724,117.962L289.795,118.539L289.863,119.119L289.93,119.701L289.994,120.287L290.056,120.877L290.115,121.47L290.172,122.067L290.227,122.667L290.279,123.271L290.33,123.877L290.377,124.487L290.423,125.102L290.466,125.719L290.507,126.341L290.546,126.965L290.582,127.593L290.631,128.489L290.609,129.129L290.593,129.508L290.576,129.886L290.556,130.262L290.534,130.637L290.51,131.012L290.484,131.384L290.456,131.756L290.426,132.126L290.394,132.495L290.359,132.865L290.322,133.231L290.284,133.596L290.243,133.961L290.2,134.326L290.155,134.687L290.109,135.048L290.059,135.408L290.009,135.766L289.955,136.124L289.9,136.48L289.843,136.834L289.784,137.189L289.723,137.542L289.66,137.892L289.594,138.242L289.527,138.591L289.458,138.938L289.387,139.285L289.313,139.631L289.238,139.975L289.161,140.316L289.082,140.658L289.001,140.999L288.918,141.337L288.833,141.675L288.745,142.012L288.657,142.345L288.566,142.679L288.473,143.012L288.379,143.344L288.282,143.673L288.184,144.002L288.083,144.33L287.981,144.655L287.877,144.981L287.771,145.303L287.663,145.625L287.554,145.946L287.442,146.266L287.329,146.584L287.213,146.901L287.096,147.217L286.978,147.53L286.857,147.843L286.734,148.155L286.61,148.465L286.484,148.774L286.356,149.081L286.227,149.388L286.095,149.693L285.962,149.995L285.828,150.297L285.691,150.598L285.552,150.898L285.413,151.195L285.271,151.491L285.127,151.786L284.982,152.08L284.835,152.373L284.687,152.663L284.536,152.954L284.385,153.241L284.231,153.528L284.076,153.813L283.92,154.097L283.761,154.38L283.601,154.661L283.439,154.941L283.276,155.219L283.112,155.495L282.945,155.771L282.778,156.044L282.608,156.318L282.436,156.589L282.264,156.858L282.09,157.126L281.914,157.394L281.737,157.659L281.559,157.922L281.378,158.185L281.197,158.446L281.014,158.705L280.83,158.963L280.644,159.22L280.456,159.475L280.267,159.729L280.077,159.981L279.885,160.231L279.693,160.48L279.498,160.728L279.302,160.975L279.105,161.219L278.906,161.463L278.706,161.705L278.505,161.945L278.302,162.184L278.099,162.421L277.893,162.658L277.687,162.891L277.479,163.124L277.27,163.356L277.059,163.586L276.848,163.814L276.635,164.041L276.421,164.267L276.205,164.491L275.988,164.714L275.77,164.935L275.552,165.153L275.332,165.371L275.109,165.589L274.887,165.803L274.664,166.017L274.439,166.228L274.213,166.439L273.985,166.648L273.757,166.856L273.528,167.062L273.297,167.266L273.066,167.469L272.832,167.671L272.599,167.871L272.364,168.069L272.128,168.266L271.89,168.462L271.652,168.656L271.414,168.848L271.174,169.039L270.933,169.229L270.691,169.416L270.447,169.603L270.203,169.788L269.958,169.972L269.712,170.154L269.465,170.334L269.217,170.513L268.968,170.691L268.718,170.866L268.467,171.041L268.216,171.214L267.964,171.385L267.71,171.556L267.456,171.724L267.201,171.891L266.944,172.057L266.687,172.221L266.429,172.383L266.171,172.544L265.912,172.704L265.651,172.862L265.39,173.019L265.128,173.174L264.866,173.327L264.602,173.48L264.337,173.63L264.073,173.779L263.807,173.927L263.54,174.074L263.273,174.218L263.005,174.361L262.735,174.503L262.466,174.643L262.197,174.782L261.925,174.92L261.654,175.056L261.382,175.19L261.109,175.323L260.835,175.454L260.56,175.585L260.285,175.713L260.01,175.84L259.734,175.966L259.457,176.09L259.179,176.212L258.901,176.334L258.622,176.453L258.343,176.571L258.063,176.688L257.782,176.804L257.501,176.918L257.219,177.03L256.937,177.141L256.654,177.251L256.371,177.359L256.087,177.465L255.803,177.57L255.518,177.674L255.232,177.777L254.946,177.877L254.66,177.977L254.373,178.075L254.085,178.171L253.797,178.266L253.509,178.36L253.22,178.452L252.93,178.543L252.641,178.632L252.351,178.719L252.06,178.806L251.768,178.891L251.477,178.974L251.185,179.056L250.893,179.137L250.6,179.216L250.307,179.294L250.014,179.37L249.72,179.445L249.425,179.519L249.13,179.591L248.836,179.661L248.541,179.73L248.244,179.798L247.948,179.865L247.652,179.929L247.355,179.993L247.059,180.055L246.761,180.116L246.463,180.175L246.166,180.232L245.868,180.289L245.569,180.344L245.27,180.397L244.971,180.449L244.672,180.5L244.373,180.549L244.073,180.597L243.773,180.643L243.472,180.688L243.172,180.732L242.872,180.774L242.571,180.815L242.27,180.854L241.968,180.892L241.667,180.928L241.366,180.963L241.064,180.997L240.761,181.029L240.459,181.06L240.157,181.089L239.855,181.117L239.552,181.144L239.249,181.169L238.946,181.193L238.643,181.215L238.14,181.25L62.065,181.25L61.685,181.249L61.305,181.246L60.926,181.241L60.548,181.235L60.171,181.227L59.795,181.218L59.421,181.207L59.047,181.194L58.675,181.18L58.304,181.164L57.935,181.146L57.566,181.127L57.198,181.106L56.832,181.084L56.467,181.06L56.103,181.034L55.741,181.007L55.379,180.979L55.019,180.948L54.66,180.916L54.302,180.883L53.945,180.848L53.589,180.811L53.235,180.773L52.882,180.733L52.53,180.691L52.179,180.648L51.83,180.603L51.481,180.557L51.134,180.509L50.788,180.46L50.443,180.409L50.1,180.356L49.757,180.302L49.416,180.247L49.076,180.189L48.737,180.131L48.4,180.07L48.064,180.008L47.728,179.945L47.394,179.879L47.062,179.813L46.731,179.745L46.4,179.675L46.071,179.603L45.743,179.531L45.417,179.456L45.091,179.38L44.767,179.302L44.444,179.223L44.123,179.143L43.803,179.06L43.483,178.977L43.165,178.891L42.849,178.804L42.533,178.716L42.219,178.626L41.906,178.534L41.594,178.441L41.284,178.347L40.974,178.25L40.667,178.153L40.36,178.054L40.054,177.953L39.751,177.851L39.448,177.747L39.146,177.641L38.846,177.535L38.547,177.426L38.249,177.316L37.953,177.205L37.657,177.092L37.363,176.977L37.071,176.861L36.78,176.744L36.489,176.625L36.201,176.504L35.914,176.382L35.627,176.259L35.343,176.134L35.06,176.007L34.778,175.879L34.497,175.75L34.217,175.618L33.939,175.486L33.663,175.352L33.387,175.216L33.113,175.079L32.841,174.941L32.57,174.801L32.299,174.659L32.031,174.516L31.764,174.372L31.498,174.226L31.234,174.079L30.971,173.93L30.709,173.779L30.448,173.628L30.19,173.475L29.933,173.32L29.676,173.164L29.422,173.006L29.169,172.847L28.917,172.687L28.666,172.525L28.418,172.362L28.17,172.197L27.924,172.031L27.679,171.863L27.436,171.694L27.194,171.524L26.954,171.352L26.716,171.179L26.478,171.004L26.243,170.828L26.009,170.651L25.776,170.472L25.544,170.292L25.314,170.111L25.086,169.928L24.859,169.743L24.634,169.558L24.41,169.371L24.188,169.182L23.967,168.993L23.748,168.802L23.53,168.609L23.315,168.416L23.099,168.221L22.886,168.024L22.675,167.827L22.465,167.628L22.257,167.428L22.05,167.226L21.845,167.024L21.641,166.819L21.439,166.614L21.239,166.407L21.04,166.199L20.843,165.991L20.647,165.78L20.453,165.568L20.26,165.355L20.069,165.141L19.88,164.926L19.693,164.71L19.507,164.492L19.323,164.273L19.14,164.053L18.958,163.831L18.779,163.609L18.602,163.386L18.425,163.161L18.251,162.935L18.078,162.708L17.907,162.479L17.737,162.25L17.57,162.02L17.403,161.788L17.239,161.556L17.076,161.322L16.915,161.086L16.756,160.851L16.597,160.614L16.441,160.376L16.287,160.137L16.134,159.896L15.983,159.655L15.834,159.413L15.686,159.17L15.54,158.925L15.396,158.68L15.253,158.433L15.113,158.185L14.974,157.937L14.836,157.688L14.7,157.438L14.566,157.186L14.434,156.934L14.304,156.681L14.174,156.427L14.047,156.171L13.922,155.916L13.798,155.658L13.676,155.401L13.556,155.143L13.437,154.882L13.32,154.622L13.205,154.361L13.092,154.098L12.98,153.835L12.87,153.571L12.762,153.306L12.655,153.041L12.55,152.774L12.447,152.507L12.346,152.238L12.246,151.969L12.148,151.7L12.052,151.429L11.957,151.158L11.864,150.885L11.773,150.612L11.684,150.339L11.596,150.065L11.51,149.789L11.426,149.513L11.344,149.237L11.263,148.959L11.184,148.681L11.106,148.402L11.031,148.122L10.957,147.842L10.885,147.561L10.814,147.279L10.745,146.997L10.678,146.714L10.613,146.43L10.549,146.146L10.487,145.861L10.427,145.575L10.368,145.289L10.311,145.002L10.256,144.714L10.202,144.425L10.15,144.137L10.1,143.847L10.052,143.557L10.005,143.266L9.96,142.974L9.917,142.683L9.875,142.39L9.835,142.097L9.797,141.804L9.76,141.51L9.725,141.214L9.692,140.919L9.66,140.623L9.63,140.326L9.602,140.029L9.575,139.732L9.55,139.434L9.527,139.134L9.505,138.835L9.485,138.536L9.467,138.235L9.45,137.934L9.435,137.633L9.422,137.331L9.41,137.029L9.4,136.726L9.392,136.423L9.385,136.119L9.38,135.814L9.377,135.51L9.375,135.198L9.375,134.973L9.378,134.739L9.383,134.504L9.39,134.269L9.399,134.031L9.41,133.792L9.424,133.55L9.439,133.308L9.456,133.064L9.476,132.817L9.497,132.57L9.52,132.321L9.546,132.068L9.573,131.816L9.602,131.56L9.633,131.303L9.666,131.044L9.701,130.782L9.737,130.52L9.776,130.254L9.817,129.988L9.859,129.719L9.904,129.448L9.95,129.175L9.999,128.9L10.049,128.624L10.101,128.346L10.156,128.066L10.211,127.784L10.27,127.501L10.33,127.215L10.392,126.927L10.456,126.639L10.522,126.348L10.59,126.056L10.659,125.762L10.731,125.467L10.805,125.169L10.881,124.871L10.959,124.57L11.039,124.269L11.121,123.966L11.205,123.661L11.291,123.355L11.379,123.047L11.469,122.739L11.562,122.429L11.656,122.118L11.752,121.805L11.851,121.491L11.952,121.176L12.054,120.86L12.159,120.543L12.266,120.225L12.375,119.906L12.486,119.586L12.6,119.265L12.715,118.943L12.833,118.62L12.953,118.296L13.075,117.972L13.2,117.647L13.326,117.321L13.455,116.994L13.586,116.667L13.719,116.339L13.855,116.01L13.993,115.681L14.133,115.352L14.275,115.022L14.42,114.692L14.567,114.361L14.716,114.03L14.868,113.699L15.022,113.368L15.178,113.036L15.337,112.704L15.498,112.372L15.662,112.04L15.828,111.708L15.996,111.376L16.167,111.043L16.34,110.712L16.516,110.38L16.694,110.048L16.875,109.717L17.058,109.386L17.244,109.055L17.432,108.724L17.623,108.394L17.816,108.064L18.012,107.735L18.211,107.406L18.412,107.078L18.615,106.751L18.822,106.424L19.031,106.097L19.242,105.772L19.457,105.447L19.674,105.123L19.894,104.8L20.116,104.478L20.341,104.157L20.569,103.837L20.8,103.517L21.033,103.2L21.27,102.883L21.509,102.567L21.751,102.253L21.996,101.94L22.244,101.628L22.494,101.318L22.748,101.009L23.005,100.702L23.264,100.396L23.526,100.092L23.792,99.789L24.06,99.488L24.327,99.194L24.468,99.04L24.606,98.892L24.744,98.744L24.884,98.596L25.024,98.449L25.164,98.303L25.305,98.157L25.448,98.011L25.591,97.867L25.734,97.723L25.879,97.579L26.024,97.435L26.171,97.291L26.318,97.149L26.465,97.008L26.613,96.867L26.762,96.726L26.913,96.586L27.063,96.446L27.215,96.307L27.367,96.169L27.52,96.032L27.675,95.894L27.83,95.758L27.985,95.622L28.141,95.487L28.299,95.352L28.457,95.218L28.616,95.085L28.775,94.953L28.936,94.82L29.097,94.689L29.259,94.559L29.422,94.429L29.586,94.299L29.751,94.171L29.915,94.044L30.082,93.916L30.25,93.79L30.417,93.665L30.585,93.54L30.755,93.416L30.925,93.293L31.097,93.17L31.269,93.048L31.441,92.928L31.615,92.808L31.79,92.688L31.965,92.57L32.141,92.452L32.318,92.335L32.496,92.22L32.674,92.105L32.854,91.991L33.034,91.877L33.216,91.765L33.397,91.653L33.58,91.542L33.764,91.433L33.948,91.324L34.134,91.216L34.32,91.109L34.506,91.003L34.694,90.898L34.884,90.794L35.073,90.691L35.263,90.589L35.454,90.488L35.646,90.387L35.839,90.288L36.033,90.19L36.227,90.093L36.423,89.997L36.619,89.902L36.816,89.808L37.013,89.715L37.212,89.623L37.412,89.532L37.612,89.442L37.813,89.354L38.015,89.266L38.218,89.18L38.421,89.095L38.625,89.011L38.83,88.928L39.036,88.846L39.243,88.765L39.451,88.685L39.659,88.607L39.868,88.53L40.078,88.454L40.289,88.379L40.5,88.305L40.713,88.233L40.926,88.162L41.14,88.092L41.354,88.023L41.57,87.956L41.786,87.889L42.002,87.825L42.22,87.761L42.439,87.699L42.658,87.637L42.878,87.577L43.098,87.519L43.32,87.462L43.542,87.406L43.765,87.352L43.989,87.298L44.214,87.246L44.438,87.196L44.664,87.146L44.891,87.099L45.118,87.052L45.346,87.007L45.574,86.963L45.804,86.921L46.034,86.88L46.265,86.84L46.497,86.802L46.729,86.765L46.962,86.73L47.195,86.696L47.429,86.664L47.664,86.633L47.9,86.603L48.136,86.575L48.373,86.548L48.61,86.523L48.849,86.499L49.088,86.477L49.327,86.456L49.567,86.436L49.808,86.419L50.049,86.402L50.291,86.387L50.534,86.374L50.777,86.362L51.021,86.352L51.265,86.343L51.511,86.335L51.757,86.329L52.003,86.325L52.25,86.322L52.497,86.321L52.745,86.321L52.994,86.323L53.243,86.327L53.493,86.331L53.744,86.338L53.994,86.346L54.246,86.356L54.499,86.367L54.751,86.379L55.005,86.394L55.258,86.41L55.513,86.427L55.768,86.446L56.024,86.467L56.28,86.489L56.536,86.513L56.793,86.538L57.051,86.565L57.309,86.594L57.568,86.624L57.828,86.656L58.087,86.689L58.347,86.724L58.608,86.761L58.87,86.799L59.132,86.839L59.394,86.881L59.658,86.924L59.921,86.969L60.185,87.015L60.449,87.063L60.715,87.113L60.98,87.164L61.247,87.218L61.513,87.272L61.78,87.328L62.048,87.386L62.316,87.446L62.585,87.507L62.854,87.57L63.124,87.635L63.394,87.701L63.665,87.769L63.936,87.839L64.208,87.91L64.48,87.983L64.753,88.058L65.026,88.134L65.3,88.212L65.574,88.292L65.849,88.374L66.124,88.457L66.4,88.542L66.677,88.628L66.954,88.717L67.231,88.807L67.508,88.898L67.787,88.992L68.066,89.087L68.345,89.184L68.625,89.282L68.905,89.382L69.186,89.484L69.468,89.588L69.75,89.694L70.032,89.801L70.315,89.91L70.598,90.021L70.882,90.133L71.167,90.247L71.452,90.363L71.737,90.481L72.024,90.601L72.31,90.722L72.597,90.845L72.885,90.97L73.173,91.096L73.461,91.225L73.751,91.355L74.04,91.487L74.331,91.621L74.622,91.756L74.913,91.894L75.204,92.033L75.497,92.174L75.79,92.317L76.083,92.461L76.377,92.608L76.672,92.756L76.967,92.906L77.262,93.058L77.559,93.211L77.856,93.367L78.153,93.524L78.451,93.684L78.749,93.845L79.048,94.008L79.347,94.172L79.602,94.314L79.606,94.281L79.656,93.75L79.709,93.221L79.764,92.694L79.821,92.168L79.88,91.644L79.941,91.122L80.005,90.601L80.071,90.082L80.138,89.565L80.208,89.05L80.28,88.537L80.354,88.025L80.43,87.516L80.509,87.007L80.589,86.501L80.672,85.996L80.756,85.493L80.843,84.992L80.932,84.493L81.023,83.996L81.116,83.5L81.211,83.006L81.308,82.514L81.407,82.024L81.508,81.536L81.612,81.049L81.717,80.564L81.825,80.081L81.934,79.6L82.046,79.121L82.159,78.643L82.275,78.167L82.393,77.693L82.512,77.222L82.634,76.752L82.758,76.283L82.884,75.816L83.011,75.352L83.141,74.889L83.273,74.428L83.407,73.969L83.543,73.512L83.68,73.056L83.82,72.603L83.962,72.151L84.106,71.701L84.252,71.253L84.4,70.807L84.549,70.363L84.701,69.921L84.855,69.481L85.011,69.042L85.168,68.606L85.328,68.171L85.489,67.738L85.653,67.307L85.818,66.879L85.986,66.452L86.155,66.027L86.326,65.604L86.5,65.182L86.675,64.763L86.852,64.346L87.031,63.931L87.212,63.517L87.395,63.105L87.58,62.696L87.767,62.288L87.955,61.883L88.146,61.479L88.338,61.078L88.532,60.678L88.729,60.28L88.927,59.885L89.127,59.491L89.329,59.099L89.532,58.71L89.738,58.322L89.945,57.936L90.155,57.553L90.366,57.171L90.579,56.792L90.794,56.414L91.011,56.039L91.229,55.666L91.45,55.294L91.672,54.925L91.896,54.557L92.122,54.192L92.35,53.829L92.579,53.469L92.811,53.109L93.044,52.752L93.279,52.398L93.516,52.045L93.755,51.695L93.995,51.346L94.237,51L94.481,50.655L94.727,50.314L94.974,49.974L95.224,49.636L95.475,49.3L95.727,48.967L95.982,48.636L96.238,48.306L96.496,47.979L96.756,47.655L97.018,47.332L97.281,47.012L97.546,46.693L97.813,46.377L98.081,46.063L98.351,45.752L98.623,45.442L98.896,45.135L99.171,44.83L99.448,44.528L99.727,44.227L100.007,43.929L100.289,43.633L100.572,43.34L100.857,43.048L101.144,42.759L101.433,42.472L101.723,42.187L102.014,41.906L102.307,41.626L102.602,41.348L102.899,41.072L103.197,40.799L103.497,40.529L103.798,40.26L104.1,39.995L104.405,39.731L104.711,39.47L105.018,39.211L105.328,38.954L105.638,38.7L105.95,38.448L106.264,38.199L106.579,37.952L106.896,37.707L107.214,37.465L107.533,37.225L107.855,36.987L108.177,36.752L108.501,36.52L108.827,36.289L109.154,36.062L109.482,35.837L109.812,35.614L110.143,35.393L110.476,35.175L110.81,34.96L111.145,34.747L111.482,34.537L111.821,34.329L112.16,34.123L112.501,33.92L112.843,33.72L113.187,33.522L113.532,33.326L113.879,33.133L114.226,32.943L114.575,32.755L114.926,32.569L115.277,32.387L115.63,32.206L115.984,32.028L116.339,31.853L116.696,31.68L117.054,31.51L117.413,31.343L117.773,31.178L118.134,31.015L118.497,30.855L118.861,30.698L119.226,30.543L119.592,30.391L119.96,30.242L120.328,30.095L120.698,29.95L121.069,29.809L121.441,29.669L121.814,29.533L122.188,29.399L122.563,29.268L122.939,29.139L123.317,29.013L123.695,28.889L124.075,28.769L124.455,28.65L124.837,28.535L125.22,28.422L125.603,28.312L125.988,28.204L126.374,28.099L126.76,27.996L127.148,27.897L127.536,27.8L127.926,27.705L128.316,27.613L128.708,27.524L129.1,27.438L129.493,27.354L129.887,27.273L130.282,27.194L130.678,27.118L131.075,27.045L131.473,26.975L131.872,26.907L132.271,26.842L132.671,26.779L133.072,26.719L133.474,26.662L133.877,26.607L134.28,26.556L134.685,26.506L135.09,26.46L135.495,26.416L135.902,26.375L136.309,26.337L136.718,26.301L137.127,26.268L137.536,26.237L137.947,26.209L138.358,26.184L138.769,26.162L139.182,26.142L139.595,26.125L140.009,26.111L140.423,26.099L140.839,26.09L141.255,26.084L141.665,26.08L142.157,26.078L142.641,26.078L143.123,26.078L143.603,26.08L144.081,26.083L144.558,26.088L145.033,26.093L145.505,26.1L145.976,26.109L146.446,26.119L146.913,26.13L147.378,26.142L147.842,26.156L148.304,26.171L148.765,26.188L149.223,26.205L149.68,26.225L150.135,26.245L150.588,26.267L151.04,26.291L151.489,26.316L151.938,26.342L152.384,26.37L152.828,26.399L153.271,26.43L153.713,26.462L154.152,26.495L154.59,26.53L155.027,26.567L155.462,26.605L155.894,26.644L156.326,26.685L156.755,26.727L157.184,26.771L157.61,26.817L158.035,26.864L158.458,26.912L158.88,26.962L159.3,27.014L159.719,27.067L160.135,27.122L160.551,27.178L160.964,27.236L161.376,27.295L161.788,27.357L162.197,27.419L162.604,27.484L163.01,27.549L163.415,27.617L163.818,27.686L164.219,27.757L164.619,27.83L165.018,27.904L165.415,27.98L165.81,28.057L166.204,28.137L166.596,28.218L166.988,28.3L167.377,28.385L167.765,28.471L168.152,28.559L168.537,28.648L168.921,28.74L169.304,28.833L169.684,28.928L170.063,29.025L170.441,29.123L170.818,29.224L171.193,29.326L171.567,29.43L171.939,29.535L172.31,29.643L172.679,29.752L173.047,29.864L173.414,29.977L173.778,30.092L174.142,30.209L174.504,30.328L174.865,30.448L175.224,30.571L175.582,30.696L175.939,30.822L176.294,30.95L176.648,31.08L177,31.213L177.351,31.347L177.7,31.483L178.049,31.621L178.395,31.761L178.741,31.903L179.085,32.047L179.427,32.193L179.768,32.341L180.108,32.491L180.446,32.643L180.783,32.797L181.118,32.953L181.452,33.111L181.784,33.271L182.116,33.433L182.445,33.597L182.773,33.763L183.1,33.931L183.426,34.102L183.75,34.274L184.072,34.448L184.393,34.625L184.713,34.803L185.031,34.984L185.347,35.166L185.663,35.351L185.977,35.537L186.289,35.726L186.6,35.917L186.909,36.11L187.217,36.305L187.523,36.502L187.829,36.701L188.133,36.903L188.434,37.106L188.735,37.311L189.034,37.518L189.332,37.728L189.628,37.94L189.922,38.153L190.216,38.369L190.507,38.587L190.798,38.807L191.086,39.028L191.373,39.252L191.66,39.479L191.944,39.707L192.226,39.936L192.508,40.169L192.788,40.403L193.066,40.639L193.343,40.878L193.618,41.118L193.892,41.361L194.165,41.606L194.435,41.852L194.704,42.1L194.973,42.351L195.24,42.604L195.504,42.859L195.767,43.115L196.03,43.374L196.29,43.635L196.549,43.897L196.807,44.162L197.064,44.429L197.318,44.698L197.571,44.968L197.823,45.242L198.074,45.516L198.323,45.793L198.57,46.072L198.816,46.353L199.061,46.635L199.304,46.92L199.546,47.207L199.787,47.496L200.026,47.787L200.263,48.079L200.499,48.373L200.734,48.67L200.968,48.969L201.201,49.27L201.431,49.572L201.661,49.877L201.889,50.183L202.115,50.491L202.341,50.802L202.565,51.114L202.789,51.429L203.01,51.745L203.23,52.062L203.449,52.383L203.667,52.706L203.883,53.029L204.098,53.355L204.313,53.684L204.525,54.013L204.737,54.345L204.947,54.679L205.156,55.015L205.364,55.353L205.57,55.692L205.776,56.034L205.981,56.379L206.184,56.724L206.385,57.071L206.587,57.422L206.786,57.773L206.985,58.126L207.183,58.482L207.379,58.84L207.574,59.198L207.768,59.56L207.961,59.924L208.153,60.29L208.345,60.658L208.534,61.027L208.723,61.399L208.911,61.772L209.098,62.147L209.284,62.525L209.469,62.905L209.653,63.286L209.836,63.67L210.017,64.055L210.198,64.443L210.378,64.832L210.558,65.224L210.736,65.619L210.913,66.014L211.089,66.411L211.265,66.812L211.44,67.214L211.613,67.619L211.786,68.024L211.958,68.432L212.129,68.843L212.299,69.256L212.469,69.669L212.637,70.086L212.805,70.505L212.972,70.926L213.138,71.349L213.304,71.774L213.468,72.201L213.632,72.63L213.796,73.063L213.958,73.496L214.119,73.931L214.28,74.369L214.44,74.809L214.6,75.252L214.759,75.696L214.917,76.143L215.074,76.592L215.23,77.042L215.649,76.878L216.163,76.681L216.675,76.486L217.185,76.294L217.694,76.104L218.203,75.918L218.709,75.734L219.215,75.553L219.719,75.374L220.222,75.199L220.723,75.027L221.223,74.857L221.722,74.69L222.22,74.526L222.716,74.365L223.211,74.207L223.705,74.051L224.197,73.899L224.688,73.749L225.178,73.602L225.667,73.458L226.154,73.317L226.64,73.179L227.125,73.044L227.608,72.912L228.09,72.783L228.571,72.656L229.051,72.533L229.529,72.412L230.006,72.295L230.482,72.181L230.957,72.069L231.43,71.961L231.902,71.855L232.373,71.753L232.843,71.654L233.311,71.557L233.778,71.464L234.244,71.374L234.709,71.287L235.172,71.203L235.634,71.122L236.095,71.044L236.555,70.969L237.014,70.897L237.471,70.829L237.927,70.764L238.382,70.702L238.836,70.643L239.288,70.587L239.739,70.534L240.189,70.485L240.638,70.439L241.085,70.396L241.532,70.356L241.977,70.32L242.421,70.287L242.864,70.257L243.305,70.231L243.745,70.208L244.185,70.188L244.622,70.172L245.053,70.159L245.277,70.154L245.494,70.15L245.712,70.146L245.929,70.143L246.145,70.142L246.362,70.141L246.578,70.141L246.794,70.142L247.009,70.143ZM142.193,38.578L141.745,38.58L141.403,38.583L141.069,38.588L140.735,38.595L140.401,38.605L140.069,38.616L139.737,38.63L139.407,38.646L139.078,38.664L138.749,38.684L138.421,38.706L138.094,38.73L137.768,38.757L137.443,38.785L137.119,38.816L136.795,38.848L136.473,38.883L136.152,38.92L135.831,38.959L135.511,39L135.193,39.043L134.875,39.089L134.558,39.136L134.243,39.185L133.927,39.237L133.613,39.29L133.3,39.346L132.988,39.403L132.677,39.463L132.367,39.524L132.057,39.588L131.749,39.654L131.441,39.722L131.135,39.792L130.829,39.863L130.524,39.937L130.221,40.013L129.918,40.091L129.616,40.171L129.315,40.253L129.015,40.337L128.716,40.423L128.418,40.511L128.121,40.601L127.825,40.693L127.53,40.787L127.236,40.883L126.942,40.981L126.65,41.081L126.359,41.183L126.068,41.287L125.779,41.393L125.49,41.5L125.203,41.61L124.916,41.722L124.631,41.836L124.346,41.952L124.062,42.07L123.78,42.19L123.498,42.311L123.217,42.435L122.937,42.561L122.659,42.689L122.381,42.818L122.104,42.95L121.828,43.084L121.553,43.219L121.279,43.357L121.006,43.496L120.734,43.638L120.463,43.781L120.193,43.927L119.924,44.074L119.656,44.224L119.389,44.375L119.123,44.528L118.858,44.683L118.593,44.841L118.33,45L118.068,45.161L117.807,45.324L117.547,45.49L117.287,45.657L117.029,45.826L116.772,45.997L116.516,46.17L116.261,46.345L116.007,46.522L115.754,46.701L115.502,46.882L115.25,47.065L115,47.25L114.751,47.436L114.503,47.625L114.256,47.816L114.01,48.009L113.765,48.204L113.521,48.401L113.278,48.6L113.037,48.8L112.796,49.003L112.556,49.208L112.317,49.414L112.079,49.623L111.843,49.834L111.607,50.047L111.373,50.262L111.14,50.478L110.908,50.697L110.676,50.917L110.446,51.141L110.217,51.365L109.989,51.592L109.762,51.821L109.536,52.051L109.311,52.284L109.088,52.519L108.865,52.756L108.644,52.995L108.424,53.235L108.205,53.478L107.986,53.723L107.77,53.97L107.554,54.219L107.339,54.47L107.126,54.723L106.914,54.978L106.702,55.235L106.492,55.494L106.284,55.755L106.076,56.018L105.87,56.283L105.664,56.55L105.46,56.82L105.257,57.091L105.056,57.364L104.855,57.639L104.656,57.917L104.458,58.196L104.261,58.477L104.066,58.761L103.871,59.046L103.678,59.334L103.486,59.624L103.296,59.915L103.107,60.208L102.918,60.504L102.731,60.802L102.546,61.102L102.362,61.404L102.179,61.707L101.998,62.013L101.817,62.322L101.638,62.632L101.46,62.944L101.284,63.258L101.109,63.574L100.936,63.892L100.763,64.213L100.592,64.534L100.423,64.859L100.254,65.185L100.088,65.514L99.922,65.844L99.758,66.177L99.595,66.511L99.434,66.848L99.274,67.187L99.116,67.528L98.959,67.87L98.803,68.215L98.649,68.562L98.496,68.911L98.345,69.262L98.195,69.615L98.047,69.97L97.9,70.327L97.754,70.686L97.61,71.047L97.468,71.41L97.327,71.775L97.188,72.143L97.05,72.512L96.914,72.883L96.779,73.257L96.645,73.632L96.514,74.009L96.383,74.389L96.255,74.771L96.128,75.154L96.002,75.54L95.878,75.927L95.756,76.317L95.635,76.708L95.516,77.102L95.398,77.498L95.282,77.896L95.168,78.295L95.055,78.697L94.944,79.101L94.835,79.507L94.727,79.914L94.621,80.324L94.517,80.736L94.414,81.15L94.313,81.566L94.213,81.984L94.116,82.403L94.02,82.825L93.926,83.249L93.833,83.675L93.742,84.103L93.653,84.532L93.566,84.964L93.48,85.398L93.396,85.834L93.314,86.271L93.234,86.711L93.155,87.153L93.078,87.597L93.003,88.043L92.93,88.49L92.859,88.94L92.789,89.391L92.721,89.845L92.655,90.301L92.591,90.758L92.529,91.218L92.468,91.679L92.41,92.142L92.353,92.608L92.298,93.075L92.245,93.545L92.194,94.015L92.144,94.489L92.097,94.964L92.052,95.441L92.008,95.92L91.966,96.401L91.927,96.884L91.889,97.368L91.853,97.855L91.819,98.344L91.787,98.835L91.757,99.327L91.729,99.821L91.703,100.318L91.678,100.816L91.656,101.316L91.636,101.818L91.618,102.322L91.602,102.828L91.587,103.336L91.575,103.846L91.565,104.357L91.557,104.871L91.463,112.705L87.659,114.646L81.4,110.221L81.117,110.022L80.835,109.825L80.553,109.63L80.273,109.437L79.993,109.247L79.714,109.058L79.437,108.871L79.16,108.686L78.884,108.503L78.609,108.323L78.335,108.144L78.062,107.967L77.789,107.792L77.518,107.619L77.248,107.448L76.978,107.279L76.709,107.112L76.442,106.947L76.175,106.784L75.909,106.622L75.644,106.463L75.379,106.305L75.117,106.15L74.854,105.996L74.593,105.844L74.332,105.694L74.073,105.546L73.814,105.399L73.556,105.254L73.3,105.112L73.044,104.971L72.789,104.832L72.535,104.695L72.282,104.56L72.029,104.426L71.778,104.294L71.528,104.165L71.278,104.036L71.029,103.91L70.782,103.785L70.535,103.662L70.289,103.541L70.045,103.422L69.801,103.304L69.557,103.188L69.315,103.074L69.074,102.962L68.834,102.851L68.595,102.742L68.356,102.635L68.119,102.529L67.882,102.425L67.646,102.323L67.411,102.222L67.177,102.123L66.945,102.026L66.713,101.93L66.482,101.836L66.251,101.744L66.022,101.653L65.794,101.564L65.567,101.476L65.34,101.39L65.115,101.306L64.89,101.223L64.666,101.142L64.443,101.062L64.222,100.984L64,100.907L63.78,100.832L63.562,100.759L63.343,100.687L63.125,100.616L62.909,100.547L62.694,100.48L62.479,100.414L62.265,100.349L62.053,100.286L61.841,100.224L61.63,100.164L61.42,100.105L61.21,100.048L61.002,99.992L60.795,99.938L60.589,99.885L60.383,99.833L60.178,99.783L59.974,99.734L59.771,99.687L59.569,99.641L59.368,99.596L59.168,99.552L58.969,99.51L58.77,99.47L58.572,99.43L58.376,99.392L58.18,99.356L57.985,99.32L57.79,99.286L57.597,99.253L57.405,99.222L57.213,99.191L57.022,99.162L56.833,99.134L56.644,99.108L56.456,99.082L56.268,99.058L56.082,99.035L55.896,99.014L55.711,98.993L55.527,98.974L55.344,98.956L55.161,98.939L54.98,98.923L54.799,98.909L54.62,98.895L54.44,98.883L54.262,98.872L54.084,98.862L53.908,98.853L53.732,98.845L53.557,98.838L53.382,98.833L53.209,98.828L53.036,98.825L52.864,98.823L52.693,98.821L52.522,98.821L52.352,98.822L52.184,98.824L52.015,98.827L51.847,98.831L51.681,98.836L51.515,98.842L51.349,98.849L51.184,98.857L51.021,98.866L50.857,98.876L50.695,98.887L50.533,98.899L50.372,98.912L50.211,98.926L50.052,98.941L49.893,98.957L49.734,98.974L49.576,98.992L49.42,99.01L49.263,99.03L49.107,99.051L48.952,99.072L48.798,99.095L48.644,99.118L48.49,99.142L48.338,99.167L48.186,99.193L48.035,99.22L47.884,99.248L47.734,99.277L47.584,99.307L47.435,99.337L47.287,99.368L47.139,99.401L46.991,99.434L46.845,99.467L46.699,99.502L46.553,99.538L46.408,99.574L46.264,99.612L46.12,99.65L45.977,99.689L45.834,99.729L45.692,99.769L45.55,99.811L45.409,99.853L45.268,99.896L45.128,99.94L44.988,99.985L44.849,100.03L44.71,100.077L44.572,100.124L44.435,100.172L44.298,100.22L44.16,100.27L44.024,100.32L43.889,100.371L43.754,100.423L43.619,100.476L43.484,100.529L43.35,100.583L43.217,100.638L43.084,100.694L42.951,100.75L42.819,100.808L42.688,100.866L42.556,100.925L42.426,100.984L42.296,101.044L42.165,101.105L42.036,101.167L41.907,101.23L41.779,101.293L41.65,101.357L41.523,101.422L41.395,101.487L41.268,101.553L41.142,101.62L41.015,101.688L40.89,101.757L40.765,101.825L40.64,101.895L40.515,101.966L40.391,102.037L40.268,102.109L40.144,102.182L40.021,102.255L39.899,102.329L39.777,102.404L39.655,102.48L39.534,102.556L39.413,102.633L39.293,102.71L39.172,102.789L39.052,102.868L38.933,102.947L38.814,103.028L38.696,103.109L38.578,103.19L38.459,103.273L38.342,103.356L38.225,103.44L38.108,103.524L37.992,103.609L37.876,103.695L37.76,103.782L37.646,103.868L37.531,103.956L37.416,104.045L37.302,104.134L37.189,104.223L37.076,104.313L36.962,104.405L36.85,104.496L36.738,104.588L36.626,104.681L36.514,104.775L36.404,104.869L36.293,104.963L36.183,105.058L36.073,105.155L35.964,105.251L35.855,105.348L35.746,105.445L35.638,105.544L35.53,105.643L35.422,105.743L35.315,105.842L35.209,105.942L35.102,106.044L34.995,106.146L34.89,106.249L34.785,106.351L34.68,106.454L34.576,106.558L34.471,106.663L34.367,106.769L34.265,106.874L34.162,106.98L34.059,107.088L33.957,107.195L33.856,107.302L33.754,107.41L33.653,107.519L33.557,107.624L33.353,107.849L33.154,108.071L32.958,108.296L32.763,108.522L32.569,108.75L32.377,108.98L32.187,109.211L31.999,109.445L31.812,109.68L31.626,109.917L31.443,110.156L31.261,110.396L31.081,110.637L30.901,110.881L30.725,111.125L30.549,111.371L30.376,111.619L30.204,111.868L30.034,112.118L29.865,112.369L29.698,112.622L29.533,112.876L29.37,113.131L29.208,113.387L29.048,113.645L28.89,113.903L28.734,114.162L28.579,114.422L28.426,114.682L28.275,114.944L28.125,115.207L27.978,115.47L27.832,115.733L27.687,115.998L27.545,116.263L27.405,116.529L27.265,116.795L27.128,117.061L26.993,117.328L26.86,117.595L26.728,117.862L26.598,118.131L26.47,118.399L26.344,118.666L26.219,118.935L26.096,119.203L25.975,119.471L25.856,119.739L25.738,120.007L25.623,120.275L25.509,120.543L25.397,120.81L25.287,121.077L25.178,121.344L25.072,121.61L24.967,121.876L24.864,122.141L24.763,122.406L24.663,122.67L24.565,122.934L24.47,123.196L24.376,123.458L24.283,123.719L24.193,123.98L24.104,124.24L24.017,124.498L23.932,124.755L23.849,125.011L23.767,125.266L23.688,125.52L23.61,125.773L23.534,126.024L23.459,126.274L23.387,126.523L23.316,126.77L23.247,127.015L23.179,127.259L23.114,127.502L23.05,127.742L22.988,127.981L22.928,128.218L22.87,128.453L22.813,128.686L22.758,128.917L22.704,129.146L22.653,129.373L22.603,129.599L22.555,129.821L22.509,130.041L22.464,130.258L22.421,130.474L22.38,130.687L22.341,130.897L22.303,131.105L22.267,131.309L22.232,131.511L22.2,131.71L22.169,131.906L22.139,132.1L22.111,132.289L22.085,132.476L22.061,132.66L22.038,132.84L22.017,133.016L21.997,133.188L21.979,133.359L21.962,133.523L21.947,133.685L21.934,133.843L21.922,133.995L21.911,134.145L21.902,134.29L21.894,134.429L21.888,134.564L21.883,134.695L21.879,134.821L21.877,134.942L21.875,135.056L21.875,135.173L21.876,135.403L21.879,135.641L21.883,135.877L21.888,136.113L21.895,136.347L21.902,136.581L21.911,136.815L21.922,137.047L21.933,137.279L21.946,137.51L21.96,137.74L21.975,137.97L21.992,138.199L22.009,138.426L22.029,138.653L22.049,138.88L22.07,139.106L22.093,139.33L22.117,139.555L22.142,139.778L22.168,140L22.196,140.222L22.225,140.443L22.255,140.663L22.286,140.882L22.319,141.101L22.352,141.318L22.387,141.535L22.423,141.751L22.461,141.967L22.499,142.181L22.539,142.394L22.58,142.607L22.622,142.82L22.665,143.03L22.709,143.241L22.755,143.451L22.802,143.66L22.85,143.868L22.899,144.075L22.949,144.282L23.001,144.486L23.053,144.691L23.107,144.896L23.162,145.098L23.218,145.301L23.275,145.502L23.334,145.703L23.394,145.903L23.454,146.102L23.516,146.3L23.579,146.497L23.643,146.694L23.709,146.89L23.775,147.085L23.843,147.279L23.911,147.472L23.981,147.665L24.052,147.856L24.125,148.047L24.198,148.237L24.272,148.426L24.348,148.614L24.425,148.802L24.502,148.989L24.581,149.175L24.661,149.359L24.743,149.544L24.825,149.728L24.908,149.91L24.993,150.092L25.079,150.273L25.165,150.453L25.253,150.633L25.342,150.811L25.432,150.988L25.524,151.166L25.616,151.343L25.709,151.517L25.804,151.692L25.9,151.866L25.997,152.039L26.095,152.211L26.194,152.382L26.294,152.553L26.395,152.722L26.498,152.891L26.602,153.06L26.706,153.227L26.812,153.393L26.919,153.559L27.028,153.724L27.137,153.888L27.247,154.052L27.359,154.214L27.471,154.375L27.585,154.537L27.7,154.697L27.816,154.857L27.933,155.015L28.051,155.172L28.171,155.33L28.292,155.486L28.413,155.641L28.537,155.796L28.661,155.95L28.786,156.103L28.912,156.255L29.04,156.407L29.168,156.557L29.298,156.707L29.43,156.857L29.562,157.005L29.695,157.152L29.83,157.299L29.965,157.445L30.103,157.591L30.241,157.735L30.38,157.878L30.521,158.022L30.662,158.163L30.805,158.304L30.95,158.445L31.095,158.585L31.241,158.723L31.389,158.862L31.538,158.999L31.688,159.135L31.84,159.271L31.992,159.406L32.146,159.54L32.302,159.674L32.458,159.806L32.615,159.937L32.774,160.069L32.934,160.198L33.096,160.328L33.258,160.456L33.422,160.584L33.587,160.71L33.754,160.836L33.921,160.962L34.09,161.086L34.261,161.21L34.432,161.332L34.605,161.454L34.779,161.575L34.954,161.695L35.131,161.814L35.309,161.933L35.488,162.051L35.669,162.167L35.851,162.283L36.034,162.398L36.219,162.513L36.404,162.626L36.592,162.738L36.781,162.85L36.97,162.961L37.161,163.07L37.354,163.179L37.548,163.288L37.743,163.395L37.94,163.501L38.138,163.606L38.337,163.711L38.538,163.814L38.74,163.917L38.943,164.019L39.148,164.119L39.354,164.219L39.562,164.318L39.77,164.416L39.981,164.513L40.192,164.609L40.405,164.705L40.62,164.799L40.836,164.892L41.053,164.984L41.272,165.076L41.492,165.166L41.713,165.255L41.936,165.344L42.16,165.431L42.386,165.517L42.613,165.603L42.841,165.687L43.071,165.77L43.303,165.853L43.535,165.934L43.769,166.014L44.005,166.094L44.242,166.172L44.48,166.249L44.72,166.325L44.962,166.4L45.204,166.474L45.448,166.547L45.694,166.619L45.941,166.689L46.189,166.759L46.439,166.828L46.691,166.895L46.943,166.961L47.197,167.027L47.453,167.091L47.71,167.154L47.969,167.216L48.229,167.276L48.49,167.336L48.753,167.394L49.017,167.452L49.283,167.508L49.55,167.563L49.819,167.617L50.089,167.67L50.36,167.721L50.634,167.771L50.908,167.82L51.184,167.868L51.461,167.915L51.74,167.961L52.021,168.005L52.302,168.048L52.586,168.09L52.87,168.13L53.156,168.17L53.444,168.208L53.733,168.245L54.023,168.281L54.315,168.315L54.608,168.348L54.903,168.38L55.2,168.411L55.497,168.44L55.796,168.468L56.097,168.495L56.399,168.52L56.703,168.544L57.008,168.567L57.314,168.589L57.622,168.609L57.931,168.628L58.242,168.645L58.554,168.661L58.868,168.676L59.183,168.69L59.5,168.702L59.818,168.713L60.137,168.722L60.458,168.73L60.781,168.737L61.104,168.742L61.429,168.746L61.756,168.749L62.087,168.75L237.709,168.75L237.754,168.747L237.998,168.729L238.243,168.71L238.488,168.689L238.732,168.668L238.976,168.645L239.221,168.622L239.464,168.597L239.708,168.571L239.951,168.544L240.195,168.515L240.438,168.486L240.681,168.455L240.923,168.424L241.166,168.391L241.408,168.357L241.65,168.322L241.892,168.286L242.133,168.248L242.374,168.21L242.615,168.17L242.856,168.129L243.097,168.088L243.336,168.045L243.576,168.001L243.816,167.955L244.055,167.909L244.294,167.861L244.532,167.813L244.77,167.763L245.008,167.712L245.246,167.66L245.483,167.607L245.719,167.553L245.956,167.498L246.192,167.441L246.428,167.383L246.662,167.325L246.897,167.265L247.132,167.204L247.365,167.142L247.599,167.079L247.832,167.014L248.065,166.949L248.297,166.883L248.529,166.815L248.76,166.746L248.991,166.676L249.222,166.605L249.451,166.533L249.681,166.46L249.91,166.386L250.138,166.311L250.366,166.234L250.593,166.157L250.82,166.078L251.047,165.998L251.272,165.917L251.497,165.835L251.722,165.752L251.946,165.668L252.17,165.583L252.393,165.496L252.616,165.409L252.838,165.32L253.058,165.231L253.279,165.14L253.499,165.048L253.719,164.955L253.938,164.861L254.156,164.766L254.373,164.67L254.59,164.573L254.807,164.474L255.023,164.375L255.238,164.274L255.452,164.173L255.666,164.07L255.879,163.966L256.091,163.861L256.303,163.755L256.514,163.649L256.724,163.54L256.934,163.431L257.143,163.321L257.35,163.21L257.559,163.097L257.765,162.984L257.971,162.87L258.177,162.754L258.382,162.637L258.584,162.52L258.788,162.401L258.991,162.281L259.192,162.16L259.392,162.039L259.592,161.916L259.792,161.791L259.991,161.666L260.188,161.54L260.384,161.413L260.581,161.284L260.776,161.155L260.97,161.025L261.164,160.893L261.357,160.76L261.548,160.627L261.74,160.492L261.93,160.357L262.119,160.22L262.308,160.082L262.496,159.943L262.683,159.803L262.869,159.662L263.053,159.521L263.238,159.378L263.421,159.234L263.603,159.089L263.786,158.942L263.966,158.795L264.145,158.647L264.324,158.497L264.502,158.347L264.68,158.195L264.855,158.043L265.03,157.89L265.205,157.735L265.379,157.579L265.551,157.422L265.722,157.265L265.893,157.106L266.062,156.946L266.231,156.785L266.399,156.623L266.565,156.461L266.73,156.297L266.896,156.131L267.06,155.965L267.222,155.798L267.384,155.63L267.545,155.461L267.705,155.29L267.864,155.119L268.021,154.947L268.178,154.773L268.334,154.599L268.489,154.422L268.642,154.246L268.795,154.068L268.947,153.889L269.097,153.71L269.247,153.528L269.396,153.346L269.543,153.163L269.689,152.979L269.835,152.794L269.979,152.608L270.123,152.42L270.265,152.231L270.406,152.042L270.546,151.852L270.685,151.66L270.823,151.467L270.96,151.273L271.096,151.078L271.23,150.882L271.364,150.685L271.496,150.486L271.627,150.287L271.757,150.087L271.887,149.884L272.014,149.682L272.141,149.479L272.266,149.274L272.391,149.068L272.514,148.86L272.637,148.651L272.758,148.442L272.877,148.232L272.996,148.02L273.113,147.807L273.23,147.593L273.345,147.378L273.459,147.162L273.572,146.945L273.683,146.726L273.794,146.506L273.903,146.286L274.011,146.064L274.117,145.841L274.223,145.615L274.327,145.39L274.43,145.164L274.532,144.936L274.633,144.706L274.732,144.476L274.83,144.245L274.926,144.012L275.022,143.778L275.116,143.543L275.209,143.308L275.3,143.07L275.391,142.83L275.48,142.591L275.567,142.35L275.654,142.108L275.739,141.864L275.823,141.62L275.905,141.373L275.986,141.125L276.066,140.878L276.144,140.627L276.221,140.377L276.296,140.125L276.371,139.87L276.444,139.616L276.515,139.361L276.585,139.104L276.654,138.843L276.721,138.584L276.786,138.323L276.851,138.06L276.914,137.798L276.975,137.533L277.035,137.265L277.094,136.997L277.151,136.729L277.206,136.46L277.26,136.187L277.313,135.915L277.364,135.641L277.414,135.364L277.462,135.088L277.508,134.81L277.553,134.531L277.597,134.25L277.638,133.968L277.679,133.684L277.718,133.399L277.755,133.113L277.791,132.825L277.824,132.537L277.857,132.248L277.888,131.955L277.917,131.661L277.944,131.369L277.97,131.072L277.995,130.775L278.017,130.477L278.038,130.176L278.057,129.876L278.075,129.573L278.091,129.269L278.105,128.964L278.117,128.658L278.119,128.61L278.102,128.292L278.068,127.713L278.033,127.138L277.995,126.568L277.956,126.002L277.914,125.44L277.87,124.881L277.824,124.327L277.776,123.777L277.726,123.231L277.674,122.688L277.621,122.151L277.565,121.617L277.507,121.087L277.447,120.56L277.385,120.039L277.321,119.522L277.255,119.007L277.188,118.498L277.118,117.992L277.046,117.49L276.973,116.993L276.897,116.5L276.82,116.01L276.741,115.524L276.659,115.043L276.576,114.565L276.491,114.092L276.404,113.623L276.316,113.157L276.225,112.696L276.133,112.239L276.038,111.786L275.942,111.337L275.844,110.892L275.745,110.45L275.643,110.013L275.54,109.579L275.435,109.15L275.328,108.725L275.219,108.304L275.109,107.887L274.997,107.474L274.883,107.064L274.766,106.654L274.71,106.459L274.651,106.258L274.592,106.059L274.532,105.862L274.472,105.664L274.411,105.467L274.35,105.271L274.289,105.078L274.228,104.886L274.165,104.693L274.102,104.501L274.04,104.312L273.977,104.123L273.913,103.934L273.848,103.746L273.784,103.561L273.719,103.375L273.653,103.19L273.588,103.008L273.522,102.826L273.455,102.644L273.388,102.464L273.321,102.285L273.253,102.106L273.185,101.928L273.117,101.753L273.048,101.577L272.979,101.401L272.909,101.229L272.839,101.056L272.769,100.885L272.698,100.714L272.627,100.544L272.556,100.376L272.484,100.208L272.412,100.041L272.339,99.876L272.266,99.711L272.193,99.547L272.12,99.385L272.045,99.223L271.971,99.061L271.896,98.901L271.821,98.743L271.746,98.586L271.67,98.427L271.593,98.27L271.517,98.116L271.44,97.961L271.364,97.809L271.286,97.656L271.208,97.504L271.13,97.354L271.051,97.203L270.973,97.056L270.893,96.908L270.814,96.761L270.733,96.615L270.654,96.471L270.573,96.327L270.492,96.183L270.412,96.042L270.329,95.899L270.247,95.759L270.166,95.621L270.083,95.482L270,95.344L269.918,95.209L269.834,95.073L269.75,94.936L269.666,94.804L269.582,94.67L269.497,94.538L269.413,94.408L269.326,94.276L269.241,94.146L269.156,94.019L269.07,93.891L268.983,93.764L268.896,93.638L268.809,93.513L268.722,93.39L268.634,93.267L268.545,93.143L268.457,93.021L268.369,92.901L268.28,92.782L268.191,92.663L268.101,92.544L268.012,92.427L267.921,92.31L267.831,92.195L267.741,92.08L267.649,91.966L267.558,91.853L267.467,91.741L267.376,91.631L267.283,91.519L267.19,91.409L267.098,91.301L267.006,91.193L266.911,91.085L266.818,90.978L266.725,90.873L266.629,90.767L266.535,90.663L266.442,90.561L266.345,90.458L266.25,90.356L266.156,90.256L266.059,90.155L265.962,90.056L265.866,89.957L265.769,89.859L265.672,89.762L265.575,89.666L265.478,89.571L265.38,89.476L265.281,89.382L265.182,89.288L265.084,89.197L264.985,89.105L264.885,89.013L264.785,88.922L264.685,88.833L264.585,88.745L264.484,88.656L264.383,88.569L264.282,88.483L264.18,88.397L264.079,88.312L263.975,88.227L263.873,88.143L263.77,88.06L263.667,87.977L263.564,87.896L263.459,87.814L263.355,87.734L263.25,87.655L263.146,87.576L263.041,87.498L262.936,87.421L262.83,87.343L262.722,87.267L262.616,87.191L262.51,87.117L262.402,87.042L262.295,86.969L262.187,86.896L262.077,86.823L261.969,86.752L261.861,86.682L261.752,86.611L261.641,86.541L261.53,86.472L261.42,86.404L261.311,86.337L261.198,86.269L261.086,86.202L260.976,86.137L260.862,86.072L260.75,86.007L260.637,85.944L260.523,85.88L260.409,85.818L260.295,85.756L260.179,85.694L260.064,85.633L259.949,85.573L259.832,85.513L259.716,85.455L259.6,85.396L259.482,85.339L259.365,85.282L259.247,85.225L259.127,85.169L259.009,85.114L258.889,85.059L258.769,85.005L258.65,84.952L258.528,84.899L258.407,84.847L258.286,84.795L258.163,84.744L258.041,84.694L257.918,84.644L257.794,84.595L257.67,84.546L257.546,84.498L257.42,84.45L257.295,84.404L257.17,84.358L257.044,84.312L256.916,84.267L256.789,84.223L256.661,84.179L256.533,84.136L256.404,84.093L256.275,84.051L256.146,84.01L256.014,83.969L255.884,83.929L255.753,83.889L255.621,83.85L255.489,83.812L255.356,83.774L255.223,83.737L255.089,83.7L254.954,83.664L254.819,83.629L254.684,83.594L254.549,83.56L254.412,83.526L254.274,83.493L254.137,83.461L254,83.429L253.861,83.398L253.722,83.368L253.582,83.338L253.442,83.308L253.301,83.28L253.159,83.251L253.018,83.224L252.876,83.197L252.732,83.171L252.589,83.145L252.445,83.12L252.301,83.096L252.155,83.072L252.009,83.049L251.864,83.027L251.717,83.005L251.569,82.984L251.422,82.963L251.273,82.943L251.124,82.924L250.974,82.905L250.824,82.887L250.674,82.869L250.522,82.852L250.371,82.836L250.218,82.821L250.065,82.806L249.912,82.791L249.757,82.778L249.603,82.765L249.448,82.752L249.292,82.741L249.135,82.73L248.978,82.719L248.821,82.709L248.663,82.7L248.504,82.692L248.345,82.684L248.185,82.677L248.025,82.67L247.864,82.664L247.702,82.659L247.54,82.654L247.378,82.65L247.215,82.647L247.05,82.645L246.886,82.643L246.721,82.641L246.556,82.641L246.39,82.641L246.223,82.641L246.056,82.643L245.888,82.645L245.72,82.648L245.55,82.651L245.387,82.655L245.041,82.665L244.697,82.678L244.352,82.693L244.005,82.712L243.655,82.732L243.303,82.756L242.948,82.782L242.592,82.812L242.233,82.843L241.872,82.878L241.508,82.915L241.143,82.955L240.775,82.998L240.405,83.044L240.033,83.092L239.659,83.143L239.282,83.197L238.903,83.254L238.522,83.313L238.139,83.376L237.753,83.441L237.366,83.509L236.976,83.579L236.584,83.653L236.19,83.729L235.794,83.808L235.395,83.89L234.995,83.975L234.592,84.062L234.188,84.153L233.781,84.246L233.372,84.342L232.961,84.441L232.548,84.543L232.133,84.647L231.716,84.754L231.296,84.864L230.875,84.977L230.452,85.093L230.026,85.212L229.599,85.333L229.169,85.457L228.738,85.585L228.304,85.714L227.869,85.847L227.431,85.983L226.992,86.121L226.55,86.262L226.107,86.406L225.661,86.553L225.214,86.703L224.765,86.855L224.314,87.01L223.86,87.169L223.405,87.329L222.948,87.493L222.489,87.66L222.028,87.829L221.565,88.001L221.101,88.176L220.634,88.354L220.166,88.534L219.695,88.717L219.223,88.903L218.749,89.092L218.273,89.284L217.795,89.478L217.316,89.676L216.834,89.876L216.351,90.078L215.866,90.284L215.379,90.492L214.89,90.703L214.399,90.917L207.501,93.951L207.459,93.932L205.265,86.791L205.125,86.339L204.985,85.891L204.845,85.445L204.704,85.001L204.562,84.56L204.421,84.123L204.279,83.687L204.136,83.254L203.993,82.824L203.85,82.396L203.706,81.971L203.562,81.548L203.417,81.128L203.272,80.711L203.127,80.296L202.981,79.884L202.834,79.474L202.688,79.067L202.541,78.663L202.393,78.26L202.244,77.86L202.096,77.463L201.947,77.07L201.797,76.678L201.647,76.288L201.497,75.901L201.346,75.517L201.194,75.135L201.042,74.756L200.89,74.379L200.737,74.005L200.583,73.633L200.43,73.264L200.275,72.897L200.12,72.532L199.964,72.171L199.809,71.812L199.652,71.456L199.495,71.101L199.337,70.748L199.179,70.4L199.021,70.053L198.862,69.708L198.702,69.366L198.542,69.026L198.381,68.69L198.219,68.355L198.058,68.022L197.895,67.693L197.732,67.365L197.569,67.04L197.405,66.717L197.24,66.397L197.075,66.079L196.909,65.764L196.743,65.451L196.576,65.141L196.408,64.831L196.24,64.525L196.072,64.222L195.902,63.92L195.732,63.621L195.562,63.325L195.391,63.031L195.219,62.738L195.047,62.449L194.875,62.162L194.701,61.876L194.527,61.593L194.352,61.313L194.177,61.035L194.001,60.758L193.824,60.484L193.648,60.213L193.47,59.944L193.291,59.676L193.113,59.412L192.933,59.15L192.752,58.888L192.571,58.63L192.39,58.374L192.207,58.12L192.025,57.868L191.841,57.619L191.656,57.371L191.471,57.126L191.285,56.882L191.099,56.641L190.913,56.402L190.725,56.165L190.536,55.929L190.347,55.696L190.157,55.466L189.966,55.237L189.775,55.01L189.583,54.785L189.39,54.562L189.196,54.341L189.002,54.123L188.807,53.906L188.611,53.691L188.415,53.478L188.217,53.267L188.018,53.057L187.82,52.85L187.62,52.645L187.419,52.441L187.217,52.239L187.015,52.04L186.811,51.841L186.607,51.645L186.403,51.451L186.197,51.259L185.99,51.068L185.782,50.878L185.574,50.691L185.364,50.506L185.154,50.322L184.942,50.14L184.73,49.959L184.516,49.781L184.302,49.604L184.087,49.429L183.87,49.255L183.654,49.083L183.435,48.913L183.215,48.744L182.994,48.577L182.773,48.412L182.551,48.248L182.326,48.085L182.101,47.925L181.876,47.766L181.648,47.608L181.42,47.452L181.19,47.297L180.959,47.144L180.727,46.993L180.494,46.843L180.259,46.694L180.023,46.547L179.786,46.402L179.548,46.258L179.309,46.115L179.068,45.974L178.826,45.835L178.582,45.696L178.337,45.56L178.091,45.424L177.843,45.29L177.593,45.158L177.343,45.027L177.091,44.897L176.837,44.769L176.582,44.642L176.326,44.517L176.068,44.392L175.809,44.27L175.548,44.148L175.285,44.028L175.021,43.909L174.756,43.792L174.489,43.676L174.219,43.561L173.949,43.448L173.677,43.337L173.404,43.226L173.129,43.117L172.851,43.009L172.572,42.902L172.292,42.797L172.01,42.693L171.726,42.591L171.441,42.489L171.153,42.39L170.864,42.291L170.574,42.194L170.282,42.098L169.987,42.003L169.69,41.91L169.393,41.818L169.093,41.727L168.792,41.638L168.488,41.55L168.183,41.463L167.876,41.377L167.567,41.293L167.256,41.21L166.943,41.129L166.628,41.049L166.311,40.97L165.993,40.892L165.673,40.816L165.35,40.741L165.026,40.667L164.699,40.595L164.371,40.523L164.041,40.454L163.709,40.385L163.374,40.318L163.038,40.252L162.7,40.187L162.36,40.124L162.017,40.062L161.673,40.001L161.327,39.942L160.978,39.883L160.628,39.826L160.275,39.771L159.921,39.716L159.565,39.663L159.206,39.612L158.845,39.561L158.482,39.512L158.117,39.464L157.75,39.417L157.381,39.372L157.01,39.328L156.637,39.285L156.261,39.244L155.883,39.203L155.504,39.165L155.122,39.127L154.737,39.09L154.351,39.055L153.963,39.021L153.572,38.989L153.18,38.957L152.785,38.927L152.388,38.898L151.989,38.871L151.587,38.845L151.184,38.819L150.778,38.796L150.37,38.773L149.96,38.752L149.547,38.732L149.132,38.713L148.716,38.695L148.296,38.679L147.875,38.664L147.452,38.65L147.026,38.637L146.598,38.626L146.167,38.615L145.735,38.607L145.3,38.599L144.863,38.592L144.424,38.587L143.982,38.583L143.538,38.58L143.092,38.578L142.644,38.578L142.193,38.578Z" style="fill:#989898;"/>
    <path d="M62.076,175C31.739,174.958 15.697,158.382 15.625,135.185C15.58,120.755 33.891,68.846 85.301,105.324C85.758,59.14 109.571,32.506 141.705,32.33C181.853,32.111 199.135,45.374 211.381,85.417C255.097,66.103 281.671,76.582 284.375,128.549C283.433,157.957 261.314,173.44 237.924,175L62.076,175Z" style="fill:url(#_Radial1);"/>
    <path d="M193.75,250.521L199.27,240.959L194.675,228.466L198.586,227.028L201.982,236.262L206.008,229.289L209.617,231.372L205.591,238.345L215.286,236.67L215.995,240.776L202.879,243.043L197.358,252.604L208.399,252.604L216.921,242.378C217.988,243.267 219.055,244.157 220.122,245.046L213.823,252.604L221.875,252.604L221.875,256.771L213.823,256.771L220.122,264.329L216.921,266.997C214.076,263.583 211.142,260.243 208.369,256.771L197.358,256.771L202.879,266.332L215.995,268.599C215.759,269.968 215.522,271.337 215.286,272.705L205.591,271.03L209.617,278.003L206.008,280.086L201.982,273.113L198.586,282.347L194.675,280.909C196.209,276.738 197.635,272.526 199.255,268.39L193.75,258.854L188.23,268.416L192.825,280.909C191.521,281.388 190.218,281.867 188.914,282.347L185.518,273.113L181.492,280.086L177.883,278.003L181.909,271.03L172.214,272.705L171.505,268.599C175.883,267.843 180.243,266.971 184.636,266.306L190.142,256.771L179.101,256.771L170.579,266.997L167.378,264.329L173.677,256.771L165.625,256.771L165.625,252.604L173.677,252.604L167.378,245.046L170.579,242.378L179.101,252.604L190.142,252.604L184.621,243.043L171.505,240.776L172.214,236.67L181.909,238.345L177.883,231.372L181.492,229.289L185.518,236.262L188.914,227.028L192.825,228.466L188.23,240.959L193.75,250.521Z" style="fill:none;stroke:#d4d4d4;stroke-width:12.5px;"/>
    <path d="M193.75,250.521L199.27,240.959L194.675,228.466L198.586,227.028L201.982,236.262L206.008,229.289L209.617,231.372L205.591,238.345L215.286,236.67L215.995,240.776L202.879,243.043L197.358,252.604L208.399,252.604L216.921,242.378C217.988,243.267 219.055,244.157 220.122,245.046L213.823,252.604L221.875,252.604L221.875,256.771L213.823,256.771L220.122,264.329L216.921,266.997C214.076,263.583 211.142,260.243 208.369,256.771L197.358,256.771L202.879,266.332L215.995,268.599C215.759,269.968 215.522,271.337 215.286,272.705L205.591,271.03L209.617,278.003L206.008,280.086L201.982,273.113L198.586,282.347L194.675,280.909C196.209,276.738 197.635,272.526 199.255,268.39L193.75,258.854L188.23,268.416L192.825,280.909C191.521,281.388 190.218,281.867 188.914,282.347L185.518,273.113L181.492,280.086L177.883,278.003L181.909,271.03L172.214,272.705L171.505,268.599C175.883,267.843 180.243,266.971 184.636,266.306L190.142,256.771L179.101,256.771L170.579,266.997L167.378,264.329L173.677,256.771L165.625,256.771L165.625,252.604L173.677,252.604L167.378,245.046L170.579,242.378L179.101,252.604L190.142,252.604L184.621,243.043L171.505,240.776L172.214,236.67L181.909,238.345L177.883,231.372L181.492,229.289L185.518,236.262L188.914,227.028L192.825,228.466L188.23,240.959L193.75,250.521Z" style="fill:#fff;fill-rule:nonzero;"/>
    <path d="M59.375,223.961L64.895,214.4L60.3,201.907L64.211,200.469L67.607,209.703L71.633,202.73L75.242,204.813L71.216,211.786L80.911,210.11L81.62,214.216L68.504,216.483L62.983,226.045L74.024,226.045L82.546,215.819C83.613,216.708 84.68,217.597 85.747,218.486L79.448,226.045L87.5,226.045L87.5,230.211L79.448,230.211L85.747,237.77L82.546,240.437C79.701,237.024 76.766,233.683 73.994,230.211L62.983,230.211L68.504,239.773L81.62,242.04C81.384,243.409 81.147,244.777 80.911,246.146L71.216,244.47L75.242,251.443L71.633,253.527L67.607,246.554L64.211,255.788L60.3,254.349C61.834,250.179 63.26,245.967 64.88,241.83L59.375,232.295L53.855,241.856L58.45,254.349C57.146,254.829 55.843,255.308 54.539,255.788L51.143,246.554L47.117,253.527L43.508,251.443L47.534,244.47L37.839,246.146L37.13,242.04C41.508,241.283 45.868,240.412 50.261,239.747L55.767,230.211L44.726,230.211L36.204,240.437L33.003,237.77L39.302,230.211L31.25,230.211L31.25,226.045L39.302,226.045L33.003,218.486L36.204,215.819L44.726,226.045L55.767,226.045L50.246,216.483L37.13,214.216L37.839,210.11L47.534,211.786L43.508,204.813L47.117,202.73L51.143,209.703L54.539,200.469L58.45,201.907L53.855,214.4L59.375,223.961Z" style="fill:none;stroke:#d4d4d4;stroke-width:12.5px;"/>
    <path d="M59.375,223.961L64.895,214.4L60.3,201.907L64.211,200.469L67.607,209.703L71.633,202.73L75.242,204.813L71.216,211.786L80.911,210.11L81.62,214.216L68.504,216.483L62.983,226.045L74.024,226.045L82.546,215.819C83.613,216.708 84.68,217.597 85.747,218.486L79.448,226.045L87.5,226.045L87.5,230.211L79.448,230.211L85.747,237.77L82.546,240.437C79.701,237.024 76.766,233.683 73.994,230.211L62.983,230.211L68.504,239.773L81.62,242.04C81.384,243.409 81.147,244.777 80.911,246.146L71.216,244.47L75.242,251.443L71.633,253.527L67.607,246.554L64.211,255.788L60.3,254.349C61.834,250.179 63.26,245.967 64.88,241.83L59.375,232.295L53.855,241.856L58.45,254.349C57.146,254.829 55.843,255.308 54.539,255.788L51.143,246.554L47.117,253.527L43.508,251.443L47.534,244.47L37.839,246.146L37.13,242.04C41.508,241.283 45.868,240.412 50.261,239.747L55.767,230.211L44.726,230.211L36.204,240.437L33.003,237.77L39.302,230.211L31.25,230.211L31.25,226.045L39.302,226.045L33.003,218.486L36.204,215.819L44.726,226.045L55.767,226.045L50.246,216.483L37.13,214.216L37.839,210.11L47.534,211.786L43.508,204.813L47.117,202.73L51.143,209.703L54.539,200.469L58.45,201.907L53.855,214.4L59.375,223.961Z" style="fill:#fff;fill-rule:nonzero;"/>
    <path d="M147.118,162.772C133.107,183.026 118.83,196.35 115.868,206.522C113.166,215.802 133.578,234.629 147.118,219.022C155.537,209.317 156.117,192.712 147.118,162.772Z" style="fill:none;stroke:#00658e;stroke-width:12.5px;stroke-linecap:round;stroke-miterlimit:1.5;"/>
    <path d="M147.118,162.772C133.107,183.026 118.83,196.35 115.868,206.522C113.166,215.802 133.578,234.629 147.118,219.022C155.537,209.317 156.117,192.712 147.118,162.772Z" style="fill:url(#_Radial2);"/>
    <defs>
        <radialGradient id="_Radial1" cx="0" cy="0" r="1" gradientUnits="userSpaceOnUse" gradientTransform="matrix(268.75,0,0,268.75,68.75,62.5)"><stop offset="0" style="stop-color:#d0d0d0;stop-opacity:1"/><stop offset="0.33" style="stop-color:#d0d0d0;stop-opacity:1"/><stop offset="0.42" style="stop-color:#d0d0d0;stop-opacity:1"/><stop offset="0.5" style="stop-color:#d1d1d1;stop-opacity:1"/><stop offset="0.5" style="stop-color:#bcbcbc;stop-opacity:1"/><stop offset="0.58" style="stop-color:#bdbdbd;stop-opacity:1"/><stop offset="0.67" style="stop-color:#bdbdbd;stop-opacity:1"/><stop offset="1" style="stop-color:#bdbdbd;stop-opacity:1"/></radialGradient>
        <radialGradient id="_Radial2" cx="0" cy="0" r="1" gradientUnits="userSpaceOnUse" gradientTransform="matrix(106.994,0,0,106.994,93.9932,173.709)"><stop offset="0" style="stop-color:#00aff0;stop-opacity:1"/><stop offset="0.33" style="stop-color:#00b0f0;stop-opacity:1"/><stop offset="0.42" style="stop-color:#00b2f0;stop-opacity:1"/><stop offset="0.5" style="stop-color:#00b5f1;stop-opacity:1"/><stop offset="0.5" style="stop-color:#008dcd;stop-opacity:1"/><stop offset="0.58" style="stop-color:#008fce;stop-opacity:1"/><stop offset="0.67" style="stop-color:#0091cf;stop-opacity:1"/><stop offset="1" style="stop-color:#0092cf;stop-opacity:1"/></radialGradient>
    </defs>
</svg>
